<svg width="64" height="64" viewBox="0 0 64 64" fill="none" xmlns="http://www.w3.org/2000/svg">
<path d="M12.659 17C13.2113 17 13.659 16.5523 13.659 16C13.659 15.4477 13.2113 15 12.659 15C12.1067 15 11.659 15.4477 11.659 16C11.659 16.5523 12.1067 17 12.659 17Z" fill="black"/>
<path d="M18.659 17C19.2113 17 19.659 16.5523 19.659 16C19.659 15.4477 19.2113 15 18.659 15C18.1067 15 17.659 15.4477 17.659 16C17.659 16.5523 18.1067 17 18.659 17Z" fill="black"/>
<path d="M14.366 20.293C13.975 19.902 13.343 19.902 12.952 20.293C12.561 20.684 12.561 21.316 12.952 21.707C13.698 22.453 14.679 22.826 15.659 22.826C16.639 22.826 17.62 22.453 18.366 21.707C18.757 21.316 18.757 20.684 18.366 20.293C17.975 19.902 17.343 19.902 16.952 20.293C16.239 21.006 15.079 21.006 14.366 20.293Z" fill="black"/>
<path d="M12.366 13.707C12.577 13.496 12.74 13.496 12.951 13.707C13.146 13.902 13.403 14 13.659 14C13.915 14 14.171 13.902 14.366 13.707C14.757 13.317 14.757 12.684 14.366 12.293C13.454 11.381 11.863 11.381 10.951 12.293C10.561 12.684 10.561 13.317 10.951 13.707C11.342 14.098 11.976 14.098 12.366 13.707Z" fill="black"/>
<path d="M14.452 18.707L14.952 19.207C15.147 19.402 15.403 19.5 15.659 19.5C15.915 19.5 16.171 19.402 16.366 19.207C16.753 18.819 16.757 18.194 16.376 17.803L16.554 17.448C16.801 16.954 16.601 16.353 16.107 16.106C15.612 15.861 15.012 16.06 14.765 16.553L14.265 17.553C14.072 17.938 14.147 18.402 14.452 18.707Z" fill="black"/>
<path d="M25.632 26.288C25.157 26.004 24.544 26.157 24.259 26.631C23.974 27.105 24.128 27.719 24.601 28.003C26.729 29.281 28 31.522 28 34V45C28 45.553 28.448 46 29 46C29.552 46 30 45.553 30 45V34C30 30.814 28.367 27.932 25.632 26.288Z" fill="black"/>
<path d="M23 45C23 45.553 23.448 46 24 46C24.552 46 25 45.553 25 45V36C25 35.447 24.552 35 24 35C23.448 35 23 35.447 23 36V45Z" fill="black"/>
<path d="M8 35C7.448 35 7 35.447 7 36V45C7 45.553 7.448 46 8 46C8.552 46 9 45.553 9 45V36C9 35.447 8.552 35 8 35Z" fill="black"/>
<path d="M11.071 31.371C11.175 31.631 11.383 31.835 11.644 31.934C11.759 31.979 11.88 32 12 32C12.154 32 12.307 31.965 12.447 31.895L12.74 31.748C13.245 33.061 14.511 34 16 34C16.14 34 16.274 33.975 16.41 33.959L16.965 40.622L16 41.586L15.035 40.621L15.413 36.083C15.459 35.532 15.05 35.049 14.499 35.004C13.945 34.945 13.465 35.366 13.419 35.917L13.002 40.917C12.978 41.21 13.084 41.499 13.292 41.707L15.292 43.707C15.488 43.902 15.744 44 16 44C16.256 44 16.512 43.902 16.707 43.707L18.707 41.707C18.915 41.499 19.021 41.21 18.997 40.917L18.344 33.081C18.746 32.716 19.062 32.264 19.26 31.748L19.553 31.895C19.693 31.965 19.846 32 20 32C20.12 32 20.241 31.979 20.355 31.935C20.616 31.835 20.824 31.631 20.928 31.372L22.928 26.372C23.121 25.89 22.912 25.339 22.447 25.106L20.678 24.221C22.28 22.926 23.374 21.028 23.609 18.874C25.355 18.445 26.659 16.878 26.659 15C26.659 14.351 26.447 13.753 26.095 13.261C26.459 12.557 26.659 11.787 26.659 11C26.659 6.037 22.621 2 17.659 2H13.659C9.239 2 5.505 5.16 4.781 9.514C4.69 10.059 5.058 10.574 5.603 10.664C6.15 10.76 6.663 10.387 6.753 9.842C7.317 6.457 10.221 4 13.659 4H17.659C21.519 4 24.659 7.141 24.659 11C24.659 11.382 24.576 11.757 24.429 12.113C24.181 12.047 23.927 12 23.659 12V11C23.659 10.447 23.211 10 22.659 10H20.902C18.433 10 16.112 9.039 14.366 7.293C14.155 7.081 13.863 6.978 13.56 7.005C13.262 7.034 12.993 7.196 12.827 7.445L12.491 7.949C11.635 9.233 10.202 10 8.659 10C8.107 10 7.659 10.447 7.659 11V12C6.005 12 4.659 13.346 4.659 15C4.659 16.877 5.963 18.444 7.709 18.874C7.957 21.147 9.165 23.131 10.913 24.426L9.553 25.106C9.536 25.115 9.525 25.131 9.508 25.14C5.202 25.86 2 29.595 2 34V45C2 45.553 2.448 46 3 46C3.552 46 4 45.553 4 45V34C4 30.725 6.275 27.923 9.401 27.194L11.071 31.371ZM11.27 26.483L11.803 26.216L14.312 28.725L12.525 29.619L11.27 26.483ZM16 32C15.292 32 14.701 31.506 14.544 30.846L16 30.118L17.456 30.846C17.299 31.506 16.708 32 16 32ZM19.475 29.619L17.688 28.725L20.197 26.216L20.73 26.483L19.475 29.619ZM24.659 15C24.659 15.739 24.256 16.386 23.659 16.731V14C24.21 14 24.659 14.448 24.659 15ZM6.659 15C6.659 14.448 7.108 14 7.659 14V16.731C7.062 16.386 6.659 15.739 6.659 15ZM9.659 18V11.925C11.303 11.674 12.793 10.814 13.833 9.501C15.11 10.538 16.583 11.267 18.16 11.661C17.711 11.75 17.285 11.959 16.951 12.293C16.561 12.684 16.561 13.317 16.951 13.707C17.342 14.098 17.975 14.098 18.366 13.707C18.577 13.496 18.74 13.496 18.951 13.707C19.146 13.902 19.403 14 19.659 14C19.915 14 20.171 13.902 20.366 13.707C20.757 13.317 20.757 12.684 20.366 12.293C20.233 12.16 20.083 12.052 19.925 11.958C20.248 11.986 20.574 12 20.901 12H21.658V18C21.658 21.309 18.967 24 15.658 24C12.349 24 9.659 21.309 9.659 18ZM15.659 26C16.443 26 17.199 25.882 17.916 25.671L16 27.586L14.288 25.874C14.734 25.951 15.19 26 15.659 26Z" fill="black"/>
<path d="M48 51C48.5523 51 49 50.5523 49 50C49 49.4477 48.5523 49 48 49C47.4477 49 47 49.4477 47 50C47 50.5523 47.4477 51 48 51Z" fill="black"/>
<path d="M48 55C48.5523 55 49 54.5523 49 54C49 53.4477 48.5523 53 48 53C47.4477 53 47 53.4477 47 54C47 54.5523 47.4477 55 48 55Z" fill="black"/>
<path d="M48 59C48.5523 59 49 58.5523 49 58C49 57.4477 48.5523 57 48 57C47.4477 57 47 57.4477 47 58C47 58.5523 47.4477 59 48 59Z" fill="black"/>
<path d="M56 51C55.447 51 55 51.447 55 52V61C55 61.553 55.447 62 56 62C56.553 62 57 61.553 57 61V52C57 51.447 56.553 51 56 51Z" fill="black"/>
<path d="M40 51C39.447 51 39 51.447 39 52V61C39 61.553 39.447 62 40 62C40.553 62 41 61.553 41 61V52C41 51.447 40.553 51 40 51Z" fill="black"/>
<path d="M45 51H43C42.447 51 42 51.447 42 52C42 52.553 42.447 53 43 53H45C45.553 53 46 52.553 46 52C46 51.447 45.553 51 45 51Z" fill="black"/>
<path d="M45 33C45.5523 33 46 32.5523 46 32C46 31.4477 45.5523 31 45 31C44.4477 31 44 31.4477 44 32C44 32.5523 44.4477 33 45 33Z" fill="black"/>
<path d="M51 33C51.5523 33 52 32.5523 52 32C52 31.4477 51.5523 31 51 31C50.4477 31 50 31.4477 50 32C50 32.5523 50.4477 33 51 33Z" fill="black"/>
<path d="M46.707 36.293C46.316 35.902 45.684 35.902 45.293 36.293C44.902 36.684 44.902 37.316 45.293 37.707C46.039 38.453 47.02 38.826 48 38.826C48.98 38.826 49.961 38.453 50.707 37.707C51.098 37.316 51.098 36.684 50.707 36.293C50.316 35.902 49.684 35.902 49.293 36.293C48.58 37.006 47.42 37.006 46.707 36.293Z" fill="black"/>
<path d="M44.707 29.707C44.869 29.545 45.131 29.545 45.293 29.707C45.488 29.902 45.744 30 46 30C46.256 30 46.512 29.902 46.707 29.707C47.098 29.316 47.098 28.684 46.707 28.293C45.795 27.381 44.205 27.381 43.293 28.293C42.902 28.684 42.902 29.316 43.293 29.707C43.684 30.098 44.316 30.098 44.707 29.707Z" fill="black"/>
<path d="M46.793 34.707L47.293 35.207C47.488 35.402 47.744 35.5 48 35.5C48.256 35.5 48.512 35.402 48.707 35.207C49.095 34.819 49.098 34.194 48.717 33.803L48.895 33.448C49.142 32.954 48.942 32.353 48.448 32.106C47.953 31.86 47.354 32.059 47.106 32.553L46.606 33.553C46.413 33.938 46.488 34.402 46.793 34.707Z" fill="black"/>
<path d="M57.632 42.288C57.157 42.004 56.544 42.158 56.26 42.631C55.976 43.104 56.129 43.719 56.603 44.003C58.729 45.281 60 47.522 60 50V61C60 61.553 60.447 62 61 62C61.553 62 62 61.553 62 61V50C62 46.814 60.367 43.932 57.632 42.288Z" fill="black"/>
<path d="M54.447 41.105L52.882 40.323C54.557 39.027 55.708 37.087 55.949 34.874C57.696 34.445 59 32.877 59 31C59 30.351 58.788 29.753 58.436 29.261C58.8 28.557 59 27.787 59 27C59 22.037 54.963 18 50 18H46C41.579 18 37.846 21.16 37.122 25.514C37.031 26.059 37.399 26.574 37.944 26.664C38.489 26.761 39.004 26.387 39.094 25.842C39.657 22.457 42.562 20 46 20H50C53.859 20 57 23.141 57 27C57 27.382 56.917 27.757 56.77 28.113C56.523 28.047 56.268 28 56 28V27C56 26.447 55.553 26 55 26H53.242C50.773 26 48.453 25.039 46.707 23.293C46.496 23.082 46.21 22.981 45.901 23.005C45.603 23.034 45.334 23.196 45.168 23.445L44.832 23.949C43.976 25.233 42.543 26 41 26C40.447 26 40 26.447 40 27V28C38.346 28 37 29.346 37 31C37 32.877 38.304 34.445 40.05 34.874C40.292 37.088 41.443 39.027 43.117 40.323L41.552 41.105C41.535 41.114 41.524 41.13 41.507 41.139C37.202 41.86 34 45.595 34 50V61C34 61.553 34.447 62 35 62C35.553 62 36 61.553 36 61V50C36 46.725 38.275 43.924 41.401 43.195L43.072 47.371C43.176 47.631 43.384 47.835 43.645 47.934C43.76 47.979 43.88 48 44 48C44.153 48 44.307 47.965 44.447 47.895L48 46.118L51.553 47.894C51.693 47.965 51.847 48 52 48C52.12 48 52.24 47.979 52.355 47.935C52.617 47.835 52.824 47.631 52.928 47.372L54.928 42.372C55.122 41.889 54.912 41.338 54.447 41.105ZM57 31C57 31.739 56.598 32.386 56 32.731V30C56.552 30 57 30.448 57 31ZM39 31C39 30.448 39.448 30 40 30V32.731C39.402 32.386 39 31.739 39 31ZM42 34V27.925C43.643 27.674 45.134 26.814 46.174 25.501C47.451 26.538 48.924 27.267 50.501 27.661C50.052 27.75 49.627 27.959 49.293 28.293C48.902 28.684 48.902 29.316 49.293 29.707C49.684 30.098 50.316 30.098 50.707 29.707C50.869 29.545 51.131 29.545 51.293 29.707C51.488 29.902 51.744 30 52 30C52.256 30 52.512 29.902 52.707 29.707C53.098 29.316 53.098 28.684 52.707 28.293C52.574 28.16 52.424 28.053 52.267 27.958C52.589 27.986 52.915 28 53.242 28H54V34C54 37.309 51.309 40 48 40C44.691 40 42 37.309 42 34ZM48 42C48.619 42 49.218 41.923 49.797 41.789L48 43.586L46.203 41.789C46.782 41.923 47.381 42 48 42ZM44.524 45.619L43.27 42.483L43.802 42.216L46.311 44.725L44.524 45.619ZM51.476 45.619L49.689 44.725L52.198 42.216L52.73 42.483L51.476 45.619Z" fill="black"/>
<path d="M22.625 52.219C22.324 51.979 21.912 51.932 21.567 52.099C21.22 52.266 21 52.615 21 53V54H17V49C17 48.447 16.552 48 16 48H12C11.448 48 11 48.447 11 49V55C11 57.757 13.243 60 16 60H21V61C21 61.385 21.22 61.734 21.567 61.901C21.705 61.968 21.853 62 22 62C22.223 62 22.444 61.926 22.625 61.781L27.625 57.781C27.862 57.591 28 57.304 28 57C28 56.696 27.862 56.409 27.625 56.219L22.625 52.219ZM22.997 58.922C22.957 58.406 22.526 58 22 58H16C14.346 58 13 56.654 13 55V50H15V55C15 55.553 15.448 56 16 56H22C22.526 56 22.957 55.594 22.997 55.078L25.399 57L22.997 58.922Z" fill="black"/>
<path d="M39.434 11.901C39.779 11.734 40 11.385 40 11V10H44V15C44 15.553 44.447 16 45 16H49C49.553 16 50 15.553 50 15V9.00002C50 6.24302 47.757 4.00002 45 4.00002H40V3.00002C40 2.61502 39.779 2.26602 39.434 2.09902C39.086 1.93302 38.675 1.97902 38.375 2.21902L33.375 6.21902C33.138 6.40902 33 6.69602 33 7.00002C33 7.30402 33.138 7.59102 33.375 7.78102L38.375 11.781C38.675 12.021 39.088 12.067 39.434 11.901ZM38.003 8.92202L35.601 7.00002L38.003 5.07802C38.043 5.59402 38.474 6.00002 39 6.00002H45C46.654 6.00002 48 7.34602 48 9.00002V14H46V9.00002C46 8.44702 45.553 8.00002 45 8.00002H39C38.474 8.00002 38.043 8.40602 38.003 8.92202Z" fill="black"/>
</svg>
