<svg width="64" height="64" viewBox="0 0 64 64" fill="none" xmlns="http://www.w3.org/2000/svg">
<path d="M29 33C29.5523 33 30 32.5523 30 32C30 31.4477 29.5523 31 29 31C28.4477 31 28 31.4477 28 32C28 32.5523 28.4477 33 29 33Z" fill="black"/>
<path d="M35 33C35.5523 33 36 32.5523 36 32C36 31.4477 35.5523 31 35 31C34.4477 31 34 31.4477 34 32C34 32.5523 34.4477 33 35 33Z" fill="black"/>
<path d="M30.707 36.293C30.316 35.902 29.684 35.902 29.293 36.293C28.902 36.684 28.902 37.316 29.293 37.707C30.039 38.454 31.02 38.827 32 38.827C32.98 38.827 33.961 38.454 34.707 37.707C35.098 37.316 35.098 36.684 34.707 36.293C34.316 35.902 33.684 35.902 33.293 36.293C32.58 37.006 31.42 37.006 30.707 36.293Z" fill="black"/>
<path d="M28.707 29.707C28.869 29.546 29.131 29.546 29.293 29.707C29.488 29.902 29.744 30 30 30C30.256 30 30.512 29.902 30.707 29.707C31.098 29.316 31.098 28.684 30.707 28.293C29.766 27.352 28.234 27.352 27.293 28.293C26.902 28.684 26.902 29.316 27.293 29.707C27.684 30.098 28.316 30.098 28.707 29.707Z" fill="black"/>
<path d="M30.793 34.707L31.293 35.207C31.488 35.402 31.744 35.5 32 35.5C32.256 35.5 32.512 35.402 32.707 35.207C33.095 34.82 33.098 34.194 32.717 33.803L32.895 33.448C33.142 32.954 32.942 32.353 32.448 32.106C31.953 31.858 31.353 32.06 31.106 32.553L30.606 33.553C30.413 33.938 30.489 34.403 30.793 34.707Z" fill="black"/>
<path d="M59 29H57.795C57.154 23.411 54.706 18.133 50.802 14.058C50.419 13.659 49.786 13.646 49.389 14.028C48.99 14.41 48.976 15.043 49.359 15.442C52.908 19.146 55.151 23.928 55.782 29H53.768C52.436 19.253 44.747 11.565 35 10.232V8.212C39.186 8.736 43.138 10.327 46.484 12.876C46.665 13.014 46.878 13.081 47.088 13.081C47.39 13.081 47.688 12.945 47.885 12.687C48.219 12.248 48.134 11.62 47.695 11.286C44.002 8.471 39.628 6.734 35 6.199V5C35 3.346 33.654 2 32 2C30.346 2 29 3.346 29 5V6.204C16.96 7.582 7.582 16.96 6.204 29H5C3.346 29 2 30.346 2 32C2 33.654 3.346 35 5 35H6.203C6.814 40.383 9.035 45.349 12.699 49.401C12.896 49.619 13.168 49.73 13.441 49.73C13.68 49.73 13.92 49.645 14.111 49.472C14.521 49.101 14.552 48.469 14.182 48.059C10.852 44.377 8.815 39.878 8.215 35H10.232C11.564 44.747 19.253 52.436 29 53.768V55.788C24.592 55.244 20.454 53.507 16.979 50.702C16.55 50.356 15.919 50.421 15.573 50.851C15.226 51.281 15.293 51.911 15.722 52.257C19.555 55.352 24.129 57.264 29 57.818V59C29 60.654 30.346 62 32 62C33.654 62 35 60.654 35 59V57.818C47.05 56.451 56.422 47.048 57.794 35H59C60.654 35 62 33.654 62 32C62 30.346 60.654 29 59 29ZM31 5C31 4.449 31.449 4 32 4C32.551 4 33 4.449 33 5V13C33 13.551 32.551 14 32 14C31.449 14 31 13.551 31 13V5ZM4 32C4 31.449 4.449 31 5 31H13C13.551 31 14 31.449 14 32C14 32.551 13.551 33 13 33H5C4.449 33 4 32.551 4 32ZM20.269 48.185C20.937 45.721 22.929 43.798 25.407 43.212L27.071 47.372C27.175 47.631 27.383 47.836 27.644 47.935C27.759 47.979 27.88 48 28 48C28.154 48 28.307 47.964 28.447 47.895L32 46.118L35.553 47.894C35.693 47.965 35.847 48 36 48C36.12 48 36.24 47.979 36.355 47.935C36.617 47.836 36.824 47.631 36.928 47.372L38.599 43.194C40.114 43.547 41.465 44.392 42.456 45.626C42.654 45.872 42.944 46 43.237 46C43.457 46 43.677 45.928 43.862 45.78C44.293 45.434 44.362 44.805 44.015 44.374C42.621 42.637 40.67 41.506 38.494 41.142C38.476 41.132 38.465 41.115 38.447 41.106L36.882 40.324C38.557 39.028 39.708 37.088 39.95 34.875C41.696 34.444 43 32.877 43 31C43 29.346 41.654 28 40 28V27C40 26.448 39.553 26 39 26H38.472C35.701 26 32.926 25.345 30.448 24.105C30.062 23.913 29.597 23.988 29.294 24.293C28.192 25.394 26.729 26 25.171 26H25C24.448 26 24 26.448 24 27V25C24 22.794 25.794 21 28 21C28.27 21 28.54 21.027 28.805 21.081C29.138 21.149 29.48 21.043 29.718 20.801C30.857 19.64 32.378 19 34 19C36.967 19 39.52 21.21 39.938 24.142C40.016 24.688 40.517 25.066 41.07 24.99C41.617 24.912 41.997 24.406 41.919 23.859C41.359 19.948 37.955 17 34 17C32.012 17 30.139 17.72 28.67 19.038C28.447 19.013 28.224 19 28 19C24.691 19 22 21.691 22 25V28.78C21.391 29.329 21 30.117 21 31C21 32.877 22.304 34.444 24.05 34.874C24.292 37.088 25.443 39.027 27.118 40.324L25.553 41.106C25.536 41.114 25.526 41.13 25.51 41.139C22.361 41.67 19.721 43.878 18.597 46.817C15.258 43.795 12.953 39.667 12.25 35.001H13C14.654 35.001 16 33.655 16 32.001C16 30.347 14.654 29.001 13 29.001H12.241C12.781 25.421 14.262 22.078 16.58 19.279C16.933 18.854 16.873 18.223 16.448 17.871C16.023 17.517 15.393 17.579 15.04 18.003C12.425 21.161 10.78 24.949 10.225 29.001H8.218C9.573 18.074 18.074 9.573 29 8.218V10.225C24.948 10.78 21.161 12.425 18.002 15.04C17.577 15.392 17.517 16.022 17.87 16.448C18.068 16.687 18.353 16.81 18.641 16.81C18.866 16.81 19.092 16.735 19.278 16.58C22.077 14.262 25.42 12.781 29 12.241V13C29 14.654 30.346 16 32 16C33.654 16 35 14.654 35 13V12.249C43.641 13.551 50.448 20.359 51.751 29H51C49.346 29 48 30.346 48 32C48 33.654 49.346 35 51 35H51.751C50.448 43.641 43.641 50.449 35 51.751V51C35 49.346 33.654 48 32 48C30.346 48 29 49.346 29 51V51.751C25.771 51.264 22.796 50.019 20.269 48.185ZM24 30V32.731C23.403 32.385 23 31.738 23 31C23 30.449 23.449 30 24 30ZM26 27.957C27.541 27.796 28.984 27.186 30.176 26.192C31.619 26.851 33.148 27.314 34.707 27.615C34.19 27.678 33.689 27.897 33.293 28.292C32.902 28.683 32.902 29.315 33.293 29.707C33.684 30.098 34.316 30.097 34.707 29.707C34.869 29.545 35.131 29.545 35.293 29.707C35.488 29.902 35.744 30 36 30C36.256 30 36.512 29.902 36.707 29.707C37.098 29.316 37.098 28.683 36.707 28.292C36.517 28.103 36.3 27.962 36.072 27.849C36.712 27.927 37.355 27.978 38 27.994V34C38 37.309 35.309 40 32 40C28.691 40 26 37.309 26 34V27.957ZM40 30C40.552 30 41 30.449 41 31C41 31.739 40.598 32.385 40 32.731V30ZM36.729 42.483L35.475 45.62L33.688 44.726L36.197 42.217L36.729 42.483ZM32 42C32.619 42 33.218 41.923 33.797 41.789L32 43.586L30.203 41.789C30.782 41.923 31.381 42 32 42ZM27.803 42.217L30.312 44.726L28.525 45.62L27.27 42.483L27.803 42.217ZM33 59C33 59.551 32.551 60 32 60C31.449 60 31 59.551 31 59V51C31 50.449 31.449 50 32 50C32.551 50 33 50.449 33 51V59ZM35 55.78V53.768C44.747 52.435 52.436 44.747 53.768 35H55.779C54.431 45.931 45.931 54.432 35 55.78ZM59 33H51C50.448 33 50 32.551 50 32C50 31.449 50.448 31 51 31H59C59.552 31 60 31.449 60 32C60 32.551 59.552 33 59 33Z" fill="black"/>
</svg>
