<svg width="64" height="64" viewBox="0 0 64 64" fill="none" xmlns="http://www.w3.org/2000/svg">
<path d="M55.7 34.289C55.5699 34.3066 55.4445 34.3497 55.331 34.4157C55.2175 34.4818 55.1181 34.5695 55.0385 34.674C54.9589 34.7785 54.9007 34.8976 54.8672 35.0246C54.8336 35.1515 54.8254 35.2839 54.843 35.414C54.9534 36.2715 55.0058 37.1355 55 38C55.0022 41.4779 54.1746 44.9061 52.586 48H49.786L48.975 44.757C48.9319 44.5863 48.8444 44.43 48.7215 44.3039C48.5986 44.1778 48.4446 44.0865 48.275 44.039L43.211 42.592L45.6 40.8C45.7575 40.6819 45.8766 40.5199 45.9425 40.3344C46.0083 40.1488 46.0179 39.948 45.97 39.757L45.207 36.7C48.1112 34.5999 50.8442 32.2726 53.38 29.74C53.632 30.366 53.866 31.001 54.062 31.657C54.0997 31.7828 54.1618 31.9 54.2448 32.0018C54.3277 32.1036 54.4299 32.188 54.5456 32.2503C54.6612 32.3127 54.7879 32.3516 54.9186 32.3649C55.0492 32.3782 55.1812 32.3657 55.307 32.328C55.4328 32.2903 55.55 32.2282 55.6518 32.1452C55.7536 32.0623 55.8381 31.9601 55.9004 31.8445C55.9627 31.7289 56.0016 31.6021 56.0149 31.4715C56.0283 31.3408 56.0157 31.2088 55.978 31.083C55.6736 30.079 55.3042 29.096 54.872 28.14C58.739 23.774 60.616 19.64 58.927 16.711C57.01 13.381 50.891 13.058 42.116 15.804C40.1022 14.9782 37.9855 14.4298 35.824 14.174L32.855 6.017L34.635 4.552C34.647 4.542 34.652 4.528 34.663 4.518C35.4059 5.69937 36.4358 6.6735 37.6566 7.34965C38.8774 8.0258 40.2495 8.38198 41.645 8.385C42.3884 8.38251 43.1281 8.28163 43.845 8.085C44.3288 8.58383 44.971 8.89892 45.6615 8.9763C46.3521 9.05368 47.0481 8.88853 47.6302 8.50914C48.2124 8.12974 48.6445 7.55972 48.8526 6.89672C49.0607 6.23372 49.0317 5.519 48.7707 4.875C48.5097 4.231 48.0329 3.69779 47.422 3.36671C46.811 3.03564 46.104 2.9273 45.4219 3.06027C44.7399 3.19323 44.1253 3.55922 43.6835 4.09554C43.2416 4.63185 43 5.30512 43 6C43 6.071 43.016 6.138 43.021 6.208C41.6533 6.51754 40.2214 6.36086 38.953 5.7629C37.6846 5.16494 36.6525 4.16003 36.021 2.908L35.842 2.548C35.7585 2.38316 35.6309 2.24468 35.4735 2.14795C35.316 2.05121 35.1348 2 34.95 2H34.94L16.91 2.18C16.6818 2.18244 16.4612 2.2629 16.285 2.408L12.445 5.568C12.3394 5.64999 12.2513 5.75232 12.186 5.86894C12.1206 5.98556 12.0793 6.1141 12.0645 6.24697C12.0496 6.37983 12.0616 6.51432 12.0997 6.64248C12.1377 6.77064 12.2011 6.88987 12.286 6.99312C12.3709 7.09637 12.4757 7.18154 12.5941 7.2436C12.7125 7.30566 12.8422 7.34334 12.9754 7.35442C13.1086 7.36551 13.2427 7.34976 13.3698 7.30813C13.4968 7.26649 13.6142 7.1998 13.715 7.112L17.283 4.177L32.123 4.029L20.667 13.454L5.82402 13.6L10.624 9.65C10.7261 9.56682 10.8108 9.46429 10.8731 9.34831C10.9355 9.23233 10.9743 9.10517 10.9874 8.97413C11.0005 8.8431 10.9876 8.71077 10.9494 8.58474C10.9112 8.45872 10.8485 8.34147 10.7649 8.23974C10.6813 8.13802 10.5784 8.05381 10.4621 7.99195C10.3459 7.93009 10.2185 7.8918 10.0874 7.87928C9.95635 7.86676 9.82408 7.88026 9.69822 7.91899C9.57236 7.95773 9.45539 8.02094 9.35402 8.105L2.36402 13.855C2.20378 13.9857 2.08797 14.1628 2.03256 14.362C1.97714 14.5612 1.98483 14.7727 2.05458 14.9673C2.12432 15.162 2.25269 15.3302 2.422 15.4489C2.59132 15.5676 2.79326 15.6308 3.00002 15.63H3.01002L6.54402 15.6L11.115 28.158C10.0428 30.5319 9.3672 33.0655 9.11502 35.658C3.79002 41.1 1.79102 45.731 3.50002 48.709C4.55402 50.538 6.92802 51.438 10.273 51.438C11.1849 51.4282 12.0954 51.3655 13 51.25C15.846 55.5508 20.002 58.8201 24.852 60.5732C29.7021 62.3264 34.9879 62.4701 39.926 60.983C44.8641 59.496 49.1917 56.4573 52.2671 52.3176C55.3425 48.1778 57.0022 43.1572 57 38C57.0045 37.0457 56.9447 36.0922 56.821 35.146C56.7854 34.884 56.6475 34.6467 56.4375 34.4861C56.2274 34.3255 55.9622 34.2546 55.7 34.289ZM46 5C46.1978 5 46.3911 5.05865 46.5556 5.16853C46.72 5.27841 46.8482 5.43459 46.9239 5.61732C46.9996 5.80004 47.0194 6.00111 46.9808 6.19509C46.9422 6.38907 46.847 6.56725 46.7071 6.70711C46.5673 6.84696 46.3891 6.9422 46.1951 6.98079C46.0011 7.01937 45.8001 6.99957 45.6173 6.92388C45.4346 6.84819 45.2784 6.72002 45.1685 6.55557C45.0587 6.39112 45 6.19778 45 6C45 5.73478 45.1054 5.48043 45.2929 5.29289C45.4804 5.10536 45.7348 5 46 5ZM44.683 34.61L43.97 31.757C43.9366 31.6234 43.8759 31.4981 43.7918 31.3891C43.7077 31.28 43.6019 31.1895 43.4812 31.1232C43.3604 31.0569 43.2273 31.0163 43.0901 31.0039C42.953 30.9914 42.8147 31.0075 42.684 31.051L37.445 32.8L35.321 29.261L38.6 26.8C38.7883 26.6603 38.9214 26.4589 38.9763 26.2309C39.0311 26.003 39.0041 25.7631 38.9 25.553L37.2 22.158L41.245 17.609C46.0698 19.5502 50.0454 23.1464 52.459 27.753C50.0684 30.2574 47.4668 32.5515 44.683 34.61ZM57.194 17.71C58.169 19.398 56.95 22.47 53.878 26.151C51.7324 22.3656 48.5934 19.2384 44.8 17.107C51.22 15.4 55.976 15.592 57.194 17.71ZM39.194 16.901L37.506 18.801L36.6 16.312C37.4778 16.4551 38.3461 16.6514 39.2 16.9L39.194 16.901ZM21.04 15.45C21.2681 15.4478 21.4887 15.3677 21.665 15.223L31.217 7.364L35.381 18.806L12.829 27.014L8.66502 15.574L21.04 15.45ZM5.23702 47.711C4.20802 45.922 5.64802 42.573 9.01802 38.711C9.12133 42.4427 10.1 46.0979 11.875 49.382C8.30002 49.68 6.00002 49.027 5.23702 47.711ZM17 48.477C15.941 48.742 14.949 48.947 14.018 49.101C13.62 48.4226 13.2588 47.7232 12.936 47.006L14.936 46.559L17 48.441V48.477ZM15.2 50.909C15.783 50.799 16.383 50.668 17 50.522V53.076C16.3545 52.3927 15.7533 51.6689 15.2 50.909ZM40.98 56.8C40.9282 56.5401 40.7754 56.3113 40.555 56.164L38.079 54.514L38.845 49.151L42.767 49.804L42.03 52.753C41.9728 52.9814 41.998 53.2227 42.1011 53.4343C42.2043 53.646 42.3788 53.8144 42.594 53.91L46.258 55.538C44.7333 56.6929 43.0646 57.6443 41.294 58.368L40.98 56.8ZM47.96 54.106L44.174 52.423L44.974 49.239C45.0075 49.1055 45.0131 48.9665 44.9905 48.8307C44.9678 48.6949 44.9173 48.5653 44.8422 48.4499C44.7671 48.3346 44.669 48.2359 44.554 48.1602C44.439 48.0845 44.3097 48.0334 44.174 48.01L38.174 47.01C38.0425 46.9871 37.9076 46.9911 37.7776 47.0219C37.6477 47.0527 37.5253 47.1095 37.418 47.189C37.3104 47.2676 37.2196 47.3669 37.1509 47.4811C37.0822 47.5953 37.037 47.7221 37.018 47.854L36.018 54.854C35.9912 55.0409 36.0178 55.2315 36.0948 55.4038C36.1718 55.5762 36.296 55.7233 36.453 55.828L39.1 57.6L39.389 59.048C37.4468 59.637 35.4323 59.9534 33.403 59.988L33.994 54.098C33.9995 54.0348 33.9995 53.9712 33.994 53.908L32.994 42.908C32.9711 42.6601 32.8565 42.4296 32.6727 42.2617C32.4889 42.0937 32.249 42.0004 32 42H25.82L25.1 38.387L30.643 33.768C30.7497 33.6791 30.8367 33.5688 30.8985 33.4444C30.9602 33.32 30.9954 33.184 31.0017 33.0453C31.008 32.9065 30.9853 32.7679 30.9351 32.6384C30.8849 32.5089 30.8082 32.3913 30.71 32.293L25.78 27.366C25.5914 27.1838 25.3388 27.083 25.0766 27.0853C24.8144 27.0876 24.5636 27.1928 24.3782 27.3782C24.1928 27.5636 24.0876 27.8144 24.0853 28.0766C24.0831 28.3388 24.1839 28.5914 24.366 28.78L28.519 32.933L23.36 37.233C23.2219 37.3482 23.1174 37.4986 23.0575 37.6683C22.9977 37.8379 22.9847 38.0206 23.02 38.197L24.02 43.197C24.0655 43.4234 24.188 43.6271 24.3666 43.7735C24.5453 43.9199 24.7691 43.9999 25 44H31.087L32 54L31.4 59.94C26.8486 59.6118 22.5134 57.87 19 54.958V50C21.8815 49.169 24.7042 48.1461 27.449 46.938C27.6922 46.8319 27.8833 46.6336 27.9803 46.3866C28.0772 46.1396 28.0721 45.8642 27.966 45.621C27.8599 45.3778 27.6616 45.1867 27.4146 45.0897C27.1676 44.9928 26.8922 44.9979 26.649 45.104C24.1541 46.2018 21.5943 47.1459 18.984 47.931C18.9704 47.6766 18.8589 47.4372 18.673 47.263L15.9 44.731C15.7813 44.6227 15.6383 44.5447 15.483 44.5034C15.3277 44.4622 15.1648 44.4589 15.008 44.494L12.186 45.123C11.3994 42.8306 10.9986 40.4236 11 38C11 37.358 11.035 36.721 11.09 36.088C11.2957 33.6859 11.8979 31.3344 12.872 29.129L35.719 20.813L35.252 21.337C35.1192 21.4864 35.0341 21.6722 35.0079 21.8704C34.9817 22.0687 35.0155 22.2702 35.105 22.449L36.732 25.7L33.4 28.2C33.2021 28.3485 33.0662 28.5652 33.0187 28.8081C32.9712 29.051 33.0155 29.3029 33.143 29.515L36.143 34.515C36.2601 34.7099 36.4401 34.8591 36.6533 34.938C36.8665 35.0169 37.1003 35.0208 37.316 34.949L42.292 33.29L42.939 35.88C40.748 37.437 38.339 38.991 35.72 40.504C35.6054 40.5692 35.5048 40.6564 35.424 40.7606C35.3431 40.8649 35.2838 40.984 35.2492 41.1113C35.2147 41.2386 35.2056 41.3714 35.2226 41.5022C35.2396 41.633 35.2823 41.7591 35.3483 41.8733C35.4142 41.9875 35.5021 42.0876 35.6068 42.1677C35.7116 42.2478 35.8312 42.3064 35.9587 42.3401C36.0862 42.3738 36.2191 42.382 36.3497 42.3641C36.4804 42.3462 36.6062 42.3027 36.72 42.236C39.02 40.905 41.292 39.461 43.457 37.952L43.869 39.598L40.4 42.2C40.2512 42.3117 40.1365 42.4627 40.0689 42.6361C40.0012 42.8094 39.9833 42.9982 40.0171 43.1812C40.0508 43.3641 40.135 43.5341 40.26 43.6718C40.3851 43.8096 40.5461 43.9097 40.725 43.961L47.17 45.8L48.03 49.24C48.0836 49.4568 48.2082 49.6494 48.384 49.7872C48.5598 49.9249 48.7767 49.9998 49 50H51.425C50.4412 51.5056 49.2776 52.8858 47.96 54.11V54.106Z" fill="black"/>
<path d="M44 27C44 27.5933 44.1759 28.1734 44.5056 28.6667C44.8352 29.1601 45.3038 29.5446 45.852 29.7716C46.4001 29.9987 47.0033 30.0581 47.5853 29.9424C48.1672 29.8266 48.7018 29.5409 49.1213 29.1213C49.5409 28.7018 49.8266 28.1672 49.9424 27.5853C50.0581 27.0033 49.9987 26.4001 49.7716 25.8519C49.5446 25.3038 49.1601 24.8352 48.6667 24.5056C48.1734 24.1759 47.5933 24 47 24C46.2044 24 45.4413 24.3161 44.8787 24.8787C44.3161 25.4413 44 26.2044 44 27ZM48 27C48 27.1978 47.9414 27.3911 47.8315 27.5556C47.7216 27.72 47.5654 27.8482 47.3827 27.9239C47.2 27.9996 46.9989 28.0194 46.8049 27.9808C46.6109 27.9422 46.4327 27.847 46.2929 27.7071C46.153 27.5673 46.0578 27.3891 46.0192 27.1951C45.9806 27.0011 46.0004 26.8 46.0761 26.6173C46.1518 26.4346 46.28 26.2784 46.4444 26.1685C46.6089 26.0586 46.8022 26 47 26C47.2652 26 47.5196 26.1054 47.7071 26.2929C47.8946 26.4804 48 26.7348 48 27Z" fill="black"/>
<path d="M18 33C17.4067 33 16.8266 33.1759 16.3333 33.5056C15.8399 33.8352 15.4554 34.3038 15.2284 34.852C15.0013 35.4001 14.9419 36.0033 15.0576 36.5853C15.1734 37.1672 15.4591 37.7018 15.8787 38.1213C16.2982 38.5409 16.8328 38.8266 17.4147 38.9424C17.9967 39.0581 18.5999 38.9987 19.1481 38.7716C19.6962 38.5446 20.1648 38.1601 20.4944 37.6667C20.8241 37.1734 21 36.5933 21 36C21 35.2044 20.6839 34.4413 20.1213 33.8787C19.5587 33.3161 18.7957 33 18 33ZM18 37C17.8022 37 17.6089 36.9414 17.4444 36.8315C17.28 36.7216 17.1518 36.5654 17.0761 36.3827C17.0004 36.2 16.9806 35.9989 17.0192 35.8049C17.0578 35.6109 17.153 35.4327 17.2929 35.2929C17.4327 35.153 17.6109 35.0578 17.8049 35.0192C17.9989 34.9806 18.2 35.0004 18.3827 35.0761C18.5654 35.1518 18.7216 35.28 18.8315 35.4444C18.9414 35.6089 19 35.8022 19 36C19 36.2652 18.8946 36.5196 18.7071 36.7071C18.5196 36.8946 18.2652 37 18 37Z" fill="black"/>
<path d="M24 53C24 53.5933 24.1759 54.1734 24.5056 54.6667C24.8352 55.1601 25.3038 55.5446 25.8519 55.7716C26.4001 55.9987 27.0033 56.0581 27.5853 55.9424C28.1672 55.8266 28.7018 55.5409 29.1213 55.1213C29.5409 54.7018 29.8266 54.1672 29.9424 53.5853C30.0581 53.0033 29.9987 52.4001 29.7716 51.852C29.5446 51.3038 29.1601 50.8352 28.6667 50.5056C28.1734 50.1759 27.5933 50 27 50C26.2044 50 25.4413 50.3161 24.8787 50.8787C24.3161 51.4413 24 52.2044 24 53ZM28 53C28 53.1978 27.9414 53.3911 27.8315 53.5556C27.7216 53.72 27.5654 53.8482 27.3827 53.9239C27.2 53.9996 26.9989 54.0194 26.8049 53.9808C26.6109 53.9422 26.4327 53.847 26.2929 53.7071C26.153 53.5673 26.0578 53.3891 26.0192 53.1951C25.9806 53.0011 26.0004 52.8 26.0761 52.6173C26.1518 52.4346 26.28 52.2784 26.4444 52.1685C26.6089 52.0586 26.8022 52 27 52C27.2652 52 27.5196 52.1054 27.7071 52.2929C27.8946 52.4804 28 52.7348 28 53Z" fill="black"/>
<path d="M51 42C51.5523 42 52 41.5523 52 41C52 40.4477 51.5523 40 51 40C50.4477 40 50 40.4477 50 41C50 41.5523 50.4477 42 51 42Z" fill="black"/>
<path d="M20 44C20.5523 44 21 43.5523 21 43C21 42.4477 20.5523 42 20 42C19.4477 42 19 42.4477 19 43C19 43.5523 19.4477 44 20 44Z" fill="black"/>
<path d="M42 24C42.5523 24 43 23.5523 43 23C43 22.4477 42.5523 22 42 22C41.4477 22 41 22.4477 41 23C41 23.5523 41.4477 24 42 24Z" fill="black"/>
</svg>
