<svg width="64" height="64" viewBox="0 0 64 64" fill="none" xmlns="http://www.w3.org/2000/svg">
<path d="M48.027 30.676C48.191 31.051 48.558 31.276 48.944 31.276C49.078 31.276 49.214 31.249 49.344 31.192L61.401 25.917C61.907 25.696 62.138 25.106 61.916 24.6C61.695 24.094 61.106 23.862 60.599 24.085L48.542 29.36C48.037 29.58 47.806 30.17 48.027 30.676Z" fill="black"/>
<path d="M60.835 38.014L50.113 39.801L46.143 30.766C45.936 30.296 45.408 30.058 44.919 30.217L40.123 31.77C39.854 31.857 39.635 32.054 39.519 32.312C39.428 32.514 39.429 32.734 39.478 32.946L38.075 33.285L36.811 33.196C35.29 33.09 33.808 33.654 32.736 34.689C31.781 34.279 30.757 34.121 29.731 34.25C28.671 34.379 27.598 34.07 26.775 33.397L26.406 33.095C26.478 32.924 26.519 32.743 26.489 32.556C26.442 32.27 26.274 32.018 26.028 31.866L20.785 28.623C20.346 28.352 19.77 28.459 19.459 28.873L19.391 28.963L3.486 20.126C3.002 19.857 2.393 20.032 2.126 20.514C1.857 20.997 2.032 21.606 2.514 21.874L18.181 30.578L11.178 39.91L3.341 37.06C2.825 36.872 2.248 37.139 2.059 37.658C1.871 38.177 2.138 38.751 2.657 38.94L10.275 41.71C10.325 41.931 10.437 42.14 10.631 42.288L14.874 45.53C15.055 45.668 15.269 45.736 15.481 45.736C15.747 45.736 16.005 45.619 16.199 45.415L17.514 46.491C16.928 47.485 16.941 48.773 17.657 49.769C17.964 50.195 18.374 50.515 18.838 50.729C18.757 50.932 18.691 51.143 18.655 51.365C18.526 52.156 18.712 52.95 19.18 53.6C19.617 54.208 20.255 54.613 20.981 54.77C20.902 55.482 21.065 56.223 21.515 56.848C21.983 57.498 22.676 57.928 23.467 58.057C23.631 58.084 23.795 58.097 23.957 58.097C24.014 58.097 24.071 58.087 24.128 58.084C24.183 58.593 24.355 59.085 24.663 59.512C25.248 60.326 26.169 60.76 27.103 60.759C27.709 60.759 28.321 60.576 28.851 60.196L30.475 59.029C31.682 58.161 32.043 56.559 31.404 55.268L35.022 58.227C35.249 58.413 35.383 58.688 35.389 58.982C35.394 59.28 35.271 59.557 35.04 59.76C34.689 60.071 34.089 60.049 33.672 59.706C33.246 59.356 32.614 59.419 32.265 59.848C31.916 60.275 31.979 60.906 32.407 61.255C32.994 61.735 33.715 61.976 34.423 61.976C35.13 61.976 35.824 61.737 36.365 61.258C36.893 60.792 37.237 60.167 37.349 59.489C38.182 59.587 39.035 59.359 39.672 58.794C40.339 58.205 40.712 57.361 40.695 56.48C40.695 56.455 40.694 56.429 40.693 56.404C40.718 56.4 40.743 56.396 40.767 56.391C41.635 56.233 42.388 55.7 42.834 54.929C43.26 54.192 43.318 53.311 43.054 52.515C43.54 52.331 43.971 52.022 44.309 51.609C45.356 50.328 45.167 48.435 43.887 47.388L43.113 46.754L45.184 44.222C45.245 44.214 45.305 44.213 45.366 44.193L50.162 42.64C50.431 42.553 50.65 42.356 50.766 42.098C50.823 41.972 50.85 41.837 50.852 41.703L61.167 39.984C61.711 39.893 62.08 39.378 61.989 38.833C61.896 38.292 61.386 37.923 60.835 38.014ZM36.673 35.191L38.091 35.291C38.192 35.299 38.296 35.29 38.396 35.266L40.26 34.815L43.767 42.797L41.574 45.478L38.772 43.111C38.499 42.881 38.123 42.814 37.788 42.934C36.126 43.531 34.258 43.304 32.792 42.327L32.557 42.17C32.299 41.998 31.977 41.956 31.685 42.053L29.336 42.836C28.68 43.053 27.963 42.981 27.367 42.636C26.77 42.291 26.348 41.706 26.21 41.031C26.2 40.98 26.229 40.928 26.278 40.91L30.702 39.306C31.908 38.869 32.915 38.011 33.537 36.891C34.162 35.767 35.391 35.099 36.673 35.191ZM22.301 47.661L20.677 48.829C20.46 48.984 20.196 49.047 19.932 49.004C19.668 48.961 19.437 48.817 19.281 48.601C18.959 48.153 19.062 47.527 19.509 47.205L21.134 46.037C21.306 45.913 21.508 45.849 21.716 45.849C21.77 45.849 21.825 45.853 21.879 45.862C22.143 45.905 22.374 46.048 22.53 46.265C22.686 46.481 22.748 46.746 22.705 47.01C22.661 47.274 22.518 47.505 22.301 47.661ZM20.63 51.688C20.673 51.424 20.816 51.193 21.033 51.038L25.092 48.119C25.268 47.992 25.472 47.931 25.675 47.931C25.986 47.931 26.293 48.076 26.488 48.347C26.81 48.795 26.708 49.421 26.26 49.743L22.2 52.662C21.983 52.817 21.716 52.878 21.455 52.837C21.191 52.794 20.96 52.651 20.804 52.434C20.649 52.215 20.587 51.951 20.63 51.688ZM24.536 55.908C24.319 56.064 24.053 56.125 23.791 56.083C23.527 56.04 23.296 55.897 23.14 55.68C22.818 55.233 22.92 54.606 23.368 54.284L26.616 51.949C26.792 51.822 26.996 51.761 27.199 51.761C27.51 51.761 27.817 51.906 28.012 52.177C28.168 52.394 28.23 52.658 28.187 52.922C28.144 53.186 28.001 53.417 27.784 53.572L24.536 55.908ZM30.021 53.77C30.027 53.824 30.053 53.874 30.068 53.927C30.038 53.912 30.007 53.897 29.977 53.883C29.992 53.845 30.007 53.808 30.021 53.77ZM29.307 57.404L27.683 58.571C27.236 58.894 26.61 58.791 26.287 58.343C26.131 58.126 26.069 57.862 26.112 57.598C26.155 57.334 26.298 57.103 26.515 56.948L28.139 55.78C28.315 55.653 28.519 55.592 28.721 55.592C29.033 55.592 29.34 55.737 29.534 56.008C29.857 56.456 29.754 57.082 29.307 57.404ZM42.76 50.344C42.591 50.551 42.351 50.679 42.086 50.706C41.821 50.732 41.561 50.654 41.354 50.486L36.709 46.687C36.282 46.336 35.651 46.4 35.302 46.828C34.953 47.256 35.015 47.886 35.443 48.235L40.087 52.033L40.778 52.599C41.194 52.939 41.336 53.523 41.102 53.929C40.948 54.195 40.702 54.371 40.408 54.425C40.118 54.475 39.822 54.401 39.595 54.216L34.176 49.784C33.748 49.433 33.118 49.497 32.769 49.925C32.419 50.353 32.482 50.983 32.91 51.332L38.329 55.764C38.557 55.95 38.69 56.225 38.696 56.52C38.702 56.818 38.578 57.094 38.348 57.298C37.998 57.609 37.397 57.586 36.981 57.245L36.291 56.681C36.291 56.681 36.291 56.68 36.29 56.68L31.645 52.882C31.217 52.532 30.587 52.595 30.238 53.023C30.205 53.064 30.193 53.113 30.167 53.157C30.268 52.396 30.086 51.638 29.636 51.012C29.322 50.576 28.908 50.262 28.451 50.052C28.821 49.13 28.734 48.045 28.112 47.18C27.305 46.059 25.864 45.672 24.628 46.133C24.537 45.766 24.38 45.416 24.153 45.1C23.685 44.45 22.992 44.02 22.201 43.891C21.409 43.761 20.616 43.948 19.966 44.416L18.992 45.117L17.492 43.89L19.152 41.898C19.506 41.474 19.448 40.843 19.024 40.49C18.6 40.137 17.969 40.194 17.616 40.618L15.328 43.362L12.635 41.303L20.512 30.806L23.997 32.962L20.176 37.545C19.822 37.969 19.88 38.6 20.304 38.953C20.726 39.306 21.359 39.249 21.712 38.825L25.175 34.671L25.51 34.945C26.755 35.964 28.385 36.436 29.979 36.234C30.486 36.171 30.993 36.224 31.483 36.364C31.103 36.843 30.599 37.213 30.018 37.424L25.594 39.028C24.619 39.382 24.041 40.414 24.248 41.429C24.501 42.665 25.272 43.735 26.364 44.366C27.456 44.997 28.769 45.13 29.966 44.731L31.854 44.102C33.652 45.23 35.861 45.55 37.899 44.993L41.057 47.66C41.059 47.662 41.063 47.663 41.065 47.665C41.067 47.666 41.067 47.669 41.069 47.67L42.617 48.937C43.046 49.286 43.109 49.917 42.76 50.344ZM45.607 42.014L41.792 33.332L44.676 32.398L48.491 41.08L45.607 42.014Z" fill="black"/>
<path d="M43.707 22.293C43.316 21.902 42.684 21.902 42.293 22.293C41.902 22.684 41.902 23.316 42.293 23.707L43.293 24.707C43.488 24.902 43.744 25 44 25C44.256 25 44.512 24.902 44.707 24.707L47.707 21.707C48.098 21.316 48.098 20.684 47.707 20.293C47.316 19.902 46.684 19.902 46.293 20.293L44 22.586L43.707 22.293Z" fill="black"/>
<path d="M23 14H28.184C28.486 14.847 29.153 15.514 30 15.816V17C30 18.654 31.346 20 33 20C34.654 20 36 18.654 36 17V15.816C36.847 15.514 37.514 14.847 37.816 14H43C43.712 14 44.386 13.846 45 13.576V15C41.14 15 38 18.14 38 22C38 23.075 38.25 24.089 38.685 25H21V15.621C21 15.069 20.552 14.621 20 14.621C19.448 14.621 19 15.069 19 15.621V26C19 26.552 19.448 27 20 27H40.11C41.373 28.235 43.098 29 45 29C48.86 29 52 25.86 52 22C52 18.835 49.888 16.158 47 15.295V11.969C47.62 11.136 48 10.115 48 9V8C48 6.897 47.103 6 46 6H40V5C40 3.346 38.654 2 37 2H29C27.346 2 26 3.346 26 5V6H20C18.897 6 18 6.897 18 8V9C18 11.757 20.243 14 23 14ZM50 22C50 24.757 47.757 27 45 27C42.243 27 40 24.757 40 22C40 19.243 42.243 17 45 17C47.757 17 50 19.243 50 22ZM34 17C34 17.551 33.551 18 33 18C32.449 18 32 17.551 32 17V16H34V17ZM35 14H31C30.449 14 30 13.551 30 13C30 12.449 30.449 12 31 12H35C35.551 12 36 12.449 36 13C36 13.551 35.551 14 35 14ZM28 5C28 4.449 28.449 4 29 4H37C37.551 4 38 4.449 38 5V6H28V5ZM20 8H46V9C46 10.654 44.654 12 43 12H37.816C37.402 10.839 36.302 10 35 10H31C29.698 10 28.598 10.839 28.184 12H23C21.346 12 20 10.654 20 9V8Z" fill="black"/>
</svg>
