<svg width="64" height="64" viewBox="0 0 64 64" fill="none" xmlns="http://www.w3.org/2000/svg">
<path d="M58.127 32.867C57.785 32.434 57.157 32.36 56.723 32.701C56.289 33.043 56.215 33.672 56.557 34.105C58.81 36.96 60 40.382 60 44C60 52.822 52.822 60 44 60C35.178 60 28 52.822 28 44C28 41.269 28.709 38.563 30.051 36.177C30.23 35.858 30.221 35.467 30.028 35.156L27.162 30.571L32.802 31.98C33.114 32.059 33.444 31.982 33.69 31.774C36.572 29.341 40.234 28 44 28C47.618 28 51.04 29.19 53.895 31.443C54.33 31.786 54.958 31.71 55.299 31.277C55.641 30.843 55.567 30.215 55.133 29.873C51.922 27.339 48.072 26 44 26C43.329 26 42.662 26.052 42 26.126V5C42 4.447 41.553 4 41 4H37V3C37 2.447 36.553 2 36 2C35.447 2 35 2.447 35 3V4H33V3C33 2.447 32.552 2 32 2C31.448 2 31 2.447 31 3V4H13V3C13 2.447 12.552 2 12 2C11.448 2 11 2.447 11 3V4H9V3C9 2.447 8.552 2 8 2C7.448 2 7 2.447 7 3V4H3C2.448 4 2 4.447 2 5V39C2 39.553 2.448 40 3 40H26.459C26.159 41.309 26 42.651 26 44C26 53.925 34.075 62 44 62C53.925 62 62 53.925 62 44C62 39.928 60.661 36.078 58.127 32.867ZM11 21H15V25H11V21ZM27 25H23V21H27V25ZM29 21H33V25H29V21ZM21 25H17V21H21V25ZM15 27V31H11V27H15ZM17 27H21V31H17V27ZM23 27H27V28.47L25.243 28.031C24.848 27.929 24.431 28.083 24.191 28.413C23.951 28.743 23.936 29.185 24.152 29.531L25.07 31H23V27ZM32.799 29.919L29 28.969V27H33V29.772C32.934 29.823 32.864 29.867 32.799 29.919ZM4 6H7V7C7 7.553 7.448 8 8 8C8.552 8 9 7.553 9 7V6H11V7C11 7.553 11.448 8 12 8C12.552 8 13 7.553 13 7V6H31V7C31 7.553 31.448 8 32 8C32.552 8 33 7.553 33 7V6H35V7C35 7.553 35.447 8 36 8C36.553 8 37 7.553 37 7V6H40V12H4V6ZM4 38V14H40V26.467C38.246 26.869 36.561 27.529 35 28.432V27H37C37.553 27 38 26.553 38 26C38 25.447 37.553 25 37 25H35V21H37C37.553 21 38 20.553 38 20C38 19.447 37.553 19 37 19H35V17C35 16.447 34.553 16 34 16C33.447 16 33 16.447 33 17V19H29V17C29 16.447 28.552 16 28 16C27.448 16 27 16.447 27 17V19H23V17C23 16.447 22.552 16 22 16C21.448 16 21 16.447 21 17V19H17V17C17 16.447 16.552 16 16 16C15.448 16 15 16.447 15 17V19H11V17C11 16.447 10.552 16 10 16C9.448 16 9 16.447 9 17V25H7C6.448 25 6 25.447 6 26C6 26.553 6.448 27 7 27H9V31H7C6.448 31 6 31.447 6 32C6 32.553 6.448 33 7 33H9V35C9 35.553 9.448 36 10 36C10.552 36 11 35.553 11 35V33H15V35C15 35.553 15.448 36 16 36C16.552 36 17 35.553 17 35V33H21V35C21 35.553 21.448 36 22 36C22.552 36 23 35.553 23 35V33H26.321L28.023 35.724C27.641 36.46 27.318 37.222 27.042 38H4Z" fill="black"/>
<path d="M45 14H48V23C48 23.553 48.447 24 49 24H57C57.553 24 58 23.553 58 23V14H61C61.404 14 61.77 13.757 61.924 13.383C62.079 13.009 61.993 12.579 61.707 12.293L53.707 4.29301C53.316 3.90201 52.684 3.90201 52.293 4.29301L44.293 12.293C44.007 12.579 43.921 13.009 44.076 13.383C44.23 13.757 44.596 14 45 14ZM53 6.41401L58.586 12H57C56.447 12 56 12.447 56 13V22H50V13C50 12.447 49.553 12 49 12H47.414L53 6.41401Z" fill="black"/>
<path d="M44 57C51.168 57 57 51.168 57 44C57 36.832 51.168 31 44 31C36.832 31 31 36.832 31 44C31 46.708 31.833 49.31 33.411 51.525C33.732 51.974 34.356 52.08 34.806 51.759C35.256 51.439 35.361 50.815 35.04 50.364C33.705 48.49 33 46.289 33 44C33 37.935 37.935 33 44 33C50.065 33 55 37.935 55 44C55 50.065 50.065 55 44 55C41.711 55 39.51 54.294 37.635 52.959C37.184 52.638 36.561 52.743 36.24 53.193C35.919 53.643 36.024 54.267 36.474 54.588C38.69 56.166 41.293 57 44 57Z" fill="black"/>
<path d="M44 53C48.963 53 53 48.963 53 44C53 39.037 48.963 35 44 35C39.037 35 35 39.037 35 44C35 48.963 39.037 53 44 53ZM51 44C51 47.519 48.386 50.432 45 50.92V48.816C46.161 48.402 47 47.302 47 46C47 44.346 45.654 43 44 43C43.448 43 43 42.552 43 42C43 41.448 43.448 41 44 41C44.552 41 45 41.448 45 42C45 42.553 45.447 43 46 43C46.553 43 47 42.553 47 42C47 40.698 46.161 39.598 45 39.184V37.08C48.386 37.568 51 40.481 51 44ZM43 37.08V39.184C41.839 39.598 41 40.698 41 42C41 43.654 42.346 45 44 45C44.552 45 45 45.448 45 46C45 46.552 44.552 47 44 47C43.448 47 43 46.552 43 46C43 45.447 42.553 45 42 45C41.447 45 41 45.447 41 46C41 47.302 41.839 48.402 43 48.816V50.92C39.614 50.432 37 47.519 37 44C37 40.481 39.614 37.568 43 37.08Z" fill="black"/>
<path d="M24.333 50.203C24.753 49.571 25 48.814 25 48V45C25 42.794 23.206 41 21 41C18.794 41 17 42.794 17 45V48C17 48.814 17.247 49.571 17.667 50.203C16.585 50.505 15.654 51.152 15 52.031C14.346 51.153 13.415 50.505 12.333 50.203C12.753 49.571 13 48.814 13 48V45C13 42.794 11.206 41 9 41H6C5.448 41 5 41.447 5 42V48C5 48.814 5.247 49.571 5.667 50.203C3.56 50.791 2 52.708 2 55V61C2 61.553 2.448 62 3 62C3.552 62 4 61.553 4 61V55C4 53.691 4.847 52.588 6.018 52.179C6.061 52.897 6.351 53.545 6.813 54.04L6.014 58.836C5.961 59.154 6.065 59.479 6.293 59.707L8.293 61.707C8.488 61.902 8.744 62 9 62C9.256 62 9.512 61.902 9.707 61.707L11.707 59.707C11.936 59.478 12.04 59.154 11.986 58.836L11.187 54.04C11.648 53.545 11.939 52.897 11.982 52.179C13.153 52.588 14 53.691 14 55V61C14 61.553 14.448 62 15 62C15.552 62 16 61.553 16 61V55C16 53.691 16.847 52.588 18.018 52.179C18.061 52.897 18.351 53.545 18.813 54.04L18.014 58.836C17.961 59.154 18.065 59.479 18.293 59.707L20.293 61.707C20.488 61.902 20.744 62 21 62C21.256 62 21.512 61.902 21.707 61.707L23.707 59.707C23.936 59.478 24.04 59.154 23.986 58.836L23.187 54.04C23.648 53.545 23.939 52.897 23.982 52.179C25.153 52.588 26 53.691 26 55V61C26 61.553 26.448 62 27 62C27.552 62 28 61.553 28 61V55C28 52.708 26.44 50.791 24.333 50.203ZM9 53C8.449 53 8 52.552 8 52H10C10 52.552 9.551 53 9 53ZM7 48V47H11V48C11 49.103 10.103 50 9 50C7.897 50 7 49.103 7 48ZM7 43H9C10.103 43 11 43.897 11 45H7V43ZM9 59.586L8.071 58.657L8.686 54.968C8.79 54.979 8.892 55 9 55C9.108 55 9.21 54.979 9.315 54.968L9.93 58.657L9 59.586ZM21 53C20.449 53 20 52.552 20 52H22C22 52.552 21.551 53 21 53ZM19 48V47H23V48C23 49.103 22.103 50 21 50C19.897 50 19 49.103 19 48ZM21 43C22.103 43 23 43.897 23 45H19C19 43.897 19.897 43 21 43ZM21 59.586L20.071 58.657L20.686 54.968C20.79 54.979 20.892 55 21 55C21.108 55 21.21 54.979 21.315 54.968L21.93 58.657L21 59.586Z" fill="black"/>
</svg>
