<svg width="64" height="64" viewBox="0 0 64 64" fill="none" xmlns="http://www.w3.org/2000/svg">
<path d="M28.605 9.00001C26.445 9.00001 24.352 8.36601 22.554 7.16801C22.092 6.86201 21.473 6.98501 21.167 7.44501C20.86 7.90501 20.984 8.52501 21.444 8.83201C23.573 10.25 26.049 11 28.605 11H30C30.553 11 31 10.553 31 10C31 9.44701 30.553 9.00001 30 9.00001H28.605Z" fill="black"/>
<path d="M10 53C9.447 53 9 53.447 9 54V61C9 61.553 9.447 62 10 62C10.553 62 11 61.553 11 61V54C11 53.447 10.553 53 10 53Z" fill="black"/>
<path d="M24.707 17.707C25.42 16.994 26.58 16.994 27.293 17.707C27.488 17.902 27.744 18 28 18C28.256 18 28.512 17.902 28.707 17.707C29.098 17.316 29.098 16.684 28.707 16.293C27.215 14.801 24.785 14.801 23.293 16.293C22.902 16.684 22.902 17.316 23.293 17.707C23.684 18.098 24.316 18.098 24.707 17.707Z" fill="black"/>
<path d="M26 20C26.5523 20 27 19.5523 27 19C27 18.4477 26.5523 18 26 18C25.4477 18 25 18.4477 25 19C25 19.5523 25.4477 20 26 20Z" fill="black"/>
<path d="M22 44C22.5523 44 23 43.5523 23 43C23 42.4477 22.5523 42 22 42C21.4477 42 21 42.4477 21 43C21 43.5523 21.4477 44 22 44Z" fill="black"/>
<path d="M19.293 17.707C19.488 17.902 19.744 18 20 18C20.256 18 20.512 17.902 20.707 17.707C21.098 17.316 21.098 16.684 20.707 16.293C19.215 14.801 16.785 14.801 15.293 16.293C14.902 16.684 14.902 17.316 15.293 17.707C15.684 18.098 16.316 18.098 16.707 17.707C17.42 16.994 18.58 16.994 19.293 17.707Z" fill="black"/>
<path d="M18 20C18.5523 20 19 19.5523 19 19C19 18.4477 18.5523 18 18 18C17.4477 18 17 18.4477 17 19C17 19.5523 17.4477 20 18 20Z" fill="black"/>
<path d="M20.293 22.707L21.293 23.707C21.488 23.902 21.744 24 22 24C22.256 24 22.512 23.902 22.707 23.707C23.098 23.316 23.098 22.684 22.707 22.293L22.232 21.818L22.954 20.472C23.216 19.986 23.033 19.379 22.546 19.118C22.06 18.855 21.452 19.04 21.192 19.526L20.119 21.526C19.91 21.916 19.981 22.396 20.293 22.707Z" fill="black"/>
<path d="M24.445 25.168C22.959 26.158 21.041 26.158 19.554 25.168C19.093 24.861 18.473 24.985 18.167 25.445C17.86 25.905 17.984 26.525 18.444 26.832C19.524 27.552 20.761 27.912 21.999 27.912C23.237 27.912 24.474 27.552 25.554 26.832C26.014 26.525 26.138 25.905 25.831 25.445C25.524 24.985 24.905 24.861 24.445 25.168Z" fill="black"/>
<path d="M22 49C22.5523 49 23 48.5523 23 48C23 47.4477 22.5523 47 22 47C21.4477 47 21 47.4477 21 48C21 48.5523 21.4477 49 22 49Z" fill="black"/>
<path d="M22 54C22.5523 54 23 53.5523 23 53C23 52.4477 22.5523 52 22 52C21.4477 52 21 52.4477 21 53C21 53.5523 21.4477 54 22 54Z" fill="black"/>
<path d="M22 59C22.5523 59 23 58.5523 23 58C23 57.4477 22.5523 57 22 57C21.4477 57 21 57.4477 21 58C21 58.5523 21.4477 59 22 59Z" fill="black"/>
<path d="M45 41H43C42.447 41 42 41.447 42 42C42 42.553 42.447 43 43 43H45C45.553 43 46 42.553 46 42C46 41.447 45.553 41 45 41Z" fill="black"/>
<path d="M51 41H49C48.447 41 48 41.447 48 42C48 42.553 48.447 43 49 43H51C51.553 43 52 42.553 52 42C52 41.447 51.553 41 51 41Z" fill="black"/>
<path d="M45 45H43C42.447 45 42 45.447 42 46C42 46.553 42.447 47 43 47H45C45.553 47 46 46.553 46 46C46 45.447 45.553 45 45 45Z" fill="black"/>
<path d="M51 45H49C48.447 45 48 45.447 48 46C48 46.553 48.447 47 49 47H51C51.553 47 52 46.553 52 46C52 45.447 51.553 45 51 45Z" fill="black"/>
<path d="M45 49H43C42.447 49 42 49.447 42 50C42 50.553 42.447 51 43 51H45C45.553 51 46 50.553 46 50C46 49.447 45.553 49 45 49Z" fill="black"/>
<path d="M51 49H49C48.447 49 48 49.447 48 50C48 50.553 48.447 51 49 51H51C51.553 51 52 50.553 52 50C52 49.447 51.553 49 51 49Z" fill="black"/>
<path d="M61.555 50.168L56 46.465V27C56 26.447 55.553 26 55 26H52C51.541 26 51.142 26.312 51.03 26.758L50.22 30H49C48.621 30 48.275 30.214 48.105 30.553L47.382 32H44C43.621 32 43.275 32.214 43.105 32.553L41.382 36H39.684C39.467 35.758 39.239 35.529 39 35.314V33.5C39 31.681 38.396 29.87 37.302 28.402C36.462 27.277 36 25.892 36 24.5V13.36C36 10.567 34.993 7.87298 33.164 5.77298C32.801 5.35398 32.166 5.31298 31.754 5.67498C31.337 6.03698 31.293 6.66898 31.656 7.08498C33.168 8.82198 34 11.05 34 13.36V24.5C34 26.319 34.604 28.13 35.698 29.598C36.538 30.723 37 32.108 37 33.5V33.942C35.774 33.332 34.412 33 33 33H31.414L29.707 31.293C29.337 30.923 28.745 30.9 28.35 31.241L28 31.541V29.981C30.423 28.154 32 25.262 32 22V17C32 14.794 30.206 13 28 13H27C23.991 13 21.008 12.006 18.6 10.2C18.38 10.034 18.103 9.96598 17.831 10.014C17.56 10.06 17.32 10.216 17.168 10.445L15.733 12.596C15.491 12.959 15.129 13.235 14.715 13.373C13.091 13.916 12 15.431 12 17.143V22C12 25.261 13.577 28.154 16 29.981V31.541L15.65 31.241C15.254 30.9 14.662 30.923 14.293 31.293L12.586 33H11C9.562 33 8.207 33.347 7 33.95V33.5C7 32.108 7.462 30.723 8.302 29.598C9.396 28.13 10 26.319 10 24.5V12.18C10 9.69598 11.758 7.50498 14.091 7.08298C15.075 6.90398 16.085 7.02098 17.009 7.42598C17.413 7.60298 17.886 7.49598 18.172 7.15698C19.939 5.08198 22.522 3.92898 25.232 3.99998C26.484 4.03398 27.688 4.32998 28.812 4.87898C29.307 5.12298 29.908 4.91598 30.149 4.41898C30.391 3.92298 30.186 3.32398 29.689 3.08198C28.308 2.40698 26.826 2.04398 25.285 1.99998C22.209 1.93798 19.259 3.12998 17.127 5.33498C16.029 4.98198 14.87 4.90798 13.732 5.11498C10.411 5.71598 8 8.68698 8 12.18V24.5C8 25.892 7.538 27.277 6.698 28.402C5.604 29.87 5 31.681 5 33.5V35.311C3.164 36.959 2 39.343 2 42V61C2 61.553 2.447 62 3 62C3.553 62 4 61.553 4 61V42C4 38.658 6.357 35.859 9.494 35.168L7.064 41.649C6.926 42.016 7.016 42.43 7.293 42.708L8.914 44.33L8.02 48.804C7.955 49.132 8.057 49.471 8.293 49.707L17 58.414V60C17 60.553 17.447 61 18 61C18.553 61 19 60.553 19 60V57C19 56.893 18.982 56.785 18.948 56.684L16.578 49.584C16.403 49.061 15.836 48.775 15.313 48.952C14.789 49.127 14.506 49.693 14.681 50.217L16.209 54.796L10.085 48.671L10.98 44.196C11.045 43.868 10.943 43.529 10.707 43.293L9.162 41.748L11.693 35H12V42C12 42.107 12.018 42.215 12.052 42.317L13.422 46.417C13.562 46.835 13.951 47.1 14.37 47.1C14.474 47.1 14.582 47.083 14.687 47.048C15.21 46.873 15.493 46.307 15.318 45.782L14 41.837V38.871L15.081 41.393C15.189 41.647 15.397 41.844 15.656 41.939C15.768 41.979 15.884 42 16 42C16.153 42 16.307 41.965 16.447 41.895L22 39.118L27.553 41.894C27.693 41.965 27.847 42 28 42C28.116 42 28.232 41.979 28.344 41.939C28.603 41.844 28.811 41.647 28.919 41.393L30 38.871V41.838L25.052 56.684C25.018 56.786 25 56.893 25 57V60C25 60.553 25.447 61 26 61C26.553 61 27 60.553 27 60V58.414L32 53.414V61C32 61.553 32.447 62 33 62H44C44.553 62 45 61.553 45 61V56H49V60C48.447 60 48 60.447 48 61C48 61.553 48.447 62 49 62H55C55.553 62 56 61.553 56 61V58H57C57.553 58 58 57.553 58 57C58 56.447 57.553 56 57 56H56V54H57C57.553 54 58 53.553 58 53C58 52.447 57.553 52 57 52H56V48.868L60 51.535V60H59C58.447 60 58 60.447 58 61C58 61.553 58.447 62 59 62H61C61.553 62 62 61.553 62 61V51C62 50.666 61.833 50.354 61.555 50.168ZM52.781 28H54V30H52.281L52.781 28ZM44.618 34H46.382L45.382 36H43.618L44.618 34ZM35.453 46.163L35.086 44.329L36.707 42.707C36.984 42.43 37.074 42.016 36.936 41.648L34.505 35.165C35.83 35.457 37.04 36.13 38 37.115V44.465L35.453 46.163ZM14 22V17.143C14 16.292 14.542 15.54 15.349 15.271C16.183 14.994 16.911 14.437 17.398 13.707L18.266 12.405C20.851 14.084 23.913 15 27 15H28C29.103 15 30 15.897 30 17V22C30 26.411 26.411 30 22 30C17.589 30 14 26.411 14 22ZM18 31.159C19.226 31.697 20.578 32 22 32C23.422 32 24.774 31.697 26 31.159V33.255L22 36.684L18 33.255V31.159ZM16.501 39.631L14.186 34.229L15.053 33.363L20.206 37.78L16.501 39.631ZM27.499 39.631L23.794 37.779L28.947 33.362L29.814 34.228L27.499 39.631ZM27.788 54.798L31.948 42.316C31.982 42.214 32 42.107 32 42V35H32.307L34.838 41.748L33.293 43.293C33.057 43.529 32.954 43.868 33.02 44.196L33.653 47.363L32.445 48.168C32.167 48.354 32 48.666 32 49V50.586L27.788 54.798ZM34 49.535L38 46.868V51H37C36.447 51 36 51.447 36 52C36 52.553 36.447 53 37 53H38V55H37C36.447 55 36 55.447 36 56C36 56.553 36.447 57 37 57H38V60H34V49.535ZM54 60H51V55C51 54.447 50.553 54 50 54H44C43.447 54 43 54.447 43 55V60H40V38H51C51.553 38 52 37.553 52 37C52 36.447 51.553 36 51 36H47.618L49.618 32H54V60Z" fill="black"/>
</svg>
