<svg width="64" height="64" viewBox="0 0 64 64" fill="none" xmlns="http://www.w3.org/2000/svg">
<path d="M27.827 60.425C24.045 53.404 21.574 45.836 20.483 37.933C20.408 37.386 19.902 36.995 19.356 37.079C18.809 37.154 18.426 37.659 18.502 38.206C19.625 46.347 22.17 54.142 26.064 61.37L26.118 61.471C26.298 61.809 26.644 62 27.001 62C27.16 62 27.321 61.962 27.471 61.882C27.958 61.622 28.143 61.017 27.882 60.529L27.827 60.425Z" fill="black"/>
<path d="M16 45C15.447 45 15 45.447 15 46V61C15 61.553 15.447 62 16 62C16.553 62 17 61.553 17 61V46C17 45.447 16.553 45 16 45Z" fill="black"/>
<path d="M28 43C28.5523 43 29 42.5523 29 42C29 41.4477 28.5523 41 28 41C27.4477 41 27 41.4477 27 42C27 42.5523 27.4477 43 28 43Z" fill="black"/>
<path d="M28 47C28.5523 47 29 46.5523 29 46C29 45.4477 28.5523 45 28 45C27.4477 45 27 45.4477 27 46C27 46.5523 27.4477 47 28 47Z" fill="black"/>
<path d="M28 51C28.5523 51 29 50.5523 29 50C29 49.4477 28.5523 49 28 49C27.4477 49 27 49.4477 27 50C27 50.5523 27.4477 51 28 51Z" fill="black"/>
<path d="M28 55C28.5523 55 29 54.5523 29 54C29 53.4477 28.5523 53 28 53C27.4477 53 27 53.4477 27 54C27 54.5523 27.4477 55 28 55Z" fill="black"/>
<path d="M32 20C32.5523 20 33 19.5523 33 19C33 18.4477 32.5523 18 32 18C31.4477 18 31 18.4477 31 19C31 19.5523 31.4477 20 32 20Z" fill="black"/>
<path d="M21.293 17.707C21.684 18.098 22.316 18.098 22.707 17.707C23.42 16.994 24.58 16.994 25.293 17.707C25.488 17.902 25.744 18 26 18C26.256 18 26.512 17.902 26.707 17.707C27.098 17.316 27.098 16.684 26.707 16.293C25.215 14.801 22.785 14.801 21.293 16.293C20.902 16.684 20.902 17.316 21.293 17.707Z" fill="black"/>
<path d="M24 20C24.5523 20 25 19.5523 25 19C25 18.4477 24.5523 18 24 18C23.4477 18 23 18.4477 23 19C23 19.5523 23.4477 20 24 20Z" fill="black"/>
<path d="M25.555 25.168C25.093 24.861 24.474 24.985 24.168 25.445C23.861 25.905 23.985 26.525 24.445 26.832C25.525 27.552 26.762 27.912 28 27.912C29.238 27.912 30.475 27.552 31.555 26.832C32.015 26.525 32.139 25.905 31.832 25.445C31.525 24.985 30.905 24.861 30.445 25.168C28.959 26.158 27.041 26.158 25.555 25.168Z" fill="black"/>
<path d="M26.293 22.707L27.293 23.707C27.488 23.902 27.744 24 28 24C28.256 24 28.512 23.902 28.707 23.707C29.098 23.316 29.098 22.684 28.707 22.293L28.232 21.818L28.954 20.472C29.216 19.986 29.033 19.379 28.546 19.118C28.058 18.855 27.453 19.04 27.192 19.526L26.119 21.526C25.91 21.916 25.981 22.396 26.293 22.707Z" fill="black"/>
<path d="M32.076 11.586L32.445 11.832C32.616 11.945 32.809 12 32.999 12C33.322 12 33.64 11.844 33.832 11.555C34.139 11.095 34.015 10.475 33.555 10.168L33.186 9.92201C32.055 9.16801 31.122 8.13501 30.485 6.93501C30.226 6.44701 29.62 6.26001 29.132 6.52001C28.645 6.77901 28.458 7.38401 28.717 7.87301C29.509 9.36401 30.67 10.648 32.076 11.586Z" fill="black"/>
<path d="M58.091 47.004L55.396 46.759C55.343 46.622 55.288 46.488 55.229 46.355L56.961 44.277C57.292 43.88 57.266 43.295 56.899 42.929L54.071 40.101C53.705 39.735 53.122 39.708 52.723 40.039L50.645 41.771C50.512 41.712 50.377 41.657 50.241 41.604L49.996 38.909C49.949 38.395 49.518 38 49 38H45C44.482 38 44.051 38.395 44.004 38.909L43.759 41.604C43.622 41.657 43.488 41.712 43.355 41.771L41.277 40.039C40.879 39.708 40.295 39.734 39.929 40.101L37.101 42.929C36.735 43.294 36.708 43.879 37.039 44.277L38.771 46.355C38.712 46.488 38.657 46.623 38.604 46.759L35.909 47.004C35.82 47.012 35.741 47.045 35.661 47.075C36.769 43.054 37.507 38.928 37.869 34.716C38.842 35.081 39.766 35.575 40.6 36.201C40.999 36.499 41.384 36.833 41.746 37.193C41.941 37.387 42.196 37.485 42.452 37.485C42.708 37.485 42.965 37.387 43.16 37.191C43.55 36.8 43.55 36.167 43.158 35.777C42.73 35.35 42.273 34.954 41.801 34.6C40.296 33.471 38.546 32.693 36.712 32.299C36.71 32.297 36.709 32.294 36.707 32.292L36.614 32.2C36.867 32.107 37.121 32.029 37.372 31.929C37.421 31.908 37.469 31.885 37.515 31.858L41.186 29.657C42.322 28.973 43 27.773 43 26.45C43 20.737 41.781 15.219 39.377 10.048C37.104 5.159 32.15 2 26.76 2C25.104 2 23.493 2.287 21.972 2.853C21.454 3.045 21.191 3.622 21.383 4.139C21.576 4.657 22.153 4.922 22.669 4.728C23.967 4.245 25.343 4 26.76 4C31.376 4 35.616 6.705 37.563 10.892C39.844 15.796 41 21.03 41 26.45C41 27.066 40.684 27.624 40.155 27.942L38.534 28.914C39.67 22.223 36.463 15.421 30.338 12.122C29.244 11.533 28.274 10.698 27.53 9.708L25.8 7.4C25.638 7.183 25.395 7.042 25.126 7.007C24.858 6.977 24.587 7.049 24.375 7.218C17.929 12.375 14.181 20.013 14.016 28.241L13.532 27.95C12.036 27.055 11.212 25.362 11.432 23.633C12.079 18.445 13.994 13.429 16.971 9.129C17.659 8.14 18.481 7.268 19.415 6.536C19.85 6.196 19.927 5.567 19.586 5.133C19.247 4.698 18.617 4.619 18.183 4.962C17.091 5.816 16.13 6.834 15.328 7.989C12.168 12.554 10.135 17.879 9.448 23.382C9.128 25.898 10.328 28.365 12.504 29.666L14.484 30.856C14.526 30.88 14.569 30.903 14.614 30.921L16.674 31.781C17.29 32.038 17.921 32.265 18.557 32.476C16.991 32.908 15.503 33.621 14.201 34.598C10.944 37.042 9 40.93 9 45V61C9 61.553 9.447 62 10 62C10.553 62 11 61.553 11 61V45C11 41.556 12.645 38.267 15.4 36.2C16.624 35.281 18.04 34.635 19.526 34.29L23.105 41.447C23.249 41.734 23.522 41.935 23.839 41.987C23.894 41.996 23.947 42 24 42C24.263 42 24.519 41.896 24.707 41.707L28 38.414L31.293 41.707C31.481 41.896 31.737 42 32 42C32.053 42 32.106 41.996 32.16 41.987C32.477 41.935 32.751 41.734 32.894 41.447L35.762 35.71C34.864 44.397 32.329 52.705 28.171 60.428L28.117 60.529C27.856 61.016 28.041 61.622 28.528 61.882C28.679 61.962 28.84 62 28.999 62C29.356 62 29.702 61.809 29.882 61.471L29.935 61.374C32.026 57.49 33.703 53.456 35 49.309V52C35 52.518 35.395 52.949 35.909 52.996L38.604 53.241C38.657 53.378 38.712 53.512 38.771 53.645L37.039 55.723C36.708 56.12 36.734 56.705 37.101 57.071L39.929 59.899C40.295 60.265 40.879 60.292 41.277 59.961L43.355 58.229C43.488 58.288 43.623 58.343 43.759 58.396L44.004 61.091C44.051 61.605 44.482 62 45 62H49C49.518 62 49.949 61.605 49.996 61.091L50.241 58.396C50.378 58.343 50.512 58.288 50.645 58.229L52.723 59.961C53.149 60.314 53.779 60.257 54.132 59.833C54.486 59.408 54.428 58.778 54.004 58.424L51.429 56.278C51.115 56.018 50.673 55.971 50.314 56.167C49.909 56.386 49.471 56.566 49.015 56.704C48.624 56.821 48.344 57.164 48.307 57.57L48.087 60H45.913L45.692 57.569C45.655 57.163 45.375 56.82 44.984 56.703C44.528 56.565 44.09 56.385 43.685 56.166C43.328 55.971 42.885 56.017 42.57 56.277L40.697 57.839L39.16 56.302L40.722 54.429C40.984 54.115 41.028 53.673 40.833 53.314C40.614 52.909 40.434 52.471 40.296 52.015C40.179 51.624 39.836 51.344 39.43 51.307L37 51.087V48.913L39.431 48.692C39.837 48.655 40.18 48.375 40.297 47.984C40.435 47.528 40.615 47.09 40.834 46.685C41.028 46.326 40.984 45.884 40.723 45.57L39.161 43.697L40.698 42.16L42.571 43.722C42.886 43.982 43.329 44.03 43.686 43.833C44.091 43.614 44.529 43.434 44.985 43.296C45.376 43.179 45.656 42.836 45.693 42.43L45.913 40H48.087L48.308 42.431C48.345 42.837 48.625 43.18 49.016 43.297C49.472 43.435 49.91 43.615 50.315 43.834C50.673 44.03 51.114 43.983 51.43 43.723L53.303 42.161L54.84 43.698L53.278 45.571C53.016 45.885 52.972 46.327 53.167 46.686C53.386 47.091 53.566 47.529 53.704 47.985C53.821 48.376 54.164 48.656 54.57 48.693L57 48.913V51.087L54.569 51.308C54.163 51.345 53.82 51.625 53.703 52.016C53.565 52.472 53.385 52.91 53.166 53.315C52.972 53.674 53.016 54.116 53.277 54.43L55.423 57.005C55.777 57.429 56.405 57.486 56.832 57.133C57.256 56.779 57.313 56.149 56.96 55.724L55.228 53.646C55.287 53.513 55.342 53.378 55.395 53.242L58.09 52.997C58.605 52.949 59 52.518 59 52V48C59 47.482 58.605 47.051 58.091 47.004ZM28 35.771L24 32.914V31.159C25.226 31.697 26.578 32 28 32C29.422 32 30.774 31.697 32 31.159V32.914L28 35.771ZM34 30.942V30C34 29.994 33.997 29.989 33.997 29.983C35.125 29.133 36.073 28.058 36.76 26.815C36.713 27.954 36.519 29.101 36.183 30.233C35.456 30.508 34.728 30.741 34 30.942ZM24.831 9.441L25.931 10.907C26.846 12.129 28.042 13.157 29.389 13.884C30.119 14.277 30.801 14.729 31.434 15.228C30.65 15.344 29.895 15.691 29.294 16.293C28.903 16.684 28.903 17.316 29.294 17.707C29.685 18.098 30.317 18.098 30.708 17.707C31.421 16.994 32.581 16.994 33.294 17.707C33.488 17.902 33.744 18 34 18C34.027 18 34.053 17.987 34.081 17.984C34.906 19.118 35.547 20.369 36 21.687V22C36 26.411 32.411 30 28 30C23.589 30 20 26.411 20 22V15.047C21.317 12.98 22.933 11.088 24.831 9.441ZM16 29.334V28.807C16 25.333 16.698 21.967 18 18.867V22C18 25.263 19.578 28.157 22.003 29.983C22.003 29.989 22 29.994 22 30V31.339C21.905 31.319 21.81 31.303 21.715 31.282L21.581 31.186C21.334 31.01 21.034 30.975 20.756 31.045C20.164 30.89 19.577 30.718 19 30.521V29C19 28.447 18.553 28 18 28C17.447 28 17 28.447 17 29V29.752L16 29.334ZM24.274 39.312L21.625 34.016C21.75 34.011 21.875 34 22 34H22.079L26.458 37.128L24.274 39.312ZM31.726 39.312L29.542 37.128L33.921 34H34C34.125 34 34.25 34.011 34.375 34.015L31.726 39.312Z" fill="black"/>
<path d="M47 45C44.243 45 42 47.243 42 50C42 52.757 44.243 55 47 55C49.757 55 52 52.757 52 50C52 47.243 49.757 45 47 45ZM47 53C45.346 53 44 51.654 44 50C44 48.346 45.346 47 47 47C48.654 47 50 48.346 50 50C50 51.654 48.654 53 47 53Z" fill="black"/>
<path d="M61.5 29.401L60.048 28.563C60.065 28.374 60.072 28.186 60.072 28C60.072 27.814 60.064 27.626 60.048 27.437L61.5 26.599C61.729 26.466 61.897 26.247 61.966 25.992C62.035 25.737 61.999 25.463 61.866 25.233L59.866 21.768C59.733 21.539 59.514 21.371 59.259 21.302C59.004 21.233 58.73 21.269 58.5 21.402L57.045 22.242C56.736 22.029 56.412 21.843 56.072 21.681V20C56.072 19.447 55.625 19 55.072 19H51.072C50.519 19 50.072 19.447 50.072 20V21.681C49.732 21.841 49.407 22.029 49.098 22.242L47.643 21.402C47.165 21.126 46.553 21.29 46.277 21.768C46.001 22.246 46.165 22.858 46.643 23.134L48.676 24.308C49.043 24.52 49.505 24.478 49.826 24.202C50.291 23.805 50.822 23.499 51.405 23.292C51.804 23.151 52.071 22.773 52.071 22.35V21H54.071V22.349C54.071 22.773 54.338 23.15 54.737 23.291C55.32 23.498 55.851 23.804 56.315 24.201C56.637 24.477 57.1 24.519 57.465 24.307L58.632 23.633L59.632 25.365L58.466 26.038C58.1 26.25 57.905 26.669 57.983 27.085C58.043 27.407 58.071 27.706 58.071 27.999C58.071 28.292 58.043 28.591 57.983 28.913C57.906 29.329 58.1 29.748 58.466 29.96L59.632 30.633L58.632 32.365L57.465 31.691C57.1 31.479 56.637 31.522 56.315 31.797C55.851 32.194 55.32 32.5 54.737 32.707C54.338 32.849 54.071 33.226 54.071 33.649V35H52.071V33.651C52.071 33.227 51.804 32.849 51.405 32.709C50.822 32.502 50.291 32.196 49.826 31.799C49.505 31.524 49.043 31.481 48.676 31.693L47.509 32.367L46.509 30.635L47.675 29.962C48.041 29.75 48.236 29.331 48.158 28.915C48.102 28.6 48.072 28.293 48.072 28C48.072 27.707 48.101 27.4 48.159 27.086C48.236 26.67 48.042 26.251 47.676 26.039L45.644 24.866C45.166 24.59 44.554 24.754 44.278 25.232C44.002 25.71 44.166 26.322 44.644 26.598L46.097 27.436C46.08 27.626 46.073 27.815 46.073 27.999C46.073 28.183 46.081 28.372 46.097 28.562L44.644 29.4C44.415 29.533 44.247 29.752 44.178 30.007C44.109 30.262 44.145 30.536 44.278 30.766L46.278 34.231C46.411 34.46 46.63 34.628 46.885 34.697C47.14 34.763 47.413 34.728 47.644 34.597L49.099 33.757C49.408 33.97 49.733 34.157 50.073 34.318V36C50.073 36.553 50.52 37 51.073 37H55.073C55.626 37 56.073 36.553 56.073 36V34.319C56.413 34.158 56.737 33.971 57.046 33.758L58.501 34.598C58.73 34.729 59.004 34.764 59.26 34.698C59.516 34.63 59.735 34.462 59.867 34.232L61.867 30.767C62 30.538 62.035 30.264 61.967 30.008C61.899 29.752 61.729 29.534 61.5 29.401Z" fill="black"/>
<path d="M56.072 28C56.072 26.346 54.726 25 53.072 25C51.418 25 50.072 26.346 50.072 28C50.072 29.654 51.418 31 53.072 31C54.726 31 56.072 29.654 56.072 28ZM52.072 28C52.072 27.448 52.52 27 53.072 27C53.624 27 54.072 27.448 54.072 28C54.072 28.552 53.624 29 53.072 29C52.52 29 52.072 28.552 52.072 28Z" fill="black"/>
</svg>
