<svg width="64" height="64" viewBox="0 0 64 64" fill="none" xmlns="http://www.w3.org/2000/svg">
<path d="M13 47C12.448 47 12 47.448 12 48V61C12 61.552 12.448 62 13 62C13.552 62 14 61.552 14 61V48C14 47.448 13.552 47 13 47Z" fill="black"/>
<path d="M27.707 18.707C28.42 17.994 29.58 17.994 30.293 18.707C30.488 18.902 30.744 19 31 19C31.256 19 31.512 18.902 31.707 18.707C32.098 18.316 32.098 17.684 31.707 17.293C30.215 15.8 27.785 15.8 26.293 17.293C25.902 17.684 25.902 18.316 26.293 18.707C26.684 19.098 27.316 19.098 27.707 18.707Z" fill="black"/>
<path d="M29 21C29.5523 21 30 20.5523 30 20C30 19.4477 29.5523 19 29 19C28.4477 19 28 19.4477 28 20C28 20.5523 28.4477 21 29 21Z" fill="black"/>
<path d="M25 59C25.5523 59 26 58.5523 26 58C26 57.4477 25.5523 57 25 57C24.4477 57 24 57.4477 24 58C24 58.5523 24.4477 59 25 59Z" fill="black"/>
<path d="M21 21C21.5523 21 22 20.5523 22 20C22 19.4477 21.5523 19 21 19C20.4477 19 20 19.4477 20 20C20 20.5523 20.4477 21 21 21Z" fill="black"/>
<path d="M21.445 27.832C22.525 28.552 23.762 28.912 25 28.912C26.238 28.912 27.475 28.552 28.555 27.832C29.014 27.526 29.138 26.905 28.832 26.445C28.526 25.985 27.905 25.86 27.445 26.168C25.96 27.158 24.04 27.158 22.554 26.168C22.095 25.86 21.473 25.985 21.167 26.445C20.862 26.905 20.986 27.526 21.445 27.832Z" fill="black"/>
<path d="M24.293 24.707C24.488 24.902 24.744 25 25 25C25.256 25 25.512 24.902 25.707 24.707C26.098 24.316 26.098 23.684 25.707 23.293L25.232 22.818L25.954 21.472C26.215 20.986 26.032 20.379 25.545 20.118C25.058 19.857 24.452 20.039 24.191 20.527L23.118 22.527C22.91 22.916 22.98 23.395 23.292 23.707L24.293 24.707Z" fill="black"/>
<path d="M61.777 46.371C61.588 46.136 61.302 46 61 46H59V43C59 42.448 58.553 42 58 42H44.303L42.338 40.69C41.44 39.073 40.257 37.693 38.8 36.6C38.144 36.108 37.447 35.69 36.72 35.334C38.193 33.552 39 31.348 39 29V16C39 13.276 38.218 10.642 36.736 8.382C36.434 7.921 35.815 7.789 35.352 8.093C34.89 8.396 34.761 9.015 35.064 9.477C36.18 11.181 36.831 13.136 36.97 15.174C36.664 15.07 36.341 15 36 15C35.648 15 35.314 15.072 35 15.184V15C35 14.541 34.687 14.141 34.242 14.03C31.984 13.466 30.092 11.947 29.05 9.864L28.894 9.552C28.725 9.214 28.378 9 28 9H27.354C24.904 9 22.702 10.361 21.605 12.553C20.851 14.062 19.333 15 17.646 15C16.967 15 16.354 15.264 15.885 15.686C15.368 15.264 14.718 15 14 15C13.663 15 13.345 15.068 13.042 15.171C13.471 8.941 18.663 4 25 4C27.768 4 30.466 4.963 32.596 6.713C33.023 7.064 33.653 7 34.003 6.575C34.354 6.148 34.292 5.518 33.865 5.167C31.378 3.125 28.23 2 25 2C17.28 2 11 8.28 11 16V29C11 30.453 11.307 31.854 11.911 33.164C12.08 33.53 12.442 33.746 12.82 33.746C12.96 33.746 13.103 33.717 13.238 33.654C13.74 33.423 13.959 32.829 13.728 32.327C13.245 31.281 13 30.161 13 29V21.974C13.584 22.416 14.257 22.747 15 22.898V23C15 26.262 16.577 29.154 19 30.981V32.54L18.651 32.241C18.255 31.902 17.663 31.924 17.293 32.293L15.293 34.293C15.198 34.388 15.135 34.501 15.085 34.62C13.687 35.06 12.38 35.715 11.2 36.6C7.944 39.042 6 42.93 6 47V61C6 61.552 6.448 62 7 62C7.552 62 8 61.552 8 61V47C8 43.556 9.645 40.266 12.4 38.2C13.368 37.474 14.437 36.929 15.579 36.556L18.081 42.394C18.189 42.647 18.397 42.844 18.656 42.939C18.768 42.98 18.884 43 19 43C19.154 43 19.307 42.964 19.447 42.895L21.388 41.925L24 46.277V48H21C20.448 48 20 48.448 20 49V54C20 54.552 20.448 55 21 55H29C29.552 55 30 54.552 30 54V49C30 48.448 29.552 48 29 48H26V46.277L28.612 41.924L30.553 42.894C30.693 42.964 30.846 43 31 43C31.116 43 31.232 42.98 31.344 42.939C31.603 42.844 31.811 42.647 31.919 42.394L34.421 36.556C35.564 36.929 36.633 37.474 37.601 38.199C38.298 38.722 38.918 39.328 39.468 39.999H35C34.447 39.999 34 40.447 34 40.999V60.999C34 61.551 34.447 61.999 35 61.999H54C54.553 61.999 55 61.551 55 60.999C55 60.447 54.553 59.999 54 59.999H36.237L38.809 47.999H59.763L57.023 60.79C56.907 61.33 57.251 61.862 57.791 61.978C57.861 61.993 57.932 62 58.001 62C58.462 62 58.877 61.679 58.978 61.209L61.978 47.209C62.041 46.914 61.968 46.606 61.777 46.371ZM28 53H22V50H28V53ZM34.827 34.456C34.79 34.4 34.756 34.342 34.707 34.293L32.707 32.293C32.337 31.923 31.746 31.901 31.349 32.241L31 32.54V30.981C33.423 29.154 35 26.262 35 23V22.899C35.743 22.747 36.416 22.417 37 21.975V29C37 31.054 36.227 32.969 34.827 34.456ZM36 17C36.552 17 37 17.449 37 18C37 19.304 36.164 20.416 35 20.829V18C35 17.449 35.448 17 36 17ZM13 18C13 17.449 13.449 17 14 17C14.551 17 15 17.449 15 18V20.829C13.836 20.416 13 19.304 13 18ZM17 23V17.646C17 17.29 17.29 17 17.646 17C18.036 17 18.416 16.954 18.79 16.887C18.617 17.01 18.447 17.138 18.293 17.293C17.902 17.684 17.902 18.316 18.293 18.707C18.684 19.098 19.316 19.098 19.707 18.707C20.42 17.994 21.58 17.994 22.293 18.707C22.488 18.902 22.744 19 23 19C23.256 19 23.512 18.902 23.707 18.707C24.098 18.316 24.098 17.684 23.707 17.293C22.894 16.479 21.804 16.125 20.738 16.198C21.858 15.583 22.796 14.645 23.395 13.447C24.149 11.938 25.667 11 27.354 11H27.386C28.588 13.249 30.596 14.942 33 15.749V23C33 27.411 29.411 31 25 31C20.589 31 17 27.411 17 23ZM21 32.159C22.226 32.697 23.578 33 25 33C26.422 33 27.774 32.697 29 32.159V34.254L25 37.683L21 34.254V32.159ZM17.186 35.229L18.052 34.362L23.205 38.779L19.501 40.631L17.186 35.229ZM25 44.056L23.182 41.027L25 40.118L26.818 41.027L25 44.056ZM30.499 40.631L26.795 38.779L31.948 34.362L32.814 35.229L30.499 40.631ZM38 46C37.528 46 37.121 46.33 37.022 46.791L36 51.562V42H40.697L43.445 43.832C43.609 43.941 43.803 44 44 44H57V46H38Z" fill="black"/>
<path d="M53.958 55H41.185C40.632 55 40.185 55.448 40.185 56C40.185 56.552 40.632 57 41.185 57H53.958C54.511 57 54.958 56.552 54.958 56C54.958 55.448 54.511 55 53.958 55Z" fill="black"/>
<path d="M54.815 51H42.042C41.489 51 41.042 51.448 41.042 52C41.042 52.552 41.489 53 42.042 53H54.815C55.368 53 55.815 52.552 55.815 52C55.815 51.448 55.368 51 54.815 51Z" fill="black"/>
</svg>
