<svg width="64" height="64" viewBox="0 0 64 64" fill="none" xmlns="http://www.w3.org/2000/svg">
<path d="M9 13C9.26522 13 9.51957 12.8946 9.70711 12.7071C9.89464 12.5196 10 12.2652 10 12V7C10 6.20435 10.3161 5.44129 10.8787 4.87868C11.4413 4.31607 12.2044 4 13 4H43C43.7956 4 44.5587 4.31607 45.1213 4.87868C45.6839 5.44129 46 6.20435 46 7V11.833C46 12.0982 46.1054 12.3526 46.2929 12.5401C46.4804 12.7276 46.7348 12.833 47 12.833C47.2652 12.833 47.5196 12.7276 47.7071 12.5401C47.8946 12.3526 48 12.0982 48 11.833V7C47.9984 5.6744 47.4711 4.40356 46.5338 3.46622C45.5964 2.52888 44.3256 2.00159 43 2H13C11.6744 2.00159 10.4036 2.52888 9.46622 3.46622C8.52888 4.40356 8.00159 5.6744 8 7V12C8 12.2652 8.10536 12.5196 8.29289 12.7071C8.48043 12.8946 8.73478 13 9 13Z" fill="black"/>
<path d="M13 8C13.5523 8 14 7.55228 14 7C14 6.44772 13.5523 6 13 6C12.4477 6 12 6.44772 12 7C12 7.55228 12.4477 8 13 8Z" fill="black"/>
<path d="M17 8C17.5523 8 18 7.55228 18 7C18 6.44772 17.5523 6 17 6C16.4477 6 16 6.44772 16 7C16 7.55228 16.4477 8 17 8Z" fill="black"/>
<path d="M55 28C54.7348 28 54.4804 28.1054 54.2929 28.2929C54.1054 28.4804 54 28.7348 54 29V50.8L40.437 48.252C39.8913 48.1494 39.3289 48.1815 38.7985 48.3455C38.268 48.5095 37.7856 48.8004 37.393 49.193L37 49.585C36.7307 49.8425 36.3725 49.9861 36 49.9861C35.6275 49.9861 35.2693 49.8425 35 49.585L34.607 49.192C34.2144 48.7994 33.732 48.5085 33.2015 48.3445C32.6711 48.1805 32.1087 48.1484 31.563 48.251L18 50.8V41C18 40.7348 17.8946 40.4804 17.7071 40.2929C17.5196 40.1054 17.2652 40 17 40C16.7348 40 16.4804 40.1054 16.2929 40.2929C16.1054 40.4804 16 40.7348 16 41V52C15.9999 52.147 16.0322 52.2922 16.0946 52.4253C16.157 52.5584 16.2479 52.6761 16.361 52.77C16.4748 52.8629 16.6074 52.93 16.7497 52.9667C16.8919 53.0035 17.0404 53.0091 17.185 52.983L31.933 50.218C32.1588 50.1744 32.3919 50.187 32.6117 50.2549C32.8314 50.3227 33.0311 50.4436 33.193 50.607L33.586 51C34.2368 51.6199 35.1012 51.9657 36 51.9657C36.8988 51.9657 37.7632 51.6199 38.414 51L38.807 50.607C38.9689 50.4436 39.1686 50.3227 39.3883 50.2549C39.6081 50.187 39.8412 50.1744 40.067 50.218L46 51.33V57C46 57.7956 45.6839 58.5587 45.1213 59.1213C44.5587 59.6839 43.7956 60 43 60H13C12.2044 60 11.4413 59.6839 10.8787 59.1213C10.3161 58.5587 10 57.7956 10 57V16C10 15.7348 9.89464 15.4804 9.70711 15.2929C9.51957 15.1054 9.26522 15 9 15C8.73478 15 8.48043 15.1054 8.29289 15.2929C8.10536 15.4804 8 15.7348 8 16V57C8.00159 58.3256 8.52888 59.5964 9.46622 60.5338C10.4036 61.4711 11.6744 61.9984 13 62H43C44.3256 61.9984 45.5964 61.4711 46.5338 60.5338C47.4711 59.5964 47.9984 58.3256 48 57V51.7L54.815 52.978C54.8759 52.9908 54.9378 52.9982 55 53C55.2652 53 55.5196 52.8946 55.7071 52.7071C55.8946 52.5196 56 52.2652 56 52V29C56 28.7348 55.8946 28.4804 55.7071 28.2929C55.5196 28.1054 55.2652 28 55 28Z" fill="black"/>
<path d="M47.21 41.074L41.21 39.788C40.9506 39.7323 40.6797 39.7819 40.4569 39.9259C40.2341 40.07 40.0777 40.2966 40.022 40.556C39.9663 40.8154 40.0159 41.0862 40.1599 41.309C40.304 41.5318 40.5306 41.6883 40.79 41.744L46.79 43.03C46.8594 43.0446 46.9301 43.052 47.001 43.052C47.2481 43.0521 47.4865 42.9607 47.6702 42.7954C47.8539 42.6302 47.9699 42.4028 47.9959 42.1571C48.0218 41.9113 47.9559 41.6647 47.8108 41.4647C47.6657 41.2647 47.4516 41.1255 47.21 41.074Z" fill="black"/>
<path d="M40.792 36.7L46.792 37.978C46.9213 38.0076 47.0552 38.0113 47.1859 37.9887C47.3166 37.9661 47.4416 37.9177 47.5534 37.8463C47.6652 37.775 47.7617 37.6821 47.8373 37.5731C47.9129 37.464 47.9661 37.3411 47.9936 37.2113C48.0212 37.0816 48.0227 36.9476 47.9981 36.8173C47.9734 36.6869 47.923 36.5628 47.8499 36.4521C47.7768 36.3414 47.6824 36.2464 47.5722 36.1725C47.462 36.0987 47.3382 36.0475 47.208 36.022L41.208 34.744C41.0787 34.7143 40.9448 34.7107 40.8141 34.7333C40.6833 34.7559 40.5584 34.8043 40.4466 34.8757C40.3348 34.947 40.2382 35.0399 40.1627 35.1489C40.0871 35.2579 40.0339 35.3809 40.0063 35.5107C39.9787 35.6404 39.9772 35.7744 40.0019 35.9047C40.0266 36.0351 40.077 36.1592 40.1501 36.2699C40.2232 36.3806 40.3176 36.4756 40.4278 36.5494C40.538 36.6233 40.6618 36.6745 40.792 36.7Z" fill="black"/>
<path d="M30.79 39.788L24.79 41.074C24.5483 41.1255 24.3342 41.2648 24.1891 41.4649C24.044 41.665 23.9781 41.9118 24.0042 42.1576C24.0303 42.4034 24.1465 42.6308 24.3304 42.796C24.5143 42.9611 24.7528 43.0523 25 43.052C25.0709 43.052 25.1416 43.0446 25.211 43.03L31.211 41.744C31.4704 41.6883 31.697 41.5318 31.841 41.309C31.9851 41.0862 32.0347 40.8154 31.979 40.556C31.9233 40.2966 31.7668 40.07 31.5441 39.9259C31.3213 39.7819 31.0494 39.7323 30.79 39.788Z" fill="black"/>
<path d="M24.021 37.208C24.0483 37.3365 24.1007 37.4584 24.1752 37.5667C24.2496 37.6749 24.3447 37.7675 24.4549 37.839C24.5652 37.9105 24.6884 37.9596 24.8176 37.9834C24.9469 38.0073 25.0795 38.0054 25.208 37.978L31.208 36.7C31.3382 36.6745 31.462 36.6233 31.5722 36.5494C31.6824 36.4756 31.7768 36.3806 31.8499 36.2699C31.923 36.1592 31.9734 36.0351 31.9981 35.9047C32.0228 35.7744 32.0213 35.6404 31.9937 35.5107C31.9661 35.3809 31.9129 35.2579 31.8373 35.1489C31.7618 35.0399 31.6652 34.947 31.5534 34.8757C31.4416 34.8043 31.3167 34.7559 31.1859 34.7333C31.0552 34.7107 30.9213 34.7143 30.792 34.744L24.792 36.022C24.6635 36.0492 24.5416 36.1015 24.4333 36.1758C24.325 36.2502 24.2324 36.3451 24.1608 36.4553C24.0892 36.5654 24.04 36.6886 24.016 36.8177C23.992 36.9469 23.9937 37.0795 24.021 37.208Z" fill="black"/>
<path d="M45.076 18.8L46.713 16.509C46.8504 16.3164 46.9151 16.0812 46.8955 15.8454C46.8759 15.6096 46.7733 15.3883 46.606 15.221L44 12.615V9C44 8.20435 43.6839 7.44129 43.1213 6.87868C42.5587 6.31607 41.7956 6 41 6H23C22.2044 6 21.4413 6.31607 20.8787 6.87868C20.3161 7.44129 20 8.20435 20 9C20 9.26522 19.8946 9.51957 19.7071 9.70711C19.5196 9.89464 19.2652 10 19 10H15C14.2044 10 13.4413 10.3161 12.8787 10.8787C12.3161 11.4413 12 12.2044 12 13V55C12 55.7956 12.3161 56.5587 12.8787 57.1213C13.4413 57.6839 14.2044 58 15 58H41C41.7956 58 42.5587 57.6839 43.1213 57.1213C43.6839 56.5587 44 55.7956 44 55V53.75C44 53.4848 43.8946 53.2304 43.7071 53.0429C43.5196 52.8554 43.2652 52.75 43 52.75C42.7348 52.75 42.4804 52.8554 42.2929 53.0429C42.1054 53.2304 42 53.4848 42 53.75V55C42 55.2652 41.8946 55.5196 41.7071 55.7071C41.5196 55.8946 41.2652 56 41 56H15C14.7348 56 14.4804 55.8946 14.2929 55.7071C14.1054 55.5196 14 55.2652 14 55V13C14 12.7348 14.1054 12.4804 14.2929 12.2929C14.4804 12.1054 14.7348 12 15 12H19C19.7956 12 20.5587 11.6839 21.1213 11.1213C21.6839 10.5587 22 9.79565 22 9C22 8.73478 22.1054 8.48043 22.2929 8.29289C22.4804 8.10536 22.7348 8 23 8H41C41.2652 8 41.5196 8.10536 41.7071 8.29289C41.8946 8.48043 42 8.73478 42 9V12.637L40.2 13.923C39.957 13.812 39.707 13.709 39.451 13.616L38.988 10.835C38.9489 10.6013 38.8281 10.3892 38.6472 10.2362C38.4663 10.0833 38.2369 9.9996 38 10H34C33.7634 10.0001 33.5346 10.084 33.354 10.2369C33.1735 10.3898 33.053 10.6017 33.014 10.835L32.551 13.616C32.295 13.709 32.045 13.816 31.802 13.923L29.51 12.287C29.3174 12.1496 29.0822 12.0849 28.8464 12.1045C28.6106 12.1241 28.3893 12.2266 28.222 12.394L25.394 15.222C25.2266 15.3893 25.1241 15.6106 25.1045 15.8464C25.0849 16.0822 25.1496 16.3174 25.287 16.51L26.924 18.8C26.812 19.0433 26.709 19.293 26.615 19.549L23.836 20.013C23.6023 20.0518 23.39 20.1724 23.2369 20.3531C23.0838 20.5339 22.9999 20.7631 23 21V22.58L20.8 23.02C20.5741 23.0661 20.3711 23.1888 20.2253 23.3674C20.0796 23.546 20 23.7695 20 24V27.176L16.745 28.033C16.5315 28.0893 16.3426 28.2147 16.2078 28.3896C16.0731 28.5646 16 28.7792 16 29V37C16 37.2652 16.1054 37.5196 16.2929 37.7071C16.4804 37.8946 16.7348 38 17 38C17.2652 38 17.5196 37.8946 17.7071 37.7071C17.8946 37.5196 18 37.2652 18 37V29.771L20 29.245V47C20 47.2652 20.1054 47.5196 20.2929 47.7071C20.4804 47.8946 20.7348 48 21 48C21.0672 48.0006 21.1343 47.9939 21.2 47.98L36 45.02L50.8 47.98C50.8657 47.9939 50.9328 48.0006 51 48C51.2652 48 51.5196 47.8946 51.7071 47.7071C51.8946 47.5196 52 47.2652 52 47V24C52 23.7695 51.9204 23.546 51.7747 23.3674C51.6289 23.1888 51.4259 23.0661 51.2 23.02L49 22.58V21C48.9999 20.7633 48.9158 20.5343 48.7627 20.3538C48.6097 20.1732 48.3975 20.0528 48.164 20.014L45.385 19.55C45.291 19.294 45.188 19.044 45.076 18.8ZM50 24.82V45.78L37 43.18V36H38C38.2366 35.9999 38.4654 35.916 38.646 35.7631C38.8265 35.6102 38.947 35.3983 38.986 35.165L39.449 32.384C39.705 32.291 39.955 32.184 40.199 32.077L42.49 33.713C42.6826 33.8504 42.9178 33.9151 43.1536 33.8955C43.3894 33.8759 43.6107 33.7733 43.778 33.606L46.606 30.778C46.7733 30.6107 46.8759 30.3894 46.8955 30.1536C46.9151 29.9178 46.8504 29.6826 46.713 29.49L45.076 27.2C45.188 26.9567 45.291 26.707 45.385 26.451L48.164 25.987C48.3977 25.9482 48.61 25.8276 48.7631 25.6469C48.9162 25.4661 49.0001 25.2369 49 25V24.62L50 24.82ZM47 24.153L44.461 24.576C44.2753 24.6057 44.1018 24.6871 43.9603 24.8109C43.8188 24.9347 43.7151 25.0959 43.661 25.276C43.5049 25.8085 43.2931 26.323 43.029 26.811C42.9393 26.9761 42.898 27.163 42.9096 27.3505C42.9213 27.538 42.9856 27.7183 43.095 27.871L44.589 29.962L42.958 31.592L40.872 30.1C40.7195 29.9911 40.5394 29.9273 40.3523 29.9158C40.1653 29.9043 39.9787 29.9456 39.814 30.035C39.325 30.2976 38.8103 30.509 38.278 30.666C38.0987 30.7196 37.9381 30.8224 37.8143 30.9628C37.6906 31.1031 37.6087 31.2754 37.578 31.46L37.153 34H34.847L34.424 31.46C34.3933 31.2754 34.3114 31.1031 34.1877 30.9628C34.0639 30.8224 33.9033 30.7196 33.724 30.666C33.1917 30.509 32.677 30.2976 32.188 30.035C32.0233 29.9456 31.8367 29.9043 31.6497 29.9158C31.4626 29.9273 31.2825 29.9911 31.13 30.1L28.35 32.085C28.2431 32.1613 28.1523 32.2579 28.0827 32.3693C28.0132 32.4807 27.9662 32.6047 27.9446 32.7342C27.9229 32.8638 27.927 32.9963 27.9566 33.1243C27.9862 33.2522 28.0407 33.3731 28.117 33.48C28.1933 33.5869 28.2899 33.6777 28.4013 33.7473C28.5127 33.8168 28.6367 33.8638 28.7662 33.8854C28.8958 33.9071 29.0283 33.903 29.1563 33.8734C29.2842 33.8438 29.4051 33.7893 29.512 33.713L31.8 32.077C32.044 32.188 32.294 32.291 32.55 32.384L33.013 35.165C33.0521 35.3985 33.1727 35.6105 33.3534 35.7634C33.5342 35.9163 33.7633 36.0002 34 36H35V43.18L22 45.78V24.82L23 24.62V25C23.0001 25.2367 23.0842 25.4657 23.2373 25.6462C23.3903 25.8268 23.6025 25.9472 23.836 25.986L26.615 26.45C26.709 26.706 26.812 26.9557 26.924 27.199L25.287 29.49C25.2067 29.5966 25.1485 29.7182 25.1159 29.8476C25.0833 29.9771 25.0769 30.1117 25.0972 30.2437C25.1175 30.3756 25.1639 30.5021 25.2339 30.6158C25.3038 30.7295 25.3958 30.828 25.5044 30.9056C25.613 30.9832 25.7361 31.0382 25.8663 31.0675C25.9965 31.0968 26.1313 31.0997 26.2627 31.076C26.3941 31.0524 26.5194 31.0027 26.6312 30.9299C26.7431 30.8571 26.8392 30.7626 26.914 30.652L28.9 27.872C29.0094 27.7193 29.0737 27.539 29.0854 27.3515C29.097 27.164 29.0557 26.9771 28.966 26.812C28.7019 26.324 28.4901 25.8095 28.334 25.277C28.2803 25.0976 28.1773 24.9368 28.0368 24.8131C27.8962 24.6893 27.7238 24.6075 27.539 24.577L25 24.153V21.847L27.539 21.424C27.7238 21.3935 27.8962 21.3117 28.0368 21.1879C28.1773 21.0642 28.2803 20.9034 28.334 20.724C28.4901 20.1915 28.7019 19.677 28.966 19.189C29.0557 19.0239 29.097 18.837 29.0854 18.6495C29.0737 18.462 29.0094 18.2817 28.9 18.129L27.406 16.038L29.037 14.408L31.129 15.9C31.2815 16.0089 31.4616 16.0727 31.6487 16.0842C31.8357 16.0957 32.0223 16.0544 32.187 15.965C32.6755 15.7021 33.1899 15.4906 33.722 15.334C33.9013 15.2804 34.0619 15.1776 34.1857 15.0372C34.3094 14.8969 34.3913 14.7246 34.422 14.54L34.847 12H37.153L37.576 14.54C37.6067 14.7246 37.6886 14.8969 37.8123 15.0372C37.9361 15.1776 38.0967 15.2804 38.276 15.334C38.8079 15.4905 39.322 15.7019 39.81 15.965C39.9748 16.0546 40.1616 16.096 40.3488 16.0845C40.5361 16.073 40.7164 16.0091 40.869 15.9L42.961 14.407L44.592 16.037L43.1 18.128C42.9906 18.2807 42.9263 18.461 42.9146 18.6485C42.903 18.836 42.9443 19.0229 43.034 19.188C43.2981 19.676 43.5099 20.1905 43.666 20.723C43.7201 20.9031 43.8238 21.0643 43.9653 21.1881C44.1068 21.3119 44.2803 21.3933 44.466 21.423L47 21.847V24.153Z" fill="black"/>
<path d="M36 18C35.0111 18 34.0444 18.2932 33.2222 18.8427C32.3999 19.3921 31.759 20.173 31.3806 21.0866C31.0022 22.0002 30.9031 23.0055 31.0961 23.9755C31.289 24.9454 31.7652 25.8363 32.4645 26.5355C33.1637 27.2348 34.0546 27.711 35.0246 27.9039C35.9945 28.0969 36.9998 27.9978 37.9134 27.6194C38.8271 27.241 39.6079 26.6001 40.1574 25.7779C40.7068 24.9556 41 23.9889 41 23C40.9984 21.6744 40.4711 20.4036 39.5338 19.4662C38.5964 18.5289 37.3256 18.0016 36 18ZM36 26C35.4067 26 34.8266 25.8241 34.3333 25.4944C33.8399 25.1648 33.4554 24.6962 33.2284 24.1481C33.0013 23.5999 32.9419 22.9967 33.0576 22.4147C33.1734 21.8328 33.4591 21.2982 33.8787 20.8787C34.2982 20.4591 34.8328 20.1734 35.4147 20.0576C35.9967 19.9419 36.5999 20.0013 37.1481 20.2284C37.6962 20.4554 38.1648 20.8399 38.4944 21.3333C38.8241 21.8266 39 22.4067 39 23C39 23.7956 38.6839 24.5587 38.1213 25.1213C37.5587 25.6839 36.7957 26 36 26Z" fill="black"/>
</svg>
