<svg width="64" height="64" viewBox="0 0 64 64" fill="none" xmlns="http://www.w3.org/2000/svg">
<path d="M20 13C19.447 13 19 13.448 19 14V18.184C17.839 18.598 17 19.698 17 21C17 22.654 18.346 24 20 24C20.723 24 21.379 23.732 21.897 23.305L24.485 24.858C24.646 24.954 24.824 25 24.999 25C25.339 25 25.67 24.827 25.857 24.515C26.141 24.041 25.988 23.427 25.514 23.143L22.939 21.598C22.979 21.404 23 21.205 23 21C23 19.698 22.161 18.598 21 18.184V14C21 13.448 20.553 13 20 13ZM20 22C19.448 22 19 21.551 19 21C19 20.449 19.448 20 20 20C20.552 20 21 20.449 21 21C21 21.551 20.552 22 20 22Z" fill="black"/>
<path d="M56.8 36.6C55.62 35.716 54.313 35.061 52.915 34.62C52.866 34.501 52.802 34.388 52.707 34.294L50.707 32.294C50.337 31.924 49.745 31.902 49.35 32.242L49 32.54V30.98C51.423 29.153 53 26.261 53 22.999V21.898C55.279 21.433 57 19.414 57 16.999C57 15.345 55.654 13.999 54 13.999C53.413 13.999 52.868 14.175 52.405 14.468C52.122 14.082 51.753 13.757 51.305 13.533C50.496 13.128 49.556 13.102 48.726 13.457L47.649 13.919C45.193 14.969 42.327 14.156 40.756 11.939C40.748 11.927 40.741 11.916 40.734 11.904C40.7 11.854 40.664 11.806 40.627 11.76C39.979 10.877 39.648 9.794 39.69 8.696C39.712 8.144 39.283 7.679 38.73 7.657C38.717 7.657 38.704 7.656 38.69 7.656C38.156 7.656 37.713 8.078 37.692 8.616C37.658 9.469 37.785 10.314 38.052 11.104C37.466 11.345 37.002 11.83 36.795 12.454C36.429 13.553 35.554 14.428 34.454 14.794L34.137 14.9C33.593 14.346 32.837 14 32 14V11C32 8.243 34.243 6 37 6C37.472 6 37.945 6.069 38.407 6.205C38.723 6.299 39.065 6.229 39.321 6.021C40.921 4.718 42.937 4 45 4C49.457 4 53.287 7.321 53.91 11.726C53.987 12.272 54.496 12.659 55.04 12.576C55.587 12.498 55.968 11.993 55.891 11.446C55.129 6.061 50.447 2 45 2C42.649 2 40.348 2.762 38.462 4.157C37.979 4.053 37.489 4 37 4C34.271 4 31.907 5.574 30.753 7.859C27.716 5.368 23.95 4 20 4C16.467 4 13.072 5.076 10.184 7.113C9.733 7.431 9.624 8.055 9.943 8.507C10.262 8.959 10.886 9.067 11.337 8.748C13.886 6.95 16.882 6 20 6C23.751 6 27.314 7.4 30.09 9.931C30.036 10.28 30 10.636 30 11V12.706C27.558 9.755 23.916 8 20 8C12.832 8 7 13.832 7 21C7 28.168 12.832 34 20 34C25.669 34 30.644 30.377 32.378 24.984C32.547 24.458 32.258 23.895 31.732 23.726C31.204 23.557 30.643 23.846 30.473 24.372C30.336 24.799 30.167 25.209 29.983 25.609L29.16 25.134C28.682 24.858 28.07 25.021 27.794 25.5C27.518 25.979 27.682 26.59 28.16 26.866L28.989 27.345C28.261 28.379 27.366 29.272 26.346 29.991L25.866 29.16C25.589 28.681 24.976 28.517 24.5 28.794C24.021 29.07 23.857 29.682 24.134 30.16L24.611 30.987C23.489 31.503 22.273 31.837 21 31.952V31C21 30.448 20.553 30 20 30C19.447 30 19 30.448 19 31V31.949C17.722 31.833 16.51 31.493 15.395 30.976L15.866 30.16C16.142 29.682 15.978 29.07 15.5 28.794C15.022 28.517 14.41 28.681 14.134 29.16L13.663 29.976C12.641 29.252 11.748 28.36 11.024 27.337L11.84 26.866C12.319 26.59 12.483 25.978 12.206 25.5C11.929 25.021 11.315 24.857 10.84 25.134L10.024 25.605C9.507 24.49 9.167 23.278 9.051 22H10C10.553 22 11 21.552 11 21C11 20.448 10.553 20 10 20H9.051C9.167 18.722 9.507 17.51 10.024 16.395L10.84 16.866C10.997 16.957 11.169 17 11.339 17C11.685 17 12.021 16.821 12.206 16.5C12.482 16.021 12.318 15.41 11.84 15.134L11.024 14.663C11.748 13.641 12.64 12.748 13.663 12.024L14.134 12.84C14.32 13.161 14.655 13.34 15.001 13.34C15.171 13.34 15.343 13.297 15.5 13.206C15.979 12.93 16.143 12.318 15.866 11.84L15.395 11.024C16.51 10.507 17.722 10.167 19 10.051V11C19 11.552 19.447 12 20 12C20.553 12 21 11.552 21 11V10.068C22.264 10.184 23.478 10.506 24.603 11.027L24.134 11.84C23.858 12.318 24.022 12.93 24.5 13.206C24.657 13.297 24.829 13.34 24.999 13.34C25.345 13.34 25.681 13.161 25.866 12.84L26.33 12.037C27.341 12.753 28.242 13.628 28.973 14.665L28.16 15.134C27.681 15.41 27.517 16.022 27.794 16.5C27.98 16.821 28.315 17 28.661 17C28.778 17 28.894 16.971 29.007 16.929C29.007 16.953 29 16.976 29 17C29 18.13 29.391 19.162 30.026 20H30C29.447 20 29 20.448 29 21C29 21.552 29.447 22 30 22H33V23C33 24.374 33.279 25.684 33.783 26.876C31.417 32.425 26.038 36 20 36C11.729 36 5 29.271 5 21C5 17.437 6.268 13.988 8.57 11.289C8.928 10.869 8.879 10.238 8.459 9.879C8.04 9.522 7.408 9.57 7.049 9.991C4.437 13.052 3 16.962 3 21C3 30.374 10.626 38 20 38C26.356 38 32.065 34.503 34.995 28.968C35.565 29.731 36.24 30.408 37 30.981V32.541L36.65 32.241C36.254 31.901 35.662 31.923 35.293 32.293L33.293 34.293C33.004 34.582 32.92 35.018 33.081 35.394L36.081 42.394C36.189 42.647 36.397 42.844 36.656 42.939C36.768 42.98 36.884 43 37 43C37.153 43 37.307 42.964 37.447 42.895L39.388 41.925L42 46.277V48H39C38.447 48 38 48.448 38 49V54C38 54.552 38.447 55 39 55H47C47.553 55 48 54.552 48 54V49C48 48.448 47.553 48 47 48H44V46.277L46.612 41.924L48.553 42.894C48.693 42.964 48.847 43 49 43C49.116 43 49.232 42.98 49.344 42.939C49.603 42.844 49.811 42.647 49.919 42.394L52.421 36.556C53.564 36.929 54.633 37.474 55.601 38.199C58.355 40.266 60 43.556 60 47V61C60 61.552 60.447 62 61 62C61.553 62 62 61.552 62 61V47C62 42.93 60.056 39.042 56.8 36.6ZM46 53H40V50H46V53ZM54 16C54.552 16 55 16.449 55 17C55 18.304 54.164 19.416 53 19.829V17C53 16.449 53.448 16 54 16ZM33 17V19.829C31.836 19.416 31 18.304 31 17C31 16.449 31.448 16 32 16C32.552 16 33 16.449 33 17ZM35 23V16.721L35.087 16.692C36.78 16.128 38.128 14.78 38.692 13.087C38.719 13.004 38.795 12.945 38.884 12.938C38.958 12.941 39.021 12.961 39.066 13.014L39.081 13.033L39.082 13.034C40.631 15.302 43.238 16.513 45.864 16.363C45.29 16.541 44.746 16.84 44.293 17.293C43.902 17.684 43.902 18.316 44.293 18.707C44.684 19.098 45.316 19.098 45.707 18.707C46.42 17.994 47.58 17.994 48.293 18.707C48.488 18.902 48.744 19 49 19C49.256 19 49.512 18.902 49.707 18.707C50.098 18.316 50.098 17.684 49.707 17.293C48.992 16.577 48.06 16.214 47.12 16.185C47.564 16.084 48.005 15.943 48.435 15.759L49.512 15.298C49.8 15.174 50.127 15.183 50.409 15.324C50.773 15.506 50.999 15.871 50.999 16.278V23C50.999 27.411 47.41 31 42.999 31C38.588 31 35 27.411 35 23ZM39 32.159C40.226 32.697 41.578 33 43 33C44.422 33 45.774 32.697 47 32.159V34.255L43 37.684L39 34.255V32.159ZM35.186 35.229L36.053 34.362L41.206 38.779L37.501 40.631L35.186 35.229ZM43 44.056L41.182 41.027L43 40.118L44.818 41.027L43 44.056ZM48.499 40.631L44.794 38.779L49.947 34.362L50.814 35.229L48.499 40.631Z" fill="black"/>
<path d="M30.644 35.66C30.145 35.94 29.66 36.256 29.201 36.6C25.944 39.042 24 42.93 24 47V61C24 61.552 24.447 62 25 62C25.553 62 26 61.552 26 61V47C26 43.556 27.645 40.266 30.399 38.2C30.788 37.909 31.199 37.641 31.622 37.405C32.103 37.135 32.275 36.526 32.005 36.044C31.736 35.562 31.128 35.389 30.644 35.66Z" fill="black"/>
<path d="M55 47C54.447 47 54 47.448 54 48V61C54 61.552 54.447 62 55 62C55.553 62 56 61.552 56 61V48C56 47.448 55.553 47 55 47Z" fill="black"/>
<path d="M31 47C30.447 47 30 47.448 30 48V61C30 61.552 30.447 62 31 62C31.553 62 32 61.552 32 61V48C32 47.448 31.553 47 31 47Z" fill="black"/>
<path d="M43 59C43.5523 59 44 58.5523 44 58C44 57.4477 43.5523 57 43 57C42.4477 57 42 57.4477 42 58C42 58.5523 42.4477 59 43 59Z" fill="black"/>
<path d="M47 21C47.5523 21 48 20.5523 48 20C48 19.4477 47.5523 19 47 19C46.4477 19 46 19.4477 46 20C46 20.5523 46.4477 21 47 21Z" fill="black"/>
<path d="M40.293 18.707C40.488 18.902 40.744 19 41 19C41.256 19 41.512 18.902 41.707 18.707C42.098 18.316 42.098 17.684 41.707 17.293C40.215 15.8 37.785 15.8 36.293 17.293C35.902 17.684 35.902 18.316 36.293 18.707C36.684 19.098 37.316 19.098 37.707 18.707C38.42 17.994 39.58 17.994 40.293 18.707Z" fill="black"/>
<path d="M39 21C39.5523 21 40 20.5523 40 20C40 19.4477 39.5523 19 39 19C38.4477 19 38 19.4477 38 20C38 20.5523 38.4477 21 39 21Z" fill="black"/>
<path d="M40.555 26.168C40.094 25.86 39.473 25.985 39.168 26.445C38.861 26.904 38.985 27.526 39.445 27.832C40.525 28.552 41.762 28.912 43 28.912C44.238 28.912 45.475 28.552 46.555 27.832C47.015 27.526 47.139 26.905 46.832 26.445C46.526 25.985 45.905 25.86 45.445 26.168C43.959 27.158 42.041 27.158 40.555 26.168Z" fill="black"/>
<path d="M41.293 23.707L42.293 24.707C42.488 24.902 42.744 25 43 25C43.256 25 43.512 24.902 43.707 24.707C44.098 24.316 44.098 23.684 43.707 23.293L43.232 22.818L43.954 21.472C44.216 20.986 44.033 20.379 43.546 20.118C43.059 19.857 42.452 20.04 42.192 20.527L41.119 22.527C40.91 22.916 40.981 23.395 41.293 23.707Z" fill="black"/>
<path d="M48.189 10.143C46.047 10.57 43.87 9.50598 42.894 7.55298C42.648 7.05898 42.046 6.85798 41.552 7.10598C41.058 7.35298 40.858 7.95398 41.105 8.44798C42.28 10.798 44.686 12.237 47.244 12.237C47.687 12.237 48.136 12.194 48.582 12.104L49.196 11.981C49.738 11.873 50.089 11.346 49.98 10.804C49.872 10.262 49.342 9.91198 48.803 10.02L48.189 10.143Z" fill="black"/>
<path d="M49.948 7.68397C49.774 7.16097 49.211 6.87597 48.683 7.05197C47.713 7.37697 46.639 6.96897 46.128 6.08497C45.851 5.60597 45.237 5.44197 44.762 5.71897C44.283 5.99497 44.119 6.60697 44.396 7.08497C45.153 8.39497 46.552 9.16197 48.008 9.16197C48.444 9.16197 48.885 9.09297 49.316 8.94997C49.84 8.77397 50.123 8.20797 49.948 7.68397Z" fill="black"/>
<path d="M13 43C9.141 43 6 46.14 6 50C6 53.86 9.141 57 13 57C16.859 57 20 53.86 20 50C20 46.14 16.859 43 13 43ZM13 55C10.243 55 8 52.757 8 50C8 47.243 10.243 45 13 45C15.757 45 18 47.243 18 50C18 52.757 15.757 55 13 55Z" fill="black"/>
<path d="M14.293 48.293L12 50.586L11.707 50.293C11.316 49.902 10.684 49.902 10.293 50.293C9.90201 50.684 9.90201 51.316 10.293 51.707L11.293 52.707C11.488 52.902 11.744 53 12 53C12.256 53 12.512 52.902 12.707 52.707L15.707 49.707C16.098 49.316 16.098 48.684 15.707 48.293C15.316 47.902 14.684 47.902 14.293 48.293Z" fill="black"/>
</svg>
