<svg width="64" height="64" viewBox="0 0 64 64" fill="none" xmlns="http://www.w3.org/2000/svg">
<path d="M61 27C60.7348 27 60.4804 27.1054 60.2929 27.2929C60.1054 27.4804 60 27.7348 60 28V33.768C59.9986 34.6538 59.8095 35.5293 59.4453 36.3368C59.0811 37.1443 58.55 37.8656 57.887 38.453C56.4337 37.5043 54.7355 36.9994 53 37V35.288C53.8377 34.3372 54.436 33.1999 54.745 31.971C54.831 31.977 54.913 32 55 32C56.1253 31.9286 57.1769 31.4158 57.9259 30.5731C58.675 29.7303 59.0611 28.6259 59 27.5C59.0611 26.3741 58.675 25.2697 57.9259 24.4269C57.1769 23.5842 56.1253 23.0714 55 23C54.975 23 54.952 23.008 54.927 23.008C54.775 21.432 54.2529 19.9141 53.4033 18.578C52.5538 17.2419 51.4007 16.1252 50.038 15.319C51.0822 15.3912 52.1017 15.6692 53.038 16.137L55.746 17.49C57.0275 18.1259 58.1052 19.108 58.8571 20.3251C59.609 21.5421 60.0049 22.9454 60 24.376C60 24.6412 60.1054 24.8956 60.2929 25.0831C60.4804 25.2707 60.7348 25.376 61 25.376C61.2652 25.376 61.5196 25.2707 61.7071 25.0831C61.8946 24.8956 62 24.6412 62 24.376C62.0062 22.5735 61.5074 20.8054 60.56 19.2719C59.6127 17.7385 58.2547 16.5011 56.64 15.7L53.932 14.347C52.6253 13.6672 51.1772 13.304 49.7044 13.2866C48.2316 13.2692 46.7753 13.5982 45.453 14.247C44.9692 14.4959 44.511 14.7916 44.085 15.13C42.1584 14.7778 40.17 15.1706 38.522 16.2288C36.874 17.287 35.6895 18.9316 35.208 20.83L34.919 21.958C34.0721 21.3374 33.0499 21.0019 32 21H23C21.6744 21.0016 20.4036 21.5289 19.4662 22.4662C18.5289 23.4036 18.0016 24.6744 18 26V31C18.0016 32.3256 18.5289 33.5964 19.4662 34.5338C20.4036 35.4711 21.6744 35.9984 23 36H26.649L31.375 39.781C31.5221 39.8988 31.6995 39.9726 31.8867 39.9939C32.0739 40.0153 32.2633 39.9833 32.4332 39.9017C32.603 39.8201 32.7463 39.6921 32.8466 39.5326C32.9469 39.3731 33.0001 39.1884 33 39V35.9C33.8736 35.7193 34.6826 35.3069 35.342 34.706C36.2919 36.761 37.7771 38.5225 39.642 39.806C39.2503 40.2066 38.8956 40.6417 38.582 41.106L33.139 46.55L32.939 44.497C32.8178 43.2623 32.2405 42.1172 31.3199 41.2856C30.3993 40.454 29.2016 39.9956 27.961 40H14C13.3012 40 12.6102 40.1465 11.9715 40.43C11.3328 40.7134 10.7606 41.1277 10.2919 41.6459C9.8231 42.1641 9.46817 42.7748 9.24997 43.4387C9.03176 44.1025 8.95512 44.8047 9.025 45.5L9.39 49.141C9.41652 49.4049 9.54679 49.6474 9.75214 49.8153C9.95749 49.9831 10.2211 50.0625 10.485 50.036C10.7489 50.0095 10.9914 49.8792 11.1593 49.6739C11.3271 49.4685 11.4065 49.2049 11.38 48.941L11.016 45.301C10.9739 44.8838 11.0198 44.4625 11.1506 44.0641C11.2814 43.6658 11.4942 43.2993 11.7754 42.9882C12.0565 42.6772 12.3998 42.4286 12.783 42.2583C13.1661 42.0881 13.5807 42.0001 14 42H27.961C28.7053 41.9975 29.4238 42.273 29.9757 42.7724C30.5276 43.2717 30.8733 43.9592 30.945 44.7L32.365 58.9C32.379 59.0395 32.3636 59.1804 32.3196 59.3135C32.2757 59.4466 32.2043 59.569 32.11 59.6727C32.0157 59.7764 31.9006 59.8592 31.7723 59.9155C31.6439 59.9719 31.5052 60.0007 31.365 60H15.2C14.4557 60.0025 13.7372 59.7271 13.1853 59.2277C12.6334 58.7283 12.2877 58.0409 12.216 57.3L11.777 52.923C11.7639 52.7923 11.7251 52.6655 11.663 52.5499C11.6009 52.4342 11.5165 52.3318 11.4149 52.2487C11.3132 52.1656 11.1961 52.1034 11.0704 52.0655C10.9446 52.0276 10.8127 52.0149 10.682 52.028C10.5513 52.0411 10.4245 52.0799 10.3088 52.142C10.1932 52.2042 10.0908 52.2885 10.0077 52.3901C9.92461 52.4918 9.86234 52.6089 9.82447 52.7346C9.7866 52.8604 9.77387 52.9923 9.787 53.123L10.226 57.5C10.3462 58.7346 10.9226 59.88 11.8425 60.7122C12.7624 61.5444 13.9596 62.0036 15.2 62H56C57.5908 61.9984 59.116 61.3658 60.2409 60.2409C61.3658 59.116 61.9984 57.5908 62 56V53C62 52.7348 61.8946 52.4804 61.7071 52.2929C61.5196 52.1054 61.2652 52 61 52C60.7348 52 60.4804 52.1054 60.2929 52.2929C60.1054 52.4804 60 52.7348 60 53V56C60 57.0609 59.5786 58.0783 58.8284 58.8284C58.0783 59.5786 57.0609 60 56 60H45V56.913L55.091 56C55.3401 55.9772 55.5717 55.8619 55.74 55.6768C55.9083 55.4917 56.001 55.2502 56 55V47C56 46.7348 55.8946 46.4804 55.7071 46.2929C55.5196 46.1054 55.2652 46 55 46C54.7348 46 54.4804 46.1054 54.2929 46.2929C54.1054 46.4804 54 46.7348 54 47V54.087L43.952 55H41.952C41.8565 53.3195 41.2865 51.7006 40.308 50.331C39.4541 49.146 38.9963 47.7216 39 46.261C39.0052 44.9038 39.3895 43.5751 40.1098 42.4248C40.83 41.2745 41.8574 40.3484 43.076 39.751C43.2506 40.6642 43.7378 41.4881 44.4539 42.081C45.17 42.6739 46.0703 42.9989 47 43C48.2396 42.9986 49.4483 42.6133 50.46 41.897C51.4718 41.1808 52.2368 40.1687 52.65 39H53C54.8558 39.0024 56.6349 39.7407 57.9471 41.0529C59.2594 42.3651 59.9976 44.1442 60 46V49C60 49.2652 60.1054 49.5196 60.2929 49.7071C60.4804 49.8947 60.7348 50 61 50C61.2652 50 61.5196 49.8947 61.7071 49.7071C61.8946 49.5196 62 49.2652 62 49V46C62.0005 43.6587 61.0849 41.41 59.449 39.735C60.2555 38.9645 60.8973 38.0384 61.3358 37.0128C61.7742 35.9872 62.0002 34.8834 62 33.768V28C62 27.7348 61.8946 27.4804 61.7071 27.2929C61.5196 27.1054 61.2652 27 61 27ZM41 30V27.509C41.0005 25.2527 41.8424 23.0777 43.361 21.409C45.5054 23.3538 48.3148 24.4009 51.209 24.334C51.493 24.3201 51.7754 24.3837 52.026 24.518C51.3571 25.3676 50.9955 26.4187 51 27.5C50.9993 28.3344 51.2132 29.155 51.621 29.883L50.852 30.437C49.4396 31.4558 47.7416 32.0028 46 32C45.7348 32 45.4804 32.1054 45.2929 32.2929C45.1054 32.4804 45 32.7348 45 33C45 33.2652 45.1054 33.5196 45.2929 33.7071C45.4804 33.8947 45.7348 34 46 34C48.1609 34.0036 50.2678 33.3246 52.02 32.06L52.789 31.506C52.4253 32.9192 51.5582 34.151 50.3505 34.97C49.1428 35.7891 47.6776 36.139 46.2301 35.9541C44.7826 35.7692 43.4524 35.0622 42.4894 33.9658C41.5264 32.8695 40.9967 31.4592 41 30ZM57 27.5C57.0567 28.0949 56.8797 28.6885 56.5064 29.1551C56.1331 29.6217 55.5928 29.9248 55 30C54.4072 29.9248 53.8669 29.6217 53.4936 29.1551C53.1203 28.6885 52.9433 28.0949 53 27.5C52.9433 26.9051 53.1203 26.3115 53.4936 25.8449C53.8669 25.3783 54.4072 25.0753 55 25C55.5928 25.0753 56.1331 25.3783 56.5064 25.8449C56.8797 26.3115 57.0567 26.9051 57 27.5ZM44 19C44 17.89 44.863 16.807 46.369 16.03C46.449 15.989 46.534 15.961 46.616 15.923L48.092 16.556C49.3514 17.0946 50.4533 17.9444 51.2943 19.0256C52.1353 20.1067 52.6878 21.3838 52.9 22.737C52.3609 22.4629 51.7627 22.3256 51.158 22.337C49.8345 22.3822 48.5172 22.1362 47.2992 21.6164C46.0812 21.0966 44.9922 20.3158 44.109 19.329L44 19ZM32 34C31.7348 34 31.4804 34.1054 31.2929 34.2929C31.1054 34.4804 31 34.7348 31 35V36.919L27.625 34.219C27.4476 34.0771 27.2272 33.9999 27 34H23C22.2044 34 21.4413 33.6839 20.8787 33.1213C20.3161 32.5587 20 31.7957 20 31V26C20 25.2044 20.3161 24.4413 20.8787 23.8787C21.4413 23.3161 22.2044 23 23 23H32C32.7957 23 33.5587 23.3161 34.1213 23.8787C34.6839 24.4413 35 25.2044 35 26V31C35 31.7957 34.6839 32.5587 34.1213 33.1213C33.5587 33.6839 32.7957 34 32 34ZM36.7 32.706C36.899 32.1592 37.0005 31.5818 37 31V26C36.9959 25.2588 36.825 24.5281 36.5 23.862C36.513 23.803 36.525 23.745 36.54 23.687L37.145 21.327C37.4458 20.1221 38.1314 19.0481 39.0978 18.2681C40.0642 17.4881 41.2587 17.0446 42.5 17.005C42.1745 17.6216 42.0029 18.3078 42 19.005C42.0034 19.2907 42.037 19.5753 42.1 19.854C40.1155 21.9107 39.0045 24.656 39 27.514V30C39.0018 31.4026 39.3723 32.78 40.0743 33.9942C40.7764 35.2084 41.7853 36.2167 43 36.918V37.6C42.3966 37.8301 41.8191 38.123 41.277 38.474C39.1094 37.162 37.4851 35.1151 36.7 32.706ZM35.009 56L39 52.01C39.5723 52.9636 39.9048 54.0417 39.969 55.152C39.382 55.3093 38.839 55.5994 38.382 56H35.009ZM37.033 45.491C37.011 45.745 37 46.0017 37 46.261C36.9988 47.6433 37.3193 49.0069 37.936 50.244L33.912 54.268L33.4 49.126L37.033 45.491ZM34.285 58H37.142C37.0519 58.3259 37.0042 58.662 37 59V60H34.192C34.3417 59.584 34.3974 59.1401 34.355 58.7L34.285 58ZM43 60H39V59C39 58.4696 39.2107 57.9609 39.5858 57.5858C39.9609 57.2107 40.4696 57 41 57H43V60ZM47 41C46.4696 41 45.9609 40.7893 45.5858 40.4142C45.2107 40.0391 45 39.5304 45 39V37.737C46.0044 38.0028 47.0513 38.068 48.0809 37.9286C49.1105 37.7893 50.1024 37.4482 51 36.925V37C51 38.0609 50.5786 39.0783 49.8284 39.8284C49.0783 40.5786 48.0609 41 47 41Z" fill="black"/>
<path d="M24 51C24 50.4067 23.8241 49.8266 23.4944 49.3333C23.1648 48.8399 22.6962 48.4554 22.1481 48.2284C21.5999 48.0013 20.9967 47.9419 20.4147 48.0576C19.8328 48.1734 19.2982 48.4591 18.8787 48.8787C18.4591 49.2982 18.1734 49.8328 18.0576 50.4147C17.9419 50.9967 18.0013 51.5999 18.2284 52.148C18.4554 52.6962 18.8399 53.1648 19.3333 53.4944C19.8266 53.8241 20.4067 54 21 54C21.7957 54 22.5587 53.6839 23.1213 53.1213C23.6839 52.5587 24 51.7957 24 51ZM20 51C20 50.8022 20.0586 50.6089 20.1685 50.4444C20.2784 50.28 20.4346 50.1518 20.6173 50.0761C20.8 50.0004 21.0011 49.9806 21.1951 50.0192C21.3891 50.0578 21.5673 50.153 21.7071 50.2929C21.847 50.4327 21.9422 50.6109 21.9808 50.8049C22.0194 50.9989 21.9996 51.2 21.9239 51.3827C21.8482 51.5654 21.72 51.7216 21.5556 51.8315C21.3911 51.9414 21.1978 52 21 52C20.7348 52 20.4804 51.8946 20.2929 51.7071C20.1054 51.5196 20 51.2652 20 51Z" fill="black"/>
<path d="M51.031 47.754L51 47.877C50.7784 48.7698 50.264 49.5626 49.5389 50.1287C48.8138 50.6948 47.9199 51.0016 47 51C46.7348 51 46.4804 51.1053 46.2929 51.2929C46.1054 51.4804 46 51.7348 46 52C46 52.2652 46.1054 52.5196 46.2929 52.7071C46.4804 52.8946 46.7348 53 47 53C48.3654 53.0021 49.6921 52.5468 50.7684 51.7066C51.8447 50.8665 52.6086 49.69 52.938 48.365L52.969 48.246C53.0275 47.9914 52.984 47.724 52.8478 47.501C52.7117 47.278 52.4937 47.1172 52.2404 47.0529C51.9872 46.9886 51.7189 47.026 51.4929 47.157C51.2668 47.288 51.1011 47.5023 51.031 47.754Z" fill="black"/>
<path d="M43 28C43.5523 28 44 27.5523 44 27C44 26.4477 43.5523 26 43 26C42.4477 26 42 26.4477 42 27C42 27.5523 42.4477 28 43 28Z" fill="black"/>
<path d="M48 28C48.5523 28 49 27.5523 49 27C49 26.4477 48.5523 26 48 26C47.4477 26 47 26.4477 47 27C47 27.5523 47.4477 28 48 28Z" fill="black"/>
<path d="M16 27C16 25.6155 15.5895 24.2622 14.8203 23.111C14.0511 21.9599 12.9579 21.0627 11.6788 20.5328C10.3997 20.003 8.99224 19.8644 7.63437 20.1345C6.2765 20.4046 5.02922 21.0713 4.05026 22.0503C3.07129 23.0292 2.4046 24.2765 2.13451 25.6344C1.86441 26.9922 2.00303 28.3997 2.53285 29.6788C3.06266 30.9579 3.95987 32.0511 5.11101 32.8203C6.26216 33.5895 7.61553 34 9 34C10.8558 33.9976 12.6349 33.2594 13.9471 31.9471C15.2594 30.6349 15.9976 28.8558 16 27ZM8 27C8 26.8022 8.05865 26.6089 8.16853 26.4444C8.27841 26.28 8.43459 26.1518 8.61732 26.0761C8.80005 26.0004 9.00111 25.9806 9.19509 26.0192C9.38907 26.0578 9.56726 26.153 9.70711 26.2929C9.84696 26.4327 9.9422 26.6109 9.98079 26.8049C10.0194 26.9989 9.99957 27.2 9.92388 27.3827C9.84819 27.5654 9.72002 27.7216 9.55557 27.8315C9.39112 27.9414 9.19778 28 9 28C8.73479 28 8.48043 27.8946 8.2929 27.7071C8.10536 27.5196 8 27.2652 8 27ZM8 31.9V31C8 30.7348 8.10536 30.4804 8.2929 30.2929C8.48043 30.1054 8.73479 30 9 30C9.26522 30 9.51957 30.1054 9.70711 30.2929C9.89465 30.4804 10 30.7348 10 31V31.9C9.34014 32.0347 8.65987 32.0347 8 31.9ZM12 30.977C11.9919 30.2445 11.7142 29.5407 11.22 29C11.6109 28.5699 11.8685 28.0356 11.9614 27.4619C12.0543 26.8882 11.9786 26.2999 11.7435 25.7684C11.5084 25.2369 11.1239 24.7852 10.6369 24.4681C10.1498 24.151 9.58117 23.9822 9 23.9822C8.41883 23.9822 7.85018 24.151 7.36314 24.4681C6.8761 24.7852 6.49165 25.2369 6.25651 25.7684C6.02138 26.2999 5.94567 26.8882 6.03861 27.4619C6.13154 28.0356 6.3891 28.5699 6.78 29C6.286 29.5404 6.00833 30.2439 6 30.976C5.16047 30.3464 4.54034 29.4685 4.22744 28.4668C3.91453 27.4652 3.92473 26.3904 4.25659 25.3949C4.58844 24.3993 5.22512 23.5334 6.07645 22.9198C6.92778 22.3062 7.95059 21.976 9 21.976C10.0494 21.976 11.0722 22.3062 11.9236 22.9198C12.7749 23.5334 13.4116 24.3993 13.7434 25.3949C14.0753 26.3904 14.0855 27.4652 13.7726 28.4668C13.4597 29.4685 12.8395 30.3474 12 30.977Z" fill="black"/>
<path d="M15 17.9V21C14.9999 21.1884 15.0531 21.373 15.1534 21.5326C15.2537 21.6921 15.397 21.8201 15.5668 21.9017C15.7367 21.9833 15.9261 22.0153 16.1133 21.9939C16.3005 21.9726 16.4779 21.8988 16.625 21.781L21.625 17.781C21.7276 17.6989 21.813 17.5974 21.8763 17.4824C21.9396 17.3673 21.9797 17.2409 21.9942 17.1103C22.0087 16.9798 21.9973 16.8476 21.9607 16.7215C21.9241 16.5953 21.8631 16.4776 21.781 16.375C21.6989 16.2724 21.5974 16.187 21.4824 16.1237C21.3673 16.0604 21.2409 16.0203 21.1103 16.0058C20.9798 15.9913 20.8476 16.0027 20.7215 16.0393C20.5953 16.0759 20.4776 16.1369 20.375 16.219L17 18.919V17C17 16.7348 16.8946 16.4804 16.7071 16.2929C16.5196 16.1054 16.2652 16 16 16C15.2044 16 14.4413 15.6839 13.8787 15.1213C13.3161 14.5587 13 13.7956 13 13V7C13 6.20435 13.3161 5.44129 13.8787 4.87868C14.4413 4.31607 15.2044 4 16 4H27C27.7956 4 28.5587 4.31607 29.1213 4.87868C29.6839 5.44129 30 6.20435 30 7V13C30 13.7956 29.6839 14.5587 29.1213 15.1213C28.5587 15.6839 27.7956 16 27 16H25C24.7348 16 24.4804 16.1054 24.2929 16.2929C24.1054 16.4804 24 16.7348 24 17C24 17.2652 24.1054 17.5196 24.2929 17.7071C24.4804 17.8946 24.7348 18 25 18H27C28.3256 17.9984 29.5964 17.4711 30.5338 16.5338C31.4711 15.5964 31.9984 14.3256 32 13V7C31.9984 5.6744 31.4711 4.40356 30.5338 3.46622C29.5964 2.52888 28.3256 2.00159 27 2H16C14.6744 2.00159 13.4036 2.52888 12.4662 3.46622C11.5289 4.40356 11.0016 5.6744 11 7V13C11.0013 14.1523 11.3998 15.2688 12.1285 16.1614C12.8572 17.054 13.8713 17.6681 15 17.9Z" fill="black"/>
<path d="M28 7C28 6.73478 27.8946 6.48043 27.7071 6.29289C27.5196 6.10536 27.2652 6 27 6H17C16.7348 6 16.4804 6.10536 16.2929 6.29289C16.1054 6.48043 16 6.73478 16 7C16 7.26522 16.1054 7.51957 16.2929 7.70711C16.4804 7.89464 16.7348 8 17 8H27C27.2652 8 27.5196 7.89464 27.7071 7.70711C27.8946 7.51957 28 7.26522 28 7Z" fill="black"/>
<path d="M17 10C16.7348 10 16.4804 10.1054 16.2929 10.2929C16.1054 10.4804 16 10.7348 16 11C16 11.2652 16.1054 11.5196 16.2929 11.7071C16.4804 11.8946 16.7348 12 17 12H20C20.2652 12 20.5196 11.8946 20.7071 11.7071C20.8946 11.5196 21 11.2652 21 11C21 10.7348 20.8946 10.4804 20.7071 10.2929C20.5196 10.1054 20.2652 10 20 10H17Z" fill="black"/>
<path d="M24 12H27C27.2652 12 27.5196 11.8946 27.7071 11.7071C27.8946 11.5196 28 11.2652 28 11C28 10.7348 27.8946 10.4804 27.7071 10.2929C27.5196 10.1054 27.2652 10 27 10H24C23.7348 10 23.4804 10.1054 23.2929 10.2929C23.1054 10.4804 23 10.7348 23 11C23 11.2652 23.1054 11.5196 23.2929 11.7071C23.4804 11.8946 23.7348 12 24 12Z" fill="black"/>
<path d="M23 28H26C26.2652 28 26.5196 27.8946 26.7071 27.7071C26.8946 27.5196 27 27.2652 27 27C27 26.7348 26.8946 26.4804 26.7071 26.2929C26.5196 26.1054 26.2652 26 26 26H23C22.7348 26 22.4804 26.1054 22.2929 26.2929C22.1054 26.4804 22 26.7348 22 27C22 27.2652 22.1054 27.5196 22.2929 27.7071C22.4804 27.8946 22.7348 28 23 28Z" fill="black"/>
<path d="M32 26H30C29.7348 26 29.4804 26.1054 29.2929 26.2929C29.1054 26.4804 29 26.7348 29 27C29 27.2652 29.1054 27.5196 29.2929 27.7071C29.4804 27.8946 29.7348 28 30 28H32C32.2652 28 32.5196 27.8946 32.7071 27.7071C32.8946 27.5196 33 27.2652 33 27C33 26.7348 32.8946 26.4804 32.7071 26.2929C32.5196 26.1054 32.2652 26 32 26Z" fill="black"/>
<path d="M30 30H23C22.7348 30 22.4804 30.1054 22.2929 30.2929C22.1054 30.4804 22 30.7348 22 31C22 31.2652 22.1054 31.5196 22.2929 31.7071C22.4804 31.8946 22.7348 32 23 32H30C30.2652 32 30.5196 31.8946 30.7071 31.7071C30.8946 31.5196 31 31.2652 31 31C31 30.7348 30.8946 30.4804 30.7071 30.2929C30.5196 30.1054 30.2652 30 30 30Z" fill="black"/>
</svg>
