<svg width="64" height="64" viewBox="0 0 64 64" fill="none" xmlns="http://www.w3.org/2000/svg">
<path d="M40 22H34.414L34.707 21.707C34.936 21.478 35.04 21.154 34.986 20.835L34.187 16.039C34.648 15.544 34.939 14.896 34.982 14.178C36.153 14.588 37 15.691 37 17V19C37 19.552 37.448 20 38 20C38.552 20 39 19.552 39 19V17C39 14.708 37.44 12.791 35.333 12.203C35.753 11.571 36 10.814 36 10V7C36 4.794 34.206 3 32 3C29.794 3 28 4.794 28 7V10C28 10.814 28.247 11.571 28.667 12.203C26.56 12.791 25 14.708 25 17V22H24C23.448 22 23 22.448 23 23V45C23 45.552 23.448 46 24 46C24.552 46 25 45.552 25 45V24H39V60H25V49C25 48.448 24.552 48 24 48C23.448 48 23 48.448 23 49V61C23 61.552 23.448 62 24 62H40C40.552 62 41 61.552 41 61V23C41 22.448 40.552 22 40 22ZM30 10V9H34V10C34 11.103 33.103 12 32 12C30.897 12 30 11.103 30 10ZM32.929 20.657L32 21.586L31.071 20.657L31.686 16.969C31.79 16.979 31.892 17 32 17C32.108 17 32.21 16.979 32.314 16.968L32.929 20.657ZM32 15C31.449 15 31 14.551 31 14H33C33 14.551 32.551 15 32 15ZM32 5C33.103 5 34 5.897 34 7H30C30 5.897 30.897 5 32 5ZM27 17C27 15.691 27.847 14.588 29.018 14.179C29.061 14.897 29.351 15.545 29.813 16.04L29.014 20.836C28.961 21.155 29.065 21.479 29.293 21.708L29.586 22H27V17Z" fill="black"/>
<path d="M19 34H13.414L13.707 33.707C13.936 33.478 14.04 33.154 13.986 32.835L13.187 28.039C13.648 27.544 13.939 26.896 13.982 26.178C15.153 26.588 16 27.691 16 29V31C16 31.552 16.448 32 17 32C17.552 32 18 31.552 18 31V29C18 26.708 16.44 24.791 14.333 24.203C14.753 23.571 15 22.814 15 22V19C15 16.794 13.206 15 11 15H8C7.448 15 7 15.448 7 16V22C7 22.814 7.247 23.571 7.667 24.203C5.56 24.791 4 26.708 4 29V34H3C2.448 34 2 34.448 2 35V61C2 61.552 2.448 62 3 62H15C15.552 62 16 61.552 16 61C16 60.448 15.552 60 15 60H4V36H18V61C18 61.552 18.448 62 19 62C19.552 62 20 61.552 20 61V35C20 34.448 19.552 34 19 34ZM9 22V21H13V22C13 23.103 12.103 24 11 24C9.897 24 9 23.103 9 22ZM11.929 32.657L11 33.586L10.071 32.657L10.686 28.969C10.79 28.979 10.892 29 11 29C11.108 29 11.21 28.979 11.314 28.968L11.929 32.657ZM11 27C10.449 27 10 26.551 10 26H12C12 26.551 11.551 27 11 27ZM9 17H11C12.103 17 13 17.897 13 19H9V17ZM6 29C6 27.691 6.847 26.588 8.018 26.179C8.061 26.897 8.351 27.545 8.813 28.04L8.014 32.836C7.961 33.155 8.065 33.479 8.293 33.708L8.586 34H6V29Z" fill="black"/>
<path d="M61 45H55.414L55.707 44.707C55.936 44.478 56.04 44.154 55.986 43.835L55.187 39.039C55.648 38.544 55.939 37.896 55.982 37.178C57.153 37.588 58 38.691 58 40V42C58 42.552 58.448 43 59 43C59.552 43 60 42.552 60 42V40C60 37.708 58.44 35.791 56.333 35.203C56.753 34.571 57 33.814 57 33V30C57 27.794 55.206 26 53 26C50.794 26 49 27.794 49 30V33C49 33.814 49.247 34.571 49.667 35.203C47.56 35.791 46 37.708 46 40V45H45C44.448 45 44 45.448 44 46V61C44 61.552 44.448 62 45 62H61C61.552 62 62 61.552 62 61V46C62 45.448 61.552 45 61 45ZM51 33V32H55V33C55 34.103 54.103 35 53 35C51.897 35 51 34.103 51 33ZM53.929 43.657L53 44.586L52.071 43.657L52.686 39.969C52.79 39.979 52.892 40 53 40C53.108 40 53.21 39.979 53.314 39.968L53.929 43.657ZM53 38C52.449 38 52 37.551 52 37H54C54 37.551 53.551 38 53 38ZM53 28C54.103 28 55 28.897 55 30H51C51 28.897 51.897 28 53 28ZM48 40C48 38.691 48.847 37.588 50.018 37.179C50.061 37.897 50.351 38.545 50.813 39.04L50.014 43.836C49.961 44.155 50.065 44.479 50.293 44.708L50.586 45H48V40ZM60 60H46V47H60V60Z" fill="black"/>
<path d="M27.302 42.457L28.926 44.04L28.543 46.274C28.479 46.649 28.633 47.028 28.941 47.252C29.25 47.477 29.657 47.505 29.994 47.328L32 46.274L34.007 47.329C34.153 47.406 34.313 47.444 34.472 47.444C34.679 47.444 34.886 47.38 35.06 47.253C35.368 47.029 35.522 46.65 35.458 46.275L35.075 44.041L36.699 42.458C36.971 42.192 37.07 41.795 36.952 41.433C36.834 41.071 36.521 40.807 36.144 40.752L33.9 40.426L32.897 38.393C32.56 37.71 31.44 37.71 31.103 38.393L30.1 40.426L27.856 40.752C27.479 40.807 27.166 41.071 27.048 41.433C26.93 41.795 27.029 42.191 27.302 42.457ZM30.908 42.33C31.234 42.283 31.515 42.078 31.661 41.783L32 41.095L32.339 41.782C32.485 42.077 32.766 42.282 33.092 42.329L33.851 42.439L33.302 42.975C33.067 43.204 32.959 43.536 33.014 43.86L33.144 44.616L32.465 44.259C32.32 44.182 32.16 44.144 32 44.144C31.84 44.144 31.68 44.182 31.535 44.259L30.856 44.616L30.986 43.86C31.041 43.536 30.934 43.205 30.698 42.975L30.149 42.439L30.908 42.33Z" fill="black"/>
<path d="M36.951 30.432C36.833 30.07 36.52 29.806 36.143 29.751L33.9 29.426L32.897 27.393C32.56 26.71 31.44 26.71 31.103 27.393L30.1 29.426L27.856 29.752C27.479 29.807 27.166 30.071 27.048 30.433C26.93 30.795 27.028 31.192 27.301 31.458L28.925 33.041L28.542 35.275C28.478 35.65 28.632 36.029 28.94 36.253C29.249 36.478 29.656 36.506 29.993 36.329L32 35.274L34.007 36.329C34.153 36.406 34.313 36.444 34.472 36.444C34.679 36.444 34.886 36.38 35.06 36.253C35.368 36.029 35.522 35.65 35.458 35.275L35.075 33.041L36.699 31.458C36.971 31.191 37.069 30.794 36.951 30.432ZM33.302 31.975C33.067 32.204 32.959 32.536 33.014 32.86L33.144 33.616L32.465 33.259C32.32 33.182 32.16 33.144 32 33.144C31.84 33.144 31.68 33.182 31.535 33.259L30.856 33.616L30.986 32.86C31.041 32.536 30.934 32.205 30.698 31.975L30.149 31.439L30.908 31.329C31.234 31.282 31.515 31.077 31.661 30.782L32 30.095L32.339 30.782C32.485 31.077 32.766 31.282 33.092 31.329L33.851 31.439L33.302 31.975Z" fill="black"/>
<path d="M27.302 53.53L28.926 55.113L28.543 57.347C28.479 57.722 28.633 58.101 28.941 58.325C29.25 58.549 29.657 58.578 29.994 58.401L32 57.347L34.007 58.402C34.153 58.479 34.313 58.517 34.472 58.517C34.679 58.517 34.886 58.453 35.06 58.326C35.368 58.102 35.522 57.723 35.458 57.348L35.075 55.114L36.699 53.531C36.971 53.265 37.07 52.868 36.952 52.506C36.834 52.144 36.521 51.88 36.145 51.825L33.9 51.499L32.897 49.466C32.56 48.783 31.44 48.783 31.103 49.466L30.1 51.499L27.856 51.825C27.48 51.88 27.167 52.144 27.049 52.506C26.931 52.868 27.029 53.265 27.302 53.53ZM30.908 53.402C31.234 53.355 31.515 53.15 31.661 52.855L32 52.168L32.339 52.855C32.485 53.15 32.766 53.355 33.092 53.402L33.851 53.512L33.302 54.048C33.067 54.277 32.959 54.609 33.014 54.933L33.144 55.689L32.465 55.332C32.32 55.255 32.16 55.217 32 55.217C31.84 55.217 31.68 55.255 31.535 55.332L30.856 55.689L30.986 54.933C31.041 54.609 30.934 54.278 30.698 54.048L30.149 53.512L30.908 53.402Z" fill="black"/>
<path d="M52.103 49.466L51.1 51.499L48.856 51.825C48.48 51.88 48.167 52.144 48.049 52.506C47.931 52.868 48.029 53.265 48.302 53.531L49.926 55.114L49.543 57.348C49.479 57.723 49.633 58.102 49.941 58.326C50.25 58.55 50.658 58.579 50.994 58.402L53 57.347L55.007 58.402C55.153 58.479 55.313 58.517 55.472 58.517C55.679 58.517 55.886 58.453 56.06 58.326C56.368 58.102 56.522 57.723 56.458 57.348L56.075 55.114L57.699 53.531C57.971 53.265 58.07 52.868 57.952 52.506C57.834 52.144 57.521 51.88 57.145 51.825L54.9 51.499L53.897 49.466C53.56 48.783 52.44 48.783 52.103 49.466ZM54.092 53.402L54.851 53.512L54.302 54.048C54.067 54.277 53.959 54.609 54.014 54.933L54.144 55.689L53.465 55.332C53.32 55.255 53.16 55.217 53 55.217C52.84 55.217 52.68 55.255 52.535 55.332L51.856 55.689L51.986 54.933C52.041 54.609 51.934 54.278 51.698 54.048L51.149 53.512L51.908 53.402C52.234 53.355 52.515 53.15 52.661 52.855L53 52.168L53.339 52.855C53.485 53.15 53.766 53.355 54.092 53.402Z" fill="black"/>
<path d="M15.951 41.432C15.833 41.07 15.52 40.806 15.143 40.751L12.9 40.426L11.897 38.393C11.56 37.71 10.44 37.71 10.103 38.393L9.1 40.426L6.856 40.752C6.479 40.807 6.166 41.071 6.048 41.433C5.93 41.795 6.028 42.192 6.301 42.458L7.925 44.041L7.542 46.275C7.478 46.65 7.632 47.029 7.94 47.253C8.249 47.478 8.656 47.506 8.993 47.329L11 46.274L13.007 47.329C13.153 47.406 13.313 47.444 13.472 47.444C13.679 47.444 13.886 47.38 14.06 47.253C14.368 47.029 14.522 46.65 14.458 46.275L14.075 44.041L15.699 42.458C15.971 42.191 16.069 41.794 15.951 41.432ZM12.302 42.975C12.067 43.204 11.959 43.536 12.014 43.86L12.144 44.616L11.465 44.259C11.32 44.182 11.16 44.144 11 44.144C10.84 44.144 10.68 44.182 10.535 44.259L9.856 44.616L9.986 43.86C10.041 43.536 9.934 43.205 9.698 42.975L9.149 42.439L9.908 42.329C10.234 42.282 10.515 42.077 10.661 41.782L11 41.095L11.339 41.782C11.485 42.077 11.766 42.282 12.092 42.329L12.851 42.439L12.302 42.975Z" fill="black"/>
<path d="M15.951 52.505C15.833 52.143 15.52 51.879 15.144 51.824L12.9 51.499L11.897 49.466C11.56 48.783 10.44 48.783 10.103 49.466L9.09997 51.499L6.85597 51.825C6.47997 51.88 6.16697 52.144 6.04897 52.506C5.93097 52.868 6.02897 53.265 6.30197 53.531L7.92597 55.114L7.54297 57.348C7.47897 57.723 7.63297 58.102 7.94097 58.326C8.24997 58.55 8.65697 58.579 8.99397 58.402L11 57.347L13.007 58.402C13.153 58.479 13.313 58.517 13.472 58.517C13.679 58.517 13.886 58.453 14.06 58.326C14.368 58.102 14.522 57.723 14.458 57.348L14.075 55.114L15.699 53.531C15.971 53.265 16.069 52.868 15.951 52.505ZM12.302 54.048C12.067 54.277 11.959 54.609 12.014 54.933L12.144 55.689L11.465 55.332C11.32 55.255 11.16 55.217 11 55.217C10.84 55.217 10.68 55.255 10.535 55.332L9.85597 55.689L9.98597 54.933C10.041 54.609 9.93397 54.278 9.69797 54.048L9.14897 53.512L9.90797 53.402C10.234 53.355 10.515 53.15 10.661 52.855L11 52.168L11.339 52.855C11.485 53.15 11.766 53.355 12.092 53.402L12.851 53.512L12.302 54.048Z" fill="black"/>
</svg>
