<svg width="64" height="64" viewBox="0 0 64 64" fill="none" xmlns="http://www.w3.org/2000/svg">
<path d="M23 12C24.654 12 26 10.654 26 9C26 7.346 24.654 6 23 6H19C17.346 6 16 7.346 16 9C16 10.654 17.346 12 19 12H23ZM18 9C18 8.449 18.448 8 19 8H23C23.552 8 24 8.449 24 9C24 9.551 23.552 10 23 10H19C18.448 10 18 9.551 18 9Z" fill="black"/>
<path d="M27 33H24C23.447 33 23 33.448 23 34C23 34.552 23.447 35 24 35H27C27.553 35 28 34.552 28 34C28 33.448 27.553 33 27 33Z" fill="black"/>
<path d="M17 35H20C20.553 35 21 34.552 21 34C21 33.448 20.553 33 20 33H17C16.447 33 16 33.448 16 34C16 34.552 16.447 35 17 35Z" fill="black"/>
<path d="M17 39H22C22.553 39 23 38.552 23 38C23 37.448 22.553 37 22 37H17C16.447 37 16 37.448 16 38C16 38.552 16.447 39 17 39Z" fill="black"/>
<path d="M27 37H26C25.447 37 25 37.448 25 38C25 38.552 25.447 39 26 39H27C27.553 39 28 38.552 28 38C28 37.448 27.553 37 27 37Z" fill="black"/>
<path d="M12 32V40C12 41.654 13.346 43 15 43H18C18.553 43 19 42.552 19 42C19 41.448 18.553 41 18 41H15C14.448 41 14 40.551 14 40V32C14 31.449 14.448 31 15 31H29C29.552 31 30 31.449 30 32V40C30 40.551 29.552 41 29 41H22C21.447 41 21 41.448 21 42C21 42.552 21.447 43 22 43H29C30.654 43 32 41.654 32 40V32C32 30.346 30.654 29 29 29H15C13.346 29 12 30.346 12 32Z" fill="black"/>
<path d="M59.172 13.708C55.408 9.943 49.282 9.943 45.517 13.708L45 14.224L44.483 13.707C41.764 10.989 37.818 10.244 34.416 11.451C33.05 10.675 31.548 10.19 30 10.046V9C30 5.14 26.859 2 23 2H19C15.141 2 12 5.14 12 9V10.045C6.401 10.552 2 15.271 2 21V26C2 26.552 2.447 27 3 27C3.553 27 4 26.552 4 26V21C4 16.038 8.037 12 13 12C13.553 12 14 11.552 14 11V9C14 6.243 16.243 4 19 4H23C25.757 4 28 6.243 28 9V11C28 11.552 28.447 12 29 12C30.083 12 31.152 12.217 32.165 12.602C31.696 12.927 31.246 13.29 30.828 13.708C28.628 15.909 27.723 18.914 28.095 21.785C26.962 22.058 25.853 22.383 24.804 22.801C23.135 23.469 22.169 23.384 20.501 22.421C18.002 20.98 15.697 20.257 12.578 21.415C11.531 21.803 10.434 22 9.315 22H8V21C8 20.658 8.035 20.323 8.101 20H10C10.553 20 11 19.552 11 19C11 18.448 10.553 18 10 18H9.026C9.94 16.793 11.374 16 13 16H26.5C27.053 16 27.5 15.552 27.5 15C27.5 14.448 27.053 14 26.5 14H13C9.141 14 6 17.14 6 21V41C6 44.86 9.141 48 13 48H29C32.859 48 36 44.86 36 41V32.534L38 34.534V41C38 45.962 33.963 50 29 50H13C8.037 50 4 45.962 4 41V30C4 29.448 3.553 29 3 29C2.447 29 2 29.448 2 30V41C2 46.024 5.39 50.263 10 51.574V55C10 55.552 10.447 56 11 56H15C15.553 56 16 55.552 16 55V52H17.153L18.014 57.165C18.094 57.646 18.511 58 19 58H23C23.489 58 23.906 57.646 23.986 57.165L24.847 52H26V55C26 55.552 26.447 56 27 56H28.08C28.568 59.387 31.481 62 35 62H39C42.859 62 46 58.86 46 55V40.534L51.854 34.681C52.245 34.291 52.245 33.658 51.854 33.267C51.463 32.876 50.831 32.876 50.44 33.267L45 38.706L32.242 25.948C29.258 22.963 29.258 18.107 32.242 15.121C35.226 12.137 40.085 12.137 43.069 15.121L44.293 16.345C44.668 16.72 45.332 16.72 45.707 16.345L46.931 15.121C49.917 12.138 54.774 12.137 57.758 15.121C60.742 18.106 60.742 22.963 57.758 25.948L53.268 30.439C52.877 30.83 52.877 31.462 53.268 31.853C53.659 32.244 54.291 32.244 54.682 31.853L59.172 27.362C62.937 23.598 62.937 17.473 59.172 13.708ZM14 54H12V51.949C12.33 51.979 12.662 52 13 52H14V54ZM22.153 56H19.846L19.18 52H22.819L22.153 56ZM28 52H29C29.338 52 29.67 51.979 30 51.949V54H28V52ZM40 36.534L44 40.534V55C44 57.757 41.757 60 39 60H35C32.586 60 30.566 58.279 30.101 56H31C31.553 56 32 55.552 32 55V51.574C36.61 50.264 40 46.025 40 41V36.534ZM30.828 27.362L34 30.534V41C34 43.757 31.757 46 29 46H13C11.373 46 9.939 45.207 9.026 44H10C10.553 44 11 43.552 11 43C11 42.448 10.553 42 10 42H8.101C8.035 41.677 8 41.342 8 41V40H10C10.553 40 11 39.552 11 39C11 38.448 10.553 38 10 38H8V36H10C10.553 36 11 35.552 11 35C11 34.448 10.553 34 10 34H8V32H10C10.553 32 11 31.552 11 31C11 30.448 10.553 30 10 30H8V28H10C10.553 28 11 27.552 11 27C11 26.448 10.553 26 10 26H8V24H9.315C10.671 24 12.003 23.761 13.274 23.289C15.428 22.489 16.999 22.708 19.502 24.153C20.77 24.884 21.83 25.239 22.929 25.239C23.747 25.239 24.586 25.042 25.548 24.657C26.505 24.275 27.52 23.977 28.556 23.727C29.019 25.055 29.769 26.304 30.828 27.362Z" fill="black"/>
<path d="M43 33H47C47.553 33 48 32.552 48 32V29H51C51.553 29 52 28.552 52 28V24C52 23.448 51.553 23 51 23H48V20C48 19.448 47.553 19 47 19H43C42.447 19 42 19.448 42 20V23H39C38.447 23 38 23.448 38 24V28C38 28.552 38.447 29 39 29H42V32C42 32.552 42.447 33 43 33ZM40 27V25H43C43.553 25 44 24.552 44 24V21H46V24C46 24.552 46.447 25 47 25H50V27H47C46.447 27 46 27.448 46 28V31H44V28C44 27.448 43.553 27 43 27H40Z" fill="black"/>
</svg>
