<svg width="64" height="64" viewBox="0 0 64 64" fill="none" xmlns="http://www.w3.org/2000/svg">
<path d="M61 52.381H58V25C57.9986 23.8478 57.5999 22.7313 56.8713 21.8388C56.1427 20.9462 55.1286 20.3321 54 20.1V13C54 12.7348 53.8947 12.4804 53.7071 12.2929C53.5196 12.1054 53.2652 12 53 12H49.943C49.68 9.66201 48.5 8.00001 47 8.00001C46.5901 8.02409 46.1926 8.14987 45.8434 8.36601C45.4943 8.58214 45.2044 8.88183 45 9.23801C44.8146 8.86626 44.5292 8.55355 44.1759 8.33498C43.8227 8.11641 43.4155 8.00062 43 8.00062C42.5846 8.00062 42.1774 8.11641 41.8241 8.33498C41.4708 8.55355 41.1855 8.86626 41 9.23801C40.8146 8.86626 40.5292 8.55355 40.1759 8.33498C39.8227 8.11641 39.4155 8.00062 39 8.00062C38.5846 8.00062 38.1774 8.11641 37.8241 8.33498C37.4708 8.55355 37.1855 8.86626 37 9.23801C36.8146 8.86626 36.5292 8.55355 36.1759 8.33498C35.8227 8.11641 35.4155 8.00062 35 8.00062C34.5846 8.00062 34.1774 8.11641 33.8241 8.33498C33.4708 8.55355 33.1855 8.86626 33 9.23801C32.8146 8.86626 32.5292 8.55355 32.1759 8.33498C31.8227 8.11641 31.4155 8.00062 31 8.00062C30.5846 8.00062 30.1774 8.11641 29.8241 8.33498C29.4708 8.55355 29.1855 8.86626 29 9.23801C28.7957 8.88183 28.5058 8.58214 28.1566 8.36601C27.8075 8.14987 27.41 8.02409 27 8.00001C25.92 8.00001 25.01 8.86101 24.484 10.211L22.214 6.27901L24.532 3.66401C24.6711 3.50701 24.7573 3.31024 24.7784 3.10155C24.7995 2.89287 24.7545 2.68283 24.6497 2.50115C24.5448 2.31947 24.3855 2.17535 24.1943 2.08919C24.0031 2.00302 23.7896 1.97917 23.584 2.02101L17.674 3.23001C17.4196 3.28838 17.1981 3.44393 17.0568 3.66343C16.9155 3.88293 16.8656 4.14898 16.9178 4.40475C16.9701 4.66052 17.1202 4.88573 17.3363 5.03227C17.5523 5.17881 17.8171 5.23506 18.074 5.18901L21.046 4.58101L14.865 11.551L5.73903 13.419L11.92 6.44901L14.155 5.99101C14.2863 5.96749 14.4115 5.91795 14.5233 5.84531C14.6352 5.77267 14.7313 5.6784 14.8062 5.56805C14.8811 5.45769 14.9331 5.33348 14.9592 5.20272C14.9854 5.07196 14.9851 4.93729 14.9584 4.80664C14.9317 4.67598 14.8792 4.55199 14.8039 4.44194C14.7286 4.33189 14.632 4.23802 14.5199 4.16584C14.4078 4.09367 14.2823 4.04464 14.151 4.02166C14.0196 3.99868 13.885 4.0022 13.755 4.03201L11.192 4.55701C10.9802 4.59999 10.7881 4.71094 10.645 4.87301L2.25203 14.336C2.11263 14.4931 2.02622 14.69 2.00504 14.899C1.98386 15.1079 2.02899 15.3182 2.13403 15.5L6.22703 22.589C5.55789 22.7105 4.9501 23.0563 4.50381 23.5694C4.05752 24.0826 3.79937 24.7325 3.77188 25.412C3.7444 26.0915 3.94923 26.7601 4.35262 27.3076C4.75601 27.8551 5.33389 28.2489 5.99103 28.424C6.24591 28.4912 6.50846 28.5248 6.77203 28.524C7.29829 28.5233 7.81511 28.3842 8.2706 28.1206C8.72609 27.857 9.10423 27.4782 9.36705 27.0222C9.62987 26.5663 9.76813 26.0493 9.76796 25.523C9.76778 24.9967 9.62916 24.4798 9.36603 24.024L4.56003 15.7L6.62503 15.278L10.6 22.16C10.6848 22.307 10.8055 22.43 10.9509 22.5175C11.0962 22.605 11.2615 22.654 11.431 22.66C11.615 22.666 11.8 22.669 11.983 22.669C12.6575 22.6676 13.3313 22.6228 14 22.535V47C14 47.2652 14.1054 47.5196 14.2929 47.7071C14.4805 47.8947 14.7348 48 15 48H53C53.2652 48 53.5196 47.8947 53.7071 47.7071C53.8947 47.5196 54 47.2652 54 47V32C54 31.7348 53.8947 31.4804 53.7071 31.2929C53.5196 31.1054 53.2652 31 53 31C52.7348 31 52.4805 31.1054 52.2929 31.2929C52.1054 31.4804 52 31.7348 52 32V46H16V22.145C16.176 22.099 16.351 22.052 16.525 22H52V28C52 28.2652 52.1054 28.5196 52.2929 28.7071C52.4805 28.8947 52.7348 29 53 29C53.2652 29 53.5196 28.8947 53.7071 28.7071C53.8947 28.5196 54 28.2652 54 28V22.184C54.5829 22.3901 55.0879 22.7712 55.4459 23.2753C55.8039 23.7794 55.9975 24.3818 56 25V52.381H39C38.7348 52.381 38.4805 52.4864 38.2929 52.6739C38.1054 52.8614 38 53.1158 38 53.381V55H26V53.381C26 53.1158 25.8947 52.8614 25.7071 52.6739C25.5196 52.4864 25.2652 52.381 25 52.381H8.00003V31.512C8.00003 31.2468 7.89467 30.9924 7.70714 30.8049C7.5196 30.6174 7.26525 30.512 7.00003 30.512C6.73481 30.512 6.48046 30.6174 6.29292 30.8049C6.10539 30.9924 6.00003 31.2468 6.00003 31.512V52.381H3.00003C2.73481 52.381 2.48046 52.4864 2.29292 52.6739C2.10539 52.8614 2.00003 53.1158 2.00003 53.381V55.286C2.04098 57.1036 2.80072 58.8309 4.11281 60.0893C5.42489 61.3478 7.18231 62.0349 9.00003 62H31C31.2652 62 31.5196 61.8947 31.7071 61.7071C31.8947 61.5196 32 61.2652 32 61C32 60.7348 31.8947 60.4804 31.7071 60.2929C31.5196 60.1054 31.2652 60 31 60H9.00003C7.7126 60.0353 6.46363 59.5591 5.52653 58.6756C4.58943 57.7921 4.04055 56.5733 4.00003 55.286V54.381H24V56C24 56.2652 24.1054 56.5196 24.2929 56.7071C24.4805 56.8947 24.7348 57 25 57H39C39.2652 57 39.5196 56.8947 39.7071 56.7071C39.8947 56.5196 40 56.2652 40 56V54.381H60V55.286C59.9595 56.5733 59.4106 57.7921 58.4735 58.6756C57.5364 59.5591 56.2875 60.0353 55 60H35C34.7348 60 34.4805 60.1054 34.2929 60.2929C34.1054 60.4804 34 60.7348 34 61C34 61.2652 34.1054 61.5196 34.2929 61.7071C34.4805 61.8947 34.7348 62 35 62H55C56.8177 62.0349 58.5752 61.3478 59.8873 60.0893C61.1993 58.8309 61.9591 57.1036 62 55.286V53.381C62 53.1158 61.8947 52.8614 61.7071 52.6739C61.5196 52.4864 61.2652 52.381 61 52.381ZM7.73403 25.785C7.6743 26.0086 7.53889 26.2045 7.35088 26.3394C7.16288 26.4743 6.93391 26.5398 6.703 26.5248C6.4721 26.5097 6.25355 26.4151 6.08461 26.257C5.91566 26.0989 5.80678 25.8871 5.77651 25.6577C5.74625 25.4283 5.79648 25.1955 5.91864 24.9989C6.04079 24.8024 6.22733 24.6543 6.44643 24.58C6.66554 24.5056 6.90367 24.5095 7.12022 24.591C7.33678 24.6725 7.51837 24.8266 7.63403 25.027C7.76645 25.2565 7.80242 25.5291 7.73403 25.785ZM47 10C47.2 10 47.726 10.708 47.921 12H46.079C46.274 10.708 46.8 10 47 10ZM43 10C43.2 10 43.726 10.708 43.921 12H42.079C42.274 10.708 42.8 10 43 10ZM39 10C39.2 10 39.726 10.708 39.921 12H38.079C38.274 10.708 38.8 10 39 10ZM35 10C35.2 10 35.726 10.708 35.921 12H34.079C34.274 10.708 34.8 10 35 10ZM31 10C31.2 10 31.726 10.708 31.921 12H30.079C30.274 10.708 30.8 10 31 10ZM27 10C27.2 10 27.726 10.708 27.921 12H26.079C26.274 10.708 26.8 10 27 10ZM8.69103 14.856L15.591 13.443C15.8031 13.3998 15.9954 13.2889 16.139 13.127L20.813 7.85601L24.022 13.414C24.028 13.564 24.033 13.714 24.047 13.863C22.7908 15.9245 21.0295 17.6314 18.9297 18.8223C16.8299 20.0133 14.461 20.6489 12.047 20.669L8.69103 14.856ZM24.755 16.356C24.9416 16.8102 25.2499 17.204 25.646 17.4941C26.0422 17.7842 26.5107 17.9593 27 18C27.2652 18 27.5196 17.8947 27.7071 17.7071C27.8947 17.5196 28 17.2652 28 17C28 16.7348 27.8947 16.4804 27.7071 16.2929C27.5196 16.1054 27.2652 16 27 16C26.813 16 26.342 15.4 26.12 14.274C26.146 14.225 26.177 14.179 26.203 14.129C26.2223 14.0872 26.2387 14.0441 26.252 14H28.052C28.315 16.338 29.492 18 30.995 18C31.2602 18 31.5146 17.8947 31.7021 17.7071C31.8897 17.5196 31.995 17.2652 31.995 17C31.995 16.7348 31.8897 16.4804 31.7021 16.2929C31.5146 16.1054 31.2602 16 30.995 16C30.795 16 30.269 15.292 30.074 14H32.052C32.315 16.338 33.492 18 34.995 18C35.2602 18 35.5146 17.8947 35.7021 17.7071C35.8897 17.5196 35.995 17.2652 35.995 17C35.995 16.7348 35.8897 16.4804 35.7021 16.2929C35.5146 16.1054 35.2602 16 34.995 16C34.795 16 34.269 15.292 34.074 14H36.052C36.315 16.338 37.492 18 38.995 18C39.2602 18 39.5146 17.8947 39.7021 17.7071C39.8897 17.5196 39.995 17.2652 39.995 17C39.995 16.7348 39.8897 16.4804 39.7021 16.2929C39.5146 16.1054 39.2602 16 38.995 16C38.795 16 38.269 15.292 38.074 14H40.052C40.315 16.338 41.492 18 42.995 18C43.2602 18 43.5146 17.8947 43.7021 17.7071C43.8897 17.5196 43.995 17.2652 43.995 17C43.995 16.7348 43.8897 16.4804 43.7021 16.2929C43.5146 16.1054 43.2602 16 42.995 16C42.795 16 42.269 15.292 42.074 14H44.052C44.315 16.338 45.492 18 46.995 18C47.2602 18 47.5146 17.8947 47.7021 17.7071C47.8897 17.5196 47.995 17.2652 47.995 17C47.995 16.7348 47.8897 16.4804 47.7021 16.2929C47.5146 16.1054 47.2602 16 46.995 16C46.795 16 46.269 15.292 46.074 14H52V20H20.823C22.3275 19.0136 23.6565 17.7826 24.755 16.358V16.356Z" fill="black"/>
<path d="M52 57.19C52.0094 56.9905 51.9588 56.7927 51.8548 56.6222C51.7508 56.4517 51.5981 56.3163 51.4164 56.2333C51.2347 56.1504 51.0323 56.1237 50.8353 56.1568C50.6383 56.19 50.4558 56.2813 50.3112 56.4191C50.1666 56.5569 50.0666 56.7348 50.0241 56.93C49.9815 57.1251 49.9984 57.3286 50.0725 57.514C50.1466 57.6995 50.2745 57.8586 50.4399 57.9707C50.6052 58.0828 50.8003 58.1428 51 58.143C51.259 58.1492 51.5098 58.0523 51.6973 57.8735C51.8848 57.6948 51.9937 57.449 52 57.19Z" fill="black"/>
<path d="M56 57.19C56.0094 56.9905 55.9588 56.7927 55.8548 56.6222C55.7508 56.4517 55.5981 56.3163 55.4164 56.2333C55.2347 56.1504 55.0323 56.1237 54.8353 56.1568C54.6383 56.19 54.4558 56.2813 54.3112 56.4191C54.1666 56.5569 54.0666 56.7348 54.0241 56.93C53.9815 57.1251 53.9984 57.3286 54.0725 57.514C54.1466 57.6995 54.2745 57.8586 54.4399 57.9707C54.6052 58.0828 54.8003 58.1428 55 58.143C55.259 58.1492 55.5098 58.0523 55.6973 57.8735C55.8848 57.6948 55.9937 57.449 56 57.19Z" fill="black"/>
<path d="M7.99999 57.19C7.9904 57.3895 8.0408 57.5874 8.14469 57.758C8.24859 57.9287 8.4012 58.0643 8.58288 58.1474C8.76455 58.2305 8.96695 58.2573 9.16399 58.2243C9.36102 58.1913 9.54366 58.1 9.68835 57.9623C9.83305 57.8245 9.93316 57.6466 9.9758 57.4514C10.0184 57.2562 10.0016 57.0528 9.92757 56.8672C9.8535 56.6817 9.72555 56.5226 9.56023 56.4104C9.3949 56.2983 9.19977 56.2382 8.99999 56.238C8.74127 56.2321 8.49075 56.329 8.30331 56.5074C8.11588 56.6858 8.00681 56.9313 7.99999 57.19Z" fill="black"/>
<path d="M12 57.19C11.9904 57.3895 12.0408 57.5874 12.1447 57.758C12.2486 57.9287 12.4012 58.0643 12.5829 58.1474C12.7646 58.2305 12.967 58.2573 13.164 58.2243C13.361 58.1913 13.5437 58.1 13.6884 57.9623C13.833 57.8245 13.9332 57.6466 13.9758 57.4514C14.0184 57.2562 14.0016 57.0528 13.9276 56.8672C13.8535 56.6817 13.7256 56.5226 13.5602 56.4104C13.3949 56.2983 13.1998 56.2382 13 56.238C12.7413 56.2321 12.4907 56.329 12.3033 56.5074C12.1159 56.6858 12.0068 56.9313 12 57.19Z" fill="black"/>
<path d="M49 29C49.2652 29 49.5196 28.8946 49.7071 28.7071C49.8946 28.5196 50 28.2652 50 28C50 27.7348 49.8946 27.4804 49.7071 27.2929C49.5196 27.1054 49.2652 27 49 27H47V25C47 24.7348 46.8946 24.4804 46.7071 24.2929C46.5196 24.1054 46.2652 24 46 24C45.7348 24 45.4804 24.1054 45.2929 24.2929C45.1054 24.4804 45 24.7348 45 25V27H41V25C41 24.7348 40.8946 24.4804 40.7071 24.2929C40.5196 24.1054 40.2652 24 40 24C39.7348 24 39.4804 24.1054 39.2929 24.2929C39.1054 24.4804 39 24.7348 39 25V27H35V25C35 24.7348 34.8946 24.4804 34.7071 24.2929C34.5196 24.1054 34.2652 24 34 24C33.7348 24 33.4804 24.1054 33.2929 24.2929C33.1054 24.4804 33 24.7348 33 25V27H29V25C29 24.7348 28.8946 24.4804 28.7071 24.2929C28.5196 24.1054 28.2652 24 28 24C27.7348 24 27.4804 24.1054 27.2929 24.2929C27.1054 24.4804 27 24.7348 27 25V27H23V25C23 24.7348 22.8946 24.4804 22.7071 24.2929C22.5196 24.1054 22.2652 24 22 24C21.7348 24 21.4804 24.1054 21.2929 24.2929C21.1054 24.4804 21 24.7348 21 25V27H19C18.7348 27 18.4804 27.1054 18.2929 27.2929C18.1054 27.4804 18 27.7348 18 28C18 28.2652 18.1054 28.5196 18.2929 28.7071C18.4804 28.8946 18.7348 29 19 29H21V33H19C18.7348 33 18.4804 33.1054 18.2929 33.2929C18.1054 33.4804 18 33.7348 18 34C18 34.2652 18.1054 34.5196 18.2929 34.7071C18.4804 34.8946 18.7348 35 19 35H21V39H19C18.7348 39 18.4804 39.1054 18.2929 39.2929C18.1054 39.4804 18 39.7348 18 40C18 40.2652 18.1054 40.5196 18.2929 40.7071C18.4804 40.8946 18.7348 41 19 41H21V43C21 43.2652 21.1054 43.5196 21.2929 43.7071C21.4804 43.8946 21.7348 44 22 44C22.2652 44 22.5196 43.8946 22.7071 43.7071C22.8946 43.5196 23 43.2652 23 43V41H27V43C27 43.2652 27.1054 43.5196 27.2929 43.7071C27.4804 43.8946 27.7348 44 28 44C28.2652 44 28.5196 43.8946 28.7071 43.7071C28.8946 43.5196 29 43.2652 29 43V41H33V43C33 43.2652 33.1054 43.5196 33.2929 43.7071C33.4804 43.8946 33.7348 44 34 44C34.2652 44 34.5196 43.8946 34.7071 43.7071C34.8946 43.5196 35 43.2652 35 43V41H39V43C39 43.2652 39.1054 43.5196 39.2929 43.7071C39.4804 43.8946 39.7348 44 40 44C40.2652 44 40.5196 43.8946 40.7071 43.7071C40.8946 43.5196 41 43.2652 41 43V41H45V43C45 43.2652 45.1054 43.5196 45.2929 43.7071C45.4804 43.8946 45.7348 44 46 44C46.2652 44 46.5196 43.8946 46.7071 43.7071C46.8946 43.5196 47 43.2652 47 43V41H49C49.2652 41 49.5196 40.8946 49.7071 40.7071C49.8946 40.5196 50 40.2652 50 40C50 39.7348 49.8946 39.4804 49.7071 39.2929C49.5196 39.1054 49.2652 39 49 39H47V35H49C49.2652 35 49.5196 34.8946 49.7071 34.7071C49.8946 34.5196 50 34.2652 50 34C50 33.7348 49.8946 33.4804 49.7071 33.2929C49.5196 33.1054 49.2652 33 49 33H47V29H49ZM33 29V33H29V29H33ZM23 29H27V33H23V29ZM23 39V35H27V39H23ZM29 39V35H33V39H29ZM35 39V35H36C36.2652 35 36.5196 34.8946 36.7071 34.7071C36.8946 34.5196 37 34.2652 37 34C37 33.7348 36.8946 33.4804 36.7071 33.2929C36.5196 33.1054 36.2652 33 36 33H35V29H39V39H35ZM45 39H41V35H45V39ZM45 33H41V29H45V33Z" fill="black"/>
</svg>
