<svg width="64" height="64" viewBox="0 0 64 64" fill="none" xmlns="http://www.w3.org/2000/svg">
<path d="M50 33H44V30.709C49.712 29.628 54.427 25.513 56.191 19.781L56.956 17.295C57.036 17.033 57.006 16.749 56.871 16.51C56.736 16.271 56.509 16.097 56.242 16.031L55.106 15.747L56.587 10.317C57 8.8 56.69 7.214 55.737 5.965C54.783 4.716 53.335 4 51.763 4H49.816C49.402 2.839 48.302 2 47 2H45C43.897 2 43 2.897 43 4V6C43 7.103 43.897 8 45 8H47C48.302 8 49.402 7.161 49.816 6H51.763C52.706 6 53.575 6.43 54.148 7.179C54.721 7.928 54.906 8.88 54.658 9.789L53.166 15.26L52.243 15.029C51.731 14.904 51.197 15.199 51.043 15.712L50.342 18.049C50.073 18.945 49.666 19.809 49.132 20.618C48.827 21.079 48.954 21.699 49.415 22.004C49.873 22.307 50.494 22.182 50.8 21.721C51.443 20.749 51.933 19.707 52.258 18.623L52.685 17.2L54.736 17.713L54.281 19.191C52.475 25.059 47.138 29 41 29C34.862 29 29.525 25.059 27.721 19.192L27.266 17.714L29.317 17.201L29.744 18.624C31.246 23.634 35.77 27 41 27C43.422 27 45.757 26.259 47.751 24.858C48.202 24.54 48.312 23.917 47.994 23.465C47.676 23.013 47.053 22.904 46.6 23.221C45.222 24.19 43.647 24.772 41.999 24.942V11C41.999 10.448 41.552 10 40.999 10H32.878C32.544 8.849 31.492 8 30.235 8C29.378 8 28.613 7.574 28.127 6.893C28.687 6.331 29.429 6 30.237 6H32.184C32.598 7.161 33.698 8 35 8H37C38.103 8 39 7.103 39 6V4C39 2.897 38.103 2 37 2H35C33.698 2 32.598 2.839 32.184 4H30.237C28.992 4 27.83 4.455 26.924 5.262C26.084 4.467 24.969 4 23.764 4H20.237C18.477 4 16.894 4.978 16.106 6.553C15.659 7.445 14.762 8 13.764 8C12.507 8 11.455 8.849 11.121 10H3C2.447 10 2 10.448 2 11V61C2 61.552 2.447 62 3 62H9C9.553 62 10 61.552 10 61C10 60.448 9.553 60 9 60H4V12H11.121C11.455 13.151 12.507 14 13.764 14H23.519C24.072 14 24.519 13.552 24.519 13C24.519 12.448 24.072 12 23.519 12H13.764C13.343 12 13 11.657 13 11.236V10.764C13 10.343 13.343 10 13.764 10C15.524 10 17.107 9.022 17.895 7.447C18.341 6.555 19.238 6 20.236 6H23.763C24.524 6 25.224 6.326 25.712 6.876C25.209 7.941 25.094 9.148 25.412 10.316L26.893 15.746L25.757 16.03C25.49 16.096 25.263 16.27 25.128 16.509C24.993 16.748 24.963 17.032 25.043 17.294L25.808 19.78C27.572 25.512 32.287 29.627 37.999 30.708V33H27C20.524 33 15.244 38.159 15.021 44.581C12.082 45.766 10 48.642 10 52C10 56.411 13.589 60 18 60C22.411 60 26 56.411 26 52C26 48.658 23.938 45.791 21.02 44.596C21.229 41.476 23.828 39 27 39H38V45C38 47.445 38.739 49.72 40 51.619V60H13C12.447 60 12 60.448 12 61C12 61.552 12.447 62 13 62H41C41.553 62 42 61.552 42 61V53.919C44.126 55.828 46.925 57 50 57C56.617 57 62 51.617 62 45C62 38.383 56.617 33 50 33ZM47 6H45V4H47C47.552 4 48 4.449 48 5C48 5.551 47.552 6 47 6ZM35 4H37L37.001 6H35C34.448 6 34 5.551 34 5C34 4.449 34.448 4 35 4ZM30.236 10C30.657 10 31 10.343 31 10.764V11.236C31 11.657 30.657 12 30.236 12H27.945L27.342 9.789C27.262 9.496 27.243 9.2 27.252 8.907C28.07 9.601 29.116 10 30.236 10ZM28.491 14H30.236C31.493 14 32.545 13.151 32.879 12H40V24.944C36.093 24.551 32.809 21.883 31.659 18.05L30.958 15.713C30.804 15.2 30.27 14.904 29.758 15.03L28.835 15.261L28.491 14ZM40 30.96C40.332 30.98 40.664 31 41 31C41.336 31 41.668 30.98 42 30.96V33H40V30.96ZM24 52C24 55.309 21.309 58 18 58C14.691 58 12 55.309 12 52C12 48.691 14.691 46 18 46C21.309 46 24 48.691 24 52ZM50 55C44.486 55 40 50.514 40 45V39H50C53.309 39 56 41.691 56 45C56 48.309 53.309 51 50 51C46.691 51 44 48.309 44 45V42C44 41.448 43.553 41 43 41C42.447 41 42 41.448 42 42V45C42 49.411 45.589 53 50 53C54.411 53 58 49.411 58 45C58 40.589 54.411 37 50 37H27C22.901 37 19.517 40.1 19.057 44.078C18.711 44.032 18.359 44 18 44C17.677 44 17.36 44.025 17.048 44.062C17.522 38.987 21.803 35 27 35H50C55.514 35 60 39.486 60 45C60 50.514 55.514 55 50 55Z" fill="black"/>
<path d="M14 52C14 54.206 15.794 56 18 56C20.206 56 22 54.206 22 52C22 49.794 20.206 48 18 48C15.794 48 14 49.794 14 52ZM20 52C20 53.103 19.103 54 18 54C16.897 54 16 53.103 16 52C16 50.897 16.897 50 18 50C19.103 50 20 50.897 20 52Z" fill="black"/>
<path d="M17.5 17H12.5C11.947 17 11.5 17.448 11.5 18V22.5H7C6.447 22.5 6 22.948 6 23.5V28.5C6 29.052 6.447 29.5 7 29.5H11.5V34C11.5 34.552 11.947 35 12.5 35H17.5C18.053 35 18.5 34.552 18.5 34V29.5H23C23.553 29.5 24 29.052 24 28.5V23.5C24 22.948 23.553 22.5 23 22.5H18.5V18C18.5 17.448 18.053 17 17.5 17ZM22 24.5V27.5H17.5C16.947 27.5 16.5 27.948 16.5 28.5V33H13.5V28.5C13.5 27.948 13.053 27.5 12.5 27.5H8V24.5H12.5C13.053 24.5 13.5 24.052 13.5 23.5V19H16.5V23.5C16.5 24.052 16.947 24.5 17.5 24.5H22Z" fill="black"/>
<path d="M7 39H13C13.553 39 14 38.552 14 38C14 37.448 13.553 37 13 37H7C6.447 37 6 37.448 6 38C6 38.552 6.447 39 7 39Z" fill="black"/>
<path d="M7 43H11C11.553 43 12 42.552 12 42C12 41.448 11.553 41 11 41H7C6.447 41 6 41.448 6 42C6 42.552 6.447 43 7 43Z" fill="black"/>
</svg>
