<svg width="64" height="64" viewBox="0 0 64 64" fill="none" xmlns="http://www.w3.org/2000/svg">
<path d="M47.8 36.6C46.62 35.716 45.313 35.061 43.915 34.62C43.866 34.501 43.802 34.388 43.707 34.294L41.707 32.294C41.337 31.923 40.745 31.901 40.35 32.242L40 32.54V30.98C42.423 29.153 44 26.261 44 22.999V21.898C46.279 21.433 48 19.414 48 16.999C48 15.345 46.654 13.999 45 13.999C44.413 13.999 43.868 14.175 43.405 14.468C43.122 14.082 42.753 13.757 42.305 13.533C41.496 13.129 40.555 13.102 39.726 13.457L38.649 13.919C36.194 14.968 33.327 14.156 31.756 11.939C31.748 11.927 31.741 11.916 31.734 11.904C31.7 11.854 31.664 11.806 31.627 11.76C30.979 10.877 30.648 9.794 30.69 8.696C30.712 8.144 30.283 7.679 29.73 7.657C29.221 7.638 28.714 8.064 28.692 8.616C28.658 9.469 28.785 10.314 29.052 11.104C28.466 11.345 28.002 11.83 27.795 12.454C27.429 13.553 26.554 14.428 25.454 14.794L25.137 14.9C24.593 14.346 23.837 14 23 14V11C23 8.243 25.243 6 28 6C28.472 6 28.945 6.069 29.407 6.205C29.722 6.298 30.064 6.229 30.321 6.021C31.921 4.718 33.937 4 36 4C40.397 4 44.128 7.14 44.87 11.465C44.963 12.009 45.482 12.38 46.024 12.281C46.569 12.188 46.934 11.671 46.84 11.127C45.934 5.838 41.374 2 36 2C33.649 2 31.348 2.762 29.462 4.157C28.979 4.053 28.489 4 28 4C24.141 4 21 7.14 21 11V14C21 14.243 21.029 14.482 21.073 14.72C20.422 15.271 20 16.083 20 17C20 19.414 21.721 21.434 24 21.899V23C24 26.262 25.577 29.154 28 30.981V32.541L27.65 32.241C27.254 31.9 26.662 31.923 26.293 32.293L24.293 34.293C24.198 34.388 24.135 34.501 24.085 34.619C22.687 35.06 21.38 35.715 20.2 36.6C19.351 37.236 18.582 37.976 17.912 38.801C17.563 39.229 17.628 39.859 18.057 40.208C18.243 40.359 18.465 40.432 18.687 40.432C18.978 40.432 19.266 40.306 19.463 40.063C20.031 39.365 20.683 38.738 21.4 38.201C22.368 37.475 23.437 36.93 24.58 36.557L27.082 42.395C27.19 42.648 27.398 42.845 27.657 42.94C27.768 42.98 27.884 43 28 43C28.153 43 28.307 42.964 28.447 42.895L30.665 41.786L30.991 43.089L30.001 57.934C29.982 58.222 30.088 58.504 30.292 58.707L33.292 61.707C33.488 61.902 33.744 62 34 62C34.256 62 34.512 61.902 34.707 61.707L37.707 58.707C37.911 58.503 38.017 58.221 37.998 57.934L37.008 43.089L37.334 41.786L39.552 42.895C39.693 42.964 39.847 43 40 43C40.116 43 40.232 42.98 40.344 42.939C40.603 42.844 40.811 42.647 40.919 42.394L43.421 36.556C44.564 36.929 45.633 37.474 46.601 38.199C49.355 40.266 51 43.556 51 47V61C51 61.552 51.447 62 52 62C52.553 62 53 61.552 53 61V47C53 42.93 51.056 39.042 47.8 36.6ZM45 16C45.552 16 46 16.449 46 17C46 18.304 45.164 19.416 44 19.829V17C44 16.449 44.448 16 45 16ZM22 17C22 16.449 22.448 16 23 16C23.552 16 24 16.449 24 17V19.829C22.836 19.416 22 18.304 22 17ZM26 23V16.721L26.087 16.692C27.78 16.128 29.128 14.78 29.692 13.087C29.719 13.004 29.795 12.945 29.884 12.938C29.958 12.94 30.021 12.962 30.066 13.014L30.081 13.033L30.082 13.034C31.632 15.303 34.239 16.513 36.865 16.363C36.291 16.541 35.746 16.84 35.293 17.294C34.902 17.685 34.902 18.317 35.293 18.708C35.684 19.099 36.316 19.099 36.707 18.708C37.42 17.995 38.58 17.995 39.293 18.708C39.488 18.902 39.744 19 40 19C40.256 19 40.512 18.902 40.707 18.707C41.098 18.316 41.098 17.684 40.707 17.293C39.991 16.577 39.06 16.214 38.12 16.185C38.565 16.084 39.005 15.943 39.436 15.759L40.513 15.298C40.802 15.175 41.128 15.184 41.41 15.324C41.774 15.506 42 15.871 42 16.278V23C42 27.411 38.411 31 34 31C29.589 31 26 27.411 26 23ZM30 32.159C31.226 32.697 32.578 33 34 33C35.422 33 36.774 32.697 38 32.159V34.255L34 37.684L30 34.255V32.159ZM26.186 35.229L27.053 34.362L32.206 38.779L28.501 40.631L26.186 35.229ZM34 59.586L32.028 57.614L32.936 44H35.065L35.972 57.614L34 59.586ZM35.22 42H32.78L32.497 40.869L34 40.118L35.503 40.869L35.22 42ZM39.499 40.631L35.794 38.779L40.947 34.362L41.814 35.229L39.499 40.631Z" fill="black"/>
<path d="M46 47C45.447 47 45 47.448 45 48V61C45 61.552 45.447 62 46 62C46.553 62 47 61.552 47 61V48C47 47.448 46.553 47 46 47Z" fill="black"/>
<path d="M38 21C38.5523 21 39 20.5523 39 20C39 19.4477 38.5523 19 38 19C37.4477 19 37 19.4477 37 20C37 20.5523 37.4477 21 38 21Z" fill="black"/>
<path d="M31.293 18.707C31.488 18.902 31.744 19 32 19C32.256 19 32.512 18.902 32.707 18.707C33.098 18.316 33.098 17.684 32.707 17.293C31.215 15.8 28.785 15.8 27.293 17.293C26.902 17.684 26.902 18.316 27.293 18.707C27.684 19.098 28.316 19.098 28.707 18.707C29.42 17.994 30.58 17.994 31.293 18.707Z" fill="black"/>
<path d="M30 21C30.5523 21 31 20.5523 31 20C31 19.4477 30.5523 19 30 19C29.4477 19 29 19.4477 29 20C29 20.5523 29.4477 21 30 21Z" fill="black"/>
<path d="M31.555 26.168C31.094 25.86 30.473 25.985 30.168 26.445C29.861 26.904 29.985 27.526 30.445 27.832C31.525 28.552 32.762 28.912 34 28.912C35.238 28.912 36.475 28.552 37.555 27.832C38.015 27.526 38.139 26.905 37.832 26.445C37.526 25.985 36.906 25.86 36.445 26.168C34.959 27.158 33.041 27.158 31.555 26.168Z" fill="black"/>
<path d="M32.293 23.707L33.293 24.707C33.488 24.902 33.744 25 34 25C34.256 25 34.512 24.902 34.707 24.707C35.098 24.316 35.098 23.684 34.707 23.293L34.232 22.818L34.954 21.472C35.216 20.986 35.033 20.379 34.546 20.118C34.06 19.856 33.452 20.04 33.192 20.527L32.119 22.527C31.91 22.916 31.981 23.395 32.293 23.707Z" fill="black"/>
<path d="M39.189 10.143C37.045 10.572 34.871 9.50497 33.894 7.55297C33.648 7.05897 33.045 6.85897 32.552 7.10597C32.058 7.35297 31.858 7.95397 32.105 8.44797C33.28 10.798 35.686 12.237 38.244 12.237C38.687 12.237 39.136 12.194 39.582 12.104L40.196 11.981C40.738 11.873 41.089 11.346 40.98 10.804C40.872 10.262 40.342 9.91397 39.803 10.02L39.189 10.143Z" fill="black"/>
<path d="M40.948 7.68396C40.773 7.16096 40.213 6.87396 39.683 7.05196C38.714 7.37696 37.639 6.96896 37.128 6.08496C36.851 5.60596 36.238 5.44296 35.762 5.71896C35.283 5.99496 35.119 6.60696 35.396 7.08496C36.153 8.39496 37.552 9.16196 39.008 9.16196C39.444 9.16196 39.885 9.09296 40.316 8.94996C40.84 8.77396 41.123 8.20796 40.948 7.68396Z" fill="black"/>
<path d="M42 48H40C39.447 48 39 48.448 39 49C39 49.552 39.447 50 40 50H42C42.553 50 43 49.552 43 49C43 48.448 42.553 48 42 48Z" fill="black"/>
<path d="M24 46H22V45C22 43.346 20.654 42 19 42H9C7.346 42 6 43.346 6 45V46H4C2.897 46 2 46.897 2 48V49C2 51.206 3.794 53 6 53H10V54C10 55.103 10.897 56 12 56H16C17.103 56 18 55.103 18 54V53H22C22.347 53 22.678 52.942 23 52.858V59C23 59.551 22.552 60 22 60H6C5.448 60 5 59.551 5 59V55.5C5 54.948 4.553 54.5 4 54.5C3.447 54.5 3 54.948 3 55.5V59C3 60.654 4.346 62 6 62H22C23.654 62 25 60.654 25 59V51.618C25.615 50.915 26 50.006 26 49V48C26 46.897 25.103 46 24 46ZM8 45C8 44.449 8.448 44 9 44H19C19.552 44 20 44.449 20 45V46H8V45ZM12 54V52H16L16.001 54H12ZM17.722 51C17.375 50.405 16.737 50 16 50H12C11.263 50 10.625 50.405 10.278 51H6C4.897 51 4 50.103 4 49V48H24V49C24 50.103 23.103 51 22 51H17.722Z" fill="black"/>
</svg>
