<svg width="64" height="64" viewBox="0 0 64 64" fill="none" xmlns="http://www.w3.org/2000/svg">
<path d="M43 28C43.5523 28 44 27.5523 44 27C44 26.4477 43.5523 26 43 26C42.4477 26 42 26.4477 42 27C42 27.5523 42.4477 28 43 28Z" fill="black"/>
<path d="M47 28C47.5523 28 48 27.5523 48 27C48 26.4477 47.5523 26 47 26C46.4477 26 46 26.4477 46 27C46 27.5523 46.4477 28 47 28Z" fill="black"/>
<path d="M45 44C45.5523 44 46 43.5523 46 43C46 42.4477 45.5523 42 45 42C44.4477 42 44 42.4477 44 43C44 43.5523 44.4477 44 45 44Z" fill="black"/>
<path d="M45 48C45.5523 48 46 47.5523 46 47C46 46.4477 45.5523 46 45 46C44.4477 46 44 46.4477 44 47C44 47.5523 44.4477 48 45 48Z" fill="black"/>
<path d="M61 52H57.444C57.788 51.409 58 50.732 58 50V42C58 40.942 57.757 39.941 57.335 39.041C58.41 37.902 59 36.445 59 34.88V34.12C59 32.486 58.363 30.949 57.207 29.793C56.429 29.015 56 27.98 56 26.88V26.34C56 23.553 54.997 20.865 53.174 18.774C52.811 18.358 52.18 18.314 51.763 18.677C51.346 19.04 51.303 19.671 51.666 20.088C53.171 21.815 54 24.036 54 26.34V26.88C54 28.514 54.637 30.051 55.793 31.207C56.571 31.985 57 33.02 57 34.12V34.88C57 35.769 56.712 36.608 56.182 37.311C54.901 35.896 53.055 35 51 35H49V34.736C50.811 33.469 52 31.372 52 29V24C52 23.448 51.552 23 51 23C49.333 23 47.765 22.351 46.586 21.172L45.707 20.293C45.316 19.902 44.684 19.902 44.293 20.293L43.414 21.172C42.235 22.351 40.667 23 39 23C38.448 23 38 23.448 38 24C38 24.552 38.448 25 39 25C41.202 25 43.271 24.143 44.828 22.586L45 22.414L45.172 22.586C46.49 23.904 48.177 24.721 50 24.94V29C50 31.757 47.757 34 45 34C42.243 34 40 31.757 40 29V28C40 27.448 39.552 27 39 27C38.448 27 38 27.448 38 28V29C38 31.373 39.189 33.47 41 34.736V35H39C37.953 35 36.931 35.238 36 35.683V26C36 23.484 37.012 21.15 38.85 19.429C40.684 17.71 43.082 16.851 45.6 17.018C46.736 17.098 47.819 17.387 48.819 17.878C49.316 18.123 49.914 17.917 50.157 17.421C50.4 16.925 50.196 16.326 49.7 16.083C48.467 15.478 47.135 15.121 45.734 15.022C42.65 14.82 39.724 15.868 37.481 17.969C35.269 20.042 34 22.97 34 26V26.184C33.686 26.072 33.352 26 33 26H24.24C23.952 25.384 23.807 24.702 23.852 24H26C27.654 24 29 22.654 29 21V5C29 3.346 27.654 2 26 2H14C13.448 2 13 2.448 13 3C13 3.552 13.448 4 14 4H26C26.551 4 27 4.449 27 5V21C27 21.551 26.551 22 26 22H23C22.541 22 22.141 22.312 22.03 22.757C21.568 24.606 21.979 26.479 23.052 27.915C20.484 27.487 18.428 25.482 17.987 22.835C17.906 22.354 17.489 22 17 22H8C7.449 22 7 21.551 7 21V5C7 4.449 7.449 4 8 4H10C10.552 4 11 3.552 11 3C11 2.448 10.552 2 10 2H8C6.346 2 5 3.346 5 5V21C5 22.654 6.346 24 8 24H16.197C17.164 27.523 20.356 30 24.083 30H26C26.464 30 26.867 29.681 26.973 29.23C27.08 28.779 26.862 28.313 26.448 28.106L26.237 28H33C33.551 28 34 28.449 34 29V43C34 43.551 33.551 44 33 44H25V39C25 36.243 22.757 34 20 34C17.243 34 15 36.243 15 39V44H7C6.449 44 6 43.551 6 43V29C6 28.449 6.449 28 7 28H14.854C15.406 28 15.854 27.552 15.854 27C15.854 26.448 15.406 26 14.854 26H7C5.346 26 4 27.346 4 29V43C4 44.654 5.346 46 7 46H15V48H14C11.586 48 9.566 49.721 9.101 52H3C2.448 52 2 52.448 2 53V57C2 57.552 2.448 58 3 58H4V61C4 61.552 4.448 62 5 62C5.552 62 6 61.552 6 61V58H37C37.552 58 38 57.552 38 57C38 56.448 37.552 56 37 56H4V54H60V56H41C40.448 56 40 56.448 40 57C40 57.552 40.448 58 41 58H58V61C58 61.552 58.448 62 59 62C59.552 62 60 61.552 60 61V58H61C61.552 58 62 57.552 62 57V53C62 52.448 61.552 52 61 52ZM41.445 37.832L43.011 38.876L41.723 39.52L41.373 37.77C41.398 37.79 41.419 37.814 41.445 37.832ZM48.555 37.832C48.582 37.814 48.602 37.79 48.627 37.77L48.277 39.52L46.989 38.876L48.555 37.832ZM47 35.705V36.465L45 37.798L43 36.465V35.705C43.634 35.895 44.305 36 45 36C45.695 36 46.366 35.895 47 35.705ZM37 50C37 51.103 36.103 52 35 52H30.899C30.747 51.257 30.417 50.584 29.975 50H33C33.552 50 34 49.552 34 49V47H37V50ZM32 46V48H25V46H32ZM17 39C17 37.346 18.346 36 20 36C21.654 36 23 37.346 23 39V48H17V39ZM11.171 52C11.584 50.836 12.696 50 14 50H26C27.304 50 28.416 50.836 28.829 52H11.171ZM38.444 52C38.788 51.409 39 50.732 39 50V44C39 43.448 38.552 43 38 43C37.448 43 37 43.448 37 44V45H35.22C35.7 44.468 36 43.771 36 43V38.034C36.867 37.376 37.911 37 39 37H39.18L40.019 41.196C40.08 41.502 40.28 41.761 40.56 41.898C40.84 42.035 41.168 42.033 41.447 41.894L45 40.118L48.553 41.894C48.693 41.965 48.847 42 49 42C49.15 42 49.301 41.966 49.439 41.898C49.719 41.761 49.919 41.502 49.98 41.196L50.82 37H51C53.757 37 56 39.243 56 42V45H53V44C53 43.448 52.552 43 52 43C51.448 43 51 43.448 51 44V48H46C43.794 48 42 49.794 42 52H38.444ZM46 50H52C52.552 50 53 49.552 53 49V47H56V50C56 51.103 55.103 52 54 52H44C44 50.897 44.897 50 46 50Z" fill="black"/>
<path d="M19 6H15C14.448 6 14 6.448 14 7V10H11C10.448 10 10 10.448 10 11V15C10 15.552 10.448 16 11 16H14V19C14 19.552 14.448 20 15 20H19C19.552 20 20 19.552 20 19V16H23C23.552 16 24 15.552 24 15V11C24 10.448 23.552 10 23 10H20V7C20 6.448 19.552 6 19 6ZM22 12V14H19C18.448 14 18 14.448 18 15V18H16V15C16 14.448 15.552 14 15 14H12V12H15C15.552 12 16 11.552 16 11V8H18V11C18 11.552 18.448 12 19 12H22Z" fill="black"/>
</svg>
