<svg width="64" height="64" viewBox="0 0 64 64" fill="none" xmlns="http://www.w3.org/2000/svg">
<path d="M56.8 38.6C55.557 37.668 54.17 36.972 52.68 36.532C52.15 36.378 51.594 36.678 51.438 37.208C51.282 37.738 51.584 38.294 52.114 38.45C53.376 38.823 54.549 39.411 55.601 40.2C58.355 42.266 60 45.556 60 49V61C60 61.552 60.447 62 61 62C61.553 62 62 61.552 62 61V49C62 44.93 60.056 41.042 56.8 38.6Z" fill="black"/>
<path d="M54 52C53.447 52 53 52.448 53 53V61C53 61.552 53.447 62 54 62C54.553 62 55 61.552 55 61V53C55 52.448 54.553 52 54 52Z" fill="black"/>
<path d="M30 52C29.447 52 29 52.448 29 53V61C29 61.552 29.447 62 30 62C30.553 62 31 61.552 31 61V53C31 52.448 30.553 52 30 52Z" fill="black"/>
<path d="M48 34.586V32.981C50.423 31.154 52 28.262 52 25V23.899C54.279 23.434 56 21.415 56 19C56 17.346 54.654 16 53 16C52.462 16 51.965 16.154 51.528 16.402C51.162 15.825 50.612 15.376 49.953 15.155C49.674 12.652 48.162 10.463 45.869 9.316L45.447 9.105C45.109 8.937 44.703 8.973 44.4 9.2C42.075 10.943 39.101 11.669 36.232 11.192L35.164 11.014C34.847 10.96 34.52 11.064 34.293 11.293C32.965 12.621 32.179 14.343 32.031 16.194C31.708 16.075 31.364 16 31 16C30.845 16 30.696 16.023 30.547 16.046C30.355 15.841 30.166 15.634 29.967 15.434C29.401 14.869 29.017 14.009 28.923 13.205C29.243 13.188 29.564 13.112 29.871 12.976C30.62 12.643 31.191 11.995 31.439 11.198C32.76 6.96 36.976 4 41.691 4C43.069 4 44.378 4.63 45.191 5.685C45.409 5.966 45.759 6.107 46.112 6.066C46.405 6.027 46.702 6 47.006 6C50.289 6 53.536 9.784 53.955 14.097C54.008 14.646 54.491 15.052 55.047 14.995C55.597 14.942 55.999 14.453 55.945 13.903C55.425 8.535 51.331 4 47.006 4C46.812 4 46.613 4.008 46.402 4.024C45.209 2.748 43.487 2 41.691 2C36.108 2 31.107 5.538 29.529 10.604C29.454 10.847 29.277 11.051 29.058 11.148C28.937 11.203 28.749 11.247 28.54 11.15C28.537 11.149 28.449 11.107 28.446 11.105C28.175 10.969 27.857 10.964 27.581 11.091C27.306 11.218 27.102 11.463 27.029 11.757C26.614 13.412 27.255 15.554 28.55 16.848C28.615 16.913 28.675 16.982 28.739 17.047C28.286 17.574 28 18.251 28 19C28 21.414 29.721 23.434 32 23.899V25C32 28.262 33.577 31.154 36 32.981V34.586L34.568 36.018C31.922 36.108 29.32 37.01 27.199 38.6C25.611 39.792 24.298 41.358 23.401 43.128C23.152 43.621 23.349 44.222 23.842 44.472C23.987 44.545 24.141 44.58 24.292 44.58C24.657 44.58 25.009 44.38 25.186 44.032C25.944 42.534 27.055 41.209 28.399 40.2C30.092 38.931 32.147 38.177 34.254 38.031L36.038 44.275C36.145 44.65 36.461 44.928 36.846 44.988C36.897 44.996 36.949 45 37 45C37.331 45 37.645 44.836 37.832 44.555L38.078 44.186C38.283 43.879 38.521 43.597 38.765 43.322C39.501 44.341 40.689 45 42 45C42.092 45 42.181 44.982 42.272 44.976L43.951 56.731L42 59.333L40.049 56.731L41.337 47.717C41.415 47.17 41.035 46.664 40.488 46.586C39.942 46.51 39.434 46.888 39.356 47.434L38.009 56.858C37.972 57.121 38.04 57.387 38.199 57.6L41.199 61.6C41.387 61.851 41.684 62 41.999 62C42.314 62 42.61 61.852 42.799 61.6L45.799 57.6C45.958 57.388 46.027 57.121 45.989 56.858L44.198 44.318C44.6 44.051 44.95 43.715 45.234 43.322C45.478 43.598 45.716 43.879 45.921 44.186L46.167 44.555C46.355 44.836 46.669 45 47 45C47.051 45 47.103 44.996 47.154 44.988C47.539 44.928 47.854 44.65 47.962 44.275L49.962 37.275C50.062 36.925 49.964 36.55 49.707 36.293L48 34.586ZM53 18C53.552 18 54 18.449 54 19C54 20.304 53.164 21.416 52 21.829V19C52 18.449 52.448 18 53 18ZM35.369 13.075L35.904 13.164C39.096 13.695 42.411 12.968 45.089 11.164C46.888 12.115 48 13.957 48 16C48 16.552 48.447 17 49 17C49.552 17 50 17.449 50 18V18.382C49.266 17.542 48.201 17 47 17C45.681 17 44.519 17.649 43.79 18.636C42.67 18.042 41.329 18.042 40.21 18.636C39.481 17.649 38.319 17 37 17C35.799 17 34.734 17.542 34 18.382V16.828C34 15.44 34.482 14.125 35.369 13.075ZM47 19C48.103 19 49 19.897 49 21C49 22.103 48.103 23 47 23C45.897 23 45 22.103 45 21C45 19.897 45.897 19 47 19ZM39 21C39 22.103 38.103 23 37 23C35.897 23 35 22.103 35 21C35 19.897 35.897 19 37 19C38.103 19 39 19.897 39 21ZM30 19C30 18.449 30.448 18 31 18C31.552 18 32 18.449 32 19V21.829C30.836 21.416 30 20.304 30 19ZM34 25V23.618C34.734 24.458 35.799 25 37 25C39.206 25 41 23.206 41 21C41 20.832 40.971 20.671 40.95 20.508C41.578 20.065 42.421 20.065 43.049 20.508C43.029 20.671 43 20.832 43 21C43 23.206 44.794 25 47 25C48.201 25 49.266 24.458 50 23.618V25C50 29.411 46.411 33 42 33C37.589 33 34 29.411 34 25ZM42 35C43.422 35 44.774 34.697 46 34.159V34.763L45.52 35.724C44.779 37.208 43.535 38.33 42 38.928C40.466 38.33 39.222 37.207 38.48 35.724L38 34.764V34.16C39.226 34.697 40.578 35 42 35ZM37.414 41.809L36.123 37.291L36.727 36.688C37.418 38.042 38.431 39.165 39.672 39.977C38.838 40.477 38.075 41.095 37.414 41.809ZM40.273 41.995C40.81 41.625 41.388 41.318 42 41.085C42.612 41.319 43.19 41.625 43.727 41.995C43.377 42.599 42.725 43 42 43C41.275 43 40.623 42.599 40.273 41.995ZM46.586 41.809C45.925 41.095 45.162 40.477 44.328 39.977C45.569 39.165 46.582 38.041 47.273 36.688L47.877 37.291L46.586 41.809Z" fill="black"/>
<path d="M46 22C46.5523 22 47 21.5523 47 21C47 20.4477 46.5523 20 46 20C45.4477 20 45 20.4477 45 21C45 21.5523 45.4477 22 46 22Z" fill="black"/>
<path d="M36 22C36.5523 22 37 21.5523 37 21C37 20.4477 36.5523 20 36 20C35.4477 20 35 20.4477 35 21C35 21.5523 35.4477 22 36 22Z" fill="black"/>
<path d="M41.293 26.707C41.488 26.902 41.744 27 42 27C42.256 27 42.512 26.902 42.707 26.707C43.098 26.316 43.098 25.684 42.707 25.293L42.232 24.818L42.954 23.472C43.216 22.986 43.033 22.379 42.546 22.118C42.06 21.857 41.452 22.04 41.192 22.527L40.119 24.527C39.91 24.916 39.981 25.395 40.293 25.707L41.293 26.707Z" fill="black"/>
<path d="M42 30.912C43.237 30.912 44.475 30.552 45.555 29.832C46.015 29.526 46.139 28.905 45.832 28.445C45.526 27.985 44.906 27.861 44.445 28.168C42.959 29.158 41.041 29.158 39.554 28.168C39.093 27.861 38.473 27.985 38.167 28.445C37.86 28.904 37.984 29.526 38.444 29.832C39.525 30.552 40.763 30.912 42 30.912Z" fill="black"/>
<path d="M22.253 44.757L21.821 43.029C21.503 41.753 20.591 40.762 19.427 40.296L17.14 36.485C16.96 36.184 16.635 36 16.283 36C15.243 36 14.267 36.461 13.608 37.266C12.978 38.035 12.724 39.024 12.879 40H11.783L10.135 37.802C9.22802 36.592 7.52802 36.302 6.27102 37.14C4.96202 38.013 4.60802 39.787 5.48002 41.096L6.96702 43.328C8.08302 45.001 9.94902 46 11.96 46H14.401L16.292 61.124C16.36 61.672 16.855 62.064 17.408 61.992C17.956 61.924 18.345 61.424 18.276 60.876L16.916 50H21.502L24.313 61.243C24.427 61.697 24.834 62 25.282 62C25.362 62 25.444 61.991 25.525 61.97C26.061 61.836 26.387 61.293 26.253 60.757L22.253 44.757ZM14.853 39.746C14.767 39.315 14.877 38.874 15.156 38.535C15.321 38.332 15.535 38.181 15.773 38.093L16.917 40H14.903L14.853 39.746ZM8.63102 42.219L7.14402 39.987C6.88302 39.596 6.99002 39.065 7.38002 38.804C7.52502 38.707 7.69002 38.661 7.85202 38.661C8.11302 38.661 8.36902 38.78 8.53602 39.002L10.484 41.6C10.672 41.852 10.969 42 11.284 42H17.942C18.861 42 19.659 42.623 19.882 43.515L20.003 44H11.96C10.619 44 9.37502 43.334 8.63102 42.219ZM16.666 48L16.416 46H20.502L21.002 48H16.666Z" fill="black"/>
<path d="M7.846 25.296C7.05 25.715 6.5 26.54 6.5 27.5C6.5 28.523 7.118 29.401 8 29.788V30C8 32.206 9.794 34 12 34C14.206 34 16 32.206 16 30V29.788C16.882 29.401 17.5 28.522 17.5 27.5C17.5 26.54 16.95 25.715 16.154 25.296C17.332 24.167 18 22.64 18 21C18 17.691 15.309 15 12 15C8.691 15 6 17.691 6 21C6 22.64 6.668 24.167 7.846 25.296ZM15 27C15.275 27 15.5 27.224 15.5 27.5C15.5 27.776 15.275 28 15 28H9C8.725 28 8.5 27.776 8.5 27.5C8.5 27.224 8.725 27 9 27H15ZM12 32C10.897 32 10 31.103 10 30H14C14 31.103 13.103 32 12 32ZM12 17C14.206 17 16 18.794 16 21C16 22.251 15.416 23.41 14.397 24.18C14.146 24.369 14 24.664 14 24.978V25H13V22.535L14.055 21.832C14.515 21.526 14.639 20.905 14.332 20.445C14.026 19.985 13.406 19.86 12.945 20.168L12 20.798L11.055 20.168C10.593 19.86 9.974 19.985 9.668 20.445C9.361 20.904 9.485 21.526 9.945 21.832L11 22.535V25H10V24.978C10 24.665 9.854 24.369 9.603 24.18C8.584 23.41 8 22.251 8 21C8 18.794 9.794 17 12 17Z" fill="black"/>
<path d="M3 22C3.55228 22 4 21.5523 4 21C4 20.4477 3.55228 20 3 20C2.44772 20 2 20.4477 2 21C2 21.5523 2.44772 22 3 22Z" fill="black"/>
<path d="M21 22C21.5523 22 22 21.5523 22 21C22 20.4477 21.5523 20 21 20C20.4477 20 20 20.4477 20 21C20 21.5523 20.4477 22 21 22Z" fill="black"/>
<path d="M12 13C12.5523 13 13 12.5523 13 12C13 11.4477 12.5523 11 12 11C11.4477 11 11 11.4477 11 12C11 12.5523 11.4477 13 12 13Z" fill="black"/>
<path d="M8.00002 14.072C8.47802 13.796 8.64202 13.184 8.36602 12.706C8.09002 12.228 7.47802 12.064 7.00002 12.34C6.52202 12.616 6.35802 13.228 6.63402 13.706C6.91002 14.184 7.52202 14.348 8.00002 14.072Z" fill="black"/>
<path d="M5.07199 25C4.79599 24.522 4.18399 24.358 3.70599 24.634C3.22699 24.91 3.06399 25.522 3.33999 26C3.61599 26.478 4.22799 26.642 4.70599 26.366C5.18399 26.09 5.34799 25.478 5.07199 25Z" fill="black"/>
<path d="M20.294 17.366C20.772 17.09 20.936 16.478 20.66 16C20.384 15.522 19.772 15.358 19.294 15.634C18.816 15.91 18.652 16.522 18.928 17C19.204 17.478 19.816 17.642 20.294 17.366Z" fill="black"/>
<path d="M19.294 26.366C19.772 26.642 20.384 26.478 20.66 26C20.936 25.522 20.772 24.91 20.294 24.634C19.816 24.358 19.204 24.522 18.928 25C18.652 25.478 18.816 26.09 19.294 26.366Z" fill="black"/>
<path d="M3.70599 17.366C4.18399 17.642 4.79599 17.478 5.07199 17C5.34799 16.522 5.18399 15.91 4.70599 15.634C4.22699 15.358 3.61599 15.522 3.33999 16C3.06399 16.478 3.22699 17.09 3.70599 17.366Z" fill="black"/>
<path d="M16 14.072C16.478 14.348 17.09 14.184 17.366 13.706C17.642 13.228 17.478 12.616 17 12.34C16.522 12.064 15.91 12.228 15.634 12.706C15.358 13.184 15.522 13.796 16 14.072Z" fill="black"/>
</svg>
