<svg width="64" height="64" viewBox="0 0 64 64" fill="none" xmlns="http://www.w3.org/2000/svg">
<path d="M52.021 31.383C51.486 30.937 51.263 30.216 51.456 29.546L51.956 27.795C52.283 26.65 52.06 25.447 51.342 24.497C50.625 23.545 49.53 23 48.339 23C47.475 23 46.743 22.381 46.602 21.528L46.449 20.604C47.4 19.694 48 18.418 48 17C48 16.089 47.583 15.281 46.94 14.731C46.976 14.477 47 14.233 47 14V13C47 10.832 46.368 8.735 45.173 6.937C44.867 6.477 44.246 6.353 43.786 6.658C43.326 6.964 43.201 7.585 43.507 8.045C44.483 9.513 45 11.227 45 13V14C44.126 14 43.346 14.382 42.797 14.98C41.861 14.929 40.957 14.543 40.293 13.879L39.707 13.293C39.401 12.988 38.938 12.915 38.553 13.105C36.469 14.146 33.949 13.877 32.133 12.425L30.625 11.219C30.352 11.001 29.983 10.94 29.657 11.06C29.33 11.179 29.088 11.461 29.019 11.803L28.828 12.76C28.669 13.554 28.205 14.23 27.52 14.662C26.837 15.094 26.031 15.225 25.244 15.029C24.694 14.404 23.897 14 23 14V11C23 8.243 25.243 6 28 6C28.473 6 28.933 6.068 29.406 6.208C29.726 6.303 30.069 6.233 30.324 6.023C31.916 4.719 33.932 4 36 4C37.773 4 39.487 4.516 40.956 5.493C41.414 5.796 42.036 5.674 42.343 5.214C42.649 4.754 42.524 4.133 42.064 3.827C40.265 2.632 38.168 2 36 2C33.643 2 31.341 2.764 29.463 4.16C28.977 4.054 28.487 4 28 4C24.141 4 21 7.14 21 11V14C21 14.241 21.028 14.481 21.073 14.72C20.422 15.271 20 16.083 20 17C20 18.418 20.6 19.694 21.552 20.605L21.399 21.529C21.257 22.381 20.525 23 19.661 23C18.47 23 17.375 23.545 16.658 24.496C15.94 25.447 15.717 26.649 16.044 27.794L16.545 29.545C16.736 30.214 16.514 30.936 15.98 31.382C13.35 33.572 12.874 37.445 14.894 40.199C15.09 40.466 15.394 40.608 15.702 40.608C15.907 40.608 16.114 40.545 16.293 40.414C16.738 40.087 16.834 39.462 16.508 39.017C15.111 37.113 15.442 34.434 17.261 32.918C18.404 31.965 18.877 30.425 18.469 28.996L17.969 27.245C17.816 26.708 17.92 26.145 18.256 25.7C18.592 25.255 19.104 25 19.661 25C21.508 25 23.068 23.678 23.371 21.856L23.395 21.712C23.594 21.78 23.79 21.856 24 21.899V23C24 26.262 25.577 29.154 28 30.981V32.764L27.895 32.553C27.751 32.265 27.478 32.065 27.161 32.013C26.837 31.962 26.519 32.066 26.294 32.293L24.294 34.293C24.2 34.387 24.135 34.501 24.085 34.621C22.688 35.061 21.38 35.716 20.2 36.601C19.292 37.283 18.476 38.08 17.778 38.97C17.436 39.405 17.512 40.033 17.947 40.374C18.13 40.518 18.347 40.587 18.563 40.587C18.86 40.587 19.153 40.456 19.35 40.205C19.942 39.452 20.631 38.778 21.4 38.201C22.324 37.509 23.337 36.978 24.419 36.607L26.039 42.276C26.146 42.651 26.462 42.929 26.847 42.989C27.235 43.053 27.618 42.88 27.833 42.556L28.079 42.187C28.934 40.903 30.117 39.899 31.515 39.265L33.107 42.449C33.447 43.127 34.556 43.127 34.896 42.449L36.488 39.265C37.885 39.9 39.071 40.908 39.924 42.188L40.17 42.557C40.355 42.836 40.669 43 41 43C41.051 43 41.103 42.996 41.154 42.988C41.539 42.928 41.854 42.65 41.962 42.275L43.582 36.606C44.664 36.978 45.677 37.508 46.601 38.2C49.355 40.266 51 43.556 51 47V61C51 61.552 51.447 62 52 62C52.553 62 53 61.552 53 61V47C53 42.93 51.056 39.042 47.8 36.6C46.621 35.716 45.313 35.061 43.916 34.621C43.867 34.502 43.802 34.388 43.707 34.293L41.707 32.293C41.48 32.066 41.161 31.964 40.84 32.013C40.523 32.065 40.249 32.265 40.106 32.553L40 32.764V30.981C42.423 29.154 44 26.262 44 23V21.899C44.21 21.856 44.406 21.78 44.605 21.712L44.629 21.856C44.932 23.678 46.492 25 48.339 25C48.897 25 49.409 25.255 49.745 25.701C50.081 26.147 50.185 26.709 50.032 27.246L49.533 28.996C49.124 30.426 49.597 31.966 50.74 32.919C52.21 34.144 52.743 36.169 52.067 37.96C51.872 38.477 52.132 39.054 52.649 39.249C52.765 39.293 52.885 39.314 53.003 39.314C53.407 39.314 53.787 39.067 53.939 38.667C54.915 36.08 54.145 33.153 52.021 31.383ZM22 17C22 16.449 22.448 16 23 16C23.552 16 24 16.449 24 17V19.829C22.836 19.416 22 18.304 22 17ZM27.413 39.806L26.123 35.291L26.727 34.688C27.418 36.041 28.43 37.164 29.669 37.975C28.832 38.475 28.074 39.09 27.413 39.806ZM41.273 34.688L41.877 35.291L40.587 39.807C39.927 39.092 39.168 38.476 38.331 37.976C39.57 37.164 40.582 36.041 41.273 34.688ZM38 35.71C37.336 36.302 36.554 36.761 35.684 37.051C35.433 37.135 35.225 37.315 35.106 37.552L34 39.764L32.895 37.553C32.776 37.316 32.568 37.136 32.317 37.052C31.447 36.762 30.665 36.303 30.001 35.711V32.16C31.226 32.697 32.578 33 34 33C35.422 33 36.774 32.697 38 32.159V35.71ZM42 23C42 27.411 38.411 31 34 31C29.589 31 26 27.411 26 23V17.12C26.908 17.114 27.799 16.854 28.591 16.353C29.557 15.742 30.263 14.842 30.622 13.778L30.883 13.986C33.117 15.773 36.144 16.215 38.778 15.191L38.88 15.293C39.727 16.14 40.828 16.705 42.001 16.912L42 23ZM44 17C44 16.449 44.448 16 45 16C45.552 16 46 16.449 46 17C46 18.304 45.164 19.416 44 19.829V17Z" fill="black"/>
<path d="M46 47C45.447 47 45 47.448 45 48V61C45 61.552 45.447 62 46 62C46.553 62 47 61.552 47 61V48C47 47.448 46.553 47 46 47Z" fill="black"/>
<path d="M34 47C34.5523 47 35 46.5523 35 46C35 45.4477 34.5523 45 34 45C33.4477 45 33 45.4477 33 46C33 46.5523 33.4477 47 34 47Z" fill="black"/>
<path d="M34 51C34.5523 51 35 50.5523 35 50C35 49.4477 34.5523 49 34 49C33.4477 49 33 49.4477 33 50C33 50.5523 33.4477 51 34 51Z" fill="black"/>
<path d="M42 50H39C38.447 50 38 50.448 38 51C38 51.552 38.447 52 39 52H42C42.553 52 43 51.552 43 51C43 50.448 42.553 50 42 50Z" fill="black"/>
<path d="M35.293 17.293C34.902 17.684 34.902 18.316 35.293 18.707C35.684 19.098 36.316 19.098 36.707 18.707C37.42 17.994 38.58 17.994 39.293 18.707C39.488 18.902 39.744 19 40 19C40.256 19 40.512 18.902 40.707 18.707C41.098 18.316 41.098 17.684 40.707 17.293C39.215 15.8 36.785 15.8 35.293 17.293Z" fill="black"/>
<path d="M38 21C38.5523 21 39 20.5523 39 20C39 19.4477 38.5523 19 38 19C37.4477 19 37 19.4477 37 20C37 20.5523 37.4477 21 38 21Z" fill="black"/>
<path d="M31.293 18.707C31.488 18.902 31.744 19 32 19C32.256 19 32.512 18.902 32.707 18.707C33.098 18.316 33.098 17.684 32.707 17.293C31.215 15.8 28.785 15.8 27.293 17.293C26.902 17.684 26.902 18.316 27.293 18.707C27.684 19.098 28.316 19.098 28.707 18.707C29.42 17.994 30.58 17.994 31.293 18.707Z" fill="black"/>
<path d="M30 21C30.5523 21 31 20.5523 31 20C31 19.4477 30.5523 19 30 19C29.4477 19 29 19.4477 29 20C29 20.5523 29.4477 21 30 21Z" fill="black"/>
<path d="M36.445 26.168C34.959 27.158 33.041 27.158 31.554 26.168C31.093 25.86 30.473 25.985 30.167 26.445C29.86 26.904 29.984 27.526 30.444 27.832C31.524 28.552 32.761 28.912 33.999 28.912C35.237 28.912 36.474 28.552 37.554 27.832C38.014 27.526 38.138 26.905 37.831 26.445C37.526 25.985 36.906 25.86 36.445 26.168Z" fill="black"/>
<path d="M32.293 23.707L33.293 24.707C33.488 24.902 33.744 25 34 25C34.256 25 34.512 24.902 34.707 24.707C35.098 24.316 35.098 23.684 34.707 23.293L34.232 22.818L34.954 21.472C35.216 20.986 35.033 20.379 34.546 20.118C34.059 19.856 33.452 20.04 33.192 20.527L32.119 22.527C31.91 22.916 31.981 23.395 32.293 23.707Z" fill="black"/>
<path d="M34 55C34.5523 55 35 54.5523 35 54C35 53.4477 34.5523 53 34 53C33.4477 53 33 53.4477 33 54C33 54.5523 33.4477 55 34 55Z" fill="black"/>
<path d="M34 59C34.5523 59 35 58.5523 35 58C35 57.4477 34.5523 57 34 57C33.4477 57 33 57.4477 33 58C33 58.5523 33.4477 59 34 59Z" fill="black"/>
<path d="M24 46H22V45C22 43.346 20.654 42 19 42H9C7.346 42 6 43.346 6 45V46H4C2.897 46 2 46.897 2 48V49C2 51.206 3.794 53 6 53H10V54C10 55.103 10.897 56 12 56H16C17.103 56 18 55.103 18 54V53H22C22.347 53 22.678 52.942 23 52.858V59C23 59.551 22.552 60 22 60H6C5.448 60 5 59.551 5 59V55.5C5 54.948 4.553 54.5 4 54.5C3.447 54.5 3 54.948 3 55.5V59C3 60.654 4.346 62 6 62H22C23.654 62 25 60.654 25 59V51.618C25.615 50.915 26 50.006 26 49V48C26 46.897 25.103 46 24 46ZM8 45C8 44.449 8.448 44 9 44H19C19.552 44 20 44.449 20 45V46H8V45ZM12 54V52H16L16.001 54H12ZM17.722 51C17.375 50.405 16.737 50 16 50H12C11.263 50 10.625 50.405 10.278 51H6C4.897 51 4 50.103 4 49V48H24V49C24 50.103 23.103 51 22 51H17.722Z" fill="black"/>
</svg>
