<svg width="64" height="64" viewBox="0 0 64 64" fill="none" xmlns="http://www.w3.org/2000/svg">
<path d="M7 8C7.55228 8 8 7.55228 8 7C8 6.44772 7.55228 6 7 6C6.44772 6 6 6.44772 6 7C6 7.55228 6.44772 8 7 8Z" fill="black"/>
<path d="M11 8C11.5523 8 12 7.55228 12 7C12 6.44772 11.5523 6 11 6C10.4477 6 10 6.44772 10 7C10 7.55228 10.4477 8 11 8Z" fill="black"/>
<path d="M15 8C15.5523 8 16 7.55228 16 7C16 6.44772 15.5523 6 15 6C14.4477 6 14 6.44772 14 7C14 7.55228 14.4477 8 15 8Z" fill="black"/>
<path d="M61 27C61.553 27 62 26.552 62 26V3C62 2.448 61.553 2 61 2H3C2.448 2 2 2.448 2 3V61C2 61.552 2.448 62 3 62H61C61.553 62 62 61.552 62 61V30C62 29.448 61.553 29 61 29C60.447 29 60 29.448 60 30V60H4V12H56C56.553 12 57 11.552 57 11C57 10.448 56.553 10 56 10H20V4H60V26C60 26.552 60.447 27 61 27ZM4 4H18V10H4V4Z" fill="black"/>
<path d="M24 6C23.448 6 23 6.448 23 7C23 7.552 23.448 8 24 8H56C56.553 8 57 7.552 57 7C57 6.448 56.553 6 56 6H24Z" fill="black"/>
<path d="M44.78 52.884C44.336 51.782 43.259 51 42 51H40C38.346 51 37 52.346 37 54C37 55.654 38.346 57 40 57H42C43.333 57 44.453 56.12 44.842 54.915C47.198 54.512 49 52.468 49 50C50.033 49.995 50.989 49.452 51.53 48.588L51.699 48.625C51.99 48.69 52.28 48.721 52.567 48.721C54.4 48.721 56.057 47.45 56.471 45.587L56.904 43.635C57.135 42.592 56.947 41.521 56.373 40.62C55.8 39.719 54.909 39.095 53.866 38.864L53.686 38.824C53.613 38.24 53.373 37.7 53 37.258V34C53 26.832 47.168 21 40 21C37.55 21 35.164 21.682 33.1 22.972C32.632 23.265 32.49 23.882 32.782 24.35C33.074 24.819 33.692 24.961 34.16 24.668C35.905 23.577 37.925 23 40 23C46.065 23 51 27.935 51 34V36.179L49.198 35.779C49.132 35.764 49.066 35.769 49 35.759V34C49 29.038 44.963 25 40 25C35.037 25 31 29.038 31 34V35.758C30.934 35.768 30.868 35.764 30.801 35.778L29 36.179V34C29 31.463 29.84 29.08 31.429 27.107C31.775 26.677 31.708 26.047 31.278 25.701C30.847 25.354 30.218 25.422 29.872 25.852C27.993 28.184 27 31.001 27 34V37.258C26.627 37.699 26.386 38.24 26.314 38.823L26.134 38.863C25.881 38.919 25.64 39.002 25.411 39.102C25.378 39.087 25.352 39.062 25.317 39.051L25.162 39C24.197 38.678 23.468 37.924 23.16 36.996C24.74 36.912 26 35.601 26 34V20C26 18.346 24.654 17 23 17H9C7.346 17 6 18.346 6 20V23C6 23.552 6.448 24 7 24C7.552 24 8 23.552 8 23V20C8 19.449 8.449 19 9 19H23C23.551 19 24 19.449 24 20V34C24 34.551 23.551 35 23 35H22C21.448 35 21 35.448 21 36C21 37.103 21.349 38.143 21.957 38.997C20.06 38.925 18.434 37.613 17.97 35.758C17.859 35.312 17.459 35 17 35H9C8.449 35 8 34.551 8 34V27C8 26.448 7.552 26 7 26C6.448 26 6 26.448 6 27V34C6 35.654 7.346 37 9 37H16.271C17.199 39.39 19.504 41 22.124 41H23.436C23.043 41.791 22.891 42.708 23.097 43.635L23.531 45.588C23.762 46.631 24.386 47.521 25.287 48.095C25.937 48.509 26.675 48.722 27.427 48.722C27.718 48.722 28.011 48.69 28.302 48.626L28.472 48.588C29.013 49.456 29.974 50 31.013 50C31.227 50 31.445 49.977 31.663 49.928L33.835 49.446C34.788 49.235 35.556 48.599 35.941 47.702C36.326 46.805 36.259 45.811 35.757 44.974C34.691 43.195 34.221 41.078 34.434 39.016C34.536 38.046 34.176 37.117 33.448 36.467C33.309 36.343 33.154 36.247 33 36.153V34C33 30.14 36.141 27 40 27C43.859 27 47 30.14 47 34V36.154C46.846 36.248 46.692 36.344 46.553 36.468C45.824 37.118 45.464 38.047 45.565 39.017C45.779 41.079 45.309 43.196 44.243 44.975C43.741 45.812 43.674 46.806 44.059 47.703C44.444 48.6 45.212 49.235 46.165 49.447L47 49.631V50C47 51.383 46.055 52.538 44.78 52.884ZM42 55H40C39.448 55 39 54.551 39 54C39 53.449 39.448 53 40 53H42C42.552 53 43 53.449 43 54C43 54.551 42.552 55 42 55ZM26.36 46.408C25.909 46.121 25.597 45.676 25.482 45.155L25.048 43.202C24.809 42.125 25.491 41.056 26.567 40.816L27.867 46.673C27.345 46.788 26.81 46.694 26.36 46.408ZM34.043 46.003C34.21 46.282 34.232 46.613 34.104 46.912C33.976 47.211 33.72 47.423 33.402 47.494L31.231 47.976C30.693 48.095 30.157 47.755 30.038 47.216L28.304 39.406C28.185 38.868 28.525 38.333 29.064 38.213L31.236 37.731C31.31 37.715 31.384 37.707 31.457 37.707C31.699 37.707 31.932 37.795 32.118 37.961C32.361 38.177 32.48 38.487 32.447 38.811C32.188 41.301 32.755 43.855 34.043 46.003ZM54.687 41.694C54.974 42.145 55.068 42.68 54.952 43.202L54.519 45.154C54.404 45.675 54.091 46.121 53.641 46.407C53.19 46.694 52.658 46.789 52.133 46.672L53.433 40.815C53.954 40.932 54.399 41.244 54.687 41.694ZM45.896 46.912C45.767 46.613 45.79 46.282 45.957 46.003C47.245 43.855 47.812 41.301 47.554 38.81C47.521 38.487 47.641 38.177 47.883 37.961C48.126 37.744 48.45 37.663 48.765 37.731L50.938 38.213C51.476 38.333 51.817 38.868 51.697 39.406L49.964 47.216C49.846 47.755 49.308 48.096 48.772 47.976L46.6 47.494C46.28 47.423 46.024 47.211 45.896 46.912Z" fill="black"/>
<path d="M18 21H14C13.448 21 13 21.448 13 22V24H11C10.448 24 10 24.448 10 25V29C10 29.552 10.448 30 11 30H13V32C13 32.552 13.448 33 14 33H18C18.552 33 19 32.552 19 32V30H21C21.552 30 22 29.552 22 29V25C22 24.448 21.552 24 21 24H19V22C19 21.448 18.552 21 18 21ZM20 26V28H18C17.448 28 17 28.448 17 29V31H15V29C15 28.448 14.552 28 14 28H12V26H14C14.552 26 15 25.552 15 25V23H17V25C17 25.552 17.448 26 18 26H20Z" fill="black"/>
<path d="M50 17C50 15.346 48.654 14 47 14C45.346 14 44 15.346 44 17C44 18.654 45.346 20 47 20C48.654 20 50 18.654 50 17ZM46 17C46 16.449 46.448 16 47 16C47.552 16 48 16.449 48 17C48 17.551 47.552 18 47 18C46.448 18 46 17.551 46 17Z" fill="black"/>
<path d="M58 17C58 15.346 56.654 14 55 14C53.346 14 52 15.346 52 17C52 18.654 53.346 20 55 20C56.654 20 58 18.654 58 17ZM55 18C54.448 18 54 17.551 54 17C54 16.449 54.448 16 55 16C55.552 16 56 16.449 56 17C56 17.551 55.552 18 55 18Z" fill="black"/>
<path d="M18 44H8C7.448 44 7 44.448 7 45C7 45.552 7.448 46 8 46H18C18.552 46 19 45.552 19 45C19 44.448 18.552 44 18 44Z" fill="black"/>
<path d="M19 49C19 48.448 18.552 48 18 48H8C7.448 48 7 48.448 7 49C7 49.552 7.448 50 8 50H18C18.552 50 19 49.552 19 49Z" fill="black"/>
<path d="M8 52C7.448 52 7 52.448 7 53C7 53.552 7.448 54 8 54H15C15.552 54 16 53.552 16 53C16 52.448 15.552 52 15 52H8Z" fill="black"/>
</svg>
