<svg width="64" height="64" viewBox="0 0 64 64" fill="none" xmlns="http://www.w3.org/2000/svg">
<path d="M48.8 36.6C47.624 35.718 46.315 35.062 44.916 34.62C44.867 34.501 44.802 34.388 44.707 34.293L42.707 32.293C42.481 32.066 42.163 31.963 41.84 32.013C41.523 32.065 41.249 32.265 41.106 32.553L41 32.764V30.981C43.423 29.154 45 26.262 45 23V21.899C46.753 21.542 48.155 20.255 48.718 18.585C50.111 17.923 51 16.556 51 15C51 13.554 50.211 12.239 48.979 11.537C48.89 10.56 48.517 9.644 47.9 8.879C47.967 8.59 48 8.296 48 8C48 5.794 46.206 4 44 4C43.617 4 43.225 4.065 42.802 4.198C42.276 4.364 41.983 4.926 42.149 5.452C42.315 5.98 42.875 6.274 43.404 6.105C43.632 6.034 43.821 6 44 6C45.103 6 46 6.897 46 8C46 8.254 45.949 8.507 45.85 8.752C45.697 9.13 45.788 9.564 46.081 9.847C46.674 10.42 47 11.185 47.001 11.954C46.996 11.99 46.984 12.109 46.983 12.145C46.968 12.582 47.24 12.978 47.653 13.122C48.459 13.403 49 14.158 49 15C49 15.314 48.908 15.602 48.775 15.869C48.327 14.774 47.254 14 46 14C45.125 14 44.344 14.383 43.795 14.982C42.491 14.89 41.365 13.945 41.077 12.652C41.018 12.393 40.86 12.167 40.636 12.025C40.412 11.883 40.141 11.836 39.88 11.894C39.565 11.965 39.277 12 39 12C37.736 12 36.571 11.408 35.802 10.375C35.425 9.868 34.575 9.868 34.198 10.375C33.429 11.408 32.264 12 31 12C30.723 12 30.435 11.965 30.12 11.894C29.857 11.835 29.588 11.883 29.364 12.025C29.139 12.167 28.981 12.393 28.923 12.652C28.635 13.944 27.509 14.889 26.205 14.982C25.656 14.383 24.875 14 24 14C22.746 14 21.673 14.774 21.225 15.869C21.092 15.602 21 15.314 21 15C21 14.158 21.541 13.403 22.347 13.123C22.76 12.979 23.032 12.583 23.017 12.146C23.015 12.081 23.008 12.018 23 12C23 11.185 23.326 10.42 23.919 9.847C24.212 9.563 24.304 9.13 24.15 8.752C24.051 8.507 24 8.254 24 8C24 6.897 24.897 6 26 6C26.179 6 26.368 6.034 26.597 6.105C27.014 6.235 27.469 6.082 27.719 5.723C28.469 4.644 29.695 4 31 4C32.264 4 33.429 4.592 34.198 5.625C34.575 6.132 35.425 6.132 35.802 5.625C36.755 4.347 38.384 3.754 39.894 4.101C40.431 4.223 40.968 3.889 41.092 3.35C41.216 2.812 40.879 2.275 40.341 2.152C38.451 1.716 36.421 2.254 35 3.545C33.908 2.552 32.501 2 31 2C29.272 2 27.637 2.75 26.503 4.037C24.078 3.689 22 5.628 22 8C22 8.296 22.033 8.59 22.1 8.879C21.484 9.644 21.111 10.56 21.022 11.537C19.789 12.239 19 13.554 19 15C19 16.531 19.907 17.925 21.281 18.584C21.844 20.254 23.246 21.542 25 21.899V23C25 26.262 26.577 29.154 29 30.981V32.764L28.895 32.553C28.751 32.265 28.478 32.065 28.161 32.013C27.839 31.961 27.52 32.066 27.294 32.293L25.294 34.293C25.199 34.388 25.135 34.501 25.085 34.621C23.688 35.061 22.38 35.716 21.199 36.602L20.972 36.777C20.539 37.121 20.469 37.75 20.813 38.182C21.01 38.43 21.302 38.558 21.596 38.558C21.814 38.558 22.034 38.487 22.218 38.34L22.4 38.2C23.324 37.508 24.337 36.977 25.419 36.606L27.039 42.275C27.146 42.65 27.462 42.928 27.847 42.988C28.237 43.05 28.618 42.879 28.833 42.555L29.079 42.186C29.934 40.902 31.117 39.898 32.515 39.264L34.107 42.448C34.447 43.126 35.556 43.126 35.896 42.448L37.488 39.264C38.885 39.898 40.067 40.902 40.924 42.187L41.17 42.556C41.355 42.836 41.669 43 42 43C42.051 43 42.103 42.996 42.154 42.988C42.539 42.928 42.854 42.65 42.962 42.275L44.58 36.61C45.663 36.982 46.679 37.509 47.6 38.199C50.355 40.266 52 43.556 52 47V61C52 61.552 52.447 62 53 62C53.553 62 54 61.552 54 61V47C54 42.93 52.056 39.042 48.8 36.6ZM46 16C46.552 16 47 16.449 47 17C47 18.304 46.164 19.416 45 19.829V17C45 16.449 45.448 16 46 16ZM23 17C23 16.449 23.448 16 24 16C24.552 16 25 16.449 25 17V19.829C23.836 19.416 23 18.304 23 17ZM27 23V16.889C28.603 16.566 29.942 15.492 30.587 13.985C32.245 14.108 33.809 13.538 35 12.456C36.191 13.538 37.749 14.108 39.413 13.985C40.058 15.493 41.397 16.566 43 16.889V23C43 27.411 39.411 31 35 31C30.589 31 27 27.411 27 23ZM28.413 39.806L27.123 35.291L27.727 34.688C28.418 36.041 29.43 37.164 30.669 37.975C29.832 38.475 29.074 39.09 28.413 39.806ZM36.684 37.051C36.433 37.135 36.225 37.315 36.106 37.552L35 39.764L33.895 37.553C33.776 37.316 33.568 37.136 33.317 37.052C32.447 36.762 31.665 36.303 31.001 35.711V32.16C32.226 32.697 33.578 33 35 33C36.422 33 37.774 32.697 39 32.159V35.71C38.336 36.303 37.554 36.761 36.684 37.051ZM41.587 39.806C40.926 39.09 40.168 38.474 39.332 37.975C40.57 37.163 41.583 36.04 42.273 34.688L42.877 35.291L41.587 39.806Z" fill="black"/>
<path d="M47 47C46.447 47 46 47.448 46 48V61C46 61.552 46.447 62 47 62C47.553 62 48 61.552 48 61V48C48 47.448 47.553 47 47 47Z" fill="black"/>
<path d="M35 47C35.5523 47 36 46.5523 36 46C36 45.4477 35.5523 45 35 45C34.4477 45 34 45.4477 34 46C34 46.5523 34.4477 47 35 47Z" fill="black"/>
<path d="M35 51C35.5523 51 36 50.5523 36 50C36 49.4477 35.5523 49 35 49C34.4477 49 34 49.4477 34 50C34 50.5523 34.4477 51 35 51Z" fill="black"/>
<path d="M35 55C35.5523 55 36 54.5523 36 54C36 53.4477 35.5523 53 35 53C34.4477 53 34 53.4477 34 54C34 54.5523 34.4477 55 35 55Z" fill="black"/>
<path d="M35 59C35.5523 59 36 58.5523 36 58C36 57.4477 35.5523 57 35 57C34.4477 57 34 57.4477 34 58C34 58.5523 34.4477 59 35 59Z" fill="black"/>
<path d="M37.707 18.707C38.42 17.994 39.58 17.994 40.293 18.707C40.488 18.902 40.744 19 41 19C41.256 19 41.512 18.902 41.707 18.707C42.098 18.316 42.098 17.684 41.707 17.293C40.215 15.8 37.785 15.8 36.293 17.293C35.902 17.684 35.902 18.316 36.293 18.707C36.684 19.098 37.316 19.098 37.707 18.707Z" fill="black"/>
<path d="M39 21C39.5523 21 40 20.5523 40 20C40 19.4477 39.5523 19 39 19C38.4477 19 38 19.4477 38 20C38 20.5523 38.4477 21 39 21Z" fill="black"/>
<path d="M32.293 18.707C32.488 18.902 32.744 19 33 19C33.256 19 33.512 18.902 33.707 18.707C34.098 18.316 34.098 17.684 33.707 17.293C32.215 15.8 29.785 15.8 28.293 17.293C27.902 17.684 27.902 18.316 28.293 18.707C28.684 19.098 29.316 19.098 29.707 18.707C30.42 17.994 31.58 17.994 32.293 18.707Z" fill="black"/>
<path d="M31 21C31.5523 21 32 20.5523 32 20C32 19.4477 31.5523 19 31 19C30.4477 19 30 19.4477 30 20C30 20.5523 30.4477 21 31 21Z" fill="black"/>
<path d="M37.445 26.168C35.959 27.158 34.041 27.158 32.554 26.168C32.092 25.86 31.472 25.986 31.167 26.445C30.86 26.904 30.984 27.526 31.444 27.832C32.524 28.552 33.761 28.912 34.999 28.912C36.237 28.912 37.474 28.552 38.554 27.832C39.014 27.526 39.138 26.905 38.831 26.445C38.526 25.986 37.905 25.86 37.445 26.168Z" fill="black"/>
<path d="M33.293 23.707L34.293 24.707C34.488 24.902 34.744 25 35 25C35.256 25 35.512 24.902 35.707 24.707C36.098 24.316 36.098 23.684 35.707 23.293L35.232 22.818L35.954 21.472C36.216 20.986 36.033 20.379 35.546 20.118C35.059 19.858 34.452 20.04 34.192 20.527L33.119 22.527C32.91 22.916 32.981 23.395 33.293 23.707Z" fill="black"/>
<path d="M43 48H39C38.447 48 38 48.448 38 49V53C38 53.379 38.214 53.725 38.553 53.895L40.553 54.895C40.693 54.965 40.847 55 41 55C41.153 55 41.307 54.965 41.447 54.895L43.447 53.895C43.786 53.725 44 53.379 44 53V49C44 48.448 43.553 48 43 48ZM42 52.382L41 52.882L40 52.382V50H42V52.382Z" fill="black"/>
<path d="M14 38C7.383 38 2 43.383 2 50C2 56.617 7.383 62 14 62C16.438 62 18.79 61.268 20.799 59.884C21.254 59.571 21.368 58.948 21.055 58.493C20.743 58.039 20.119 57.924 19.664 58.237C17.99 59.391 16.032 60 14 60C8.486 60 4 55.514 4 50C4 44.486 8.486 40 14 40C19.514 40 24 44.486 24 50C24 52.032 23.391 53.99 22.237 55.665C21.924 56.12 22.038 56.743 22.493 57.056C22.948 57.37 23.572 57.253 23.884 56.8C25.269 54.79 26 52.438 26 50C26 43.383 20.617 38 14 38Z" fill="black"/>
<path d="M14 42C9.589 42 6 45.589 6 50C6 54.411 9.589 58 14 58C18.411 58 22 54.411 22 50C22 45.589 18.411 42 14 42ZM8 50C8 47.033 10.167 44.569 13 44.09V45.184C11.839 45.598 11 46.698 11 48C11 49.654 12.346 51 14 51C14.552 51 15 51.449 15 52C15 52.551 14.552 53 14 53C13.448 53 13 52.551 13 52C13 51.448 12.553 51 12 51C11.447 51 11 51.448 11 52C11 53.302 11.839 54.402 13 54.816V55.91C10.167 55.431 8 52.967 8 50ZM15 55.91V54.816C16.161 54.402 17 53.302 17 52C17 50.346 15.654 49 14 49C13.448 49 13 48.551 13 48C13 47.449 13.448 47 14 47C14.552 47 15 47.449 15 48C15 48.552 15.447 49 16 49C16.553 49 17 48.552 17 48C17 46.698 16.161 45.598 15 45.184V44.09C17.833 44.568 20 47.032 20 50C20 52.968 17.833 55.431 15 55.91Z" fill="black"/>
</svg>
