<svg width="64" height="64" viewBox="0 0 64 64" fill="none" xmlns="http://www.w3.org/2000/svg">
<path d="M12 8C12.5523 8 13 7.55228 13 7C13 6.44772 12.5523 6 12 6C11.4477 6 11 6.44772 11 7C11 7.55228 11.4477 8 12 8Z" fill="black"/>
<path d="M16 8C16.5523 8 17 7.55228 17 7C17 6.44772 16.5523 6 16 6C15.4477 6 15 6.44772 15 7C15 7.55228 15.4477 8 16 8Z" fill="black"/>
<path d="M7 38C7 38.552 7.448 39 8 39H19C19.552 39 20 38.552 20 38C20 37.448 19.552 37 19 37H8C7.448 37 7 37.448 7 38Z" fill="black"/>
<path d="M8 43H19C19.552 43 20 42.552 20 42C20 41.448 19.552 41 19 41H8C7.448 41 7 41.448 7 42C7 42.552 7.448 43 8 43Z" fill="black"/>
<path d="M8 32V34C8 34.552 8.448 35 9 35H17C17.552 35 18 34.552 18 34V32C18 30.277 17.124 28.754 15.793 27.855C16.536 27.128 17 26.119 17 25C17 22.794 15.206 21 13 21C10.794 21 9 22.794 9 25C9 26.119 9.464 27.128 10.207 27.855C8.876 28.754 8 30.277 8 32ZM11 25C11 23.897 11.897 23 13 23C14.103 23 15 23.897 15 25C15 26.103 14.103 27 13 27C11.897 27 11 26.103 11 25ZM10 32C10 30.346 11.346 29 13 29C14.654 29 16 30.346 16 32V33H10V32Z" fill="black"/>
<path d="M21 55C20.448 55 20 55.448 20 56C20 56.552 20.448 57 21 57H33C33.553 57 34 56.552 34 56C34 55.448 33.553 55 33 55H21Z" fill="black"/>
<path d="M61 19C61.553 19 62 18.552 62 18V11C62 8.243 59.757 6 57 6H46.899C46.434 3.721 44.414 2 42 2H12C9.243 2 7 4.243 7 7V14C7 14.552 7.448 15 8 15C8.552 15 9 14.552 9 14V7C9 5.346 10.346 4 12 4H42C43.302 4 44.402 4.839 44.816 6H28C25.243 6 23 8.243 23 11V17H7C4.243 17 2 19.243 2 22V28C2 28.552 2.448 29 3 29C3.552 29 4 28.552 4 28V22C4 20.346 5.346 19 7 19H23V31C23 33.757 25.243 36 28 36H30V41C30 41.391 30.228 41.745 30.582 41.909C30.716 41.97 30.858 42 31 42C31.234 42 31.466 41.917 31.651 41.759L36 38.031V42C36 43.654 34.654 45 33 45H30C29.448 45 29 45.448 29 46V49.826L23.651 45.241C23.47 45.085 23.239 45 23 45H7C5.346 45 4 43.654 4 42V32C4 31.448 3.552 31 3 31C2.448 31 2 31.448 2 32V42C2 44.757 4.243 47 7 47V57C7 59.757 9.243 62 12 62H42C44.757 62 47 59.757 47 57V39C47 38.448 46.553 38 46 38C45.447 38 45 38.448 45 39V57C45 58.654 43.654 60 42 60H12C10.346 60 9 58.654 9 57V47H22.63L29.349 52.759C29.534 52.917 29.766 53 30 53C30.142 53 30.284 52.97 30.418 52.909C30.772 52.745 31 52.391 31 52V47H33C35.757 47 38 44.757 38 42V36.317L38.37 36H57C59.757 36 62 33.757 62 31V22C62 21.448 61.553 21 61 21C60.447 21 60 21.448 60 22V31C60 32.654 58.654 34 57 34H38C37.762 34 37.53 34.085 37.35 34.241L32 38.826V35C32 34.448 31.552 34 31 34H28C26.346 34 25 32.654 25 31V11C25 9.346 26.346 8 28 8H57C58.654 8 60 9.346 60 11V18C60 18.552 60.447 19 61 19Z" fill="black"/>
<path d="M35 31H51C52.654 31 54 29.654 54 28V20.618C54.615 19.915 55 19.006 55 18V17C55 15.897 54.103 15 53 15H51V14C51 12.346 49.654 11 48 11H38C36.346 11 35 12.346 35 14V15H33C31.897 15 31 15.897 31 17V18C31 19.005 31.385 19.914 32 20.618V28C32 29.654 33.346 31 35 31ZM51 29H35C34.448 29 34 28.551 34 28V21.858C34.322 21.942 34.653 22 35 22H39V23C39 24.103 39.897 25 41 25H45C46.103 25 47 24.103 47 23V22H51C51.347 22 51.678 21.942 52 21.858V28C52 28.551 51.552 29 51 29ZM41 23V21H45L45.001 23H41ZM37 14C37 13.449 37.448 13 38 13H48C48.552 13 49 13.449 49 14V15H37V14ZM33 17H53V18C53 19.103 52.103 20 51 20H46.722C46.375 19.405 45.737 19 45 19H41C40.263 19 39.625 19.405 39.278 20H35C33.897 20 33 19.103 33 18V17Z" fill="black"/>
</svg>
