<svg width="64" height="64" viewBox="0 0 64 64" fill="none" xmlns="http://www.w3.org/2000/svg">
<path d="M42 48C42.552 48 43 47.552 43 47V43C43 42.448 42.552 42 42 42H22C21.448 42 21 42.448 21 43V47C21 47.552 21.448 48 22 48H42ZM41 46H39V44H41V46ZM37 46H35V44H37V46ZM33 46H31V44H33V46ZM29 46H27V44H29V46ZM23 44H25V46H23V44Z" fill="black"/>
<path d="M30 32H34C34.552 32 35 31.552 35 31V29.5H36.5C37.052 29.5 37.5 29.052 37.5 28.5V24.5C37.5 23.948 37.052 23.5 36.5 23.5H35V22C35 21.448 34.552 21 34 21H30C29.448 21 29 21.448 29 22V23.5H27.5C26.948 23.5 26.5 23.948 26.5 24.5V28.5C26.5 29.052 26.948 29.5 27.5 29.5H29V31C29 31.552 29.448 32 30 32ZM28.5 27.5V25.5H30C30.552 25.5 31 25.052 31 24.5V23H33V24.5C33 25.052 33.448 25.5 34 25.5H35.5V27.5H34C33.448 27.5 33 27.948 33 28.5V30H31V28.5C31 27.948 30.552 27.5 30 27.5H28.5Z" fill="black"/>
<path d="M28.425 9.419L27.924 12.342C27.86 12.717 28.014 13.096 28.322 13.32C28.631 13.544 29.04 13.573 29.375 13.396L32 12.016L34.625 13.396C34.771 13.473 34.931 13.511 35.09 13.511C35.297 13.511 35.504 13.447 35.678 13.32C35.986 13.096 36.14 12.717 36.076 12.342L35.575 9.419L37.699 7.349C37.971 7.083 38.07 6.685 37.952 6.324C37.834 5.963 37.521 5.698 37.144 5.643L34.209 5.217L32.897 2.558C32.56 1.875 31.44 1.875 31.103 2.558L29.791 5.217L26.856 5.643C26.479 5.698 26.166 5.962 26.048 6.324C25.93 6.686 26.028 7.083 26.301 7.349L28.425 9.419ZM30.599 7.121C30.925 7.074 31.206 6.869 31.352 6.574L32 5.26L32.648 6.573C32.794 6.868 33.075 7.073 33.401 7.12L34.851 7.33L33.802 8.352C33.567 8.582 33.459 8.913 33.514 9.237L33.762 10.681L32.465 10C32.32 9.924 32.16 9.886 32 9.886C31.84 9.886 31.68 9.924 31.535 10L30.238 10.682L30.486 9.238C30.542 8.914 30.434 8.583 30.198 8.353L29.149 7.331L30.599 7.121Z" fill="black"/>
<path d="M43.425 13.419L42.924 16.342C42.86 16.717 43.014 17.096 43.322 17.32C43.631 17.545 44.04 17.573 44.375 17.396L47 16.016L49.625 17.396C49.771 17.473 49.931 17.511 50.09 17.511C50.297 17.511 50.504 17.447 50.678 17.32C50.986 17.096 51.14 16.717 51.076 16.342L50.575 13.419L52.699 11.349C52.971 11.083 53.07 10.685 52.952 10.324C52.834 9.963 52.521 9.698 52.144 9.643L49.209 9.217L47.897 6.558C47.56 5.875 46.44 5.875 46.103 6.558L44.791 9.217L41.856 9.643C41.479 9.698 41.166 9.962 41.048 10.324C40.93 10.686 41.028 11.083 41.301 11.349L43.425 13.419ZM45.599 11.121C45.925 11.074 46.206 10.869 46.352 10.574L47 9.26L47.648 10.573C47.794 10.868 48.075 11.073 48.401 11.12L49.851 11.33L48.802 12.352C48.567 12.582 48.459 12.913 48.514 13.237L48.762 14.681L47.465 14C47.32 13.924 47.16 13.886 47 13.886C46.84 13.886 46.68 13.924 46.535 14L45.238 14.682L45.486 13.238C45.542 12.914 45.434 12.583 45.198 12.353L44.149 11.331L45.599 11.121Z" fill="black"/>
<path d="M50.049 22.104C49.931 22.466 50.029 22.863 50.302 23.129L52.426 25.199L51.925 28.122C51.861 28.497 52.015 28.876 52.323 29.1C52.632 29.324 53.04 29.353 53.376 29.176L56 27.796L58.625 29.176C58.771 29.253 58.931 29.291 59.09 29.291C59.297 29.291 59.504 29.227 59.678 29.1C59.986 28.876 60.14 28.497 60.076 28.122L59.575 25.199L61.699 23.129C61.971 22.863 62.07 22.465 61.952 22.104C61.834 21.743 61.521 21.478 61.144 21.423L58.209 20.997L56.897 18.338C56.56 17.655 55.44 17.655 55.103 18.338L53.791 20.997L50.856 21.423C50.479 21.478 50.167 21.742 50.049 22.104ZM54.599 22.901C54.925 22.854 55.206 22.649 55.352 22.354L56 21.04L56.648 22.353C56.794 22.648 57.075 22.853 57.401 22.9L58.851 23.11L57.802 24.132C57.567 24.362 57.459 24.693 57.514 25.017L57.762 26.461L56.465 25.779C56.32 25.705 56.16 25.667 56 25.667C55.84 25.667 55.68 25.705 55.535 25.782L54.238 26.464L54.486 25.02C54.542 24.696 54.434 24.365 54.198 24.135L53.149 23.113L54.599 22.901Z" fill="black"/>
<path d="M13.425 13.419L12.924 16.342C12.86 16.717 13.014 17.096 13.322 17.32C13.631 17.545 14.04 17.573 14.375 17.396L17 16.016L19.625 17.396C19.771 17.473 19.931 17.511 20.09 17.511C20.297 17.511 20.504 17.447 20.678 17.32C20.986 17.096 21.14 16.717 21.076 16.342L20.575 13.419L22.699 11.349C22.971 11.083 23.07 10.685 22.952 10.324C22.834 9.963 22.521 9.698 22.144 9.643L19.209 9.217L17.897 6.558C17.56 5.875 16.44 5.875 16.103 6.558L14.791 9.217L11.856 9.643C11.479 9.698 11.166 9.962 11.048 10.324C10.93 10.686 11.028 11.083 11.301 11.349L13.425 13.419ZM15.599 11.121C15.925 11.074 16.206 10.869 16.352 10.574L17 9.26L17.648 10.573C17.794 10.868 18.075 11.073 18.401 11.12L19.851 11.33L18.802 12.352C18.567 12.582 18.459 12.913 18.514 13.237L18.762 14.681L17.465 14C17.32 13.924 17.16 13.886 17 13.886C16.84 13.886 16.68 13.924 16.535 14L15.238 14.682L15.486 13.238C15.542 12.914 15.434 12.583 15.198 12.353L14.149 11.331L15.599 11.121Z" fill="black"/>
<path d="M4.425 25.199L3.924 28.122C3.86 28.497 4.014 28.876 4.322 29.1C4.631 29.324 5.038 29.353 5.375 29.176L8 27.796L10.625 29.176C10.771 29.253 10.931 29.291 11.09 29.291C11.297 29.291 11.504 29.227 11.678 29.1C11.986 28.876 12.14 28.497 12.076 28.122L11.575 25.199L13.699 23.129C13.971 22.863 14.07 22.465 13.952 22.104C13.834 21.743 13.521 21.478 13.144 21.423L10.209 20.997L8.897 18.338C8.56 17.655 7.44 17.655 7.103 18.338L5.791 20.997L2.856 21.423C2.479 21.478 2.166 21.742 2.048 22.104C1.93 22.466 2.028 22.863 2.301 23.129L4.425 25.199ZM6.599 22.901C6.925 22.854 7.206 22.649 7.352 22.354L8 21.04L8.648 22.353C8.794 22.648 9.075 22.853 9.401 22.9L10.851 23.11L9.802 24.132C9.567 24.362 9.459 24.693 9.514 25.017L9.762 26.461L8.465 25.779C8.32 25.705 8.16 25.667 8 25.667C7.84 25.667 7.68 25.705 7.535 25.782L6.238 26.464L6.486 25.02C6.542 24.696 6.434 24.365 6.198 24.135L5.149 23.113L6.599 22.901Z" fill="black"/>
<path d="M61 60H55V40C55 39.448 54.552 39 54 39H51V34C51 33.448 50.552 33 50 33H47V27C47 26.448 46.552 26 46 26H42C42 24.122 41.467 22.283 40.459 20.683C40.166 20.215 39.549 20.077 39.08 20.37C38.613 20.664 38.472 21.282 38.767 21.749C39.574 23.029 40 24.5 40 26C40 30.411 36.411 34 32 34C27.589 34 24 30.411 24 26C24 21.589 27.589 18 32 18C33.5 18 34.971 18.426 36.252 19.233C36.718 19.526 37.336 19.386 37.631 18.92C37.925 18.453 37.785 17.836 37.318 17.541C35.717 16.533 33.878 16 32 16C26.486 16 22 20.486 22 26H18C17.448 26 17 26.448 17 27V33H14C13.448 33 13 33.448 13 34V39H10C9.448 39 9 39.448 9 40V57C9 57.552 9.448 58 10 58C10.552 58 11 57.552 11 57V54H17V60H15V58C15 57.448 14.552 57 14 57C13.448 57 13 57.448 13 58V60H3C2.448 60 2 60.448 2 61C2 61.552 2.448 62 3 62H22C22.552 62 23 61.552 23 61C23 60.448 22.552 60 22 60H19V28H22.202C22.7 30.443 24.098 32.557 26.026 34H22C21.448 34 21 34.448 21 35V39C21 39.552 21.448 40 22 40H42C42.552 40 43 39.552 43 39C43 38.448 42.552 38 42 38H39V36H42C42.552 36 43 35.552 43 35C43 34.448 42.552 34 42 34H37.975C39.903 32.557 41.301 30.443 41.799 28H45V57C45 57.552 45.448 58 46 58C46.552 58 47 57.552 47 57V54H53V60H51V58C51 57.448 50.552 57 50 57C49.448 57 49 57.448 49 58V60H39V52C39.552 52 40 51.552 40 51C40 50.448 39.552 50 39 50H25C24.448 50 24 50.448 24 51C24 51.552 24.448 52 25 52V61C25 61.552 25.448 62 26 62H61C61.552 62 62 61.552 62 61C62 60.448 61.552 60 61 60ZM11 46H17V48H11V46ZM15 35H17V39H15V35ZM17 41V44H11V41H17ZM11 52V50H17V52H11ZM23 36H25V38H23V36ZM27 36H29V38H27V36ZM31 36H33V38H31V36ZM35 36H37V38H35V36ZM47 46H53V48H47V46ZM53 44H47V41H53V44ZM49 35V39H47V35H49ZM47 52V50H53V52H47ZM27 52H31V60H27V52ZM33 60V52H37V60H33Z" fill="black"/>
</svg>
