<svg width="64" height="64" viewBox="0 0 64 64" fill="none" xmlns="http://www.w3.org/2000/svg">
<path d="M60.804 45.02L56.553 45.87L53.895 40.554C53.725 40.214 53.379 40 53 40H50V29C50 26.243 47.757 24 45 24H44V23C44 21.346 42.654 20 41 20H29C27.346 20 26 21.346 26 23V24H24V13C24 11.346 22.654 10 21 10H20.899C20.434 7.721 18.414 6 16 6H15.845C15.466 4.843 14.389 4 13.107 4H5.107C3.591 4 2.273 5.076 2.041 6.504C1.897 7.383 2.143 8.271 2.714 8.943C3.766 10.181 5.801 10.308 7 9.236C8.096 10.214 9.909 10.212 11 9.236C11.551 9.732 12.257 10 12.997 10C13.199 10 13.403 9.98 13.608 9.939C14.632 9.735 15.446 8.98 15.803 8H16C17.302 8 18.402 8.839 18.816 10H18C17.448 10 17 10.447 17 11V27.88C17 28.433 17.448 28.88 18 28.88C18.552 28.88 19 28.433 19 27.88V12H21C21.551 12 22 12.448 22 13V30.527C20.719 30.195 19.383 30 18 30C9.178 30 2 37.178 2 46C2 54.822 9.178 62 18 62C19.522 62 21.048 61.777 22.536 61.338C23.066 61.182 23.369 60.625 23.212 60.096C23.056 59.566 22.497 59.261 21.97 59.42C20.666 59.805 19.33 60 18 60C10.28 60 4 53.72 4 46C4 38.28 10.28 32 18 32C25.72 32 32 38.28 32 46C32 50.861 29.522 55.305 25.371 57.885C24.902 58.177 24.758 58.793 25.05 59.263C25.341 59.731 25.958 59.873 26.427 59.584C31.169 56.636 34 51.558 34 46C34 43.878 33.576 41.855 32.822 40H44V55C44 58.859 47.14 62 51 62C54.86 62 58 58.859 58 55C58 51.141 54.86 48 51 48C50.66 48 50.328 48.033 50 48.08V42H52.382L55.106 47.447C55.277 47.791 55.626 48 56 48C56.065 48 56.131 47.994 56.197 47.98L61.197 46.98C61.739 46.872 62.09 46.345 61.981 45.803C61.873 45.262 61.349 44.906 60.804 45.02ZM13.217 7.979C12.848 8.052 12.495 7.938 12.252 7.665C11.931 7.304 11.474 7.097 10.998 7.097H10.997C10.523 7.098 10.068 7.303 9.749 7.663C9.367 8.096 8.633 8.096 8.25 7.663C7.613 6.942 6.385 6.943 5.75 7.662C5.363 8.098 4.613 8.089 4.238 7.647C4.044 7.42 3.965 7.128 4.014 6.825C4.09 6.362 4.57 6 5.107 6H13.107C13.6 6 14 6.4 14 6.893C14 7.423 13.663 7.89 13.217 7.979ZM28 23C28 22.448 28.449 22 29 22H41C41.551 22 42 22.448 42 23V24H28V23ZM25.729 32H40C40.552 32 41 31.553 41 31C41 30.447 40.552 30 40 30H24V26H45C46.654 26 48 27.346 48 29V30H44C43.448 30 43 30.447 43 31C43 31.553 43.448 32 44 32H48V34H36C35.448 34 35 34.447 35 35C35 35.553 35.448 36 36 36H48V38H31.835C30.378 35.491 28.269 33.408 25.729 32ZM56 55C56 57.757 53.757 60 51 60C48.243 60 46 57.757 46 55C46 52.243 48.243 50 51 50C53.757 50 56 52.243 56 55ZM46 50.111V40H48V48.685C47.251 49.042 46.574 49.524 46 50.111Z" fill="black"/>
<path d="M51 58C52.654 58 54 56.654 54 55C54 53.346 52.654 52 51 52C49.346 52 48 53.346 48 55C48 56.654 49.346 58 51 58ZM51 54C51.551 54 52 54.448 52 55C52 55.552 51.551 56 51 56C50.449 56 50 55.552 50 55C50 54.448 50.449 54 51 54Z" fill="black"/>
<path d="M12.575 36.383C12.261 35.927 11.638 35.815 11.184 36.129C7.938 38.373 6 42.063 6 46C6 52.617 11.383 58 18 58C24.617 58 30 52.617 30 46C30 39.383 24.617 34 18 34C17.08 34 16.128 34.117 15.171 34.349C14.634 34.478 14.304 35.019 14.434 35.555C14.564 36.091 15.104 36.424 15.641 36.292C16.099 36.182 16.552 36.111 17 36.063V42.142C16.637 42.236 16.296 42.38 15.981 42.567L11.687 38.273C11.895 38.103 12.099 37.928 12.322 37.774C12.776 37.46 12.89 36.837 12.575 36.383ZM21.433 48.019C21.619 47.703 21.763 47.363 21.858 47H27.949C27.749 49.008 26.951 50.842 25.738 52.324L21.433 48.019ZM21.858 45C21.764 44.637 21.62 44.296 21.433 43.981L25.738 39.676C26.951 41.158 27.749 42.992 27.949 45H21.858ZM20.019 42.567C19.703 42.381 19.363 42.237 19 42.142V36.051C21.008 36.251 22.842 37.049 24.324 38.262L20.019 42.567ZM20.019 49.433L24.324 53.738C22.842 54.951 21.008 55.749 19 55.949V49.858C19.363 49.764 19.704 49.62 20.019 49.433ZM17 55.949C14.992 55.749 13.158 54.951 11.676 53.738L15.981 49.433C16.297 49.619 16.637 49.763 17 49.858V55.949ZM14.142 47C14.236 47.363 14.38 47.704 14.567 48.019L10.262 52.324C9.048 50.842 8.251 49.008 8.051 47H14.142ZM14.142 45H8.061C8.259 43.038 9.036 41.196 10.271 39.686L14.566 43.981C14.38 44.296 14.236 44.637 14.142 45ZM18 44C19.103 44 20 44.897 20 46C20 47.103 19.103 48 18 48C16.897 48 16 47.103 16 46C16 44.897 16.897 44 18 44Z" fill="black"/>
</svg>
