<svg width="64" height="64" viewBox="0 0 64 64" fill="none" xmlns="http://www.w3.org/2000/svg">
<path d="M15 26C15.553 26 16 25.552 16 25C16 24.448 15.553 24 15 24H11C10.447 24 10 24.448 10 25V49C10 49.552 10.447 50 11 50H53C53.553 50 54 49.552 54 49V25C54 24.448 53.553 24 53 24H19C18.447 24 18 24.448 18 25C18 25.552 18.447 26 19 26H52V48H43.414L43.707 47.707C43.936 47.478 44.039 47.154 43.986 46.835L43.186 42.039C43.648 41.544 43.938 40.896 43.981 40.178C45.153 40.588 46 41.691 46 43V45C46 45.552 46.447 46 47 46C47.553 46 48 45.552 48 45V43C48 40.708 46.44 38.791 44.333 38.203C44.753 37.571 45 36.814 45 36V33C45 30.794 43.206 29 41 29C38.794 29 37 30.794 37 33V36C37 36.814 37.247 37.571 37.667 38.203C35.56 38.791 34 40.708 34 43V48H30V44.414L31.707 42.707C32.098 42.316 32.098 41.684 31.707 41.293C31.316 40.902 30.684 40.902 30.293 41.293L28.293 43.293C28.105 43.48 28 43.735 28 44V48H25V45C25 44.448 24.553 44 24 44H20C19.447 44 19 44.448 19 45V48H12V26H15ZM39 36V35H43V36C43 37.103 42.103 38 41 38C39.897 38 39 37.103 39 36ZM41.929 46.657L41 47.586L40.071 46.657L40.686 42.969C40.79 42.979 40.892 43 41 43C41.107 43 41.209 42.979 41.314 42.968L41.929 46.657ZM41 41C40.448 41 40 40.551 40 40H42C42 40.551 41.552 41 41 41ZM41 31C42.103 31 43 31.897 43 33H39C39 31.897 39.897 31 41 31ZM36 43C36 41.691 36.847 40.588 38.018 40.179C38.061 40.897 38.351 41.545 38.813 42.04L38.014 46.836C37.961 47.155 38.065 47.479 38.293 47.708L38.586 48H36V43ZM21 46H23V48H21V46Z" fill="black"/>
<path d="M61 52H39C38.447 52 38 52.448 38 53V54H26V53C26 52.448 25.553 52 25 52H8V25C8 23.346 9.346 22 11 22H53C54.654 22 56 23.346 56 25V49C56 49.552 56.447 50 57 50C57.553 50 58 49.552 58 49V25C58 22.243 55.757 20 53 20H11C8.243 20 6 22.243 6 25V52H3C2.447 52 2 52.448 2 53V57C2 59.757 4.243 62 7 62H39C39.553 62 40 61.552 40 61C40 60.448 39.553 60 39 60H7C5.346 60 4 58.654 4 57V54H24V55C24 55.552 24.447 56 25 56H39C39.553 56 40 55.552 40 55V54H60V57C60 58.654 58.654 60 57 60H43C42.447 60 42 60.448 42 61C42 61.552 42.447 62 43 62H57C59.757 62 62 59.757 62 57V53C62 52.448 61.553 52 61 52Z" fill="black"/>
<path d="M53 58C53.5523 58 54 57.5523 54 57C54 56.4477 53.5523 56 53 56C52.4477 56 52 56.4477 52 57C52 57.5523 52.4477 58 53 58Z" fill="black"/>
<path d="M57 58C57.5523 58 58 57.5523 58 57C58 56.4477 57.5523 56 57 56C56.4477 56 56 56.4477 56 57C56 57.5523 56.4477 58 57 58Z" fill="black"/>
<path d="M7 58C7.55228 58 8 57.5523 8 57C8 56.4477 7.55228 56 7 56C6.44772 56 6 56.4477 6 57C6 57.5523 6.44772 58 7 58Z" fill="black"/>
<path d="M11 58C11.5523 58 12 57.5523 12 57C12 56.4477 11.5523 56 11 56C10.4477 56 10 56.4477 10 57C10 57.5523 10.4477 58 11 58Z" fill="black"/>
<path d="M30 28H20C18.346 28 17 29.346 17 31V37C17 38.654 18.346 40 20 40H30C31.654 40 33 38.654 33 37H35C35.404 37 35.77 36.756 35.924 36.383C36.079 36.009 35.993 35.579 35.707 35.293L33 32.586V31C33 29.346 31.654 28 30 28ZM32 35C31.447 35 31 35.448 31 36V37C31 37.551 30.552 38 30 38H20C19.448 38 19 37.551 19 37V31C19 30.449 19.448 30 20 30H30C30.552 30 31 30.449 31 31V33C31 33.265 31.105 33.52 31.293 33.707L32.586 35H32Z" fill="black"/>
<path d="M28 31.5H24C23.447 31.5 23 31.948 23 32.5C23 33.052 23.447 33.5 24 33.5H28C28.553 33.5 29 33.052 29 32.5C29 31.948 28.553 31.5 28 31.5Z" fill="black"/>
<path d="M28 34.5H22C21.447 34.5 21 34.948 21 35.5C21 36.052 21.447 36.5 22 36.5H28C28.553 36.5 29 36.052 29 35.5C29 34.948 28.553 34.5 28 34.5Z" fill="black"/>
</svg>
