<svg width="64" height="64" viewBox="0 0 64 64" fill="none" xmlns="http://www.w3.org/2000/svg">
<path d="M45 24.051V15H55V17H48C47.447 17 47 17.447 47 18V22C47 22.553 47.447 23 48 23H55V25.658C55 26.211 55.447 26.658 56 26.658C56.553 26.658 57 26.211 57 25.658V14C57 13.447 56.553 13 56 13H45V3C45 2.447 44.553 2 44 2H34C33.642 2 33.31 2.192 33.132 2.504L31.706 5H21C20.621 5 20.275 5.214 20.105 5.553L18.382 9H14C13.447 9 13 9.447 13 10V50H3V44H10C10.553 44 11 43.553 11 43V35C11 34.447 10.553 34 10 34H3V32H10C10.553 32 11 31.553 11 31C11 30.447 10.553 30 10 30H2C1.447 30 1 30.447 1 31V51C1 51.553 1.447 52 2 52H29.207C29.76 52 30.207 51.553 30.207 51C30.207 50.447 29.76 50 29.207 50H24V42H28.152C29.701 52.55 42.851 61.436 43.445 61.832C43.613 61.944 43.807 62 44 62C44.193 62 44.388 61.944 44.556 61.832C44.744 61.705 49.23 58.689 53.345 54.108C53.714 53.698 53.68 53.065 53.269 52.696C52.861 52.327 52.227 52.362 51.857 52.772C48.739 56.243 45.316 58.834 44.001 59.778C41.336 57.862 30 49.165 30 40C30 32.28 36.28 26 44 26C51.72 26 58 32.28 58 40C58 43.025 56.754 46.304 54.298 49.745C53.977 50.194 54.081 50.819 54.53 51.14C54.979 51.463 55.605 51.358 55.925 50.908C58.629 47.12 60 43.45 60 40C60 31.515 53.356 24.571 45 24.051ZM49 21V19H55V21H49ZM9 42H3V40H9V42ZM9 36V38H3V36H9ZM34.58 4H43V9H31.724L34.58 4ZM21.618 7H30.562L29.42 9H20.618L21.618 7ZM43 11V15H18C17.447 15 17 15.447 17 16C17 16.553 17.447 17 18 17H43V24.051C39.919 24.243 37.076 25.303 34.708 27H15V23H40C40.553 23 41 22.553 41 22C41 21.447 40.553 21 40 21H15V11H43ZM15 29H32.411C31.292 30.178 30.356 31.526 29.634 33H15V29ZM23 40C22.447 40 22 40.447 22 41V50H15V35H28.811C28.291 36.575 28 38.253 28 40H23Z" fill="black"/>
<path d="M52 35H50V34C50 32.346 48.654 31 47 31H41C39.346 31 38 32.346 38 34V35H36C34.897 35 34 35.897 34 37V38C34 40.206 35.794 42 38 42H41C41 43.103 41.897 44 43 44H45C46.103 44 47 43.103 47 42H50C50.347 42 50.678 41.942 51 41.858V46C51 46.552 50.552 47 50 47H38C37.448 47 37 46.552 37 46V43.536C37 42.983 36.553 42.536 36 42.536C35.447 42.536 35 42.983 35 43.536V46C35 47.654 36.346 49 38 49H50C51.654 49 53 47.654 53 46V40.618C53.615 39.915 54 39.006 54 38V37C54 35.897 53.103 35 52 35ZM40 34C40 33.448 40.448 33 41 33H47C47.552 33 48 33.448 48 34V35H40V34ZM43 42V40H45L45.002 42H43ZM47 40C47 38.897 46.103 38 45 38H43C41.897 38 41 38.897 41 40H38C36.897 40 36 39.103 36 38V37H52V38C52 39.103 51.103 40 50 40H47Z" fill="black"/>
</svg>
