<svg width="64" height="64" viewBox="0 0 64 64" fill="none" xmlns="http://www.w3.org/2000/svg">
<path d="M31 17C31.5523 17 32 16.5523 32 16C32 15.4477 31.5523 15 31 15C30.4477 15 30 15.4477 30 16C30 16.5523 30.4477 17 31 17Z" fill="black"/>
<path d="M37 17C37.5523 17 38 16.5523 38 16C38 15.4477 37.5523 15 37 15C36.4477 15 36 15.4477 36 16C36 16.5523 36.4477 17 37 17Z" fill="black"/>
<path d="M32.707 20.2929C32.316 19.9019 31.684 19.9019 31.293 20.2929C30.902 20.6839 30.902 21.3159 31.293 21.7069C32.039 22.4529 33.02 22.8259 34 22.8259C34.98 22.8259 35.961 22.4529 36.707 21.7069C37.098 21.3159 37.098 20.6839 36.707 20.2929C36.316 19.9019 35.684 19.9019 35.293 20.2929C34.58 21.0059 33.42 21.0059 32.707 20.2929Z" fill="black"/>
<path d="M30.708 13.7069C30.919 13.4959 31.082 13.4959 31.293 13.7069C31.488 13.9019 31.744 13.9999 32 13.9999C32.256 13.9999 32.512 13.9019 32.707 13.7069C33.098 13.3169 33.098 12.6839 32.707 12.2929C31.795 11.3809 30.204 11.3809 29.292 12.2929C28.902 12.6839 28.902 13.3169 29.292 13.7069C29.684 14.0979 30.317 14.0979 30.708 13.7069Z" fill="black"/>
<path d="M32.793 18.7069L33.293 19.2069C33.488 19.4019 33.744 19.4999 34 19.4999C34.256 19.4999 34.512 19.4019 34.707 19.2069C35.094 18.8189 35.098 18.1939 34.717 17.8029L34.895 17.4479C35.142 16.9539 34.942 16.3529 34.448 16.1059C33.952 15.8609 33.353 16.0599 33.106 16.5529L32.606 17.5529C32.413 17.9379 32.489 18.4019 32.793 18.7069Z" fill="black"/>
<path d="M60.611 36.02L61.203 35.267C62.245 33.94 62.266 32.072 61.254 30.722C60.639 29.903 59.703 29.368 58.685 29.253C57.661 29.144 56.634 29.455 55.853 30.118L52.444 33.016C52.383 32.916 52.324 32.815 52.254 32.721C51.639 31.902 50.703 31.367 49.685 31.252C48.989 31.176 48.296 31.311 47.674 31.605C46.759 28.296 43.991 25.724 40.493 25.138C40.476 25.128 40.466 25.113 40.448 25.104L38.883 24.322C40.558 23.026 41.709 21.086 41.951 18.872C43.696 18.444 45 16.877 45 15C45 13.346 43.654 12 42 12V11C42 10.447 41.552 10 41 10H39.243C36.774 10 34.453 9.039 32.707 7.293C32.495 7.081 32.201 6.978 31.901 7.005C31.603 7.034 31.334 7.196 31.168 7.445L30.832 7.949C29.976 9.233 28.543 10 27 10C26.448 10 26 10.447 26 11V12C25.733 12 25.478 12.046 25.231 12.112C25.084 11.757 25 11.383 25 11C25 7.141 28.14 4 32 4H36C39.53 4 42.516 6.637 42.947 10.134C43.015 10.683 43.517 11.085 44.062 11.004C44.61 10.937 45 10.438 44.932 9.89C44.378 5.392 40.538 2 36 2H32C27.038 2 23 6.037 23 11C23 11.79 23.198 12.56 23.563 13.264C23.212 13.755 23 14.352 23 15C23 16.877 24.304 18.444 26.05 18.874C26.292 21.088 27.443 23.027 29.118 24.324L27.553 25.106C27.536 25.115 27.525 25.131 27.508 25.14C23.202 25.86 20 29.595 20 34V37.965C20 38.518 20.448 38.965 21 38.965C21.552 38.965 22 38.518 22 37.965V34C22 30.725 24.275 27.923 27.401 27.194L29.072 31.371C29.176 31.631 29.384 31.835 29.645 31.934C29.759 31.979 29.88 32 30 32C30.154 32 30.307 31.965 30.447 31.895L30.74 31.748C30.938 32.264 31.254 32.716 31.656 33.081L31.163 39H29.35C28.533 39 27.752 39.039 27 39.116V36C27 35.447 26.552 35 26 35C25.448 35 25 35.447 25 36V39.433C23.486 39.757 22.081 40.263 20.731 40.976L18.642 42.085C11.083 46.081 5.198 52.669 2.069 60.635C1.867 61.149 2.12 61.729 2.634 61.931C2.754 61.978 2.878 62 3 62C3.399 62 3.776 61.76 3.931 61.365C6.885 53.845 12.441 47.626 19.579 43.853L21.668 42.744C23.919 41.555 26.36 41 29.35 41H36.07C36.912 41 37.63 41.589 37.705 42.34C37.748 42.774 37.614 43.189 37.326 43.506C37.038 43.824 36.642 44 36.21 44H27.712C27.16 44 26.712 44.447 26.712 45C26.712 45.553 27.16 46 27.712 46H46.71C46.944 46 47.17 45.918 47.35 45.769L57.145 37.603C57.809 37.055 58.774 37.036 59.342 37.556C59.679 37.868 59.87 38.284 59.878 38.728C59.886 39.167 59.718 39.58 59.402 39.893L50.132 49.164C48.27 51.026 45.808 52.24 43.2 52.58L38.89 53.14C38.343 53.21 37.956 53.712 38.027 54.26C38.098 54.808 38.595 55.193 39.148 55.122L43.459 54.562C46.502 54.166 49.374 52.75 51.546 50.578L60.813 41.311C61.507 40.623 61.896 39.668 61.878 38.692C61.86 37.696 61.44 36.77 60.696 36.085C60.67 36.06 60.638 36.043 60.611 36.02ZM48.147 33.642C48.515 33.33 48.981 33.182 49.461 33.242C49.94 33.296 50.364 33.537 50.653 33.923C50.749 34.051 50.824 34.193 50.88 34.346L48 36.793V34C48 33.925 47.991 33.851 47.99 33.776L48.147 33.642ZM37.475 29.619L35.688 28.725L38.197 26.216L38.73 26.483L37.475 29.619ZM43 15C43 15.739 42.597 16.386 42 16.731V14C42.551 14 43 14.448 43 15ZM25 15C25 14.448 25.449 14 26 14V16.731C25.403 16.386 25 15.739 25 15ZM28 18V11.925C29.644 11.674 31.134 10.814 32.174 9.501C33.451 10.538 34.924 11.267 36.501 11.661C36.052 11.75 35.626 11.959 35.292 12.293C34.902 12.684 34.902 13.317 35.292 13.707C35.683 14.098 36.316 14.098 36.707 13.707C36.918 13.496 37.081 13.496 37.292 13.707C37.488 13.902 37.744 14 38 14C38.256 14 38.512 13.902 38.707 13.707C39.098 13.317 39.098 12.684 38.707 12.293C38.574 12.16 38.424 12.052 38.266 11.958C38.59 11.986 38.915 12 39.243 12H40V18C40 21.309 37.309 24 34 24C30.691 24 28 21.309 28 18ZM34 26C34.619 26 35.218 25.923 35.797 25.789L34 27.586L32.203 25.789C32.782 25.923 33.381 26 34 26ZM29.27 26.483L29.803 26.216L32.312 28.725L30.525 29.619L29.27 26.483ZM34 30.118L35.456 30.846C35.299 31.506 34.708 32 34 32C33.292 32 32.701 31.506 32.544 30.846L34 30.118ZM33.59 33.959C33.726 33.975 33.86 34 34 34C34.14 34 34.274 33.975 34.41 33.959L34.83 39H33.17L33.59 33.959ZM39.695 42.141C39.544 40.632 38.35 39.41 36.844 39.089L36.344 33.081C36.746 32.716 37.062 32.264 37.26 31.748L37.553 31.895C37.693 31.965 37.846 32 38 32C38.12 32 38.241 31.979 38.355 31.935C38.616 31.835 38.824 31.631 38.928 31.372L40.599 27.195C43.725 27.923 46 30.725 46 34V44H43V36C43 35.447 42.552 35 42 35C41.448 35 41 35.447 41 36V44H39.375C39.645 43.428 39.76 42.785 39.695 42.141ZM55.87 36.062L48 42.622V39.417L57.147 31.641C57.514 31.329 57.979 31.182 58.461 31.241C58.94 31.295 59.364 31.536 59.653 31.923C60.123 32.548 60.113 33.415 59.629 34.031L58.703 35.21C57.727 35.108 56.696 35.382 55.87 36.062Z" fill="black"/>
<path d="M34.92 53.659L28.649 54.478C25.782 54.855 23.334 56.755 22.262 59.435L21.782 60.625C21.575 61.138 21.823 61.72 22.335 61.927C22.458 61.977 22.585 62 22.709 62C23.105 62 23.48 61.764 23.637 61.374L24.118 60.181C24.923 58.169 26.759 56.744 28.909 56.461L35.179 55.642C35.727 55.571 36.113 55.069 36.041 54.521C35.97 53.974 35.465 53.586 34.92 53.659Z" fill="black"/>
<path d="M3.00001 20.9999H6.00001V33.9999C6.00001 34.5529 6.44801 34.9999 7.00001 34.9999C7.55201 34.9999 8.00001 34.5529 8.00001 33.9999V19.9999C8.00001 19.4469 7.55201 18.9999 7.00001 18.9999H5.41401L11 13.4139L16.586 18.9999H15C14.448 18.9999 14 19.4469 14 19.9999V32.9999H11C10.448 32.9999 10 33.4469 10 33.9999C10 34.5529 10.448 34.9999 11 34.9999H15C15.552 34.9999 16 34.5529 16 33.9999V20.9999H19C19.404 20.9999 19.769 20.7569 19.924 20.3829C20.079 20.0089 19.993 19.5789 19.707 19.2929L11.707 11.2929C11.316 10.9019 10.684 10.9019 10.293 11.2929L2.29301 19.2929C2.00701 19.5789 1.92101 20.0089 2.07601 20.3829C2.23101 20.7569 2.59601 20.9999 3.00001 20.9999Z" fill="black"/>
<path d="M49 11H51V20C51 20.553 51.448 21 52 21H58C58.552 21 59 20.553 59 20V11H61C61.379 11 61.725 10.786 61.895 10.447C62.065 10.108 62.027 9.70297 61.8 9.39997L55.8 1.39997C55.423 0.895973 54.577 0.895973 54.2 1.39997L48.2 9.39997C47.972 9.70297 47.936 10.108 48.105 10.447C48.274 10.786 48.621 11 49 11ZM55 3.66697L59 8.99997H58C57.448 8.99997 57 9.44697 57 9.99997V19H53V9.99997C53 9.44697 52.552 8.99997 52 8.99997H51L55 3.66697Z" fill="black"/>
</svg>
