<svg width="64" height="64" viewBox="0 0 64 64" fill="none" xmlns="http://www.w3.org/2000/svg">
<path d="M36.897 36.312C38.781 34.847 40 32.566 40 30C40 27.986 39.246 26.149 38.013 24.741C37.969 24.243 37.828 23.772 37.572 23.345L33.556 16.652C33.008 15.738 32.222 14.983 31.284 14.471L25.381 11.251C22.665 9.76899 19.357 9.63699 16.53 10.892L12.722 12.584C12.131 12.847 11.476 12.964 10.831 12.92L3.06403 12.402C2.52403 12.374 2.03703 12.783 2.00003 13.334C1.96303 13.885 2.38003 14.361 2.93103 14.398L10.698 14.916C11.669 14.978 12.648 14.805 13.534 14.412L17.342 12.72C19.604 11.713 22.25 11.823 24.422 13.007L30.325 16.227C30.95 16.568 31.474 17.071 31.84 17.681L34.725 22.489C33.874 22.178 32.959 22 32 22C31.66 22 31.324 22.026 30.992 22.068L30.495 21.373C29.937 20.593 29.173 19.992 28.283 19.636L25.996 18.722C24.737 18.218 23.375 18.125 22.06 18.455C20.258 18.904 19 20.516 19 22.373C19 23.727 19.672 24.984 20.799 25.734C21.977 26.52 23.266 27.116 24.629 27.505L27.4 28.295C28.207 28.526 28.711 29.352 28.546 30.175C28.46 30.607 28.209 30.977 27.841 31.217C27.472 31.456 27.031 31.536 26.602 31.442L20.125 30.007L15.144 29.384C13.494 29.178 11.974 28.296 10.975 26.965C10.051 25.734 8.58203 25 7.04303 25H3.00003C2.44803 25 2.00003 25.447 2.00003 26C2.00003 26.553 2.44803 27 3.00003 27H7.04303C7.95503 27 8.82602 27.436 9.37402 28.165C10.697 29.93 12.71 31.097 14.895 31.369L19.783 31.976L24.628 33.053C25.17 34.36 26.039 35.468 27.122 36.305C24.731 37.096 23 39.348 23 42V50C23 50.553 23.448 51 24 51H36C36.552 51 37 50.553 37 50C37 49.447 36.552 49 36 49H34.851L35.124 48.781C35.39 48.568 35.529 48.235 35.494 47.896L34.674 40.03L35.012 38.001C37.213 38.009 39 39.799 39 42V50C39 50.553 39.448 51 40 51C40.552 51 41 50.553 41 50V42C41 39.355 39.278 37.108 36.897 36.312ZM33.449 47.561L32 48.72L30.551 47.561L31.235 41H32.765L33.449 47.561ZM32.819 39H31.18L31.013 38H32.985L32.819 39ZM21.908 24.07C21.339 23.691 21 23.057 21 22.373C21 21.435 21.635 20.622 22.545 20.394C23.451 20.167 24.387 20.232 25.253 20.579L27.54 21.493C28.074 21.706 28.532 22.066 28.867 22.536L28.926 22.619C27.469 23.228 26.216 24.273 25.328 25.625L25.177 25.582C24.014 25.25 22.915 24.741 21.908 24.07ZM28.932 32.893C29.755 32.357 30.313 31.532 30.506 30.569C30.874 28.732 29.751 26.889 27.948 26.374L27.37 26.209C28.5 24.831 30.191 24 32 24C35.309 24 38 26.691 38 30C38 33.309 35.309 36 32 36C30.04 36 28.237 35.021 27.128 33.47C27.764 33.441 28.384 33.251 28.932 32.893ZM25 49V42C25 39.799 26.787 38.009 28.987 38.001L29.325 40.03L28.505 47.896C28.47 48.235 28.609 48.568 28.875 48.781L29.149 49H25Z" fill="black"/>
<path d="M56.897 47.312C58.781 45.847 60 43.566 60 41C60 39.672 59.667 38.355 59.038 37.193C58.775 36.709 58.169 36.528 57.682 36.791C57.197 37.054 57.016 37.661 57.279 38.146C57.75 39.017 58 40.004 58 41C58 44.309 55.309 47 52 47C48.691 47 46 44.309 46 41C46 37.691 48.691 35 52 35C52.997 35 53.984 35.249 54.854 35.721C55.338 35.985 55.946 35.804 56.209 35.319C56.473 34.834 56.292 34.227 55.807 33.964C54.646 33.333 53.329 33 52 33C47.589 33 44 36.589 44 41C44 43.566 45.219 45.847 47.103 47.312C44.722 48.108 43 50.355 43 53V61C43 61.553 43.448 62 44 62H56C56.552 62 57 61.553 57 61C57 60.447 56.552 60 56 60H54.851L55.124 59.781C55.39 59.568 55.529 59.235 55.494 58.896L54.674 51.03L55.012 49.001C57.213 49.009 59 50.799 59 53V61C59 61.553 59.448 62 60 62C60.552 62 61 61.553 61 61V53C61 50.355 59.278 48.108 56.897 47.312ZM53.449 58.561L52 59.72L50.551 58.561L51.235 52H52.765L53.449 58.561ZM52.819 50H51.18L51.013 49H52.985L52.819 50ZM45 60V53C45 50.799 46.787 49.009 48.987 49.001L49.325 51.03L48.505 58.896C48.47 59.235 48.609 59.568 48.875 59.781L49.149 60H45Z" fill="black"/>
<path d="M15.897 47.312C17.781 45.847 19 43.566 19 41C19 39.672 18.667 38.355 18.038 37.193C17.775 36.709 17.168 36.528 16.682 36.791C16.197 37.054 16.016 37.661 16.279 38.146C16.75 39.017 17 40.004 17 41C17 44.309 14.309 47 11 47C7.691 47 5 44.309 5 41C5 37.691 7.691 35 11 35C11.997 35 12.984 35.249 13.854 35.721C14.339 35.985 14.946 35.804 15.209 35.319C15.472 34.834 15.292 34.227 14.807 33.964C13.646 33.333 12.329 33 11 33C6.589 33 3 36.589 3 41C3 43.566 4.219 45.847 6.103 47.312C3.722 48.108 2 50.355 2 53V61C2 61.553 2.448 62 3 62H15C15.552 62 16 61.553 16 61C16 60.447 15.552 60 15 60H13.851L14.124 59.781C14.39 59.568 14.529 59.235 14.494 58.896L13.674 51.03L14.012 49.001C16.213 49.009 18 50.799 18 53V61C18 61.553 18.448 62 19 62C19.552 62 20 61.553 20 61V53C20 50.355 18.278 48.108 15.897 47.312ZM12.449 58.561L11 59.72L9.551 58.561L10.235 52H11.765L12.449 58.561ZM11.819 50H10.18L10.013 49H11.985L11.819 50ZM4 60V53C4 50.799 5.787 49.009 7.987 49.001L8.325 51.03L7.505 58.896C7.47 59.235 7.609 59.568 7.875 59.781L8.149 60H4Z" fill="black"/>
</svg>
