<svg width="64" height="64" viewBox="0 0 64 64" fill="none" xmlns="http://www.w3.org/2000/svg">
<path d="M39 30C39.552 30 40 29.552 40 29C40 28.448 39.552 28 39 28H33C32.448 28 32 28.448 32 29C32 29.552 32.448 30 33 30H39Z" fill="black"/>
<path d="M30 22C30.5523 22 31 21.5523 31 21C31 20.4477 30.5523 20 30 20C29.4477 20 29 20.4477 29 21C29 21.5523 29.4477 22 30 22Z" fill="black"/>
<path d="M57 28.09V27.969C57.62 27.136 58 26.115 58 25C58 24.448 57.552 24 57 24C56.448 24 56 24.448 56 25C56 26.654 54.654 28 53 28C51.346 28 50 26.654 50 25V22H57C57.552 22 58 21.552 58 21C58 18.243 55.757 16 53 16H49C48.448 16 48 16.448 48 17V25C48 26.495 48.673 27.823 49.717 28.74C48.664 29.476 48 30.682 48 32V36H43C42.229 36 41.532 36.301 41 36.78V34C43.206 34 45 32.206 45 30V24C45 21.794 43.206 20 41 20H40.376C41.402 18.232 42 16.187 42 14C42 11.562 41.269 9.21 39.884 7.201C39.57 6.745 38.948 6.63 38.493 6.945C38.038 7.258 37.924 7.881 38.237 8.336C39.39 10.01 40 11.968 40 14C40 19.514 35.514 24 30 24C28.295 24 26.606 23.558 25.116 22.721C24.893 22.596 24.632 22.562 24.384 22.623L20.714 23.541L21.925 20.714C22.062 20.395 22.024 20.028 21.824 19.744C20.63 18.05 20 16.063 20 14C20 8.486 24.486 4 30 4C32.032 4 33.99 4.61 35.665 5.763C36.12 6.075 36.743 5.96 37.056 5.507C37.369 5.052 37.254 4.429 36.8 4.116C34.79 2.731 32.438 2 30 2C23.383 2 18 7.383 18 14C18 16.289 18.646 18.499 19.873 20.425L18.081 24.606C17.931 24.955 17.992 25.359 18.239 25.648C18.431 25.875 18.711 26 19 26C19.081 26 19.162 25.99 19.243 25.97L24.493 24.657C26.192 25.537 28.087 26 30 26H39C39.552 26 40 25.552 40 25C40 24.448 39.552 24 39 24H36.619C37.476 23.431 38.248 22.75 38.932 21.986C38.955 21.988 38.976 22 39 22H41C42.103 22 43 22.897 43 24V30C43 31.103 42.103 32 41 32H40C39.448 32 39 32.448 39 33V34.586L36.707 32.293C36.52 32.105 36.265 32 36 32H29C27.897 32 27 31.103 27 30V28.236C27 27.684 26.552 27.236 26 27.236C25.448 27.236 25 27.684 25 28.236V30C25 32.206 26.794 34 29 34H35.586L39.293 37.707C39.484 37.898 39.74 38 40 38C40.066 38 40.131 37.974 40.196 37.961C40.076 38.286 40 38.633 40 39V40H24V39C24 37.346 22.654 36 21 36H16V32C16 30.682 15.336 29.476 14.283 28.74C15.327 27.823 16 26.495 16 25V21C16 18.243 13.757 16 11 16C8.243 16 6 18.243 6 21V25C6 26.116 6.38 27.136 7 27.969V28.09C4.167 28.569 2 31.033 2 34C2 34.552 2.448 35 3 35C3.552 35 4 34.552 4 34C4 32.079 5.362 30.473 7.17 30.089C7.404 30.908 7.887 31.615 8.539 32.129C8.453 32.175 8.365 32.22 8.293 32.293C7.902 32.684 7.902 33.316 8.293 33.707L10.086 35.5L8.5 37.086L6.707 35.293C6.316 34.902 5.684 34.902 5.293 35.293C4.902 35.684 4.902 36.316 5.293 36.707L9.414 40.828C10.169 41.584 11.174 42 12.243 42H13V44H8V42C8 39.243 5.757 37 3 37C2.448 37 2 37.448 2 38V61C2 61.552 2.448 62 3 62C3.552 62 4 61.552 4 61V55H6V61C6 61.552 6.448 62 7 62C7.552 62 8 61.552 8 61V55H14V61C14 61.552 14.448 62 15 62H28C28.552 62 29 61.552 29 61C29 59.87 28.609 58.838 27.974 58H36.025C35.391 58.838 35 59.87 35 61C35 61.552 35.448 62 36 62H49C49.552 62 50 61.552 50 61V55H56V61C56 61.552 56.448 62 57 62C57.552 62 58 61.552 58 61V55H60V61C60 61.552 60.448 62 61 62C61.552 62 62 61.552 62 61V50C62 49.448 61.552 49 61 49H58V42C58 40.696 58.836 39.584 60 39.171V46C60 46.552 60.448 47 61 47C61.552 47 62 46.552 62 46V34C62 31.033 59.833 28.569 57 28.09ZM54.891 29.623C54.627 30.42 53.884 31 53 31H52V29.899C52.323 29.965 52.658 30 53 30C53.67 30 54.307 29.863 54.891 29.623ZM50 18H53C54.304 18 55.416 18.836 55.829 20H50V18ZM50 32C50 31.834 50.036 31.675 50.077 31.518C50.306 32.369 51.077 33 52 33H53C53.223 33 53.438 32.969 53.652 32.934L50.586 36H50V32ZM46 40V39C46 38.449 46.449 38 47 38H51C51.265 38 51.52 37.895 51.707 37.707L52.5 36.914L54.086 38.5L53.172 39.414C52.794 39.792 52.292 40 51.757 40H46ZM42 39C42 38.449 42.449 38 43 38H44.184C44.072 38.314 44 38.648 44 39V40H42V39ZM22 39V40H20V39C20 38.648 19.928 38.314 19.816 38H21C21.551 38 22 38.449 22 39ZM9.109 29.623C9.693 29.863 10.33 30 11 30C11.342 30 11.677 29.965 12 29.899V31H11C10.116 31 9.373 30.42 9.109 29.623ZM11 28C9.346 28 8 26.654 8 25V22H14V25C14 26.654 12.654 28 11 28ZM11 18C12.304 18 13.416 18.836 13.829 20H8.171C8.584 18.836 9.696 18 11 18ZM11 33H12C12.923 33 13.694 32.369 13.923 31.518C13.964 31.675 14 31.834 14 32V36H13.414L10.348 32.934C10.562 32.969 10.777 33 11 33ZM10.828 39.414L9.914 38.5L11.5 36.914L12.293 37.707C12.48 37.895 12.735 38 13 38H17C17.551 38 18 38.449 18 39V40H12.243C11.708 40 11.206 39.792 10.828 39.414ZM15 42H49V44H23C22.448 44 22 44.448 22 45C22 45.552 22.448 46 23 46H48V56H16V46H19C19.552 46 20 45.552 20 45C20 44.448 19.552 44 19 44H15V42ZM14 46V49H8V46H14ZM4 39.171C5.164 39.584 6 40.696 6 42V49H4V39.171ZM4 53V51H14V53H4ZM16 60V58H17.719L17.219 60H16ZM19.281 60L19.781 58H20C21.304 58 22.416 58.836 22.829 60H19.281ZM26.829 60H24.899C24.747 59.257 24.417 58.584 23.975 58H24C25.304 58 26.416 58.836 26.829 60ZM40 58H40.026C39.584 58.584 39.253 59.257 39.102 60H37.172C37.584 58.836 38.696 58 40 58ZM44 58H44.219L44.719 60H41.171C41.584 58.836 42.696 58 44 58ZM48 60H46.781L46.281 58H48V60ZM60 53H50V51H60V53ZM50 49V46H56V49H50ZM56 42V44H51V42H51.757C52.825 42 53.83 41.584 54.586 40.828L58.707 36.707C59.098 36.316 59.098 35.684 58.707 35.293C58.316 34.902 57.684 34.902 57.293 35.293L55.5 37.086L53.914 35.5L55.707 33.707C56.098 33.316 56.098 32.684 55.707 32.293C55.634 32.22 55.547 32.175 55.461 32.129C56.113 31.615 56.597 30.908 56.83 30.089C58.638 30.473 60 32.079 60 34V37.101C57.721 37.566 56 39.586 56 42Z" fill="black"/>
<path d="M31 15.56L32.576 14.594C34.67 13.357 35.459 10.682 34.371 8.50598C33.299 6.36198 30.798 5.38598 28.558 6.23598L27.743 6.54598C25.835 7.29098 24.888 9.44798 25.631 11.356C25.943 12.158 26.601 12.8 27.434 13.116C28.655 13.578 29.872 13.362 30.69 12.538C31.451 11.769 31.689 10.622 31.296 9.61498C31.094 9.09998 30.514 8.84398 30 9.04598C29.485 9.24698 29.231 9.82598 29.432 10.341C29.538 10.613 29.474 10.922 29.268 11.13C29.015 11.384 28.615 11.425 28.142 11.246C27.833 11.129 27.603 10.911 27.494 10.63C27.151 9.74998 27.588 8.75398 28.46 8.41298L29.266 8.10698C30.544 7.62198 31.97 8.17798 32.581 9.40098C33.202 10.642 32.752 12.167 31.544 12.881L29.477 14.148C29.181 14.329 29 14.652 29 15V18C29 18.552 29.448 19 30 19C30.552 19 31 18.552 31 18V15.56Z" fill="black"/>
</svg>
