<svg width="64" height="64" viewBox="0 0 64 64" fill="none" xmlns="http://www.w3.org/2000/svg">
<path d="M61 9.99999H57C56.7348 9.99999 56.4804 10.1053 56.2929 10.2929C56.1054 10.4804 56 10.7348 56 11C56 11.2652 56.1054 11.5196 56.2929 11.7071C56.4804 11.8946 56.7348 12 57 12H60V41H55.051C55.07 40.988 55.083 40.969 55.103 40.958L55.376 40.802C55.8686 40.5191 56.2778 40.1112 56.5623 39.6196C56.8469 39.128 56.9968 38.57 56.9968 38.002C56.9968 37.434 56.8469 36.876 56.5623 36.3844C56.2778 35.8928 55.8686 35.4849 55.376 35.202L55.104 35.046C55.084 35.035 55.071 35.016 55.052 35.004H57C57.2652 35.004 57.5196 34.8986 57.7071 34.7111C57.8946 34.5236 58 34.2692 58 34.004V15C58 14.7348 57.8946 14.4804 57.7071 14.2929C57.5196 14.1053 57.2652 14 57 14H54V8.89999L57.275 7.96399C57.4835 7.90399 57.6669 7.77778 57.7974 7.60443C57.9279 7.43108 57.9985 7.21998 57.9985 7.00299C57.9985 6.78601 57.9279 6.57491 57.7974 6.40156C57.6669 6.2282 57.4835 6.102 57.275 6.04199L43.275 2.04199C43.0954 1.98999 42.9046 1.98999 42.725 2.04199L40.125 2.78599C39.87 2.85893 39.6544 3.03018 39.5257 3.26206C39.3969 3.49395 39.3656 3.76749 39.4385 4.02249C39.5114 4.2775 39.6827 4.49309 39.9146 4.62183C40.1465 4.75057 40.42 4.78193 40.675 4.70899L43 4.03999L53.36 6.99999L43 9.95999L32.64 6.99999L36.816 5.80699C37.071 5.73406 37.2866 5.56281 37.4153 5.33092C37.5441 5.09903 37.5754 4.8255 37.5025 4.57049C37.4296 4.31549 37.2583 4.0999 37.0264 3.97116C36.7945 3.84241 36.521 3.81106 36.266 3.88399L28.725 6.03899C28.5162 6.09872 28.3325 6.2248 28.2017 6.39818C28.0709 6.57156 28.0001 6.78281 28 6.99999V9.99999H9C8.73478 9.99999 8.48043 10.1053 8.29289 10.2929C8.10536 10.4804 8 10.7348 8 11V18H7C5.6744 18.0016 4.40356 18.5289 3.46622 19.4662C2.52888 20.4035 2.00159 21.6744 2 23V45C2.00159 46.3256 2.52888 47.5964 3.46622 48.5338C4.40356 49.4711 5.6744 49.9984 7 50H17.934C17.78 51.1716 17.3645 52.2936 16.7181 53.2829C16.0717 54.2722 15.2111 55.1034 14.2 55.715L13.723 56H11C9.6744 56.0016 8.40356 56.5289 7.46622 57.4662C6.52888 58.4036 6.00159 59.6744 6 61C6 61.2652 6.10536 61.5196 6.29289 61.7071C6.48043 61.8946 6.73478 62 7 62H26C26.2652 62 26.5196 61.8946 26.7071 61.7071C26.8946 61.5196 27 61.2652 27 61C27 60.7348 26.8946 60.4804 26.7071 60.2929C26.5196 60.1053 26.2652 60 26 60H8.171C8.37858 59.4155 8.7619 58.9095 9.26839 58.5514C9.77487 58.1934 10.3797 58.0007 11 58H38.926V58.064C38.9397 58.2784 39.0221 58.4826 39.161 58.6465C39.2998 58.8104 39.4878 58.9252 39.697 58.974C39.7714 58.9915 39.8476 59.0002 39.924 59C40.0995 59 40.272 58.9538 40.424 58.866C40.576 58.7782 40.7022 58.652 40.79 58.5L41.079 58H43C43.6203 58.0007 44.2251 58.1934 44.7316 58.5514C45.2381 58.9095 45.6214 59.4155 45.829 60H30C29.7348 60 29.4804 60.1053 29.2929 60.2929C29.1054 60.4804 29 60.7348 29 61C29 61.2652 29.1054 61.5196 29.2929 61.7071C29.4804 61.8946 29.7348 62 30 62H47C47.2652 62 47.5196 61.8946 47.7071 61.7071C47.8946 61.5196 48 61.2652 48 61C47.9984 59.6744 47.4711 58.4036 46.5338 57.4662C45.5964 56.5289 44.3256 56.0016 43 56H42.238L46 49.484L51.206 58.5C51.2938 58.652 51.42 58.7782 51.572 58.866C51.724 58.9538 51.8965 59 52.072 59C52.1484 59.0002 52.2246 58.9915 52.299 58.974C52.5082 58.9252 52.6962 58.8104 52.835 58.6465C52.9739 58.4826 53.0563 58.2784 53.07 58.064L53.438 52.364L58.557 54.9C58.7498 54.996 58.9684 55.0272 59.1803 54.989C59.3922 54.9508 59.5862 54.8451 59.7333 54.6878C59.8803 54.5305 59.9727 54.3299 59.9966 54.1159C60.0205 53.9019 59.9747 53.6859 59.866 53.5L54.6 44.382C54.7278 43.9328 54.7558 43.4611 54.682 43H61C61.2652 43 61.5196 42.8946 61.7071 42.7071C61.8946 42.5196 62 42.2652 62 42V11C62 10.7348 61.8946 10.4804 61.7071 10.2929C61.5196 10.1053 61.2652 9.99999 61 9.99999ZM43 12C43.093 11.9999 43.1856 11.9868 43.275 11.961L52 9.46899V18.369C49.1784 19.6715 46.1077 20.346 43 20.346C39.8923 20.346 36.8216 19.6715 34 18.369V9.46899L42.725 11.961C42.8144 11.9868 42.907 11.9999 43 12ZM26 20C26 19.8022 26.0586 19.6089 26.1685 19.4444C26.2784 19.28 26.4346 19.1518 26.6173 19.0761C26.8 19.0004 27.0011 18.9806 27.1951 19.0192C27.3891 19.0578 27.5673 19.153 27.7071 19.2929C27.847 19.4327 27.9422 19.6109 27.9808 19.8049C28.0194 19.9989 27.9996 20.1999 27.9239 20.3827C27.8482 20.5654 27.72 20.7216 27.5556 20.8315C27.3911 20.9413 27.1978 21 27 21C26.7348 21 26.4804 20.8946 26.2929 20.7071C26.1054 20.5196 26 20.2652 26 20ZM30 12H32V19C31.9999 19.1858 32.0516 19.368 32.1493 19.5261C32.247 19.6842 32.3868 19.8119 32.553 19.895C33.3983 20.3163 34.2686 20.6853 35.159 21H29.816C29.9344 20.6797 29.9967 20.3414 30 20V12ZM26 23H44V25H26V23ZM30 8.32599L32 8.89999V9.99999H30V8.32599ZM10 12H28V17.184C27.6797 17.0656 27.3414 17.0033 27 17C26.2044 17 25.4413 17.3161 24.8787 17.8787C24.3161 18.4413 24 19.2043 24 20C24.0019 20.4461 24.1044 20.886 24.3 21.287C24.2048 21.3797 24.1292 21.4906 24.0777 21.6131C24.0262 21.7356 23.9998 21.8671 24 22V26C24 26.2652 24.1054 26.5196 24.2929 26.7071C24.4804 26.8946 24.7348 27 25 27H45C45.2652 27 45.5196 26.8946 45.7071 26.7071C45.8946 26.5196 46 26.2652 46 26V22.149C48.591 21.8227 51.1085 21.0624 53.447 19.9C53.614 19.8165 53.7543 19.688 53.852 19.529C53.9498 19.3699 54.001 19.1867 54 19V16H56V33H55C54.8912 33.0047 54.7827 33.0153 54.675 33.032C54.7647 32.4985 54.7186 31.9511 54.541 31.4401C54.3634 30.9292 54.06 30.4712 53.6588 30.1083C53.2576 29.7455 52.7715 29.4895 52.2453 29.3639C51.7191 29.2384 51.1698 29.2474 50.648 29.39C50.518 29.4214 50.3956 29.4785 50.288 29.5581C50.1805 29.6376 50.09 29.7379 50.0219 29.853C49.9538 29.9681 49.9095 30.0957 49.8916 30.2283C49.8737 30.3608 49.8826 30.4956 49.9177 30.6247C49.9529 30.7537 50.0135 30.8744 50.0961 30.9796C50.1787 31.0848 50.2816 31.1724 50.3986 31.2371C50.5157 31.3019 50.6445 31.3425 50.7775 31.3565C50.9105 31.3706 51.045 31.3578 51.173 31.319C51.382 31.2622 51.6022 31.2617 51.8114 31.3174C52.0207 31.3731 52.2115 31.4831 52.3645 31.6363C52.5176 31.7894 52.6275 31.9803 52.683 32.1896C52.7386 32.3988 52.7379 32.6191 52.681 32.828L52.599 33.128C52.4111 33.8177 52.4576 34.5502 52.7311 35.2106C53.0046 35.8711 53.4896 36.422 54.11 36.777L54.382 36.933C54.5696 37.0406 54.7255 37.1959 54.8339 37.3831C54.9423 37.5702 54.9994 37.7827 54.9994 37.999C54.9994 38.2153 54.9423 38.4278 54.8339 38.6149C54.7255 38.8021 54.5696 38.9573 54.382 39.065L54.109 39.221C53.4888 39.5762 53.0041 40.1272 52.731 40.7876C52.4579 41.4481 52.4118 42.1805 52.6 42.87L52.682 43.17C52.7388 43.3789 52.7393 43.5992 52.6836 43.8084C52.6279 44.0177 52.5179 44.2085 52.3647 44.3615C52.2116 44.5146 52.0207 44.6244 51.8114 44.68C51.6022 44.7356 51.3819 44.7349 51.173 44.678L50.873 44.596C50.1833 44.4078 49.4507 44.4541 48.7901 44.7276C48.1296 45.0011 47.5787 45.4863 47.224 46.107L47.068 46.379C46.9604 46.5666 46.8051 46.7225 46.6179 46.8309C46.4308 46.9393 46.2183 46.9964 46.002 46.9964C45.7857 46.9964 45.5732 46.9393 45.3861 46.8309C45.1989 46.7225 45.0436 46.5666 44.936 46.379L44.78 46.106C44.4242 45.4863 43.8728 45.0022 43.2122 44.7296C42.5516 44.457 41.8193 44.4115 41.13 44.6L40.83 44.682C40.621 44.7388 40.4008 44.7393 40.1916 44.6836C39.9823 44.6279 39.7915 44.5179 39.6385 44.3647C39.4854 44.2116 39.3755 44.0207 39.32 43.8114C39.2644 43.6021 39.2651 43.3819 39.322 43.173L39.404 42.873C39.5919 42.1833 39.5454 41.4508 39.2719 40.7903C38.9984 40.1299 38.5134 39.579 37.893 39.224L37.621 39.068C37.4334 38.9604 37.2775 38.8051 37.1691 38.6179C37.0607 38.4308 37.0036 38.2183 37.0036 38.002C37.0036 37.7857 37.0607 37.5732 37.1691 37.3861C37.2775 37.1989 37.4334 37.0436 37.621 36.936L37.894 36.78C38.5139 36.4243 38.9981 35.8729 39.2706 35.2123C39.5432 34.5517 39.5887 33.8193 39.4 33.13L39.318 32.83C39.2612 32.621 39.2607 32.4008 39.3164 32.1916C39.3721 31.9823 39.4821 31.7915 39.6353 31.6385C39.7884 31.4854 39.9793 31.3755 40.1886 31.32C40.3978 31.2644 40.6181 31.2651 40.827 31.322L41.127 31.404C41.8167 31.5911 42.549 31.5443 43.2092 31.2709C43.8695 30.9975 44.4205 30.5129 44.776 29.893L44.932 29.621C45.0394 29.4331 45.1946 29.277 45.3818 29.1684C45.569 29.0598 45.7816 29.0026 45.998 29.0026C46.2144 29.0026 46.427 29.0598 46.6142 29.1684C46.8014 29.277 46.9566 29.4331 47.064 29.621C47.1958 29.8512 47.4137 30.0196 47.6697 30.0892C47.9256 30.1588 48.1988 30.1238 48.429 29.992C48.6592 29.8602 48.8276 29.6423 48.8972 29.3863C48.9668 29.1303 48.9318 28.8572 48.8 28.627C48.5171 28.1344 48.1092 27.7252 47.6176 27.4406C47.126 27.1561 46.568 27.0062 46 27.0062C45.432 27.0062 44.874 27.1561 44.3824 27.4406C43.8908 27.7252 43.4829 28.1344 43.2 28.627L43.044 28.899C42.9083 29.1346 42.6985 29.3187 42.4473 29.4227C42.1961 29.5267 41.9175 29.5447 41.655 29.474L41.355 29.392C40.8358 29.2498 40.2892 29.2398 39.7651 29.3631C39.2411 29.4863 38.7562 29.7388 38.3548 30.0976C37.9534 30.4563 37.6482 30.9099 37.4671 31.4169C37.286 31.9238 37.2347 32.4681 37.318 33H20C19.7348 33 19.4804 33.1053 19.2929 33.2929C19.1054 33.4804 19 33.7348 19 34C19 34.2652 19.1054 34.5196 19.2929 34.7071C19.4804 34.8946 19.7348 35 20 35H36.949C36.93 35.012 36.917 35.031 36.897 35.042L36.624 35.198C36.1314 35.4809 35.7222 35.8888 35.4377 36.3804C35.1531 36.872 35.0032 37.43 35.0032 37.998C35.0032 38.566 35.1531 39.124 35.4377 39.6156C35.7222 40.1072 36.1314 40.5151 36.624 40.798L36.896 40.954C36.916 40.965 36.929 40.984 36.948 40.996H10V12ZM39.964 49.938C39.8215 49.8556 39.6609 49.8097 39.4964 49.8043C39.3319 49.7989 39.1686 49.8342 39.021 49.907L35.521 51.64L38.687 46.156C39.071 46.4228 39.509 46.6018 39.9699 46.6802C40.4308 46.7587 40.9034 46.7347 41.354 46.61L41.654 46.528C41.9164 46.4572 42.1948 46.4752 42.4459 46.5792C42.697 46.6832 42.9066 46.8674 43.042 47.103L43.198 47.376C43.4574 47.8287 43.8229 48.2117 44.263 48.492L40.713 54.64L40.462 50.74C40.4515 50.5756 40.4005 50.4164 40.3136 50.2765C40.2267 50.1366 40.1066 50.0203 39.964 49.938ZM17.05 56C18.6759 54.3934 19.695 52.2732 19.934 50H31.887C32.1522 50 32.4066 49.8946 32.5941 49.7071C32.7816 49.5196 32.887 49.2652 32.887 49C32.887 48.7348 32.7816 48.4804 32.5941 48.2929C32.4066 48.1053 32.1522 48 31.887 48H7C6.20435 48 5.44129 47.6839 4.87868 47.1213C4.31607 46.5587 4 45.7956 4 45V23C4 22.2043 4.31607 21.4413 4.87868 20.8787C5.44129 20.3161 6.20435 20 7 20H8V42C8 42.2652 8.10536 42.5196 8.29289 42.7071C8.48043 42.8946 8.73478 43 9 43H37.318C37.2435 43.461 37.2708 43.9327 37.398 44.382L32.134 53.5C32.0253 53.6859 31.9795 53.9019 32.0034 54.1159C32.0273 54.3299 32.1197 54.5305 32.2667 54.6878C32.4138 54.8451 32.6078 54.9508 32.8197 54.989C33.0316 55.0272 33.2502 54.996 33.443 54.9L38.562 52.369L38.8 56H17.05ZM52.979 49.907C52.8314 49.8341 52.6681 49.7987 52.5036 49.804C52.3391 49.8093 52.1784 49.8552 52.0359 49.9375C51.8934 50.0198 51.7733 50.136 51.6865 50.2758C51.5996 50.4156 51.5486 50.5747 51.538 50.739L51.287 54.639L47.737 48.491C48.1766 48.2107 48.5414 47.8277 48.8 47.375L48.956 47.103C49.0911 46.8668 49.3008 46.6822 49.5522 46.5781C49.8036 46.474 50.0825 46.4564 50.345 46.528L50.645 46.61C51.0958 46.7351 51.5686 46.7591 52.0298 46.6805C52.491 46.6019 52.9291 46.4224 53.313 46.155L56.479 51.64L52.979 49.907Z" fill="black"/>
<path d="M13 39H32C32.2652 39 32.5196 38.8946 32.7071 38.7071C32.8946 38.5196 33 38.2652 33 38C33 37.7348 32.8946 37.4804 32.7071 37.2929C32.5196 37.1054 32.2652 37 32 37H14V20H15C15.7956 20 16.5587 19.6839 17.1213 19.1213C17.6839 18.5587 18 17.7956 18 17V16H25C25.2652 16 25.5196 15.8946 25.7071 15.7071C25.8946 15.5196 26 15.2652 26 15C26 14.7348 25.8946 14.4804 25.7071 14.2929C25.5196 14.1054 25.2652 14 25 14H17C16.7348 14 16.4804 14.1054 16.2929 14.2929C16.1054 14.4804 16 14.7348 16 15V17C16 17.2652 15.8946 17.5196 15.7071 17.7071C15.5196 17.8946 15.2652 18 15 18H13C12.7348 18 12.4804 18.1054 12.2929 18.2929C12.1054 18.4804 12 18.7348 12 19V38C12 38.2652 12.1054 38.5196 12.2929 38.7071C12.4804 38.8946 12.7348 39 13 39Z" fill="black"/>
<path d="M21 30C21 30.2652 21.1054 30.5196 21.2929 30.7071C21.4804 30.8946 21.7348 31 22 31H35C35.2652 31 35.5196 30.8946 35.7071 30.7071C35.8946 30.5196 36 30.2652 36 30C36 29.7348 35.8946 29.4804 35.7071 29.2929C35.5196 29.1054 35.2652 29 35 29H22C21.7348 29 21.4804 29.1054 21.2929 29.2929C21.1054 29.4804 21 29.7348 21 30Z" fill="black"/>
<path d="M41 38C41 38.9889 41.2932 39.9556 41.8427 40.7779C42.3921 41.6001 43.173 42.241 44.0866 42.6194C45.0002 42.9978 46.0055 43.0969 46.9755 42.9039C47.9454 42.711 48.8363 42.2348 49.5355 41.5355C50.2348 40.8363 50.711 39.9454 50.9039 38.9755C51.0969 38.0055 50.9978 37.0002 50.6194 36.0866C50.241 35.173 49.6001 34.3921 48.7779 33.8427C47.9556 33.2932 46.9889 33 46 33C44.6744 33.0016 43.4036 33.5289 42.4662 34.4662C41.5289 35.4036 41.0016 36.6744 41 38ZM49 38C49 38.5933 48.8241 39.1734 48.4944 39.6667C48.1648 40.1601 47.6962 40.5446 47.148 40.7716C46.5999 40.9987 45.9967 41.0581 45.4147 40.9424C44.8328 40.8266 44.2982 40.5409 43.8787 40.1213C43.4591 39.7018 43.1734 39.1672 43.0576 38.5853C42.9419 38.0033 43.0013 37.4001 43.2284 36.852C43.4554 36.3038 43.8399 35.8352 44.3333 35.5056C44.8266 35.1759 45.4067 35 46 35C46.7956 35 47.5587 35.3161 48.1213 35.8787C48.6839 36.4413 49 37.2044 49 38Z" fill="black"/>
</svg>
