<svg width="64" height="64" viewBox="0 0 64 64" fill="none" xmlns="http://www.w3.org/2000/svg">
<path d="M51 33.176C51.2652 33.176 51.5196 33.0706 51.7071 32.8831C51.8946 32.6956 52 32.4412 52 32.176V29C52 28.7348 51.8946 28.4804 51.7071 28.2929C51.5196 28.1054 51.2652 28 51 28H7C6.73478 28 6.48043 28.1054 6.29289 28.2929C6.10536 28.4804 6 28.7348 6 29V57C6 57.2652 6.10536 57.5196 6.29289 57.7071C6.48043 57.8946 6.73478 58 7 58H51C51.2652 58 51.5196 57.8946 51.7071 57.7071C51.8946 57.5196 52 57.2652 52 57V53.176C52 52.9108 51.8946 52.6564 51.7071 52.4689C51.5196 52.2814 51.2652 52.176 51 52.176C50.7348 52.176 50.4804 52.2814 50.2929 52.4689C50.1054 52.6564 50 52.9108 50 53.176V56H8V30H50V32.176C50 32.4412 50.1054 32.6956 50.2929 32.8831C50.4804 33.0706 50.7348 33.176 51 33.176Z" fill="black"/>
<path d="M33 41H31.5C31.2348 41 30.9804 41.1054 30.7929 41.2929C30.6054 41.4804 30.5 41.7348 30.5 42V48C30.5 48.2652 30.6054 48.5196 30.7929 48.7071C30.9804 48.8946 31.2348 49 31.5 49H33C33.663 49 34.2989 48.7366 34.7678 48.2678C35.2366 47.7989 35.5 47.163 35.5 46.5C35.4984 45.9572 35.3181 45.4301 34.987 45C35.3181 44.5699 35.4984 44.0428 35.5 43.5C35.5 42.837 35.2366 42.2011 34.7678 41.7322C34.2989 41.2634 33.663 41 33 41ZM32.5 43H33C33.1326 43 33.2598 43.0527 33.3536 43.1464C33.4473 43.2402 33.5 43.3674 33.5 43.5C33.5 43.6326 33.4473 43.7598 33.3536 43.8536C33.2598 43.9473 33.1326 44 33 44H32.5V43ZM33 47H32.5V46H33C33.1326 46 33.2598 46.0527 33.3536 46.1464C33.4473 46.2402 33.5 46.3674 33.5 46.5C33.5 46.6326 33.4473 46.7598 33.3536 46.8536C33.2598 46.9473 33.1326 47 33 47Z" fill="black"/>
<path d="M23 46H19C18.7348 46 18.4804 46.1054 18.2929 46.2929C18.1054 46.4804 18 46.7348 18 47V52C18 52.2652 18.1054 52.5196 18.2929 52.7071C18.4804 52.8946 18.7348 53 19 53H23C23.2652 53 23.5196 52.8946 23.7071 52.7071C23.8946 52.5196 24 52.2652 24 52V47C24 46.7348 23.8946 46.4804 23.7071 46.2929C23.5196 46.1054 23.2652 46 23 46ZM22 51H20V48H22V51Z" fill="black"/>
<path d="M15 53C15.2652 53 15.5196 52.8946 15.7071 52.7071C15.8946 52.5196 16 52.2652 16 52V47C16 46.7348 15.8946 46.4804 15.7071 46.2929C15.5196 46.1054 15.2652 46 15 46H11C10.7348 46 10.4804 46.1054 10.2929 46.2929C10.1054 46.4804 10 46.7348 10 47V52C10 52.2652 10.1054 52.5196 10.2929 52.7071C10.4804 52.8946 10.7348 53 11 53C11.2652 53 11.5196 52.8946 11.7071 52.7071C11.8946 52.5196 12 52.2652 12 52V48H14V52C14 52.2652 14.1054 52.5196 14.2929 52.7071C14.4804 52.8946 14.7348 53 15 53Z" fill="black"/>
<path d="M23 42H11C10.7348 42 10.4804 42.1054 10.2929 42.2929C10.1054 42.4804 10 42.7348 10 43C10 43.2652 10.1054 43.5196 10.2929 43.7071C10.4804 43.8946 10.7348 44 11 44H23C23.2652 44 23.5196 43.8946 23.7071 43.7071C23.8946 43.5196 24 43.2652 24 43C24 42.7348 23.8946 42.4804 23.7071 42.2929C23.5196 42.1054 23.2652 42 23 42Z" fill="black"/>
<path d="M12 36H16C16.2652 36 16.5196 35.8946 16.7071 35.7071C16.8946 35.5196 17 35.2652 17 35C17 34.7348 16.8946 34.4804 16.7071 34.2929C16.5196 34.1054 16.2652 34 16 34H12C11.7348 34 11.4804 34.1054 11.2929 34.2929C11.1054 34.4804 11 34.7348 11 35C11 35.2652 11.1054 35.5196 11.2929 35.7071C11.4804 35.8946 11.7348 36 12 36Z" fill="black"/>
<path d="M47 34H43C42.7348 34 42.4804 34.1054 42.2929 34.2929C42.1054 34.4804 42 34.7348 42 35C42 35.2652 42.1054 35.5196 42.2929 35.7071C42.4804 35.8946 42.7348 36 43 36H47C47.2652 36 47.5196 35.8946 47.7071 35.7071C47.8946 35.5196 48 35.2652 48 35C48 34.7348 47.8946 34.4804 47.7071 34.2929C47.5196 34.1054 47.2652 34 47 34Z" fill="black"/>
<path d="M12 40H16C16.2652 40 16.5196 39.8946 16.7071 39.7071C16.8946 39.5196 17 39.2652 17 39C17 38.7348 16.8946 38.4804 16.7071 38.2929C16.5196 38.1054 16.2652 38 16 38H12C11.7348 38 11.4804 38.1054 11.2929 38.2929C11.1054 38.4804 11 38.7348 11 39C11 39.2652 11.1054 39.5196 11.2929 39.7071C11.4804 39.8946 11.7348 40 12 40Z" fill="black"/>
<path d="M47 40C47.5523 40 48 39.5523 48 39C48 38.4477 47.5523 38 47 38C46.4477 38 46 38.4477 46 39C46 39.5523 46.4477 40 47 40Z" fill="black"/>
<path d="M43 40C43.5523 40 44 39.5523 44 39C44 38.4477 43.5523 38 43 38C42.4477 38 42 38.4477 42 39C42 39.5523 42.4477 40 43 40Z" fill="black"/>
<path d="M43 44C43.5523 44 44 43.5523 44 43C44 42.4477 43.5523 42 43 42C42.4477 42 42 42.4477 42 43C42 43.5523 42.4477 44 43 44Z" fill="black"/>
<path d="M43 48C43.5523 48 44 47.5523 44 47C44 46.4477 43.5523 46 43 46C42.4477 46 42 46.4477 42 47C42 47.5523 42.4477 48 43 48Z" fill="black"/>
<path d="M47 52.957C47.4944 52.8722 47.945 52.621 48.277 52.245L50.977 49.167C51.0203 49.1172 51.0591 49.0636 51.093 49.007L54 43.98V57C54 57.7956 53.6839 58.5587 53.1213 59.1213C52.5587 59.6839 51.7956 60 51 60H7C6.20435 60 5.44129 59.6839 4.87868 59.1213C4.31607 58.5587 4 57.7956 4 57V29C4 28.2044 4.31607 27.4413 4.87868 26.8787C5.44129 26.3161 6.20435 26 7 26H13C13.2652 26 13.5196 25.8946 13.7071 25.7071C13.8946 25.5196 14 25.2652 14 25C14 24.7348 13.8946 24.4804 13.7071 24.2929C13.5196 24.1054 13.2652 24 13 24H7C5.6744 24.0016 4.40356 24.5289 3.46622 25.4662C2.52888 26.4036 2.00159 27.6744 2 29V57C2.00159 58.3256 2.52888 59.5964 3.46622 60.5338C4.40356 61.4711 5.6744 61.9984 7 62H51C52.3256 61.9984 53.5964 61.4711 54.5338 60.5338C55.4711 59.5964 55.9984 58.3256 56 57V40.549C56 40.54 55.995 40.533 55.995 40.524L61.595 30.824C61.792 30.4826 61.9198 30.1057 61.9711 29.7148C62.0224 29.324 61.9963 28.9269 61.8941 28.5462C61.792 28.1655 61.6159 27.8086 61.3758 27.4959C61.1357 27.1833 60.8364 26.921 60.495 26.724C60.1536 26.527 59.7767 26.3992 59.3858 26.3479C58.995 26.2966 58.5979 26.3227 58.2172 26.4249C57.8365 26.527 57.4796 26.7031 57.1669 26.9432C56.8543 27.1833 56.592 27.4826 56.395 27.824L55.952 28.592C55.8525 27.3452 55.2882 26.1812 54.3711 25.3307C53.4539 24.4803 52.2508 24.0053 51 24H17C16.7348 24 16.4804 24.1054 16.2929 24.2929C16.1054 24.4804 16 24.7348 16 25C16 25.2652 16.1054 25.5196 16.2929 25.7071C16.4804 25.8946 16.7348 26 17 26H51C51.7956 26 52.5587 26.3161 53.1213 26.8787C53.6839 27.4413 54 28.2044 54 29V31.951C54 31.959 54 31.965 54 31.972L51.639 36.062C51.5723 36.1758 51.5288 36.3016 51.5109 36.4323C51.493 36.5629 51.5012 36.6958 51.5349 36.8233C51.5686 36.9508 51.6272 37.0704 51.7073 37.1752C51.7874 37.2799 51.8875 37.3678 52.0017 37.4338C52.1159 37.4997 52.242 37.5424 52.3728 37.5594C52.5036 37.5764 52.6364 37.5674 52.7637 37.5328C52.891 37.4983 53.0101 37.4389 53.1144 37.3581C53.2186 37.2773 53.3058 37.1766 53.371 37.062L56.63 31.418L58.362 32.418L49.862 47.141L48.13 46.141L51.371 40.526C51.4377 40.4122 51.4812 40.2864 51.4991 40.1557C51.517 40.0251 51.5088 39.8922 51.4751 39.7647C51.4414 39.6372 51.3828 39.5176 51.3027 39.4128C51.2226 39.3081 51.1225 39.2202 51.0083 39.1542C50.8941 39.0883 50.768 39.0456 50.6372 39.0286C50.5064 39.0116 50.3736 39.0206 50.2463 39.0552C50.119 39.0897 49.9999 39.1491 49.8956 39.2299C49.7914 39.3107 49.7042 39.4114 49.639 39.526L45.9 46.007C45.8672 46.0642 45.8401 46.1245 45.819 46.187L44.506 50.069C44.4057 50.3684 44.3716 50.6861 44.406 51H40V34C40 33.7348 39.8946 33.4804 39.7071 33.2929C39.5196 33.1054 39.2652 33 39 33H29C28.2044 33 27.4413 33.3161 26.8787 33.8787C26.3161 34.4413 26 35.2044 26 36V48C26 48.2652 26.1054 48.5196 26.2929 48.7071C26.4804 48.8946 26.7348 49 27 49C27.2652 49 27.5196 48.8946 27.7071 48.7071C27.8946 48.5196 28 48.2652 28 48V38.816C28.3203 38.9344 28.6586 38.9967 29 39H38V51H27C26.7348 51 26.4804 51.1054 26.2929 51.2929C26.1054 51.4804 26 51.7348 26 52C26 52.2652 26.1054 52.5196 26.2929 52.7071C26.4804 52.8946 26.7348 53 27 53L47 52.957ZM29 37C28.7348 37 28.4804 36.8946 28.2929 36.7071C28.1054 36.5196 28 36.2652 28 36C28 35.7348 28.1054 35.4804 28.2929 35.2929C28.4804 35.1054 28.7348 35 29 35H38V37H29ZM46.774 50.926C46.7403 50.9639 46.6946 50.9889 46.6446 50.997C46.5945 51.005 46.5433 50.9955 46.4994 50.9701C46.4555 50.9447 46.4218 50.905 46.4039 50.8576C46.386 50.8102 46.3849 50.7581 46.401 50.71L47.324 47.983L48.675 48.763L46.774 50.926ZM57.634 29.686L58.134 28.82C58.1974 28.7021 58.2839 28.5982 58.3882 28.5143C58.4926 28.4305 58.6127 28.3685 58.7415 28.3319C58.8703 28.2953 59.0051 28.285 59.1379 28.3015C59.2707 28.318 59.3989 28.361 59.5148 28.428C59.6307 28.4949 59.732 28.5845 59.8127 28.6913C59.8933 28.7982 59.9517 28.9201 59.9844 29.0499C60.017 29.1797 60.0233 29.3148 60.0028 29.4471C59.9823 29.5793 59.9354 29.7062 59.865 29.82L59.365 30.685L57.634 29.686Z" fill="black"/>
</svg>
