<svg width="64" height="64" viewBox="0 0 64 64" fill="none" xmlns="http://www.w3.org/2000/svg">
<path d="M58 54H57.829L55.925 43.85C55.823 43.308 55.307 42.952 54.758 43.052C54.215 43.154 53.858 43.677 53.96 44.219L55.795 54H41V40C41 39.992 40.996 39.986 40.996 39.978C41.05 39.937 41.099 39.892 41.151 39.85L46.804 40.981C46.868 40.994 46.935 41 47 41C48.727 41 49.5 38.489 49.5 36C49.5 33.511 48.727 31 47 31C46.935 31 46.868 31.006 46.804 31.02L41.151 32.151C40.288 31.443 39.2 31 38 31C36.8 31 35.712 31.443 34.849 32.15L29.196 31.019C29.132 31.006 29.065 31 29 31C27.273 31 26.5 33.511 26.5 36C26.5 38.489 27.273 41 29 41C29.065 41 29.132 40.994 29.196 40.98L34.849 39.849C35.712 40.557 36.8 41 38 41C38.342 41 38.677 40.965 39 40.899V54H37V43.445C37 42.893 36.553 42.445 36 42.445C35.447 42.445 35 42.893 35 43.445V54H20.205L25.371 26.447C25.638 25.029 26.877 24 28.319 24H47.68C49.122 24 50.362 25.029 50.628 26.447L53.223 40.285C53.325 40.828 53.839 41.187 54.39 41.084C54.933 40.982 55.29 40.459 55.188 39.917L52.593 26.079C52.151 23.715 50.085 22 47.681 22H28.319C25.915 22 23.848 23.715 23.406 26.079L18.171 54H18C15.794 54 14 55.794 14 58V61C14 61.552 14.447 62 15 62H20C20.553 62 21 61.552 21 61C21 60.448 20.553 60 20 60H16V58C16 56.897 16.897 56 18 56H58C59.103 56 60 56.897 60 58V60H24C23.447 60 23 60.448 23 61C23 61.552 23.447 62 24 62H61C61.553 62 62 61.552 62 61V58C62 55.794 60.206 54 58 54ZM46.891 33.042C47.136 33.382 47.5 34.438 47.5 36C47.5 37.562 47.136 38.618 46.891 38.958L42.53 38.086C42.824 37.449 43 36.747 43 36C43 35.253 42.824 34.551 42.529 33.914L46.891 33.042ZM29.109 38.958C28.864 38.618 28.5 37.562 28.5 36C28.5 34.438 28.864 33.382 29.109 33.042L33.47 33.914C33.176 34.551 33 35.253 33 36C33 36.747 33.176 37.449 33.471 38.086L29.109 38.958ZM35 36C35 34.346 36.346 33 38 33C39.654 33 41 34.346 41 36C41 37.654 39.654 39 38 39C36.346 39 35 37.654 35 36Z" fill="black"/>
<path d="M38 18C38.553 18 39 17.552 39 17V8C39 7.448 38.553 7 38 7C37.447 7 37 7.448 37 8V17C37 17.552 37.447 18 38 18Z" fill="black"/>
<path d="M53.999 23C54.286 23 54.57 22.877 54.769 22.64L59.769 16.64C60.123 16.216 60.065 15.585 59.641 15.232C59.214 14.878 58.586 14.937 58.232 15.36L53.232 21.36C52.878 21.784 52.936 22.415 53.36 22.768C53.547 22.924 53.773 23 53.999 23Z" fill="black"/>
<path d="M56.2 32.6C56.396 32.862 56.696 33 57.001 33C57.21 33 57.42 32.935 57.6 32.8L61.6 29.8C62.042 29.469 62.132 28.842 61.8 28.4C61.468 27.959 60.842 27.867 60.401 28.2L56.401 31.2C55.958 31.531 55.868 32.158 56.2 32.6Z" fill="black"/>
<path d="M45.553 18.895C45.696 18.966 45.849 19 45.999 19C46.366 19 46.719 18.798 46.895 18.447L50.895 10.447C51.142 9.95299 50.942 9.35199 50.448 9.10499C49.955 8.85799 49.354 9.05799 49.106 9.55199L45.106 17.552C44.858 18.047 45.059 18.647 45.553 18.895Z" fill="black"/>
<path d="M9.16802 25.445C8.86102 25.904 8.98502 26.526 9.44502 26.832L18.445 32.832C18.616 32.946 18.809 33 18.999 33C19.322 33 19.64 32.844 19.832 32.555C20.139 32.096 20.015 31.474 19.555 31.168L10.555 25.168C10.094 24.86 9.47402 24.986 9.16802 25.445Z" fill="black"/>
<path d="M29.105 18.447C29.281 18.798 29.634 19 30.001 19C30.151 19 30.304 18.966 30.447 18.895C30.941 18.648 31.141 18.047 30.894 17.553L26.894 9.553C26.646 9.059 26.045 8.859 25.552 9.106C25.058 9.353 24.858 9.954 25.105 10.448L29.105 18.447Z" fill="black"/>
<path d="M17 39C17.388 39 17.757 38.772 17.919 38.394C18.137 37.886 17.901 37.298 17.394 37.081L10.394 34.081C9.88998 33.863 9.29798 34.098 9.08198 34.606C8.86398 35.114 9.09998 35.702 9.60698 35.919L16.607 38.919C16.734 38.974 16.868 39 17 39Z" fill="black"/>
<path d="M52 52C52.5523 52 53 51.5523 53 51C53 50.4477 52.5523 50 52 50C51.4477 50 51 50.4477 51 51C51 51.5523 51.4477 52 52 52Z" fill="black"/>
<path d="M24 52C24.5523 52 25 51.5523 25 51C25 50.4477 24.5523 50 24 50C23.4477 50 23 50.4477 23 51C23 51.5523 23.4477 52 24 52Z" fill="black"/>
<path d="M18.123 26H21C21.49 26 21.909 25.644 21.987 25.16C22.065 24.676 21.781 24.206 21.315 24.051L21.162 24C20.196 23.678 19.468 22.924 19.16 21.996C20.74 21.912 22 20.601 22 19V5C22 3.346 20.654 2 19 2H5C3.346 2 2 3.346 2 5V8C2 8.552 2.447 9 3 9C3.553 9 4 8.552 4 8V5C4 4.449 4.448 4 5 4H19C19.552 4 20 4.449 20 5V19C20 19.551 19.552 20 19 20H18C17.447 20 17 20.448 17 21C17 22.103 17.349 23.143 17.957 23.997C16.06 23.925 14.435 22.613 13.97 20.758C13.858 20.312 13.459 20 13 20H5C4.448 20 4 19.551 4 19V12C4 11.448 3.553 11 3 11C2.447 11 2 11.448 2 12V19C2 20.654 3.346 22 5 22H12.271C13.199 24.39 15.504 26 18.123 26Z" fill="black"/>
<path d="M14 6H10C9.447 6 9 6.448 9 7V9H7C6.447 9 6 9.448 6 10V14C6 14.552 6.447 15 7 15H9V17C9 17.552 9.447 18 10 18H14C14.553 18 15 17.552 15 17V15H17C17.553 15 18 14.552 18 14V10C18 9.448 17.553 9 17 9H15V7C15 6.448 14.553 6 14 6ZM16 11V13H14C13.447 13 13 13.448 13 14V16H11V14C11 13.448 10.553 13 10 13H8V11H10C10.553 11 11 10.552 11 10V8H13V10C13 10.552 13.447 11 14 11H16Z" fill="black"/>
</svg>
