<svg width="64" height="64" viewBox="0 0 64 64" fill="none" xmlns="http://www.w3.org/2000/svg">
<path d="M49.322 40.596C48.886 39.835 48.372 39.143 47.814 38.499C48.565 37.665 49 36.579 49 35.45C49 34.304 48.62 33.164 47.93 32.239L47.272 31.362C46.571 30.423 46.405 29.174 46.841 28.096L47.079 27.49C47.733 25.847 47.539 23.998 46.562 22.544C46.194 21.993 46 21.349 46 20.68V13.35C46 11.094 45.341 8.90202 44.095 7.01002C43.792 6.54902 43.171 6.42202 42.71 6.72502C42.248 7.02902 42.121 7.64902 42.425 8.11002C43.455 9.67402 44 11.486 44 13.35V14.185C43.686 14.072 43.352 14 43 14C42.648 14 42.314 14.072 42 14.184V14C42 13.447 41.553 13 41 13H38.831C35.197 13 31.63 12.012 28.515 10.143C28.26 9.99002 27.951 9.95902 27.67 10.056C27.39 10.155 27.167 10.371 27.064 10.65C26.538 12.056 25.176 13 23.675 13H23C22.447 13 22 13.447 22 14V14.184C21.686 14.072 21.352 14 21 14C20.648 14 20.314 14.072 20 14.184V13.38C20 12.751 20.095 12.133 20.283 11.543C21.125 8.89902 23.641 7.18302 26.43 7.35802L27.42 7.41802C27.726 7.42902 28.028 7.31102 28.232 7.07802C30.012 5.04502 32.564 3.94802 35.288 3.99902C36.925 4.05102 38.517 4.57502 39.894 5.51702C40.351 5.82802 40.972 5.71002 41.285 5.25502C41.597 4.79902 41.479 4.17602 41.023 3.86402C39.331 2.70802 37.37 2.06302 35.349 2.00002C32.23 1.91402 29.222 3.14202 27.066 5.39402L26.555 5.36302C22.872 5.12002 19.497 7.41602 18.377 10.937C18.127 11.722 18 12.544 18 13.38V20.68C18 21.349 17.806 21.993 17.439 22.542C16.46 23.998 16.266 25.848 16.918 27.486L17.162 28.105C17.595 29.174 17.429 30.422 16.729 31.359L16.068 32.241C15.38 33.164 15 34.304 15 35.45C15 36.584 15.433 37.665 16.183 38.492C15.62 39.141 15.112 39.839 14.678 40.596C13.58 42.509 13 44.812 13 47.255V61C13 61.553 13.447 62 14 62C14.553 62 15 61.553 15 61V47.255C15 45.16 15.488 43.201 16.412 41.59C17.055 40.47 17.87 39.482 18.835 38.653C19.254 38.294 19.302 37.662 18.942 37.243C18.601 36.848 18.026 36.797 17.61 37.092C17.222 36.638 17 36.057 17 35.45C17 34.732 17.238 34.017 17.67 33.44L18.332 32.557C19.448 31.062 19.71 29.068 19.02 27.364L18.778 26.75C18.369 25.722 18.489 24.565 19.101 23.655C19.637 22.852 19.93 21.923 19.979 20.957C20.568 21.408 21.247 21.745 21.999 21.898V23C21.999 26.261 23.576 29.154 25.999 30.981V31H24.601C22.623 31 20.92 32.477 20.641 34.435L20.19 37.592C20.05 38.571 20.118 39.552 20.389 40.505L20.912 42.337C19.896 42.676 19.133 43.504 18.917 44.562L18.6 46.113C18.351 47.323 18.389 48.593 18.709 49.788L19.058 51.091C19.197 51.607 19.528 52.038 19.99 52.305C20.299 52.483 20.64 52.574 20.986 52.574C21.16 52.574 21.335 52.552 21.507 52.505L22.474 52.246C23.007 52.103 23.324 51.556 23.181 51.021C23.038 50.488 22.491 50.17 21.956 50.314L20.989 50.573L20.64 49.271C20.4 48.375 20.371 47.423 20.558 46.515L20.875 44.963C20.951 44.59 21.228 44.297 21.596 44.198L23.072 43.802C23.44 43.702 23.827 43.819 24.079 44.104L25.13 45.291C25.745 45.982 26.196 46.822 26.437 47.718L26.786 49.02L25.82 49.279C25.287 49.422 24.97 49.97 25.113 50.504C25.256 51.038 25.804 51.355 26.338 51.211L27.304 50.952C27.778 50.826 28.174 50.53 28.444 50.124L29.106 51.448C29.275 51.786 29.621 52 30 52H34C34.379 52 34.725 51.786 34.895 51.447L38.595 44.047C38.842 43.553 38.642 42.952 38.148 42.705C37.653 42.46 37.054 42.658 36.806 43.152L33.382 50H30.618L23.744 36.253C24.043 36.19 24.341 36.121 24.645 36.083C25.934 35.923 27.04 35.156 27.601 34.032C27.862 33.513 28 32.931 28 32.348V32.159C29.226 32.697 30.578 33 32 33C33.422 33 34.774 32.697 36 32.159V32.348C36 32.931 36.138 33.513 36.397 34.032C36.547 34.332 36.738 34.604 36.958 34.848L34.382 40H29.619L28.232 37.226C27.986 36.732 27.384 36.533 26.89 36.779C26.396 37.026 26.196 37.627 26.443 38.121L31.106 47.448C31.275 47.786 31.621 48 32 48C32.379 48 32.725 47.786 32.895 47.447L38.656 35.924C38.882 35.995 39.114 36.052 39.355 36.082C39.662 36.12 39.959 36.185 40.258 36.248L38.596 39.572C38.349 40.066 38.549 40.667 39.043 40.914C39.187 40.985 39.339 41.019 39.489 41.019C39.856 41.019 40.209 40.817 40.385 40.466L42.186 36.863L42.622 38.607C42.832 39.45 42.76 40.354 42.418 41.153L40.727 45.098C40.493 45.041 40.252 45 40 45C38.346 45 37 46.346 37 48C37 49.654 38.346 51 40 51C41.654 51 43 49.654 43 48C43 47.339 42.779 46.733 42.415 46.236L44.256 41.941C44.759 40.765 44.868 39.438 44.573 38.195C45.774 39.093 46.808 40.23 47.588 41.591C48.512 43.201 49 45.16 49 47.255V61C49 61.553 49.447 62 50 62C50.553 62 51 61.553 51 61V47.255C51 44.812 50.42 42.509 49.322 40.596ZM40 49C39.448 49 39 48.552 39 48C39 47.448 39.448 47 40 47C40.552 47 41 47.448 41 48C41 48.552 40.552 49 40 49ZM46.329 33.438C46.762 34.018 47 34.732 47 35.45C47 36.054 46.787 36.621 46.408 37.077C45.634 36.419 44.786 35.858 43.881 35.401L43.538 34.031C43.093 32.246 41.496 31 39.657 31H38V30.981C40.423 29.154 42 26.262 42 23V21.899C42.752 21.746 43.432 21.408 44.02 20.958C44.07 21.923 44.362 22.852 44.9 23.658C45.51 24.566 45.63 25.722 45.219 26.755L44.983 27.357C44.29 29.07 44.551 31.064 45.67 32.562L46.329 33.438ZM43 16C43.552 16 44 16.448 44 17C44 18.304 43.164 19.416 42 19.829V17C42 16.448 42.448 16 43 16ZM20 17C20 16.448 20.448 16 21 16C21.552 16 22 16.448 22 17V19.829C20.836 19.416 20 18.304 20 17ZM22.844 41.814L22.313 39.956C22.119 39.274 22.071 38.574 22.17 37.875L22.203 37.644L24.357 41.953C23.88 41.778 23.362 41.727 22.844 41.814ZM24.399 34.099C23.821 34.171 23.251 34.288 22.689 34.436C22.937 33.601 23.711 33 24.602 33H25.864C25.846 33.045 25.836 33.093 25.814 33.137C25.551 33.661 25.022 34.021 24.399 34.099ZM24 23V14.99C25.812 14.884 27.46 13.895 28.42 12.387C31.617 14.1 35.193 15 38.831 15H40V23C40 27.411 36.411 31 32 31C27.589 31 24 27.411 24 23ZM32 44.764L30.618 42H33.381L32 44.764ZM38.186 33.136C38.165 33.093 38.155 33.045 38.137 33H39.658C40.578 33 41.376 33.623 41.599 34.515L41.602 34.526C40.951 34.34 40.288 34.184 39.601 34.099C38.978 34.021 38.449 33.661 38.186 33.136Z" fill="black"/>
<path d="M38.707 18.707C39.098 18.316 39.098 17.684 38.707 17.293C37.215 15.801 34.785 15.801 33.293 17.293C32.902 17.684 32.902 18.316 33.293 18.707C33.684 19.098 34.316 19.098 34.707 18.707C35.42 17.994 36.58 17.994 37.293 18.707C37.488 18.902 37.744 19 38 19C38.256 19 38.512 18.902 38.707 18.707Z" fill="black"/>
<path d="M36 21C36.5523 21 37 20.5523 37 20C37 19.4477 36.5523 19 36 19C35.4477 19 35 19.4477 35 20C35 20.5523 35.4477 21 36 21Z" fill="black"/>
<path d="M29.293 18.707C29.488 18.902 29.744 19 30 19C30.256 19 30.512 18.902 30.707 18.707C31.098 18.316 31.098 17.684 30.707 17.293C29.215 15.801 26.785 15.801 25.293 17.293C24.902 17.684 24.902 18.316 25.293 18.707C25.684 19.098 26.316 19.098 26.707 18.707C27.42 17.994 28.58 17.994 29.293 18.707Z" fill="black"/>
<path d="M28 21C28.5523 21 29 20.5523 29 20C29 19.4477 28.5523 19 28 19C27.4477 19 27 19.4477 27 20C27 20.5523 27.4477 21 28 21Z" fill="black"/>
<path d="M30.293 23.707L31.293 24.707C31.488 24.902 31.744 25 32 25C32.256 25 32.512 24.902 32.707 24.707C33.098 24.316 33.098 23.684 32.707 23.293L32.232 22.818L32.954 21.472C33.216 20.986 33.033 20.379 32.546 20.118C32.058 19.855 31.452 20.04 31.192 20.526L30.119 22.526C29.91 22.916 29.981 23.396 30.293 23.707Z" fill="black"/>
<path d="M44 51C43.447 51 43 51.447 43 52V61C43 61.553 43.447 62 44 62C44.553 62 45 61.553 45 61V52C45 51.447 44.553 51 44 51Z" fill="black"/>
<path d="M20 54C19.447 54 19 54.447 19 55V61C19 61.553 19.447 62 20 62C20.553 62 21 61.553 21 61V55C21 54.447 20.553 54 20 54Z" fill="black"/>
<path d="M33.844 26.694C32.651 27.1 31.35 27.1 30.156 26.694C29.635 26.512 29.065 26.796 28.887 27.318C28.708 27.84 28.989 28.409 29.511 28.587C30.316 28.861 31.153 29 32 29C32.847 29 33.684 28.861 34.488 28.587C35.01 28.409 35.291 27.841 35.112 27.318C34.935 26.796 34.366 26.513 33.844 26.694Z" fill="black"/>
</svg>
