<svg width="64" height="64" viewBox="0 0 64 64" fill="none" xmlns="http://www.w3.org/2000/svg">
<path d="M45.8 34.6C45.447 34.336 45.083 34.091 44.709 33.866C44.237 33.58 43.621 33.733 43.337 34.207C43.052 34.68 43.204 35.295 43.678 35.58C43.995 35.77 44.303 35.978 44.601 36.201C47.355 38.266 49 41.556 49 45V52C49 52.552 49.447 53 50 53C50.553 53 51 52.552 51 52V45C51 40.93 49.056 37.042 45.8 34.6Z" fill="black"/>
<path d="M34.707 16.707C35.42 15.994 36.58 15.994 37.293 16.707C37.488 16.902 37.744 17 38 17C38.256 17 38.512 16.902 38.707 16.707C39.098 16.316 39.098 15.684 38.707 15.293C37.215 13.8 34.785 13.8 33.293 15.293C32.902 15.684 32.902 16.316 33.293 16.707C33.684 17.098 34.316 17.098 34.707 16.707Z" fill="black"/>
<path d="M36 19C36.5523 19 37 18.5523 37 18C37 17.4477 36.5523 17 36 17C35.4477 17 35 17.4477 35 18C35 18.5523 35.4477 19 36 19Z" fill="black"/>
<path d="M29.293 16.707C29.488 16.902 29.744 17 30 17C30.256 17 30.512 16.902 30.707 16.707C31.098 16.316 31.098 15.684 30.707 15.293C29.215 13.8 26.785 13.8 25.293 15.293C24.902 15.684 24.902 16.316 25.293 16.707C25.684 17.098 26.316 17.098 26.707 16.707C27.42 15.994 28.58 15.994 29.293 16.707Z" fill="black"/>
<path d="M28 19C28.5523 19 29 18.5523 29 18C29 17.4477 28.5523 17 28 17C27.4477 17 27 17.4477 27 18C27 18.5523 27.4477 19 28 19Z" fill="black"/>
<path d="M34.445 24.168C32.961 25.157 31.04 25.158 29.554 24.168C29.094 23.86 28.472 23.985 28.167 24.445C27.861 24.904 27.985 25.526 28.444 25.832C29.524 26.552 30.761 26.912 31.999 26.912C33.237 26.912 34.475 26.552 35.554 25.832C36.014 25.526 36.138 24.905 35.831 24.445C35.526 23.985 34.905 23.86 34.445 24.168Z" fill="black"/>
<path d="M30.293 21.707L31.293 22.707C31.488 22.902 31.744 23 32 23C32.256 23 32.512 22.902 32.707 22.707C33.098 22.316 33.098 21.684 32.707 21.293L32.232 20.818L32.954 19.472C33.215 18.986 33.033 18.379 32.545 18.118C32.058 17.857 31.452 18.039 31.191 18.527L30.118 20.527C29.91 20.916 29.981 21.395 30.293 21.707Z" fill="black"/>
<path d="M34.98 47.196L35.946 42.366L37.546 39.7C37.672 39.862 37.807 40.015 37.922 40.186L38.168 40.555C38.385 40.879 38.765 41.052 39.154 40.988C39.539 40.928 39.854 40.65 39.962 40.275L41.962 33.275C42.062 32.925 41.964 32.55 41.707 32.293L39.707 30.293C39.481 30.066 39.163 29.964 38.84 30.013C38.523 30.065 38.249 30.265 38.106 30.553L38 30.764V29C38 28.994 37.997 28.989 37.997 28.983C40.422 27.157 42 24.263 42 21V19.899C44.279 19.434 46 17.415 46 15C46 14.097 45.59 13.295 44.957 12.745C44.986 12.453 45.004 12.16 44.999 11.87C44.93 7.53 41.342 4 37 4C36.829 4 36.655 4.007 36.473 4.021C35.338 2.746 33.706 2 32 2C31.448 2 31 2.448 31 3C31 3.552 31.448 4 32 4C33.285 4 34.462 4.605 35.229 5.662C35.446 5.96 35.804 6.115 36.174 6.065C36.445 6.027 36.72 6 37 6C40.256 6 42.947 8.647 42.999 11.903C43 11.936 42.992 11.968 42.992 12.001C42.533 12.002 42.102 12.115 41.713 12.302C41.532 12.116 41.28 12 41 12C38.808 12 36.715 10.953 35.399 9.2L34.799 8.4C34.482 7.975 33.886 7.872 33.445 8.168L32.142 9.037C31.197 9.667 30.097 10 28.96 10H28.606C26.364 10 24.265 10.966 22.807 12.621C22.303 12.237 21.681 12 21 12C20.426 12 19.895 12.17 19.438 12.451C19.327 12.187 19.257 11.911 19.232 11.627L19.07 9.763C21.037 9.17 22.775 7.811 24.004 5.888C24.449 5.192 25.204 4.424 28.553 4.128C29.103 4.079 29.51 3.594 29.461 3.044C29.413 2.494 28.931 2.094 28.377 2.136C25.103 2.426 23.348 3.2 22.319 4.812C21.269 6.454 19.776 7.567 18.114 7.949L17.777 8.026C17.291 8.137 16.961 8.59 17.004 9.087L17.24 11.8C17.314 12.653 17.629 13.459 18.133 14.166C18.055 14.432 18 14.709 18 15C18 17.414 19.721 19.434 22 19.899V21C22 24.263 23.578 27.157 26.003 28.984C26.003 28.989 26 28.994 26 29V30.764L25.895 30.553C25.751 30.265 25.478 30.065 25.161 30.013C24.846 29.966 24.521 30.066 24.294 30.293L22.294 32.293C22.199 32.388 22.135 32.501 22.085 32.621C20.688 33.062 19.38 33.716 18.201 34.6C14.944 37.042 13 40.93 13 45V52C13 52.552 13.448 53 14 53C14.552 53 15 52.552 15 52V45C15 41.556 16.645 38.266 19.399 36.2C20.322 35.508 21.336 34.978 22.418 34.606L24.038 40.275C24.145 40.65 24.46 40.928 24.845 40.988C24.897 40.996 24.949 41 25 41C25.331 41 25.645 40.836 25.832 40.555L26.079 40.186C26.34 39.794 26.639 39.436 26.958 39.099L30 41.635V43C30 43.552 30.448 44 31 44C31.552 44 32 43.552 32 43V41.277L34.425 37.236C35.024 37.502 35.574 37.851 36.087 38.245L34.434 41H34C33.447 41 33 41.448 33 42C33 42.477 33.341 42.858 33.789 42.957L33.181 46H31C30.448 46 30 46.448 30 47C30 47.552 30.448 48 31 48H34C34.477 48 34.887 47.664 34.98 47.196ZM39.273 32.688L39.877 33.291L38.587 37.806C37.927 37.091 37.168 36.475 36.331 35.975C37.57 35.164 38.582 34.041 39.273 32.688ZM43 14C43.552 14 44 14.449 44 15C44 16.304 43.164 17.416 42 17.829V15C42 14.449 42.448 14 43 14ZM20 15C20 14.449 20.449 14 21 14C21.551 14 22 14.449 22 15V17.829C20.836 17.416 20 16.304 20 15ZM24 21V14.316C25.08 12.86 26.781 12 28.605 12H28.959C30.492 12 31.976 11.551 33.251 10.701L33.767 10.357L33.8 10.4C35.289 12.386 37.555 13.667 40 13.943V21C40 25.411 36.411 29 32 29C27.589 29 24 25.411 24 21ZM25.413 37.806L24.123 33.291L24.727 32.688C25.418 34.041 26.43 35.163 27.669 35.975C26.832 36.474 26.074 37.09 25.413 37.806ZM28.532 37.809C28.945 37.548 29.375 37.312 29.834 37.126L31.437 38.328L30.676 39.596L28.532 37.809ZM33.684 35.051C33.457 35.127 33.266 35.28 33.143 35.485L32.472 36.603L30.6 35.2C30.514 35.135 30.418 35.085 30.316 35.051C29.446 34.761 28.664 34.302 28 33.71V30.159C29.226 30.697 30.578 31 32 31C33.422 31 34.774 30.697 36 30.159V33.71C35.336 34.303 34.554 34.761 33.684 35.051Z" fill="black"/>
<path d="M36.229 57.007L39.007 54.299C39.279 54.033 39.377 53.636 39.26 53.274C39.142 52.912 38.829 52.648 38.452 52.593L34.613 52.035L32.897 48.556C32.729 48.216 32.381 48 32 48C31.619 48 31.272 48.216 31.104 48.558L29.387 52.037L25.549 52.595C25.172 52.65 24.859 52.914 24.741 53.276C24.623 53.638 24.721 54.035 24.994 54.301L27.772 57.009L27.116 60.833C27.052 61.208 27.206 61.587 27.514 61.811C27.823 62.035 28.23 62.064 28.567 61.887L32 60.08L35.435 61.885C35.58 61.962 35.74 62 35.899 62C36.106 62 36.313 61.936 36.487 61.809C36.795 61.585 36.949 61.206 36.884 60.831L36.229 57.007ZM34.456 55.942C34.221 56.172 34.113 56.503 34.169 56.827L34.571 59.172L32.465 58.065C32.174 57.912 31.825 57.912 31.534 58.065L29.429 59.172L29.831 56.827C29.886 56.503 29.779 56.172 29.543 55.942L27.839 54.282L30.193 53.94C30.519 53.893 30.8 53.688 30.946 53.393L32 51.26L33.053 53.393C33.199 53.688 33.48 53.893 33.806 53.94L36.16 54.282L34.456 55.942Z" fill="black"/>
<path d="M49.4 54.448L46.652 54.049L45.422 51.558C45.33 51.37 45.177 51.24 45 51.155V46C45 45.448 44.553 45 44 45C43.447 45 43 45.448 43 46V52.832L42.399 54.049L39.65 54.448C39.273 54.503 38.961 54.767 38.842 55.129C38.725 55.491 38.822 55.889 39.095 56.154L41.085 58.093L40.615 60.831C40.551 61.206 40.705 61.585 41.012 61.809C41.188 61.936 41.395 62 41.602 62C41.761 62 41.921 61.962 42.068 61.885L44.526 60.592L46.986 61.885C47.322 62.062 47.731 62.033 48.039 61.809C48.347 61.585 48.501 61.206 48.436 60.831L47.966 58.093L49.955 56.154C50.227 55.888 50.325 55.491 50.208 55.129C50.09 54.767 49.777 54.502 49.4 54.448ZM46.193 57.028C45.958 57.257 45.85 57.589 45.906 57.913L46.122 59.172L44.99 58.577C44.844 58.5 44.685 58.462 44.525 58.462C44.365 58.462 44.206 58.5 44.059 58.577L42.929 59.172L43.145 57.913C43.201 57.589 43.093 57.258 42.858 57.028L41.943 56.136L43.207 55.952C43.533 55.905 43.814 55.7 43.96 55.405L44.525 54.259L45.091 55.405C45.237 55.7 45.518 55.905 45.844 55.952L47.108 56.136L46.193 57.028Z" fill="black"/>
<path d="M60.951 56.365C60.833 56.003 60.52 55.739 60.143 55.684L58.121 55.39L57.217 53.557C57.049 53.216 56.701 53 56.32 53C55.939 53 55.591 53.216 55.424 53.557L54.519 55.39L52.497 55.684C52.12 55.739 51.808 56.003 51.689 56.365C51.572 56.727 51.669 57.124 51.942 57.39L53.406 58.816L53.061 60.831C52.997 61.206 53.151 61.585 53.458 61.809C53.768 62.033 54.176 62.062 54.512 61.885L56.321 60.934L58.13 61.885C58.275 61.962 58.436 62 58.595 62C58.802 62 59.009 61.936 59.183 61.809C59.491 61.585 59.645 61.206 59.58 60.831L59.234 58.816L60.698 57.39C60.971 57.124 61.068 56.727 60.951 56.365ZM57.462 57.751C57.227 57.981 57.119 58.312 57.175 58.636L57.267 59.172L56.787 58.919C56.494 58.766 56.148 58.766 55.855 58.919L55.374 59.172L55.466 58.636C55.522 58.311 55.414 57.981 55.179 57.751L54.789 57.372L55.327 57.294C55.653 57.247 55.934 57.042 56.08 56.747L56.321 56.26L56.561 56.747C56.707 57.042 56.988 57.247 57.314 57.294L57.852 57.372L57.462 57.751Z" fill="black"/>
<path d="M24.35 54.448L21.6 54.049L21 52.832V46C21 45.448 20.552 45 20 45C19.448 45 19 45.448 19 46V51.155C18.823 51.24 18.669 51.37 18.577 51.557L17.348 54.048L14.599 54.447C14.222 54.502 13.909 54.766 13.791 55.128C13.673 55.49 13.771 55.887 14.044 56.153L16.033 58.092L15.563 60.83C15.499 61.205 15.653 61.584 15.961 61.808C16.27 62.032 16.677 62.061 17.014 61.884L19.473 60.591L21.932 61.884C22.08 61.962 22.239 62 22.398 62C22.605 62 22.812 61.936 22.986 61.809C23.294 61.585 23.448 61.206 23.384 60.831L22.914 58.093L24.903 56.154C25.176 55.888 25.274 55.491 25.156 55.129C25.04 54.767 24.727 54.502 24.35 54.448ZM21.142 57.027C20.906 57.257 20.799 57.588 20.854 57.912L21.07 59.171L19.939 58.576C19.648 58.423 19.299 58.423 19.008 58.576L17.877 59.171L18.093 57.912C18.148 57.588 18.041 57.257 17.805 57.027L16.89 56.135L18.155 55.951C18.481 55.904 18.762 55.699 18.908 55.404L19.473 54.258L20.039 55.404C20.185 55.699 20.466 55.904 20.791 55.951L22.056 56.135L21.142 57.027Z" fill="black"/>
<path d="M11.504 55.684L9.481 55.39L8.577 53.557C8.239 52.874 7.121 52.874 6.783 53.557L5.879 55.39L3.856 55.684C3.48 55.739 3.167 56.003 3.049 56.365C2.931 56.727 3.029 57.124 3.302 57.39L4.766 58.816L4.42 60.831C4.356 61.206 4.51 61.585 4.818 61.809C4.992 61.936 5.199 62 5.406 62C5.565 62 5.725 61.962 5.871 61.885L7.68 60.934L9.489 61.885C9.827 62.062 10.234 62.033 10.542 61.809C10.85 61.585 11.004 61.206 10.94 60.831L10.594 58.816L12.057 57.39C12.33 57.124 12.428 56.727 12.31 56.365C12.194 56.003 11.881 55.739 11.504 55.684ZM8.822 57.751C8.586 57.981 8.478 58.312 8.534 58.636L8.626 59.172L8.145 58.919C7.854 58.766 7.505 58.766 7.214 58.919L6.733 59.172L6.825 58.636C6.88 58.312 6.773 57.981 6.537 57.751L6.148 57.372L6.686 57.294C7.012 57.247 7.293 57.042 7.439 56.747L7.679 56.26L7.919 56.747C8.065 57.042 8.346 57.247 8.672 57.294L9.21 57.372L8.822 57.751Z" fill="black"/>
</svg>
