<svg width="64" height="64" viewBox="0 0 64 64" fill="none" xmlns="http://www.w3.org/2000/svg">
<path d="M57 16C59.757 16 62 13.757 62 11V7C62 4.243 59.757 2 57 2H56C55.448 2 55 2.448 55 3C55 3.552 55.448 4 56 4H57C58.654 4 60 5.346 60 7V11C60 12.654 58.654 14 57 14H47C46.448 14 46 14.448 46 15V18.178C45.986 18.181 45.972 18.185 45.958 18.187L42.768 14.359C42.578 14.132 42.297 14 42 14H39C37.346 14 36 12.654 36 11V7C36 5.346 37.346 4 39 4H52C52.552 4 53 3.552 53 3C53 2.448 52.552 2 52 2H39C36.243 2 34 4.243 34 7V11C34 13.757 36.243 16 39 16H41.532L43.872 18.808C43.2 19.082 42.55 19.418 41.935 19.829C41.476 20.136 41.352 20.757 41.659 21.216C41.965 21.675 42.587 21.797 43.046 21.492C44.684 20.397 46.61 19.886 48.604 20.018C53.261 20.325 56.914 24.336 56.993 29.182C56.68 29.072 56.35 29 56 29C56 27.897 55.103 27 54 27C52.333 27 50.765 26.351 49.586 25.172L48.707 24.293C48.316 23.902 47.684 23.902 47.293 24.293L46.414 25.172C45.235 26.351 43.667 27 42 27C40.897 27 40 27.897 40 29C39.648 29 39.314 29.072 39 29.184V29C39 27.227 39.516 25.513 40.493 24.044C40.799 23.584 40.674 22.963 40.214 22.658C39.753 22.351 39.133 22.477 38.828 22.937C37.632 24.734 37 26.831 37 29V29.56C37 30.964 36.589 32.317 35.808 33.476C35.279 34.269 35 35.197 35 36.16C35 38.828 37.171 41 39.84 41H42.726C42.853 41.112 42.983 41.219 43.117 41.323L41.552 42.105C41.531 42.115 41.518 42.134 41.499 42.146C39.08 42.557 36.916 43.96 35.543 46H30C29.622 46 29.251 46.079 28.901 46.221C27.319 44.842 25.258 44 23 44V43.249C24.649 41.928 25.753 39.959 25.95 37.711C27.23 36.156 28 34.166 28 32V30.237C28 26.082 25.007 22.569 21.038 22.066C20.004 21.936 18.977 22.018 18 22.272V20H24C26.757 20 29 17.757 29 15V7C29 4.243 26.757 2 24 2H13C12.448 2 12 2.448 12 3C12 3.552 12.448 4 13 4H24C25.654 4 27 5.346 27 7V15C27 16.654 25.654 18 24 18H17C16.448 18 16 18.448 16 19V21.586L12.707 18.293C12.52 18.105 12.265 18 12 18H7C5.346 18 4 16.654 4 15V7C4 5.346 5.346 4 7 4H9C9.552 4 10 3.552 10 3C10 2.448 9.552 2 9 2H7C4.243 2 2 4.243 2 7V15C2 17.757 4.243 20 7 20H11.586L15.199 23.613C14.945 23.804 14.701 24.008 14.469 24.229C13.795 24.014 13.103 23.95 12.403 24.038C9.893 24.352 8 26.593 8 29.251C8 29.803 8.448 30.251 9 30.251C9.552 30.251 10 29.803 10 29.251C10 27.626 11.165 26.208 12.651 26.022C13.206 25.953 13.756 26.049 14.292 26.307C14.698 26.502 15.184 26.402 15.48 26.063C16.8 24.549 18.782 23.792 20.785 24.05C23.758 24.427 26 27.087 26 30.237V32C26 35.86 22.86 39 19 39H17C13.476 39 10.49 36.367 10.054 32.876C9.986 32.327 9.48 31.939 8.938 32.007C8.39 32.075 8.001 32.575 8.069 33.123C8.286 34.862 8.999 36.431 10.049 37.707C10.246 39.957 11.35 41.926 12.999 43.248V44C9.865 44 6.979 45.646 5.345 48.303C3.404 48.99 2 50.826 2 53V61C2 61.552 2.448 62 3 62C3.552 62 4 61.552 4 61V53C4 51.346 5.346 50 7 50H17C18.654 50 20 51.346 20 53V61C20 61.552 20.448 62 21 62C21.552 62 22 61.552 22 61V53C22 50.797 20.558 48.943 18.575 48.279C20.002 48.173 21.406 47.696 22.6 46.8C22.852 46.612 23 46.315 23 46C26.86 46 30 49.14 30 53V61C30 61.552 30.448 62 31 62C31.552 62 32 61.552 32 61V58H60V61C60 61.552 60.448 62 61 62C61.552 62 62 61.552 62 61V51C62 47.835 60.305 44.867 57.576 43.255C57.1 42.974 56.488 43.131 56.206 43.607C55.924 44.083 56.082 44.696 56.558 44.977C58.681 46.231 60 48.539 60 51V56H57V53C57 52.448 56.552 52 56 52C55.448 52 55 52.448 55 53V56H46.899C46.5 54.044 44.956 52.5 43 52.101V49C43 47.346 41.654 46 40 46H38.13C39.036 45.12 40.165 44.486 41.4 44.194L43.071 48.372C43.175 48.631 43.383 48.836 43.644 48.935C43.759 48.979 43.88 49 44 49C44.154 49 44.307 48.964 44.447 48.895L48 47.118L51.553 48.894C51.693 48.965 51.846 49 52 49C52.12 49 52.241 48.979 52.355 48.935C52.616 48.836 52.824 48.631 52.928 48.372L54.928 43.372C55.121 42.889 54.912 42.339 54.447 42.106L52.882 41.324C53.016 41.22 53.146 41.113 53.273 41.001H56.159C58.827 41.001 60.999 38.83 60.999 36.161C60.999 35.198 60.72 34.269 60.188 33.472C59.411 32.317 59 30.964 59 29.56V29.34C59 23.373 54.491 18.402 48.735 18.022C48.488 18.006 48.244 18.004 48 18.004V16H57ZM19 41C20.526 41 21.963 40.615 23.224 39.942C22.198 41.774 20.244 43 18 43C15.753 43 13.797 41.77 12.772 39.934C14.039 40.611 15.478 41 17 41H19ZM13.4 46.8C14.145 47.359 14.974 47.749 15.837 48H8.117C9.407 46.741 11.148 46 13 46C13 46.315 13.148 46.611 13.4 46.8ZM15 45.474V44.42C15.927 44.793 16.939 45 18 45C19.061 45 20.073 44.793 21 44.419V45.473C19.175 46.61 16.825 46.61 15 45.474ZM44.829 56H43V54.171C43.851 54.473 44.527 55.149 44.829 56ZM41 49V56H32V53C32 51.151 31.438 49.431 30.478 48H40C40.551 48 41 48.449 41 49ZM57 32C57 32.739 56.597 33.385 56 33.731V31C56.551 31 57 31.449 57 32ZM48 44.586L46.203 42.789C46.782 42.923 47.381 43 48 43C48.619 43 49.218 42.923 49.797 42.789L48 44.586ZM42 29C44.202 29 46.271 28.143 47.828 26.586L48 26.414L48.172 26.586C49.729 28.143 51.798 29 54 29V35C54 38.309 51.309 41 48 41C44.691 41 42 38.309 42 35V29ZM40 31V33.731C39.403 33.385 39 32.738 39 32C39 31.449 39.449 31 40 31ZM37 36.16C37 35.593 37.164 35.048 37.469 34.589C37.548 34.472 37.605 34.344 37.678 34.224C38.226 35.04 39.069 35.633 40.05 35.874C40.173 37.004 40.537 38.061 41.082 39H39.84C38.274 39 37 37.726 37 36.16ZM44.525 46.62L43.27 43.483L43.803 43.217L46.312 45.726L44.525 46.62ZM51.475 46.62L49.688 45.726L52.197 43.217L52.73 43.483L51.475 46.62ZM56.16 39H54.917C55.463 38.06 55.826 37.004 55.949 35.874C56.93 35.633 57.773 35.04 58.321 34.224C58.393 34.342 58.449 34.469 58.527 34.584C58.836 35.048 59 35.593 59 36.16C59 37.726 57.726 39 56.16 39Z" fill="black"/>
<path d="M40 8H43C43.552 8 44 7.552 44 7C44 6.448 43.552 6 43 6H40C39.448 6 39 6.448 39 7C39 7.552 39.448 8 40 8Z" fill="black"/>
<path d="M51 7C51 6.448 50.552 6 50 6H47C46.448 6 46 6.448 46 7C46 7.552 46.448 8 47 8H50C50.552 8 51 7.552 51 7Z" fill="black"/>
<path d="M54 8H57C57.552 8 58 7.552 58 7C58 6.448 57.552 6 57 6H54C53.448 6 53 6.448 53 7C53 7.552 53.448 8 54 8Z" fill="black"/>
<path d="M40 12H47C47.552 12 48 11.552 48 11C48 10.448 47.552 10 47 10H40C39.448 10 39 10.448 39 11C39 11.552 39.448 12 40 12Z" fill="black"/>
<path d="M51 12H54C54.552 12 55 11.552 55 11C55 10.448 54.552 10 54 10H51C50.448 10 50 10.448 50 11C50 11.552 50.448 12 51 12Z" fill="black"/>
<path d="M48 52C48.5523 52 49 51.5523 49 51C49 50.4477 48.5523 50 48 50C47.4477 50 47 50.4477 47 51C47 51.5523 47.4477 52 48 52Z" fill="black"/>
<path d="M48 56C48.5523 56 49 55.5523 49 55C49 54.4477 48.5523 54 48 54C47.4477 54 47 54.4477 47 55C47 55.5523 47.4477 56 48 56Z" fill="black"/>
<path d="M45 34C45.5523 34 46 33.5523 46 33C46 32.4477 45.5523 32 45 32C44.4477 32 44 32.4477 44 33C44 33.5523 44.4477 34 45 34Z" fill="black"/>
<path d="M51 34C51.5523 34 52 33.5523 52 33C52 32.4477 51.5523 32 51 32C50.4477 32 50 32.4477 50 33C50 33.5523 50.4477 34 51 34Z" fill="black"/>
<path d="M49.293 37.293C48.58 38.006 47.42 38.006 46.707 37.293C46.316 36.902 45.684 36.902 45.293 37.293C44.902 37.684 44.902 38.316 45.293 38.707C46.039 39.454 47.02 39.827 48 39.827C48.98 39.827 49.961 39.454 50.707 38.707C51.098 38.316 51.098 37.684 50.707 37.293C50.316 36.902 49.684 36.902 49.293 37.293Z" fill="black"/>
<path d="M50.707 30.707C50.869 30.546 51.131 30.546 51.293 30.707C51.488 30.902 51.744 31 52 31C52.256 31 52.512 30.902 52.707 30.707C53.098 30.316 53.098 29.684 52.707 29.293C51.766 28.352 50.234 28.352 49.293 29.293C48.902 29.684 48.902 30.316 49.293 30.707C49.684 31.098 50.316 31.098 50.707 30.707Z" fill="black"/>
<path d="M44.707 30.707C44.869 30.546 45.131 30.546 45.293 30.707C45.488 30.902 45.744 31 46 31C46.256 31 46.512 30.902 46.707 30.707C47.098 30.316 47.098 29.684 46.707 29.293C45.766 28.352 44.234 28.352 43.293 29.293C42.902 29.684 42.902 30.316 43.293 30.707C43.684 31.098 44.316 31.098 44.707 30.707Z" fill="black"/>
<path d="M46.793 35.707L47.293 36.207C47.488 36.402 47.744 36.5 48 36.5C48.256 36.5 48.512 36.402 48.707 36.207C49.094 35.82 49.098 35.194 48.717 34.803L48.895 34.448C49.142 33.954 48.942 33.353 48.448 33.106C47.952 32.858 47.353 33.06 47.106 33.553L46.606 34.553C46.413 34.938 46.489 35.403 46.793 35.707Z" fill="black"/>
<path d="M51 52C50.448 52 50 52.448 50 53C50 53.552 50.448 54 51 54H53C53.552 54 54 53.552 54 53C54 52.448 53.552 52 53 52H51Z" fill="black"/>
<path d="M35 53C35.5523 53 36 52.5523 36 52C36 51.4477 35.5523 51 35 51C34.4477 51 34 51.4477 34 52C34 52.5523 34.4477 53 35 53Z" fill="black"/>
<path d="M8.85303 6.5V7.212C7.97203 7.599 7.35303 8.478 7.35303 9.5C7.35303 10.317 7.74703 11.043 8.35403 11.5H8.35303C7.80103 11.5 7.35303 11.948 7.35303 12.5C7.35303 13.523 7.97203 14.401 8.85303 14.788V15.5C8.85303 16.052 9.30103 16.5 9.85303 16.5C10.405 16.5 10.853 16.052 10.853 15.5V14.788C11.734 14.401 12.353 13.522 12.353 12.5C12.353 11.683 11.959 10.957 11.352 10.5C11.904 10.5 12.353 10.052 12.353 9.5C12.353 8.477 11.734 7.599 10.853 7.212V6.5C10.853 5.948 10.405 5.5 9.85303 5.5C9.30103 5.5 8.85303 5.948 8.85303 6.5ZM9.35303 12.5C9.35303 12.275 9.27903 12.067 9.15303 11.9C9.37503 11.965 9.61003 12 9.85303 12C10.129 12 10.353 12.224 10.353 12.5C10.353 12.776 10.129 13 9.85303 13C9.57703 13 9.35303 12.776 9.35303 12.5ZM10.353 9.5C10.353 9.725 10.427 9.933 10.553 10.1C10.331 10.035 10.096 10 9.85303 10C9.57703 10 9.35303 9.776 9.35303 9.5C9.35303 9.224 9.57703 9 9.85303 9C10.129 9 10.353 9.224 10.353 9.5Z" fill="black"/>
<path d="M15 8H18C18.552 8 19 7.552 19 7C19 6.448 18.552 6 18 6H15C14.448 6 14 6.448 14 7C14 7.552 14.448 8 15 8Z" fill="black"/>
<path d="M24 8C24.552 8 25 7.552 25 7C25 6.448 24.552 6 24 6H21C20.448 6 20 6.448 20 7C20 7.552 20.448 8 21 8H24Z" fill="black"/>
<path d="M15 12H24C24.552 12 25 11.552 25 11C25 10.448 24.552 10 24 10H15C14.448 10 14 10.448 14 11C14 11.552 14.448 12 15 12Z" fill="black"/>
<path d="M15 16H19C19.552 16 20 15.552 20 15C20 14.448 19.552 14 19 14H15C14.448 14 14 14.448 14 15C14 15.552 14.448 16 15 16Z" fill="black"/>
<path d="M23 16C23.5523 16 24 15.5523 24 15C24 14.4477 23.5523 14 23 14C22.4477 14 22 14.4477 22 15C22 15.5523 22.4477 16 23 16Z" fill="black"/>
<path d="M26 54C25.448 54 25 54.448 25 55V61C25 61.552 25.448 62 26 62C26.552 62 27 61.552 27 61V55C27 54.448 26.552 54 26 54Z" fill="black"/>
</svg>
