<svg width="64" height="64" viewBox="0 0 64 64" fill="none" xmlns="http://www.w3.org/2000/svg">
<path d="M61.414 49.757L54.343 42.686C53.842 42.185 53.096 42.024 52.429 42.187L49.506 39.264C51.078 36.892 52 34.053 52 31C52 27.077 50.474 23.512 48 20.837V17C48 14.243 45.757 12 43 12H7C4.243 12 2 14.243 2 17V29.61C2 30.162 2.448 30.61 3 30.61C3.552 30.61 4 30.162 4 29.61V17C4 15.346 5.346 14 7 14H43C44.654 14 46 15.346 46 17V19.029C43.49 17.136 40.379 16 37 16C33.75 16 30.647 17.037 28.027 18.999C27.585 19.33 27.495 19.957 27.826 20.399C28.157 20.841 28.783 20.931 29.226 20.6C31.497 18.899 34.185 18 37 18C44.168 18 50 23.832 50 31C50 38.168 44.168 44 37 44C29.832 44 24 38.168 24 31C24 28.185 24.899 25.497 26.599 23.227C26.93 22.785 26.84 22.158 26.398 21.827C25.954 21.496 25.329 21.586 24.998 22.028C23.037 24.647 22 27.75 22 31C22 39.271 28.729 46 37 46C40.053 46 42.892 45.078 45.264 43.506L46 44.242V45C46 46.654 44.654 48 43 48H7C5.346 48 4 46.654 4 45V33.829C4 33.277 3.552 32.829 3 32.829C2.448 32.829 2 33.277 2 33.829V45C2 47.757 4.243 50 7 50H15.941C15.676 52.342 14.482 54.512 12.637 56H11C8.243 56 6 58.243 6 61C6 61.552 6.448 62 7 62H27.78C28.332 62 28.78 61.552 28.78 61C28.78 60.448 28.332 60 27.78 60H8.171C8.584 58.836 9.696 58 11 58H39C40.304 58 41.416 58.836 41.829 60H31.659C31.107 60 30.659 60.448 30.659 61C30.659 61.552 31.107 62 31.659 62H43C43.552 62 44 61.552 44 61C44 58.243 41.757 56 39 56H37.364C35.518 54.512 34.325 52.342 34.06 50H43C45.375 50 47.359 48.332 47.866 46.109L48.174 46.417C48.13 46.583 48.1 46.753 48.1 46.929C48.1 47.464 48.308 47.966 48.686 48.344L55.757 55.415C56.135 55.792 56.637 56 57.172 56C57.706 56 58.208 55.792 58.586 55.414L61.414 52.586C61.792 52.208 62 51.706 62 51.172C62 50.637 61.792 50.135 61.414 49.757ZM34.519 56H15.481C16.877 54.302 17.75 52.206 17.954 50H32.047C32.25 52.206 33.123 54.302 34.519 56ZM48.275 40.861L50.808 43.394L49.394 44.808L46.861 42.275C47.363 41.835 47.835 41.363 48.275 40.861ZM57.171 54L50.1 46.929L52.928 44.101L60 51.172L57.171 54Z" fill="black"/>
<path d="M37 22C40.207 22 43.196 23.734 44.801 26.526C45.076 27.005 45.688 27.17 46.166 26.894C46.645 26.619 46.81 26.008 46.534 25.529C44.574 22.119 40.921 20 37 20C30.935 20 26 24.935 26 31C26 37.065 30.935 42 37 42C43.065 42 48 37.065 48 31C48 30.6 47.973 30.177 47.918 29.708C47.853 29.16 47.35 28.762 46.808 28.832C46.259 28.896 45.867 29.394 45.932 29.942C45.978 30.333 46 30.679 46 31C46 33.222 45.186 35.255 43.846 36.827C43.42 35.07 42.067 33.687 40.333 33.204C40.753 32.571 41 31.814 41 31V28C41 25.794 39.206 24 37 24C34.794 24 33 25.794 33 28V31C33 31.814 33.247 32.571 33.667 33.203C31.933 33.687 30.58 35.069 30.154 36.826C28.814 35.255 28 33.222 28 31C28 26.038 32.038 22 37 22ZM35 31V30H39V31C39 32.103 38.103 33 37 33C35.897 33 35 32.103 35 31ZM36.68 35H37.319L37.929 38.657L37 39.586L36.071 38.657L36.68 35ZM42 38V38.478C41.339 38.922 40.614 39.275 39.845 39.532C39.974 39.327 40.027 39.08 39.987 38.836L39.354 35.036C40.839 35.213 42 36.467 42 38ZM37 26C38.103 26 39 26.897 39 28H35C35 26.897 35.897 26 37 26ZM34.647 35.036L34.014 38.836C33.973 39.08 34.026 39.327 34.156 39.532C33.387 39.275 32.662 38.922 32.001 38.478V38C32 36.467 33.161 35.213 34.647 35.036Z" fill="black"/>
<path d="M20 19C20 18.448 19.552 18 19 18H7C6.448 18 6 18.448 6 19V23C6 23.552 6.448 24 7 24H19C19.552 24 20 23.552 20 23V19ZM18 22H8V20H18V22Z" fill="black"/>
<path d="M19 26H12C11.448 26 11 26.448 11 27C11 27.552 11.448 28 12 28H19C19.552 28 20 27.552 20 27C20 26.448 19.552 26 19 26Z" fill="black"/>
<path d="M7 32H19C19.552 32 20 31.552 20 31C20 30.448 19.552 30 19 30H7C6.448 30 6 30.448 6 31C6 31.552 6.448 32 7 32Z" fill="black"/>
<path d="M7 36H19C19.552 36 20 35.552 20 35C20 34.448 19.552 34 19 34H7C6.448 34 6 34.448 6 35C6 35.552 6.448 36 7 36Z" fill="black"/>
<path d="M7 40H14C14.552 40 15 39.552 15 39C15 38.448 14.552 38 14 38H7C6.448 38 6 38.448 6 39C6 39.552 6.448 40 7 40Z" fill="black"/>
</svg>
