<svg width="64" height="64" viewBox="0 0 64 64" fill="none" xmlns="http://www.w3.org/2000/svg">
<path d="M61 52.381H59V13C58.9984 11.6744 58.4711 10.4036 57.5338 9.46622C56.5964 8.52888 55.3256 8.00159 54 8H10C8.6744 8.00159 7.40356 8.52888 6.46622 9.46622C5.52888 10.4036 5.00159 11.6744 5 13V33C5 33.2652 5.10536 33.5196 5.29289 33.7071C5.48043 33.8946 5.73478 34 6 34C6.26522 34 6.51957 33.8946 6.70711 33.7071C6.89464 33.5196 7 33.2652 7 33V13C7 12.2044 7.31607 11.4413 7.87868 10.8787C8.44129 10.3161 9.20435 10 10 10H54C54.7956 10 55.5587 10.3161 56.1213 10.8787C56.6839 11.4413 57 12.2044 57 13V52.381H39C38.7348 52.381 38.4804 52.4864 38.2929 52.6739C38.1054 52.8614 38 53.1158 38 53.381V55H26V53.381C26 53.1158 25.8946 52.8614 25.7071 52.6739C25.5196 52.4864 25.2652 52.381 25 52.381H7V37C7 36.7348 6.89464 36.4804 6.70711 36.2929C6.51957 36.1054 6.26522 36 6 36C5.73478 36 5.48043 36.1054 5.29289 36.2929C5.10536 36.4804 5 36.7348 5 37V52.381H3C2.73478 52.381 2.48043 52.4864 2.29289 52.6739C2.10536 52.8614 2 53.1158 2 53.381V55.286C2.04069 57.1037 2.80035 58.8311 4.11249 60.0896C5.42463 61.3481 7.18221 62.0351 9 62H17C17.2652 62 17.5196 61.8946 17.7071 61.7071C17.8946 61.5196 18 61.2652 18 61C18 60.7348 17.8946 60.4804 17.7071 60.2929C17.5196 60.1054 17.2652 60 17 60H9C7.7125 60.0356 6.46338 59.5594 5.52622 58.6759C4.58906 57.7923 4.04026 56.5734 4 55.286V54.381H24V56C24 56.2652 24.1054 56.5196 24.2929 56.7071C24.4804 56.8946 24.7348 57 25 57H39C39.2652 57 39.5196 56.8946 39.7071 56.7071C39.8946 56.5196 40 56.2652 40 56V54.381H60V55.286C59.9597 56.5734 59.4109 57.7923 58.4738 58.6759C57.5366 59.5594 56.2875 60.0356 55 60H21C20.7348 60 20.4804 60.1054 20.2929 60.2929C20.1054 60.4804 20 60.7348 20 61C20 61.2652 20.1054 61.5196 20.2929 61.7071C20.4804 61.8946 20.7348 62 21 62H55C56.8178 62.0351 58.5754 61.3481 59.8875 60.0896C61.1996 58.8311 61.9593 57.1037 62 55.286V53.381C62 53.1158 61.8946 52.8614 61.7071 52.6739C61.5196 52.4864 61.2652 52.381 61 52.381Z" fill="black"/>
<path d="M52 57.19C52.0094 56.9905 51.9588 56.7927 51.8548 56.6222C51.7508 56.4517 51.5981 56.3163 51.4164 56.2333C51.2347 56.1504 51.0323 56.1237 50.8353 56.1568C50.6383 56.19 50.4558 56.2813 50.3112 56.4191C50.1666 56.5569 50.0666 56.7348 50.0241 56.93C49.9815 57.1251 49.9984 57.3286 50.0725 57.514C50.1466 57.6995 50.2745 57.8586 50.4399 57.9707C50.6052 58.0828 50.8003 58.1428 51 58.143C51.259 58.1492 51.5098 58.0523 51.6973 57.8735C51.8848 57.6948 51.9937 57.449 52 57.19Z" fill="black"/>
<path d="M56 57.19C56.0094 56.9905 55.9588 56.7927 55.8548 56.6222C55.7508 56.4517 55.5981 56.3163 55.4164 56.2333C55.2347 56.1504 55.0323 56.1237 54.8353 56.1568C54.6383 56.19 54.4558 56.2813 54.3112 56.4191C54.1666 56.5569 54.0666 56.7348 54.0241 56.93C53.9815 57.1251 53.9984 57.3286 54.0725 57.514C54.1466 57.6995 54.2745 57.8586 54.4399 57.9707C54.6052 58.0828 54.8003 58.1428 55 58.143C55.259 58.1492 55.5098 58.0523 55.6973 57.8735C55.8848 57.6948 55.9937 57.449 56 57.19Z" fill="black"/>
<path d="M7.99999 57.19C7.9904 57.3895 8.0408 57.5874 8.14469 57.758C8.24859 57.9287 8.4012 58.0643 8.58288 58.1474C8.76455 58.2305 8.96695 58.2573 9.16399 58.2243C9.36102 58.1913 9.54366 58.1 9.68835 57.9623C9.83305 57.8245 9.93316 57.6466 9.9758 57.4514C10.0184 57.2562 10.0016 57.0528 9.92757 56.8672C9.8535 56.6817 9.72555 56.5226 9.56023 56.4104C9.3949 56.2983 9.19977 56.2382 8.99999 56.238C8.74127 56.2321 8.49075 56.329 8.30331 56.5074C8.11588 56.6858 8.00681 56.9313 7.99999 57.19Z" fill="black"/>
<path d="M12 57.19C11.9904 57.3895 12.0408 57.5874 12.1447 57.758C12.2486 57.9287 12.4012 58.0643 12.5829 58.1474C12.7646 58.2305 12.967 58.2573 13.164 58.2243C13.361 58.1913 13.5437 58.1 13.6884 57.9623C13.833 57.8245 13.9332 57.6466 13.9758 57.4514C14.0184 57.2562 14.0016 57.0528 13.9276 56.8672C13.8535 56.6817 13.7256 56.5226 13.5602 56.4104C13.3949 56.2983 13.1998 56.2382 13 56.238C12.7413 56.2321 12.4907 56.329 12.3033 56.5074C12.1159 56.6858 12.0068 56.9313 12 57.19Z" fill="black"/>
<path d="M54 20C54.2652 20 54.5196 19.8946 54.7071 19.7071C54.8946 19.5196 55 19.2652 55 19V15C55 14.2044 54.6839 13.4413 54.1213 12.8787C53.5587 12.3161 52.7956 12 52 12H12C11.2044 12 10.4413 12.3161 9.87868 12.8787C9.31607 13.4413 9 14.2044 9 15V47C9 47.7956 9.31607 48.5587 9.87868 49.1213C10.4413 49.6839 11.2044 50 12 50H52C52.7956 50 53.5587 49.6839 54.1213 49.1213C54.6839 48.5587 55 47.7956 55 47V23C55 22.7348 54.8946 22.4804 54.7071 22.2929C54.5196 22.1054 54.2652 22 54 22C53.7348 22 53.4804 22.1054 53.2929 22.2929C53.1054 22.4804 53 22.7348 53 23V28H51.732L51.964 27.866C52.1937 27.7334 52.3613 27.515 52.4299 27.2588C52.4985 27.0026 52.4626 26.7297 52.33 26.5L46.33 16.107C46.1974 15.8773 45.979 15.7097 45.7228 15.6411C45.4666 15.5725 45.1937 15.6084 44.964 15.741L42.977 16.888C42.9521 16.6456 42.8387 16.421 42.6584 16.2571C42.4781 16.0932 42.2436 16.0017 42 16H36C35.7348 16 35.4804 16.1054 35.2929 16.2929C35.1054 16.4804 35 16.7348 35 17V18H30C29.7348 18 29.4804 18.1054 29.2929 18.2929C29.1054 18.4804 29 18.7348 29 19H27V17C27 16.7348 26.8946 16.4804 26.7071 16.2929C26.5196 16.1054 26.2652 16 26 16H14C13.7348 16 13.4804 16.1054 13.2929 16.2929C13.1054 16.4804 13 16.7348 13 17V25C13 25.2652 13.1054 25.5196 13.2929 25.7071C13.4804 25.8946 13.7348 26 14 26C14.2652 26 14.5196 25.8946 14.7071 25.7071C14.8946 25.5196 15 25.2652 15 25V24H17V28H11V15C11 14.7348 11.1054 14.4804 11.2929 14.2929C11.4804 14.1054 11.7348 14 12 14H52C52.2652 14 52.5196 14.1054 52.7071 14.2929C52.8946 14.4804 53 14.7348 53 15V19C53 19.2652 53.1054 19.5196 53.2929 19.7071C53.4804 19.8946 53.7348 20 54 20ZM21 42H17V40H21V42ZM11 42H15V44H11V42ZM15 40H11V38H15V40ZM11 47V46H15V48H12C11.7348 48 11.4804 47.8946 11.2929 47.7071C11.1054 47.5196 11 47.2652 11 47ZM17 44H21V48H17V44ZM23 41H25V48H23V41ZM27 42H33V44H27V42ZM33 40H27V38H33V40ZM27 48V46H33V48H27ZM53 47C53 47.2652 52.8946 47.5196 52.7071 47.7071C52.5196 47.8946 52.2652 48 52 48H41V34H53V47ZM31 28V24H35V28H31ZM41 24H37V22H41V24ZM37 26H41V28H37V26ZM43 22.34L46.268 28H43V22.34ZM45.1 17.974L50.1 26.634L48.368 27.634L43.368 18.974L45.1 17.974ZM37 18H41V20H37V18ZM35 20V22H31V20H35ZM29 21V28H27V21H29ZM19 22H25V24H19V22ZM25 20H19V18H25V20ZM15 22V18H17V22H15ZM19 26H25V28H19V26ZM53 30V32H28C27.7348 32 27.4804 32.1054 27.2929 32.2929C27.1054 32.4804 27 32.7348 27 33C27 33.2652 27.1054 33.5196 27.2929 33.7071C27.4804 33.8946 27.7348 34 28 34H39V48H35V37C35 36.7348 34.8946 36.4804 34.7071 36.2929C34.5196 36.1054 34.2652 36 34 36H26C25.7348 36 25.4804 36.1054 25.2929 36.2929C25.1054 36.4804 25 36.7348 25 37V39H23C23 38.7348 22.8946 38.4804 22.7071 38.2929C22.5196 38.1054 22.2652 38 22 38H17V37C17 36.7348 16.8946 36.4804 16.7071 36.2929C16.5196 36.1054 16.2652 36 16 36H11V34H24C24.2652 34 24.5196 33.8946 24.7071 33.7071C24.8946 33.5196 25 33.2652 25 33C25 32.7348 24.8946 32.4804 24.7071 32.2929C24.5196 32.1054 24.2652 32 24 32H11V30H53Z" fill="black"/>
<path d="M43.474 44.851C43.619 44.9407 43.7845 44.9918 43.9548 44.9995C44.1251 45.0072 44.2945 44.9712 44.447 44.895L50.447 41.895C50.6134 41.8121 50.7534 41.6844 50.8512 41.5263C50.9491 41.3682 51.0009 41.1859 51.0009 41C51.0009 40.8141 50.9491 40.6318 50.8512 40.4737C50.7534 40.3156 50.6134 40.1879 50.447 40.105L44.447 37.105C44.2945 37.0288 44.1251 36.9929 43.9548 37.0006C43.7845 37.0083 43.619 37.0594 43.474 37.1491C43.329 37.2388 43.2093 37.364 43.1264 37.5129C43.0434 37.6619 42.9999 37.8295 43 38V44C42.9999 44.1705 43.0434 44.3382 43.1264 44.4871C43.2093 44.6361 43.329 44.7613 43.474 44.851ZM45 39.618L47.764 41L45 42.382V39.618Z" fill="black"/>
</svg>
