<svg width="64" height="64" viewBox="0 0 64 64" fill="none" xmlns="http://www.w3.org/2000/svg">
<path d="M7 15H54V29.542C54 30.094 54.447 30.542 55 30.542C55.553 30.542 56 30.094 56 29.542V14C56 13.448 55.553 13 55 13H7C6.447 13 6 13.448 6 14C6 14.552 6.447 15 7 15Z" fill="black"/>
<path d="M18 21C14.141 21 11 24.14 11 28C11 31.86 14.141 35 18 35C21.859 35 25 31.86 25 28C25 24.14 21.859 21 18 21ZM17 28C17 27.449 17.448 27 18 27C18.552 27 19 27.449 19 28C19 28.551 18.552 29 18 29C17.448 29 17 28.551 17 28ZM16.041 32.598C16.227 31.687 17.035 31 18 31C18.965 31 19.773 31.687 19.959 32.598C19.357 32.856 18.695 33 18 33C17.305 33 16.643 32.856 16.041 32.598ZM21.654 31.388C21.373 30.755 20.929 30.215 20.381 29.805C20.764 29.301 21 28.68 21 28C21 26.346 19.654 25 18 25C16.346 25 15 26.346 15 28C15 28.68 15.236 29.301 15.619 29.805C15.07 30.215 14.626 30.755 14.346 31.388C13.518 30.495 13 29.31 13 28C13 25.243 15.243 23 18 23C20.757 23 23 25.243 23 28C23 29.31 22.482 30.495 21.654 31.388Z" fill="black"/>
<path d="M44 26C44 25.448 43.553 25 43 25H30V23H43C43.553 23 44 22.552 44 22C44 21.448 43.553 21 43 21H29C28.447 21 28 21.448 28 22V26C28 26.552 28.447 27 29 27H43C43.553 27 44 26.552 44 26Z" fill="black"/>
<path d="M33 29H28C27.447 29 27 29.448 27 30C27 30.552 27.447 31 28 31H33C33.553 31 34 30.552 34 30C34 29.448 33.553 29 33 29Z" fill="black"/>
<path d="M43 29H37C36.447 29 36 29.448 36 30C36 30.552 36.447 31 37 31H43C43.553 31 44 30.552 44 30C44 29.448 43.553 29 43 29Z" fill="black"/>
<path d="M33 33H27C26.447 33 26 33.448 26 34C26 34.552 26.447 35 27 35H33C33.553 35 34 34.552 34 34C34 33.448 33.553 33 33 33Z" fill="black"/>
<path d="M33 37H27C26.447 37 26 37.448 26 38C26 38.552 26.447 39 27 39H33C33.553 39 34 38.552 34 38C34 37.448 33.553 37 33 37Z" fill="black"/>
<path d="M22 37H13C12.447 37 12 37.448 12 38C12 38.552 12.447 39 13 39H22C22.553 39 23 38.552 23 38C23 37.448 22.553 37 22 37Z" fill="black"/>
<path d="M61.866 56.5L58.088 49.957C57.811 49.478 57.197 49.314 56.722 49.591C56.243 49.867 56.079 50.479 56.356 50.957L58.483 54.64L54.98 52.908C54.68 52.759 54.326 52.772 54.037 52.938C53.747 53.105 53.56 53.406 53.539 53.74L53.288 57.64L49.738 51.492C50.167 51.217 50.535 50.842 50.801 50.377L50.958 50.104C51.236 49.619 51.808 49.382 52.347 49.53L52.649 49.612C53.779 49.92 54.95 49.609 55.779 48.78C56.608 47.951 56.919 46.781 56.611 45.651L56.529 45.348C56.383 44.809 56.619 44.238 57.103 43.96L57.376 43.804C58.393 43.22 59 42.172 59 41C59 39.828 58.393 38.78 57.375 38.198L57.104 38.043C56.619 37.765 56.382 37.194 56.529 36.654L56.611 36.352C56.919 35.221 56.608 34.051 55.779 33.222C54.949 32.393 53.779 32.084 52.65 32.389L52.347 32.472C52.232 32.503 52.115 32.509 52 32.506V22C52 21.448 51.553 21 51 21C49.346 21 48 19.654 48 18C48 17.448 47.553 17 47 17H11C10.447 17 10 17.448 10 18C10 19.654 8.654 21 7 21C6.447 21 6 21.448 6 22V40C6 40.552 6.447 41 7 41C8.654 41 10 42.346 10 44C10 44.552 10.447 45 11 45H35.109C35.662 45 36.109 44.552 36.109 44C36.109 43.448 35.662 43 35.109 43H11.899C11.501 41.044 9.956 39.499 8 39.101V22.899C9.956 22.501 11.501 20.956 11.899 19H46.1C46.498 20.956 48.043 22.501 49.999 22.899V30.691C49.442 30.249 48.747 30 48 30C46.828 30 45.78 30.607 45.199 31.624L45.042 31.897C44.764 32.382 44.192 32.617 43.653 32.471L43.351 32.389C42.33 32.111 41.278 32.342 40.473 32.999H37C36.447 32.999 36 33.447 36 33.999C36 34.551 36.447 34.999 37 34.999H39.315C39.246 35.44 39.266 35.898 39.389 36.35L39.471 36.653C39.502 36.768 39.508 36.884 39.505 36.999H37C36.447 36.999 36 37.447 36 37.999C36 38.551 36.447 38.999 37 38.999H37.691C37.249 39.558 37 40.253 37 41C37 42.172 37.607 43.22 38.625 43.802L38.896 43.957C39.381 44.235 39.618 44.806 39.471 45.346L39.389 45.648C39.266 46.101 39.246 46.559 39.315 47H4V14C4 13.448 3.553 13 3 13C2.447 13 2 13.448 2 14V48C2 48.552 2.447 49 3 49H38.464L34.134 56.5C33.914 56.882 33.969 57.362 34.271 57.684C34.572 58.006 35.048 58.091 35.444 57.896L40.563 55.365L40.93 61.064C40.958 61.503 41.272 61.873 41.701 61.973C41.776 61.992 41.853 62 41.928 62C42.28 62 42.613 61.814 42.794 61.5L48 52.483L53.206 61.5C53.388 61.814 53.721 62 54.072 62C54.147 62 54.223 61.992 54.3 61.974C54.729 61.874 55.042 61.504 55.071 61.065L55.438 55.366L60.557 57.897C60.952 58.091 61.428 58.006 61.73 57.685C62.031 57.362 62.086 56.881 61.866 56.5ZM39 41C39 40.786 39.06 40.253 39.617 39.934L39.89 39.778C41.165 39.048 41.786 37.547 41.401 36.13L41.319 35.827C41.15 35.206 41.484 34.787 41.635 34.636C41.786 34.484 42.204 34.149 42.826 34.32L43.129 34.402C44.547 34.79 46.047 34.167 46.776 32.892L46.933 32.619C47.253 32.061 47.786 32 48 32C48.214 32 48.747 32.061 49.065 32.618L49.066 32.619L49.221 32.89C49.952 34.166 51.454 34.786 52.869 34.402L53.173 34.319C53.796 34.148 54.212 34.484 54.363 34.635C54.514 34.786 54.848 35.206 54.679 35.827L54.597 36.128C54.211 37.546 54.832 39.046 56.109 39.777L56.38 39.932C56.94 40.253 57 40.786 57 41C57 41.214 56.94 41.747 56.383 42.066L56.11 42.222C54.835 42.952 54.214 44.453 54.599 45.87L54.681 46.173C54.85 46.794 54.516 47.213 54.365 47.364C54.214 47.515 53.795 47.846 53.174 47.68L52.871 47.598C51.456 47.214 49.953 47.834 49.224 49.108L49.067 49.381C48.747 49.939 48.214 50 48 50C47.786 50 47.253 49.939 46.934 49.381L46.779 49.11C46.193 48.088 45.113 47.485 43.977 47.485C43.696 47.485 43.412 47.522 43.13 47.598L42.826 47.681C42.2 47.849 41.786 47.515 41.636 47.365C41.485 47.214 41.151 46.794 41.32 46.173L41.402 45.872C41.788 44.454 41.167 42.954 39.89 42.223L39.619 42.068C39.06 41.747 39 41.214 39 41ZM42.713 57.64L42.462 53.74C42.441 53.407 42.254 53.106 41.964 52.938C41.674 52.771 41.319 52.758 41.021 52.908L37.518 54.64L40.684 49.156C41.458 49.691 42.416 49.864 43.351 49.611L43.654 49.528C44.194 49.384 44.764 49.617 45.044 50.104L45.199 50.375C45.466 50.841 45.834 51.216 46.264 51.491L42.713 57.64Z" fill="black"/>
<path d="M48 46C50.757 46 53 43.757 53 41C53 38.243 50.757 36 48 36C45.243 36 43 38.243 43 41C43 43.757 45.243 46 48 46ZM48 38C49.654 38 51 39.346 51 41C51 42.654 49.654 44 48 44C46.346 44 45 42.654 45 41C45 39.346 46.346 38 48 38Z" fill="black"/>
</svg>
