<svg width="64" height="64" viewBox="0 0 64 64" fill="none" xmlns="http://www.w3.org/2000/svg">
<path d="M23 29C23 29.553 23.448 30 24 30H41C41.552 30 42 29.553 42 29V7C42 6.447 41.552 6 41 6H15C14.448 6 14 6.447 14 7V29C14 29.553 14.448 30 15 30H20C20.552 30 21 29.553 21 29C21 28.447 20.552 28 20 28H16V18H19.774C19.994 18.367 20.245 18.719 20.561 19.035L27.293 25.767C27.488 25.962 27.744 26.06 28 26.06C28.256 26.06 28.512 25.962 28.707 25.767L35.439 19.035C35.45 19.024 35.457 19.011 35.468 19H40V28H24C23.448 28 23 28.447 23 29ZM21.975 12.914C22.624 12.266 23.476 11.941 24.328 11.941C25.181 11.941 26.033 12.265 26.681 12.914L27.293 13.526C27.668 13.901 28.333 13.901 28.708 13.526L29.319 12.914C30.617 11.617 32.728 11.617 34.026 12.914C35.133 14.022 35.287 15.719 34.504 17H30.721L29.949 14.684C29.812 14.275 29.431 14 29 14C28.569 14 28.188 14.275 28.051 14.684L26.815 18.394L25.895 16.553C25.725 16.214 25.379 16 25 16H21.091C20.849 14.923 21.138 13.751 21.975 12.914ZM28 23.646L22.354 18H24.382L26.106 21.447C26.276 21.788 26.623 22 27 22C27.024 22 27.047 21.999 27.071 21.997C27.474 21.969 27.821 21.7 27.949 21.316L29 18.162L29.051 18.316C29.188 18.725 29.569 19 30 19H32.646L28 23.646ZM36.689 17C37.329 15.134 36.926 12.986 35.44 11.5C33.395 9.455 30.084 9.424 28 11.407C25.915 9.423 22.606 9.455 20.561 11.5C19.336 12.725 18.853 14.403 19.073 16H16V8H40V17H36.689Z" fill="black"/>
<path d="M47 12C48.654 12 50 10.654 50 9C50 7.346 48.654 6 47 6C45.346 6 44 7.346 44 9C44 10.654 45.346 12 47 12ZM47 8C47.551 8 48 8.448 48 9C48 9.552 47.551 10 47 10C46.449 10 46 9.552 46 9C46 8.448 46.449 8 47 8Z" fill="black"/>
<path d="M47 20C48.654 20 50 18.654 50 17C50 15.346 48.654 14 47 14C45.346 14 44 15.346 44 17C44 18.654 45.346 20 47 20ZM47 16C47.551 16 48 16.448 48 17C48 17.552 47.551 18 47 18C46.449 18 46 17.552 46 17C46 16.448 46.449 16 47 16Z" fill="black"/>
<path d="M47 28C48.654 28 50 26.654 50 25C50 23.346 48.654 22 47 22C45.346 22 44 23.346 44 25C44 26.654 45.346 28 47 28ZM47 24C47.551 24 48 24.448 48 25C48 25.552 47.551 26 47 26C46.449 26 46 25.552 46 25C46 24.448 46.449 24 47 24Z" fill="black"/>
<path d="M36.947 52.105L33.608 50.435L34.486 45.164C34.562 44.71 34.317 44.262 33.893 44.081C33.469 43.899 32.976 44.031 32.7 44.4L26.7 52.4C26.499 52.668 26.445 53.018 26.557 53.335C26.669 53.65 26.932 53.889 27.257 53.97L30.254 54.72L28.538 60.726C28.409 61.176 28.61 61.655 29.021 61.878C29.172 61.96 29.337 62 29.5 62C29.781 62 30.058 61.882 30.253 61.658L37.253 53.658C37.457 53.426 37.542 53.111 37.482 52.806C37.421 52.503 37.224 52.244 36.947 52.105ZM31.688 56.98L32.461 54.274C32.536 54.013 32.501 53.734 32.365 53.5C32.23 53.266 32.005 53.096 31.742 53.03L29.203 52.395L31.839 48.88L31.513 50.835C31.441 51.268 31.659 51.697 32.052 51.894L34.894 53.315L31.688 56.98Z" fill="black"/>
<path d="M55 37H48C46.897 37 46 36.103 46 35V34H53C53.552 34 54 33.553 54 33V3C54 2.447 53.552 2 53 2H46C45.448 2 45 2.447 45 3C45 3.553 45.448 4 46 4H52V32H12V4H42C42.552 4 43 3.553 43 3C43 2.447 42.552 2 42 2H11C10.448 2 10 2.447 10 3V33C10 33.553 10.448 34 11 34H18V35C18 36.103 17.103 37 16 37H9C5.14 37 2 40.141 2 44V46C2 49.519 4.613 52.432 8 52.92V55C8 57.206 9.794 59 12 59H13C13.552 59 14 58.553 14 58C14 57.447 13.552 57 13 57H12C10.897 57 10 56.103 10 55V49C10 47.897 10.897 47 12 47H16V49H13C12.448 49 12 49.447 12 50V54C12 54.553 12.448 55 13 55H16V59C16 60.654 17.346 62 19 62H23C23.552 62 24 61.553 24 61V43C24 42.447 23.552 42 23 42H19C17.346 42 16 43.346 16 45H12C9.794 45 8 46.794 8 49V50.899C5.721 50.434 4 48.414 4 46V44C4 41.243 6.243 39 9 39H16C18.206 39 20 37.206 20 35V34H44V35C44 37.206 45.794 39 48 39H55C57.757 39 60 41.243 60 44V46C60 48.414 58.279 50.434 56 50.899V49C56 46.794 54.206 45 52 45H48C48 43.346 46.654 42 45 42H41C40.448 42 40 42.447 40 43V53C40 53.553 40.448 54 41 54C41.552 54 42 53.553 42 53V44H45C45.551 44 46 44.448 46 45V59C46 59.552 45.551 60 45 60H42V57C42 56.447 41.552 56 41 56C40.448 56 40 56.447 40 57V61C40 61.553 40.448 62 41 62H45C46.654 62 48 60.654 48 59H52C54.206 59 56 57.206 56 55V52.92C59.387 52.432 62 49.519 62 46V44C62 40.141 58.86 37 55 37ZM14 53V51H16V53H14ZM18 45C18 44.448 18.449 44 19 44H22V60H19C18.449 60 18 59.552 18 59V45ZM48 51H50V53H48V51ZM54 55C54 56.103 53.103 57 52 57H48V55H51C51.552 55 52 54.553 52 54V50C52 49.447 51.552 49 51 49H48V47H52C53.103 47 54 47.897 54 49V55Z" fill="black"/>
<path d="M19 26C19.5523 26 20 25.5523 20 25C20 24.4477 19.5523 24 19 24C18.4477 24 18 24.4477 18 25C18 25.5523 18.4477 26 19 26Z" fill="black"/>
<path d="M37 26C37.5523 26 38 25.5523 38 25C38 24.4477 37.5523 24 37 24C36.4477 24 36 24.4477 36 25C36 25.5523 36.4477 26 37 26Z" fill="black"/>
</svg>
