<svg width="64" height="64" viewBox="0 0 64 64" fill="none" xmlns="http://www.w3.org/2000/svg">
<path d="M49.205 59.5C49.5332 60.0687 49.9703 60.5672 50.4911 60.967C51.012 61.3668 51.6066 61.66 52.2408 61.8301C52.875 62.0001 53.5365 62.0435 54.1875 61.9579C54.8385 61.8723 55.4663 61.6593 56.035 61.331L59.5 59.331C60.647 58.6664 61.4838 57.5742 61.8268 56.2937C62.1698 55.0132 61.9912 53.649 61.33 52.5L59.021 48.5C58.8884 48.2702 58.6699 48.1025 58.4137 48.0337C58.1574 47.965 57.8843 48.0009 57.6545 48.1335C57.4247 48.2661 57.257 48.4846 57.1882 48.7408C57.1195 48.9971 57.1554 49.2702 57.288 49.5L59.597 53.5C59.7942 53.8414 59.9222 54.2183 59.9736 54.6092C60.0251 55 59.999 55.3972 59.8968 55.778C59.7946 56.1588 59.6184 56.5157 59.3782 56.8283C59.1381 57.141 58.8386 57.4032 58.497 57.6L55.032 59.6C54.6906 59.7972 54.3137 59.9252 53.9228 59.9766C53.532 60.0281 53.1348 60.002 52.754 59.8998C52.3732 59.7976 52.0163 59.6214 51.7037 59.3812C51.3911 59.1411 51.1288 58.8416 50.932 58.5L47.432 52.438L51.761 49.938L56.961 46.938C57.0749 46.8724 57.1748 46.785 57.255 46.6808C57.3351 46.5766 57.3939 46.4576 57.428 46.3306C57.462 46.2036 57.4708 46.0712 57.4536 45.9409C57.4365 45.8105 57.3938 45.6848 57.328 45.571L56.328 43.839C55.6649 42.6906 54.5729 41.8527 53.292 41.5095C52.0111 41.1663 50.6464 41.346 49.498 42.009L46.033 44.009C44.8846 44.6721 44.0467 45.7641 43.7035 47.045C43.3603 48.3259 43.54 49.6906 44.203 50.839L49.205 59.5ZM49.633 44.242L50.5 43.742C50.8414 43.5448 51.2183 43.4168 51.6092 43.3654C52 43.3139 52.3972 43.34 52.778 43.4422C53.1588 43.5444 53.5157 43.7206 53.8283 43.9608C54.141 44.201 54.4032 44.5004 54.6 44.842L55.1 45.708L51.635 47.708L49.633 44.242ZM49.901 48.706L46.438 50.706L45.938 49.84C45.7408 49.4986 45.6128 49.1217 45.5614 48.7308C45.5099 48.34 45.536 47.9428 45.6382 47.562C45.7404 47.1812 45.9166 46.8243 46.1568 46.5117C46.3969 46.1991 46.6964 45.9368 47.038 45.74L47.904 45.24L49.901 48.706Z" fill="black"/>
<path d="M51 38C51.2652 38 51.5196 37.8946 51.7071 37.7071C51.8946 37.5196 52 37.2652 52 37V7C52 6.73478 51.8946 6.48043 51.7071 6.29289C51.5196 6.10536 51.2652 6 51 6H48V3C48 2.73478 47.8946 2.48043 47.7071 2.29289C47.5196 2.10536 47.2652 2 47 2H31C30.2209 2.00219 29.4532 2.18707 28.7585 2.5398C28.0638 2.89253 27.4615 3.40327 27 4.031C26.5385 3.40327 25.9362 2.89253 25.2415 2.5398C24.5468 2.18707 23.7791 2.00219 23 2H7C6.73478 2 6.48043 2.10536 6.29289 2.29289C6.10536 2.48043 6 2.73478 6 3V33C6 33.2652 6.10536 33.5196 6.29289 33.7071C6.48043 33.8946 6.73478 34 7 34H20.4C21.663 34.0044 22.9154 34.2309 24.1 34.669C24.0373 35.11 24.0039 35.5546 24 36C24 36.181 24.018 36.358 24.027 36.538C22.8503 36.1847 21.6286 36.0035 20.4 36H4V7C4 6.73478 3.89464 6.48043 3.70711 6.29289C3.51957 6.10536 3.26522 6 3 6C2.73478 6 2.48043 6.10536 2.29289 6.29289C2.10536 6.48043 2 6.73478 2 7V37C2 37.2652 2.10536 37.5196 2.29289 37.7071C2.48043 37.8946 2.73478 38 3 38H20.4C21.7733 38.0042 23.1332 38.2699 24.407 38.783C24.8462 40.303 25.6401 41.697 26.7234 42.8502C27.8068 44.0034 29.1485 44.8827 30.6382 45.4159C32.1279 45.949 33.7229 46.1207 35.2919 45.9168C36.8609 45.7129 38.3591 45.1392 39.663 44.243C39.8726 44.0887 40.0138 43.8587 40.0566 43.602C40.0993 43.3452 40.0403 43.0819 39.892 42.868C39.7437 42.654 39.5178 42.5064 39.2624 42.4563C39.0069 42.4063 38.742 42.4578 38.524 42.6C36.8967 43.7214 34.9133 44.2038 32.9528 43.9551C30.9923 43.7064 29.1922 42.744 27.8965 41.2519C26.6007 39.7597 25.9003 37.8424 25.929 35.8664C25.9576 33.8904 26.7134 31.9943 28.0519 30.5403C29.3903 29.0864 31.2176 28.1766 33.1845 27.9849C35.1514 27.7932 37.12 28.333 38.714 29.5011C40.3081 30.6692 41.4158 32.3837 41.8255 34.317C42.2352 36.2503 41.9182 38.2667 40.935 39.981C40.8693 40.0949 40.8267 40.2205 40.8097 40.3508C40.7926 40.4812 40.8013 40.6136 40.8354 40.7405C40.8695 40.8674 40.9282 40.9864 41.0083 41.0907C41.0883 41.1949 41.1881 41.2823 41.302 41.348C41.4159 41.4137 41.5415 41.4563 41.6718 41.4733C41.8022 41.4904 41.9346 41.4817 42.0615 41.4476C42.1884 41.4135 42.3074 41.3548 42.4117 41.2747C42.5159 41.1947 42.6033 41.0949 42.669 40.981C43.1943 40.0527 43.5677 39.0463 43.775 38H51ZM24.568 32.709C23.2276 32.243 21.8191 32.0034 20.4 32H8V4H23C23.7956 4 24.5587 4.31607 25.1213 4.87868C25.6839 5.44129 26 6.20435 26 7V30.026C25.3881 30.8417 24.9051 31.7466 24.568 32.709ZM34 26C31.8334 26.001 29.7264 26.71 28 28.019V7C28 6.20435 28.3161 5.44129 28.8787 4.87868C29.4413 4.31607 30.2044 4 31 4H46V15C46 15.2652 46.1054 15.5196 46.2929 15.7071C46.4804 15.8946 46.7348 16 47 16C47.2652 16 47.5196 15.8946 47.7071 15.7071C47.8946 15.5196 48 15.2652 48 15V8H50V36H44C44.0008 35.3283 43.9338 34.6582 43.8 34H47C47.2652 34 47.5196 33.8946 47.7071 33.7071C47.8946 33.5196 48 33.2652 48 33V19C48 18.7348 47.8946 18.4804 47.7071 18.2929C47.5196 18.1054 47.2652 18 47 18C46.7348 18 46.4804 18.1054 46.2929 18.2929C46.1054 18.4804 46 18.7348 46 19V32H43.159C42.3801 30.2184 41.0991 28.7022 39.4726 27.6367C37.8461 26.5712 35.9444 26.0025 34 26Z" fill="black"/>
<path d="M33 10H43C43.2652 10 43.5196 9.89464 43.7071 9.70711C43.8946 9.51957 44 9.26522 44 9C44 8.73478 43.8946 8.48043 43.7071 8.29289C43.5196 8.10536 43.2652 8 43 8H33C32.7348 8 32.4804 8.10536 32.2929 8.29289C32.1054 8.48043 32 8.73478 32 9C32 9.26522 32.1054 9.51957 32.2929 9.70711C32.4804 9.89464 32.7348 10 33 10Z" fill="black"/>
<path d="M31 14H43C43.2652 14 43.5196 13.8946 43.7071 13.7071C43.8946 13.5196 44 13.2652 44 13C44 12.7348 43.8946 12.4804 43.7071 12.2929C43.5196 12.1054 43.2652 12 43 12H31C30.7348 12 30.4804 12.1054 30.2929 12.2929C30.1054 12.4804 30 12.7348 30 13C30 13.2652 30.1054 13.5196 30.2929 13.7071C30.4804 13.8946 30.7348 14 31 14Z" fill="black"/>
<path d="M31 18H43C43.2652 18 43.5196 17.8946 43.7071 17.7071C43.8946 17.5196 44 17.2652 44 17C44 16.7348 43.8946 16.4804 43.7071 16.2929C43.5196 16.1054 43.2652 16 43 16H31C30.7348 16 30.4804 16.1054 30.2929 16.2929C30.1054 16.4804 30 16.7348 30 17C30 17.2652 30.1054 17.5196 30.2929 17.7071C30.4804 17.8946 30.7348 18 31 18Z" fill="black"/>
<path d="M44 21C44 20.7348 43.8946 20.4804 43.7071 20.2929C43.5196 20.1054 43.2652 20 43 20H31C30.7348 20 30.4804 20.1054 30.2929 20.2929C30.1054 20.4804 30 20.7348 30 21C30 21.2652 30.1054 21.5196 30.2929 21.7071C30.4804 21.8946 30.7348 22 31 22H43C43.2652 22 43.5196 21.8946 43.7071 21.7071C43.8946 21.5196 44 21.2652 44 21Z" fill="black"/>
<path d="M44 25C44 24.7348 43.8946 24.4804 43.7071 24.2929C43.5196 24.1054 43.2652 24 43 24H40C39.7348 24 39.4804 24.1054 39.2929 24.2929C39.1054 24.4804 39 24.7348 39 25C39 25.2652 39.1054 25.5196 39.2929 25.7071C39.4804 25.8946 39.7348 26 40 26H43C43.2652 26 43.5196 25.8946 43.7071 25.7071C43.8946 25.5196 44 25.2652 44 25Z" fill="black"/>
<path d="M23 8H13C12.7348 8 12.4804 8.10536 12.2929 8.29289C12.1054 8.48043 12 8.73478 12 9C12 9.26522 12.1054 9.51957 12.2929 9.70711C12.4804 9.89464 12.7348 10 13 10H23C23.2652 10 23.5196 9.89464 23.7071 9.70711C23.8946 9.51957 24 9.26522 24 9C24 8.73478 23.8946 8.48043 23.7071 8.29289C23.5196 8.10536 23.2652 8 23 8Z" fill="black"/>
<path d="M23 12H11C10.7348 12 10.4804 12.1054 10.2929 12.2929C10.1054 12.4804 10 12.7348 10 13C10 13.2652 10.1054 13.5196 10.2929 13.7071C10.4804 13.8946 10.7348 14 11 14H23C23.2652 14 23.5196 13.8946 23.7071 13.7071C23.8946 13.5196 24 13.2652 24 13C24 12.7348 23.8946 12.4804 23.7071 12.2929C23.5196 12.1054 23.2652 12 23 12Z" fill="black"/>
<path d="M23 16H11C10.7348 16 10.4804 16.1054 10.2929 16.2929C10.1054 16.4804 10 16.7348 10 17C10 17.2652 10.1054 17.5196 10.2929 17.7071C10.4804 17.8946 10.7348 18 11 18H23C23.2652 18 23.5196 17.8946 23.7071 17.7071C23.8946 17.5196 24 17.2652 24 17C24 16.7348 23.8946 16.4804 23.7071 16.2929C23.5196 16.1054 23.2652 16 23 16Z" fill="black"/>
<path d="M23 20H11C10.7348 20 10.4804 20.1054 10.2929 20.2929C10.1054 20.4804 10 20.7348 10 21C10 21.2652 10.1054 21.5196 10.2929 21.7071C10.4804 21.8946 10.7348 22 11 22H23C23.2652 22 23.5196 21.8946 23.7071 21.7071C23.8946 21.5196 24 21.2652 24 21C24 20.7348 23.8946 20.4804 23.7071 20.2929C23.5196 20.1054 23.2652 20 23 20Z" fill="black"/>
<path d="M23 24H11C10.7348 24 10.4804 24.1054 10.2929 24.2929C10.1054 24.4804 10 24.7348 10 25C10 25.2652 10.1054 25.5196 10.2929 25.7071C10.4804 25.8946 10.7348 26 11 26H23C23.2652 26 23.5196 25.8946 23.7071 25.7071C23.8946 25.5196 24 25.2652 24 25C24 24.7348 23.8946 24.4804 23.7071 24.2929C23.5196 24.1054 23.2652 24 23 24Z" fill="black"/>
<path d="M23 28H11C10.7348 28 10.4804 28.1054 10.2929 28.2929C10.1054 28.4804 10 28.7348 10 29C10 29.2652 10.1054 29.5196 10.2929 29.7071C10.4804 29.8946 10.7348 30 11 30H23C23.2652 30 23.5196 29.8946 23.7071 29.7071C23.8946 29.5196 24 29.2652 24 29C24 28.7348 23.8946 28.4804 23.7071 28.2929C23.5196 28.1054 23.2652 28 23 28Z" fill="black"/>
<path d="M38.243 34.758C38.4407 34.758 38.634 34.6993 38.7984 34.5894C38.9628 34.4795 39.091 34.3233 39.1667 34.1406C39.2423 33.9579 39.2621 33.7569 39.2236 33.563C39.185 33.369 39.0898 33.1908 38.95 33.051C38.3 32.4009 37.5283 31.8852 36.6789 31.5334C35.8296 31.1816 34.9193 31.0005 34 31.0005C33.0807 31.0005 32.1704 31.1816 31.321 31.5334C30.4717 31.8852 29.7 32.4009 29.05 33.051C28.9545 33.1432 28.8783 33.2536 28.8259 33.3756C28.7735 33.4976 28.7459 33.6288 28.7447 33.7616C28.7436 33.8944 28.7689 34.0261 28.8192 34.1489C28.8694 34.2718 28.9437 34.3835 29.0376 34.4774C29.1315 34.5713 29.2431 34.6455 29.366 34.6958C29.4889 34.7461 29.6206 34.7714 29.7534 34.7702C29.8862 34.7691 30.0174 34.7415 30.1394 34.6891C30.2614 34.6367 30.3717 34.5605 30.464 34.465C30.9283 34.0006 31.4795 33.6321 32.0863 33.3808C32.693 33.1294 33.3433 33.0001 34 33.0001C34.6567 33.0001 35.307 33.1294 35.9137 33.3808C36.5204 33.6321 37.0717 34.0006 37.536 34.465C37.7235 34.6525 37.9778 34.7579 38.243 34.758Z" fill="black"/>
<path d="M36.121 37.293C36.3085 37.1055 36.4138 36.8512 36.4138 36.586C36.4138 36.3208 36.3085 36.0665 36.121 35.879C35.5492 35.3335 34.7893 35.0291 33.999 35.0291C33.2087 35.0291 32.4488 35.3335 31.877 35.879C31.6895 36.0666 31.5842 36.3211 31.5843 36.5864C31.5844 36.8516 31.6899 37.106 31.8775 37.2935C32.0651 37.481 32.3196 37.5863 32.5848 37.5862C32.8501 37.5861 33.1045 37.4806 33.292 37.293C33.4821 37.1105 33.7355 37.0086 33.999 37.0086C34.2625 37.0086 34.5159 37.1105 34.706 37.293C34.8935 37.4805 35.1478 37.5858 35.413 37.5858C35.6782 37.5858 35.9335 37.4805 36.121 37.293Z" fill="black"/>
<path d="M34 41C34.5523 41 35 40.5523 35 40C35 39.4477 34.5523 39 34 39C33.4477 39 33 39.4477 33 40C33 40.5523 33.4477 41 34 41Z" fill="black"/>
<path d="M35 48H3C2.73478 48 2.48043 48.1054 2.29289 48.2929C2.10536 48.4804 2 48.7348 2 49V61C2 61.2652 2.10536 61.5196 2.29289 61.7071C2.48043 61.8946 2.73478 62 3 62H23C23.2652 62 23.5196 61.8946 23.7071 61.7071C23.8946 61.5196 24 61.2652 24 61C24 60.7348 23.8946 60.4804 23.7071 60.2929C23.5196 60.1054 23.2652 60 23 60H12V58H26V61C26 61.2652 26.1054 61.5196 26.2929 61.7071C26.4804 61.8946 26.7348 62 27 62H35C35.2652 62 35.5196 61.8946 35.7071 61.7071C35.8946 61.5196 36 61.2652 36 61V49C36 48.7348 35.8946 48.4804 35.7071 48.2929C35.5196 48.1054 35.2652 48 35 48ZM28 56V54H34V56H28ZM34 52H32V50H34V52ZM30 52H28V50H30V52ZM26 52H24V50H26V52ZM22 52H20V50H22V52ZM18 52H16V50H18V52ZM14 52H12V50H14V52ZM8 56V54H10V56H8ZM4 54H6V56H4V54ZM10 52H8V50H10V52ZM4 50H6V52H4V50ZM4 58H6V60H4V58ZM8 58H10V60H8V58ZM12 54H14V56H12V54ZM16 54H18V56H16V54ZM20 54H22V56H20V54ZM24 54H26V56H24V54ZM28 58H30V60H28V58ZM34 60H32V58H34V60Z" fill="black"/>
</svg>
