<svg width="64" height="64" viewBox="0 0 64 64" fill="none" xmlns="http://www.w3.org/2000/svg">
<path d="M61 60H48C48 57.794 46.206 56 44 56V47C44 45.346 42.654 44 41 44H35V40H46V43.415C46 47.857 48.469 51.852 52.442 53.839C53.961 54.599 55.661 55 57.359 55C59.918 55 62 52.918 62 50.359C62 48.623 61.426 46.902 60.384 45.512C59.507 44.342 59.081 42.895 59.183 41.436L59.312 39.603C60.476 38.946 61.104 37.57 60.742 36.222L60.411 34.988C60.895 34.499 61.122 33.778 60.931 33.066L59.41 27.387C59.125 26.324 59.271 25.213 59.822 24.26C60.639 22.843 60.856 21.194 60.433 19.615L59.429 15.868C59.348 15.564 59.128 15.316 58.836 15.199L55.997 14.059C54.637 13.512 53.106 13.42 51.642 13.813C51.056 13.97 50.514 14.215 49.999 14.507V10C49.999 8.346 48.653 7 46.999 7H13C12.448 7 12 7.447 12 8C12 8.553 12.448 9 13 9H47C47.552 9 48 9.448 48 10V16.19C47.981 16.214 47.957 16.233 47.938 16.257L46.084 18.617C45.89 18.864 45.823 19.189 45.905 19.493L46.909 23.239C47.333 24.819 48.346 26.139 49.762 26.956C50.715 27.507 51.397 28.395 51.682 29.459L53.203 35.138C53.342 35.654 53.673 36.085 54.135 36.352C54.289 36.441 54.451 36.507 54.618 36.552L54.946 37.776C55.254 38.921 56.19 39.73 57.284 39.941L57.188 41.296C57.051 43.235 57.619 45.158 58.784 46.712C59.568 47.758 60 49.054 60 50.359C60 51.815 58.815 53 57.359 53C55.969 53 54.579 52.672 53.337 52.05C50.045 50.404 48 47.096 48 43.415V39.816C49.161 39.402 50 38.302 50 37V29.29C50 28.737 49.553 28.29 49 28.29C48.447 28.29 48 28.737 48 29.29V37C48 37.552 47.552 38 47 38H5C4.449 38 4 37.552 4 37V10C4 9.448 4.449 9 5 9H9C9.552 9 10 8.553 10 8C10 7.447 9.552 7 9 7H5C3.346 7 2 8.346 2 10V37C2 38.654 3.346 40 5 40H17V44H11C9.346 44 8 45.346 8 47V53C8 53.553 8.448 54 9 54C9.552 54 10 53.553 10 53V47C10 46.448 10.449 46 11 46H41C41.552 46 42 46.448 42 47V56H8C5.794 56 4 57.794 4 60H3C2.448 60 2 60.447 2 61C2 61.553 2.448 62 3 62H30C30.552 62 31 61.553 31 61C31 60.447 30.552 60 30 60H6C6 58.897 6.897 58 8 58H44C45.103 58 46 58.897 46 60H34C33.447 60 33 60.447 33 61C33 61.553 33.447 62 34 62H61C61.553 62 62 61.553 62 61C62 60.447 61.553 60 61 60ZM49.512 17.491C50.185 16.634 51.101 16.03 52.208 15.733C53.211 15.466 54.292 15.53 55.253 15.916L57.627 16.869L57.831 17.63C54.536 18.18 51.299 19.048 48.172 20.219L47.968 19.459L49.512 17.491ZM53.614 28.941C53.191 27.362 52.178 26.043 50.762 25.223C49.823 24.681 49.122 23.769 48.841 22.721L48.69 22.156C51.813 20.972 55.052 20.104 58.35 19.567L58.502 20.133C58.786 21.195 58.641 22.306 58.09 23.26C57.273 24.676 57.055 26.325 57.479 27.905L59 33.584L55.136 34.619L53.614 28.941ZM56.878 37.259L56.619 36.292L58.552 35.774L58.811 36.74C58.954 37.273 58.636 37.823 58.105 37.966C57.564 38.104 57.021 37.791 56.878 37.259ZM19 44V40H33V44H19Z" fill="black"/>
<path d="M18 51C18 49.346 16.654 48 15 48C13.346 48 12 49.346 12 51C12 52.654 13.346 54 15 54C16.654 54 18 52.654 18 51ZM14 51C14 50.448 14.449 50 15 50C15.551 50 16 50.448 16 51C16 51.552 15.551 52 15 52C14.449 52 14 51.552 14 51Z" fill="black"/>
<path d="M40 51C40 49.346 38.654 48 37 48C35.346 48 34 49.346 34 51C34 52.654 35.346 54 37 54C38.654 54 40 52.654 40 51ZM36 51C36 50.448 36.448 50 37 50C37.552 50 38 50.448 38 51C38 51.552 37.552 52 37 52C36.448 52 36 51.552 36 51Z" fill="black"/>
<path d="M31 54C31.552 54 32 53.553 32 53V49C32 48.447 31.552 48 31 48H21C20.448 48 20 48.447 20 49V53C20 53.553 20.448 54 21 54H31ZM22 50H30V52H22V50Z" fill="black"/>
<path d="M32.504 15.132C28.492 17.425 23.508 17.425 19.496 15.132C19.023 14.861 18.422 15.02 18.142 15.486L12.142 25.486C11.871 25.938 11.997 26.523 12.43 26.823C13.637 27.659 14.981 28.404 16.423 29.037C16.93 29.257 17.52 29.028 17.74 28.522C17.962 28.016 17.732 27.426 17.226 27.205C16.206 26.758 15.242 26.251 14.35 25.693L17.308 20.762C18.398 21.318 19.542 21.774 20.724 22.112C20.816 22.138 20.908 22.15 20.999 22.15C21.435 22.15 21.835 21.864 21.96 21.424C22.111 20.893 21.803 20.339 21.272 20.188C20.259 19.899 19.275 19.515 18.337 19.045L19.368 17.326C23.535 19.357 28.46 19.357 32.627 17.326L33.655 19.039C32.427 19.653 31.129 20.125 29.778 20.429C28.543 20.707 27.271 20.848 25.998 20.848C25.446 20.848 24.998 21.295 24.998 21.848C24.998 22.401 25.446 22.848 25.998 22.848C27.418 22.848 28.838 22.691 30.217 22.38C31.777 22.03 33.272 21.477 34.685 20.756L35.583 22.253C34.364 23.03 33.057 23.663 31.681 24.121C31.157 24.296 30.874 24.862 31.048 25.386C31.187 25.806 31.578 26.071 31.997 26.071C32.101 26.071 32.208 26.054 32.313 26.02C33.829 25.515 35.267 24.82 36.612 23.968L37.648 25.694C32.672 28.832 26.606 29.832 20.847 28.437C20.314 28.305 19.77 28.636 19.64 29.173C19.51 29.709 19.839 30.25 20.376 30.38C22.234 30.83 24.123 31.052 26.001 31.052C30.809 31.052 35.554 29.601 39.566 26.823C40 26.523 40.126 25.938 39.854 25.486L33.854 15.486C33.577 15.021 32.977 14.86 32.504 15.132Z" fill="black"/>
<path d="M26 27.041C26.552 27.041 27 26.594 27 26.041C27 25.488 26.552 25.041 26 25.041C24.058 25.041 22.146 24.731 20.316 24.122C19.789 23.947 19.226 24.23 19.051 24.754C18.876 25.278 19.159 25.845 19.683 26.019C21.718 26.697 23.843 27.041 26 27.041Z" fill="black"/>
<path d="M9 35C9.55228 35 10 34.5523 10 34C10 33.4477 9.55228 33 9 33C8.44772 33 8 33.4477 8 34C8 34.5523 8.44772 35 9 35Z" fill="black"/>
<path d="M13 35C13.5523 35 14 34.5523 14 34C14 33.4477 13.5523 33 13 33C12.4477 33 12 33.4477 12 34C12 34.5523 12.4477 35 13 35Z" fill="black"/>
<path d="M17 35C17.5523 35 18 34.5523 18 34C18 33.4477 17.5523 33 17 33C16.4477 33 16 33.4477 16 34C16 34.5523 16.4477 35 17 35Z" fill="black"/>
<path d="M41 35C41.5523 35 42 34.5523 42 34C42 33.4477 41.5523 33 41 33C40.4477 33 40 33.4477 40 34C40 34.5523 40.4477 35 41 35Z" fill="black"/>
<path d="M45 35C45.5523 35 46 34.5523 46 34C46 33.4477 45.5523 33 45 33C44.4477 33 44 33.4477 44 34C44 34.5523 44.4477 35 45 35Z" fill="black"/>
<path d="M15 11H7C6.448 11 6 11.447 6 12C6 12.553 6.448 13 7 13H15C15.552 13 16 12.553 16 12C16 11.447 15.552 11 15 11Z" fill="black"/>
<path d="M12 16C12 15.447 11.552 15 11 15H7C6.448 15 6 15.447 6 16C6 16.553 6.448 17 7 17H11C11.552 17 12 16.553 12 16Z" fill="black"/>
<path d="M45 11H39C38.447 11 38 11.447 38 12C38 12.553 38.447 13 39 13H45C45.553 13 46 12.553 46 12C46 11.447 45.553 11 45 11Z" fill="black"/>
<path d="M45 15H41C40.447 15 40 15.447 40 16C40 16.553 40.447 17 41 17H45C45.553 17 46 16.553 46 16C46 15.447 45.553 15 45 15Z" fill="black"/>
</svg>
