<svg width="64" height="64" viewBox="0 0 64 64" fill="none" xmlns="http://www.w3.org/2000/svg">
<path d="M6 48.5H7.5V50C7.5 50.553 7.948 51 8.5 51H11.5C12.052 51 12.5 50.553 12.5 50V48.5H14C14.552 48.5 15 48.053 15 47.5V44.5C15 43.947 14.552 43.5 14 43.5H12.5V42C12.5 41.447 12.052 41 11.5 41H8.5C7.948 41 7.5 41.447 7.5 42V43.5H6C5.448 43.5 5 43.947 5 44.5V47.5C5 48.053 5.448 48.5 6 48.5ZM7 45.5H8.5C9.052 45.5 9.5 45.053 9.5 44.5V43H10.5V44.5C10.5 45.053 10.948 45.5 11.5 45.5H13V46.5H11.5C10.948 46.5 10.5 46.947 10.5 47.5V49H9.5V47.5C9.5 46.947 9.052 46.5 8.5 46.5H7V45.5Z" fill="black"/>
<path d="M53 44H52C50.346 44 49 42.654 49 41V30.695C52.643 29.997 55.949 28.059 58.341 25.11C58.689 24.681 58.623 24.051 58.194 23.704C57.766 23.357 57.136 23.421 56.787 23.85C54.133 27.123 50.201 29 46 29C39.862 29 34.526 25.059 32.721 19.192L32.266 17.713L34.316 17.201L34.743 18.624C36.246 23.635 40.77 27 46 27C51.23 27 55.754 23.635 57.257 18.625L57.684 17.202L59.734 17.714L59.279 19.193C59.142 19.64 58.965 20.106 58.723 20.66C58.502 21.166 58.733 21.756 59.239 21.976C59.745 22.2 60.335 21.967 60.556 21.46C60.829 20.835 61.031 20.301 61.19 19.78L61.955 17.294C62.036 17.032 62.005 16.748 61.871 16.509C61.736 16.27 61.509 16.097 61.243 16.03L60.106 15.746L61.587 10.315C62 8.8 61.69 7.214 60.736 5.965C59.783 4.716 58.334 4 56.763 4H54.816C54.402 2.839 53.302 2 52 2H50C48.897 2 48 2.897 48 4V6C48 7.103 48.897 8 50 8H52C53.302 8 54.402 7.161 54.816 6H56.763C57.706 6 58.575 6.43 59.147 7.179C59.719 7.928 59.905 8.88 59.657 9.79L58.165 15.261L57.243 15.03C56.722 14.897 56.196 15.201 56.042 15.713L55.341 18.051C54.094 22.207 50.34 25 46 25V19C46 18.447 45.552 18 45 18H41V17C41 15.346 39.654 14 38 14C37.015 14 36.147 14.484 35.599 15.219C35.365 15.039 35.064 14.951 34.757 15.03L33.835 15.261L32.343 9.79C32.095 8.88 32.281 7.928 32.853 7.179C33.425 6.43 34.294 6 35.237 6H37.185C37.598 7.161 38.698 8 40 8H42C43.103 8 44 7.103 44 6V4C44 2.897 43.103 2 42 2H40C38.698 2 37.598 2.839 37.184 4H35.237C33.666 4 32.217 4.716 31.264 5.965C30.31 7.214 30 8.8 30.413 10.315L31.535 14.428C31.084 14.157 30.558 14 30 14C28.346 14 27 15.346 27 17V18H21V17C21 15.346 19.654 14 18 14C16.346 14 15 15.346 15 17V18H13V17C13 15.346 11.654 14 10 14C8.346 14 7 15.346 7 17V18H3C2.448 18 2 18.447 2 19V53C2 53.553 2.448 54 3 54H25C25.552 54 26 53.553 26 53C26 52.447 25.552 52 25 52H18V40H23.589C23.212 40.927 23 41.939 23 43C23 46.35 25.072 49.221 28 50.411V55C28 58.859 31.14 62 35 62H40C40.552 62 41 61.553 41 61C41 60.447 40.552 60 40 60H35C32.243 60 30 57.757 30 55V50.931C30.328 50.972 30.661 51 31 51C31.339 51 31.672 50.972 32 50.931V54C32 56.206 33.794 58 36 58H53C55.757 58 58 55.757 58 53C58 50.243 55.757 48 53 48H52C48.14 48 45 44.859 45 41V30.96C45.332 30.98 45.664 31 46 31C46.336 31 46.667 30.965 47 30.944V41C47 43.757 49.243 46 52 46H53C56.86 46 60 49.141 60 53C60 56.859 56.86 60 53 60H44C43.448 60 43 60.447 43 61C43 61.553 43.448 62 44 62H53C57.962 62 62 57.963 62 53C62 48.037 57.962 44 53 44ZM52 6H50V4H52C52.551 4 53 4.448 53 5C53 5.552 52.551 6 52 6ZM44 24.79C41.987 24.376 40.191 23.347 38.831 21.869C39.757 21.6 40.494 20.903 40.816 20.001H44V24.79ZM38 16C38.551 16 39 16.448 39 17V19C39 19.552 38.551 20 38 20C37.754 20 37.528 19.9 37.344 19.736C37.22 19.495 37.105 19.247 37 18.993V17C37 16.448 37.449 16 38 16ZM40 4H42L42.001 6H40C39.449 6 39 5.552 39 5C39 4.448 39.449 4 40 4ZM29 17C29 16.448 29.449 16 30 16C30.184 16 30.349 16.065 30.498 16.155C30.349 16.243 30.215 16.355 30.128 16.509C29.993 16.748 29.962 17.032 30.044 17.294L30.765 19.638C30.58 19.863 30.303 20 30 20C29.449 20 29 19.552 29 19V17ZM17 17C17 16.448 17.449 16 18 16C18.551 16 19 16.448 19 17V19C19 19.552 18.551 20 18 20C17.449 20 17 19.552 17 19V17ZM9 17C9 16.448 9.449 16 10 16C10.551 16 11 16.448 11 17V19C11 19.552 10.551 20 10 20C9.449 20 9 19.552 9 19V17ZM4 26H16V38H4V26ZM16 52H4V40H16V52ZM18 38V26H24C24.552 26 25 25.553 25 25C25 24.447 24.552 24 24 24H4V20H7.184C7.598 21.161 8.698 22 10 22C11.302 22 12.402 21.161 12.816 20H15.185C15.599 21.161 16.699 22 18.001 22C19.303 22 20.403 21.161 20.817 20H27.186C27.6 21.161 28.7 22 30.002 22C30.545 22 31.056 21.849 31.503 21.59C31.88 22.439 32.324 23.244 32.831 24H28C27.448 24 27 24.447 27 25C27 25.553 27.448 26 28 26H30V35.069C27.89 35.334 26.035 36.419 24.765 38H18ZM25 43C25 39.691 27.691 37 31 37C34.309 37 37 39.691 37 43C37 46.309 34.309 49 31 49C27.691 49 25 46.309 25 43ZM39 43C39 41.939 38.788 40.927 38.411 40H43V41C43 42.479 43.365 43.872 44 45.104V52H34V50.411C36.928 49.221 39 46.35 39 43ZM52 50H53C54.654 50 56 51.346 56 53C56 54.654 54.654 56 53 56H36C34.897 56 34 55.103 34 54H45C45.552 54 46 53.553 46 53V47.689C47.594 49.121 49.694 50 52 50ZM43 38H37.235C35.965 36.42 34.11 35.334 32 35.069V26H34.418C36.682 28.416 39.669 30.078 43 30.709V38Z" fill="black"/>
<path d="M31 39C28.794 39 27 40.794 27 43C27 45.206 28.794 47 31 47C33.206 47 35 45.206 35 43C35 40.794 33.206 39 31 39ZM31 45C29.897 45 29 44.103 29 43C29 41.897 29.897 41 31 41C32.103 41 33 41.897 33 43C33 44.103 32.103 45 31 45Z" fill="black"/>
</svg>
