<svg width="64" height="64" viewBox="0 0 64 64" fill="none" xmlns="http://www.w3.org/2000/svg">
<path d="M46 19.177V13C46 12.448 45.552 12 45 12C44.448 12 44 12.448 44 13V19.177C44 23.658 41.629 27.901 37.813 30.249L32 33.826L26.187 30.249C22.371 27.9 20 23.658 20 19.177V9.98101C24.572 9.77301 28.856 7.81501 32 4.50301C35.33 8.01001 39.936 10 44.81 10H45C45.552 10 46 9.55201 46 9.00001C46 8.44801 45.552 8.00001 45 8.00001H44.81C40.144 8.00001 35.755 5.94401 32.768 2.36001C32.388 1.90401 31.612 1.90401 31.232 2.36001C28.245 5.94401 23.856 8.00001 19.19 8.00001H19C18.448 8.00001 18 8.44801 18 9.00001V19.177C18 24.347 20.735 29.242 25.139 31.952L31.476 35.852C31.637 35.951 31.818 36 32 36C32.182 36 32.363 35.951 32.524 35.852L38.861 31.952C43.265 29.242 46 24.347 46 19.177Z" fill="black"/>
<path d="M30 26H34C34.552 26 35 25.552 35 25V22H38C38.552 22 39 21.552 39 21V17C39 16.448 38.552 16 38 16H35V13C35 12.448 34.552 12 34 12H30C29.448 12 29 12.448 29 13V16H26C25.448 16 25 16.448 25 17V21C25 21.552 25.448 22 26 22H29V25C29 25.552 29.448 26 30 26ZM27 20V18H30C30.552 18 31 17.552 31 17V14H33V17C33 17.552 33.448 18 34 18H37V20H34C33.448 20 33 20.448 33 21V24H31V21C31 20.448 30.552 20 30 20H27Z" fill="black"/>
<path d="M60.5 22C59.269 22 58.135 22.411 57.218 23.097L57.041 20.939C56.972 20.116 56.241 19.499 55.423 19.568C53.904 19.693 52.579 20.427 51.667 21.51C51.653 21.5 51.646 21.484 51.632 21.475C51.299 21.253 50.898 21.174 50.507 21.252C49.066 21.54 47.824 22.371 47.009 23.593C46.194 24.816 45.904 26.282 46.192 27.722L47.299 33.258C46.397 33.54 45.568 34.045 44.905 34.734L41.614 38.151C40.002 39.825 38.702 41.75 37.753 43.872C36.589 46.47 36 49.229 36 52.073V61C36 61.552 36.448 62 37 62C37.552 62 38 61.552 38 61V52.073C38 49.512 38.531 47.028 39.577 44.691C40.432 42.78 41.602 41.047 43.054 39.54L46.345 36.123C47.024 35.418 47.972 35.01 48.95 35C48.75 36.989 47.959 38.888 46.672 40.433L45.153 42.255C44.295 43.285 44.363 44.776 45.311 45.724C46.227 46.641 47.689 46.731 48.712 45.936L52.754 42.792C55.453 40.692 57.001 37.528 57.001 34.109V27.5C57.001 25.74 58.307 24.279 60.001 24.036V31.513C60.001 32.065 60.449 32.513 61.001 32.513C61.553 32.513 62.001 32.065 62.001 31.513V23.5C62 22.673 61.327 22 60.5 22ZM47.483 44.357C47.254 44.534 46.928 44.514 46.724 44.31C46.513 44.098 46.497 43.765 46.689 43.535L48.208 41.713C50.008 39.552 51 36.813 51 34C51 33.448 50.552 33 50 33H49.286L48.153 27.331C47.97 26.414 48.154 25.481 48.673 24.704C49.098 24.067 49.706 23.596 50.416 23.347L50.512 23.827C50.39 24.362 50.345 24.924 50.392 25.5L50.986 32.753C51.208 35.46 51.083 38.189 50.614 40.866C50.542 41.277 50.443 41.702 50.321 42.152L47.483 44.357ZM55 34.109C55 36.334 54.188 38.42 52.748 40.048C53.093 37.577 53.182 35.074 52.978 32.588L52.384 25.335C52.24 23.581 53.424 22.018 55.092 21.637L55.403 25.441C55.145 26.078 55 26.772 55 27.5V34.109Z" fill="black"/>
<path d="M61 34.082C60.448 34.082 60 34.53 60 35.082C60 39.835 57.991 44.403 54.487 47.614L49.297 52.372C48.473 53.126 48 54.201 48 55.32V61C48 61.552 48.448 62 49 62C49.552 62 50 61.552 50 61V55.32C50 54.761 50.236 54.223 50.648 53.846L55.838 49.088C59.754 45.499 62 40.394 62 35.082C62 34.529 61.552 34.082 61 34.082Z" fill="black"/>
<path d="M22.387 38.153L19.096 34.735C18.034 33.632 16.547 33 15.016 33H14C13.448 33 13 33.448 13 34C13 36.813 13.992 39.552 15.792 41.713L17.31 43.535C17.502 43.765 17.487 44.098 17.275 44.31C17.07 44.515 16.746 44.535 16.516 44.357L13.68 42.151C13.558 41.701 13.459 41.276 13.387 40.865C12.918 38.187 12.793 35.458 13.015 32.751L13.609 25.498C13.656 24.922 13.611 24.36 13.489 23.825V23.824L13.585 23.345C14.295 23.595 14.903 24.066 15.328 24.703C15.847 25.481 16.031 26.414 15.848 27.33L15.237 30.388C15.129 30.93 15.48 31.457 16.021 31.565C16.087 31.578 16.153 31.585 16.218 31.585C16.685 31.585 17.103 31.256 17.197 30.781L17.808 27.723C18.096 26.282 17.806 24.816 16.991 23.593C16.176 22.371 14.934 21.539 13.493 21.252C13.1 21.173 12.7 21.252 12.367 21.475C12.353 21.484 12.345 21.5 12.332 21.51C11.42 20.427 10.095 19.692 8.575 19.567C7.75 19.5 7.027 20.116 6.958 20.94L6.782 23.097C5.865 22.411 4.731 22 3.5 22C2.673 22 2 22.673 2 23.5V35.082C2 40.394 4.246 45.499 8.161 49.088L13.351 53.846C13.764 54.223 14 54.761 14 55.32V61C14 61.552 14.448 62 15 62C15.552 62 16 61.552 16 61V55.32C16 54.201 15.527 53.127 14.703 52.371L9.513 47.613C6.009 44.402 4 39.834 4 35.082V24.036C5.694 24.279 7 25.74 7 27.5V34.109C7 37.527 8.548 40.692 11.247 42.792L15.289 45.936C16.311 46.731 17.773 46.64 18.69 45.725C19.638 44.777 19.706 43.286 18.847 42.256L17.328 40.434C16.042 38.888 15.25 36.989 15.05 35C16.029 35.009 16.976 35.417 17.655 36.122L20.946 39.54C22.397 41.047 23.567 42.78 24.423 44.691C25.469 47.028 26 49.512 26 52.073V61C26 61.552 26.448 62 27 62C27.552 62 28 61.552 28 61V52.073C28 49.229 27.411 46.47 26.248 43.873C25.298 41.751 23.999 39.827 22.387 38.153ZM9 34.109V27.5C9 26.772 8.855 26.078 8.597 25.442L8.908 21.637C10.576 22.018 11.759 23.581 11.616 25.335L11.022 32.588C10.818 35.074 10.907 37.577 11.252 40.048C9.812 38.42 9 36.335 9 34.109Z" fill="black"/>
</svg>
