<svg width="64" height="64" viewBox="0 0 64 64" fill="none" xmlns="http://www.w3.org/2000/svg">
<path d="M61 19C61.2652 19 61.5196 18.8946 61.7071 18.7071C61.8946 18.5196 62 18.2652 62 18V7C61.9984 5.6744 61.4711 4.40356 60.5338 3.46622C59.5964 2.52888 58.3256 2.00159 57 2H7C5.6744 2.00159 4.40356 2.52888 3.46622 3.46622C2.52888 4.40356 2.00159 5.6744 2 7V45C2.00159 46.3256 2.52888 47.5964 3.46622 48.5338C4.40356 49.4711 5.6744 49.9984 7 50H20.934C20.7802 51.1717 20.3647 52.2937 19.7183 53.283C19.0719 54.2723 18.2112 55.1035 17.2 55.715L16.723 56H14C12.6744 56.0016 11.4036 56.5289 10.4662 57.4662C9.52888 58.4036 9.00159 59.6744 9 61C9 61.2652 9.10536 61.5196 9.29289 61.7071C9.48043 61.8946 9.73478 62 10 62H32C32.2652 62 32.5196 61.8946 32.7071 61.7071C32.8946 61.5196 33 61.2652 33 61C33 60.7348 32.8946 60.4804 32.7071 60.2929C32.5196 60.1054 32.2652 60 32 60H11.171C11.3786 59.4155 11.7619 58.9095 12.2684 58.5514C12.7749 58.1934 13.3797 58.0008 14 58H50C50.6203 58.0008 51.2251 58.1934 51.7316 58.5514C52.2381 58.9095 52.6214 59.4155 52.829 60H36C35.7348 60 35.4804 60.1054 35.2929 60.2929C35.1054 60.4804 35 60.7348 35 61C35 61.2652 35.1054 61.5196 35.2929 61.7071C35.4804 61.8946 35.7348 62 36 62H54C54.2652 62 54.5196 61.8946 54.7071 61.7071C54.8946 61.5196 55 61.2652 55 61C54.9984 59.6744 54.4711 58.4036 53.5338 57.4662C52.5964 56.5289 51.3256 56.0016 50 56H47.277L46.802 55.715C45.7904 55.1037 44.9293 54.2726 44.2826 53.2833C43.6359 52.294 43.2201 51.1719 43.066 50H57C58.3256 49.9984 59.5964 49.4711 60.5338 48.5338C61.4711 47.5964 61.9984 46.3256 62 45V22C62 21.7348 61.8946 21.4804 61.7071 21.2929C61.5196 21.1054 61.2652 21 61 21C60.7348 21 60.4804 21.1054 60.2929 21.2929C60.1054 21.4804 60 21.7348 60 22V25H54V23C53.9969 22.1277 53.7058 21.2809 53.172 20.591C54.0447 19.9422 54.7545 19.0993 55.2453 18.129C55.7361 17.1586 55.9945 16.0874 56 15C56.0032 13.2534 55.4973 11.5438 54.5441 10.0802C53.5908 8.6167 52.2317 7.46275 50.6329 6.75959C49.0341 6.05644 47.265 5.83456 45.5421 6.1211C43.8192 6.40765 42.2171 7.1902 40.932 8.373C40.7825 7.66597 40.3822 7.03696 39.8049 6.60225C39.2276 6.16755 38.5125 5.95654 37.7917 6.00824C37.0709 6.05995 36.3932 6.37086 35.8838 6.88351C35.3745 7.39617 35.068 8.07588 35.021 8.797C34.4715 8.28675 33.7499 8.00219 33 8V4H57C57.7956 4 58.5587 4.31607 59.1213 4.87868C59.6839 5.44129 60 6.20435 60 7V18C60 18.2652 60.1054 18.5196 60.2929 18.7071C60.4804 18.8946 60.7348 19 61 19ZM43.95 56H20.05C21.6759 54.3934 22.695 52.2732 22.934 50H41.066C41.305 52.2732 42.3241 54.3934 43.95 56ZM44 48V46C44 45.4696 44.2107 44.9609 44.5858 44.5858C44.9609 44.2107 45.4696 44 46 44H52C52.5304 44 53.0391 44.2107 53.4142 44.5858C53.7893 44.9609 54 45.4696 54 46V48H44ZM57 48H56V46C55.9983 45.0944 55.6893 44.2162 55.1236 43.5091C54.558 42.8019 53.7691 42.3076 52.886 42.107C53.6019 41.2293 53.9951 40.1326 54 39C54 38.7348 53.8946 38.4804 53.7071 38.2929C53.5196 38.1054 53.2652 38 53 38C52.7348 38 52.4804 38.1054 52.2929 38.2929C52.1054 38.4804 52 38.7348 52 39C52 39.7956 51.6839 40.5587 51.1213 41.1213C50.5587 41.6839 49.7956 42 49 42C48.2044 42 47.4413 41.6839 46.8787 41.1213C46.3161 40.5587 46 39.7956 46 39V36H53C53.2652 36 53.5196 35.8946 53.7071 35.7071C53.8946 35.5196 54 35.2652 54 35C53.9984 33.6744 53.4711 32.4036 52.5338 31.4662C51.5964 30.5289 50.3256 30.0016 49 30H45C44.7348 30 44.4804 30.1054 44.2929 30.2929C44.1054 30.4804 44 30.7348 44 31V39C44.0049 40.1326 44.3981 41.2293 45.114 42.107C44.2309 42.3076 43.442 42.8019 42.8764 43.5091C42.3107 44.2162 42.0017 45.0944 42 46V48H7C6.20435 48 5.44129 47.6839 4.87868 47.1213C4.31607 46.5587 4 45.7956 4 45V7C4 6.20435 4.31607 5.44129 4.87868 4.87868C5.44129 4.31607 6.20435 4 7 4H31V8H22C21.2044 8 20.4413 8.31607 19.8787 8.87868C19.3161 9.44129 19 10.2044 19 11V19C19.0008 19.6203 19.1934 20.2251 19.5514 20.7316C19.9095 21.2381 20.4155 21.6214 21 21.829V24C21.0001 24.1877 21.053 24.3716 21.1527 24.5307C21.2524 24.6897 21.3948 24.8175 21.5637 24.8994C21.7326 24.9813 21.9212 25.014 22.1078 24.9938C22.2944 24.9735 22.4716 24.9012 22.619 24.785L26.151 22H31V36H29V34C28.9999 33.7348 28.8946 33.4805 28.707 33.293L27.194 31.78C27.3748 31.256 27.4031 30.6914 27.2759 30.1519C27.1486 29.6124 26.8709 29.12 26.475 28.732L25.768 28.025C25.2053 27.4623 24.4422 27.1462 23.6465 27.1462C22.8508 27.1462 22.0877 27.4623 21.525 28.025C20.9623 28.5877 20.6462 29.3508 20.6462 30.1465C20.6462 30.5405 20.7238 30.9306 20.8746 31.2946C21.0254 31.6587 21.2464 31.9894 21.525 32.268L22.232 32.975C22.7159 33.4564 23.3495 33.7584 24.0282 33.8311C24.7069 33.9038 25.3901 33.7429 25.965 33.375L27 34.414V36H20V34C19.9983 33.0944 19.6893 32.2162 19.1236 31.5091C18.558 30.8019 17.7691 30.3076 16.886 30.107C17.6019 29.2293 17.9951 28.1326 18 27V23C18 21.6739 17.4732 20.4021 16.5355 19.4645C15.5979 18.5268 14.3261 18 13 18C11.6739 18 10.4021 18.5268 9.46447 19.4645C8.52678 20.4021 8 21.6739 8 23C8 23.2652 8.10536 23.5196 8.29289 23.7071C8.48043 23.8946 8.73478 24 9 24H16V27C16 27.7956 15.6839 28.5587 15.1213 29.1213C14.5587 29.6839 13.7956 30 13 30C12.2044 30 11.4413 29.6839 10.8787 29.1213C10.3161 28.5587 10 27.7956 10 27C10 26.7348 9.89464 26.4804 9.70711 26.2929C9.51957 26.1054 9.26522 26 9 26C8.73478 26 8.48043 26.1054 8.29289 26.2929C8.10536 26.4804 8 26.7348 8 27C8.00494 28.1326 8.39814 29.2293 9.114 30.107C8.23092 30.3076 7.44203 30.8019 6.87636 31.5091C6.31069 32.2162 6.00173 33.0944 6 34V37C6 37.2652 6.10536 37.5196 6.29289 37.7071C6.48043 37.8946 6.73478 38 7 38H31V42H25C24.7348 42 24.4804 42.1054 24.2929 42.2929C24.1054 42.4804 24 42.7348 24 43C24 43.2652 24.1054 43.5196 24.2929 43.7071C24.4804 43.8946 24.7348 44 25 44H31V45C31 45.2652 31.1054 45.5196 31.2929 45.7071C31.4804 45.8946 31.7348 46 32 46C32.2652 46 32.5196 45.8946 32.7071 45.7071C32.8946 45.5196 33 45.2652 33 45V27H60V45C60 45.7956 59.6839 46.5587 59.1213 47.1213C58.5587 47.6839 57.7956 48 57 48ZM46 34V32H49C49.6203 32.0008 50.2251 32.1934 50.7316 32.5514C51.2381 32.9095 51.6214 33.4155 51.829 34H46ZM36 19V11.22C36.3366 11.5335 36.7428 11.7627 37.1853 11.8888C37.6277 12.0148 38.0937 12.0341 38.545 11.945C38.1868 12.9238 38.0024 13.9577 38 15C38.0057 16.0874 38.2641 17.1585 38.7549 18.1289C39.2457 19.0992 39.9554 19.9421 40.828 20.591C40.2942 21.2809 40.0031 22.1277 40 23V25H33V22C33.7956 22 34.5587 21.6839 35.1213 21.1213C35.6839 20.5587 36 19.7956 36 19ZM25.061 31.56C24.8701 31.7414 24.6168 31.8426 24.3535 31.8426C24.0902 31.8426 23.8369 31.7414 23.646 31.56L22.939 30.852C22.7515 30.6644 22.6462 30.4099 22.6463 30.1446C22.6464 29.8794 22.7519 29.625 22.9395 29.4375C23.1271 29.25 23.3816 29.1447 23.6469 29.1448C23.9121 29.1449 24.1665 29.2504 24.354 29.438L25.061 30.146C25.2482 30.3335 25.3533 30.5876 25.3533 30.8525C25.3533 31.1174 25.2482 31.3725 25.061 31.56ZM8 36V34C8 33.4696 8.21071 32.9609 8.58579 32.5858C8.96086 32.2107 9.46957 32 10 32H16C16.5304 32 17.0391 32.2107 17.4142 32.5858C17.7893 32.9609 18 33.4696 18 34V36H8ZM15.829 22H10.171C10.3776 21.4147 10.7606 20.9079 11.2672 20.5494C11.7739 20.1909 12.3793 19.9984 13 19.9984C13.6207 19.9984 14.2261 20.1909 14.7328 20.5494C15.2394 20.9079 15.6224 21.4147 15.829 22ZM42 25V23C42 22.4696 42.2107 21.9609 42.5858 21.5858C42.9609 21.2107 43.4696 21 44 21H50C50.5304 21 51.0391 21.2107 51.4142 21.5858C51.7893 21.9609 52 22.4696 52 23V25H42ZM44 16V14.912C45.1243 14.7135 46.1666 14.1923 47 13.412C47.8334 14.1923 48.8757 14.7135 50 14.912V16C50 16.7956 49.6839 17.5587 49.1213 18.1213C48.5587 18.6839 47.7956 19 47 19C46.2044 19 45.4413 18.6839 44.8787 18.1213C44.3161 17.5587 44 16.7956 44 16ZM47 8C48.8559 8.00212 50.6351 8.7403 51.9474 10.0526C53.2597 11.3649 53.9979 13.1441 54 15C53.995 15.871 53.7631 16.7256 53.3271 17.4796C52.8912 18.2336 52.2663 18.861 51.514 19.3C51.3107 19.2158 51.1006 19.1489 50.886 19.1C51.6004 18.2241 51.9935 17.1302 52 16V14C52 13.7348 51.8946 13.4804 51.7071 13.2929C51.5196 13.1054 51.2652 13 51 13C49.9853 12.9969 49.0128 12.5942 48.293 11.879L47.707 11.293C47.5195 11.1055 47.2652 11.0002 47 11.0002C46.7348 11.0002 46.4805 11.1055 46.293 11.293L45.707 11.879C44.9872 12.5942 44.0147 12.9969 43 13C42.7348 13 42.4804 13.1054 42.2929 13.2929C42.1054 13.4804 42 13.7348 42 14V16C42.0049 17.1326 42.3981 18.2293 43.114 19.107C42.8994 19.1559 42.6893 19.2228 42.486 19.307C41.7327 18.8674 41.1071 18.2389 40.6712 17.4836C40.2352 16.7282 40.0038 15.8722 40 15C40.0021 13.1441 40.7403 11.3649 42.0526 10.0526C43.3649 8.7403 45.1441 8.00212 47 8ZM38 8C38.1978 8 38.3911 8.05865 38.5556 8.16853C38.72 8.27841 38.8482 8.43459 38.9239 8.61732C38.9996 8.80004 39.0194 9.00111 38.9808 9.19509C38.9422 9.38907 38.847 9.56725 38.7071 9.70711C38.5673 9.84696 38.3891 9.9422 38.1951 9.98079C38.0011 10.0194 37.8 9.99957 37.6173 9.92388C37.4346 9.84819 37.2784 9.72002 37.1685 9.55557C37.0586 9.39112 37 9.19778 37 9C37 8.73478 37.1054 8.48043 37.2929 8.29289C37.4804 8.10536 37.7348 8 38 8ZM34 11V19C34 19.2652 33.8946 19.5196 33.7071 19.7071C33.5196 19.8946 33.2652 20 33 20H25.805C25.5804 20.0001 25.3623 20.0758 25.186 20.215L23 21.938V21C23 20.7348 22.8946 20.4804 22.7071 20.2929C22.5196 20.1054 22.2652 20 22 20C21.7348 20 21.4804 19.8946 21.2929 19.7071C21.1054 19.5196 21 19.2652 21 19V11C21 10.7348 21.1054 10.4804 21.2929 10.2929C21.4804 10.1054 21.7348 10 22 10H33C33.2652 10 33.5196 10.1054 33.7071 10.2929C33.8946 10.4804 34 10.7348 34 11Z" fill="black"/>
<path d="M38 29C37.4067 29 36.8266 29.1759 36.3333 29.5056C35.8399 29.8352 35.4554 30.3038 35.2284 30.8519C35.0013 31.4001 34.9419 32.0033 35.0576 32.5853C35.1734 33.1672 35.4591 33.7018 35.8787 34.1213C36.2982 34.5409 36.8328 34.8266 37.4147 34.9424C37.9967 35.0581 38.5999 34.9987 39.148 34.7716C39.6962 34.5446 40.1648 34.1601 40.4944 33.6667C40.8241 33.1734 41 32.5933 41 32C41 31.2044 40.6839 30.4413 40.1213 29.8787C39.5587 29.3161 38.7957 29 38 29ZM38 33C37.8022 33 37.6089 32.9414 37.4444 32.8315C37.28 32.7216 37.1518 32.5654 37.0761 32.3827C37.0004 32.2 36.9806 31.9989 37.0192 31.8049C37.0578 31.6109 37.153 31.4327 37.2929 31.2929C37.4327 31.153 37.6109 31.0578 37.8049 31.0192C37.9989 30.9806 38.2 31.0004 38.3827 31.0761C38.5654 31.1518 38.7216 31.28 38.8315 31.4444C38.9414 31.6089 39 31.8022 39 32C39 32.2652 38.8946 32.5196 38.7071 32.7071C38.5196 32.8946 38.2652 33 38 33Z" fill="black"/>
<path d="M9 12C9.59334 12 10.1734 11.8241 10.6667 11.4944C11.1601 11.1648 11.5446 10.6962 11.7716 10.1481C11.9987 9.59987 12.0581 8.99667 11.9424 8.41473C11.8266 7.83279 11.5409 7.29824 11.1213 6.87868C10.7018 6.45912 10.1672 6.1734 9.58527 6.05765C9.00333 5.94189 8.40013 6.0013 7.85195 6.22836C7.30377 6.45543 6.83524 6.83994 6.50559 7.33329C6.17595 7.82664 6 8.40666 6 9C6 9.79565 6.31607 10.5587 6.87868 11.1213C7.44129 11.6839 8.20435 12 9 12ZM9 8C9.19778 8 9.39112 8.05865 9.55557 8.16853C9.72002 8.27841 9.84819 8.43459 9.92388 8.61732C9.99957 8.80004 10.0194 9.00111 9.98079 9.19509C9.9422 9.38907 9.84696 9.56726 9.70711 9.70711C9.56725 9.84696 9.38907 9.9422 9.19509 9.98079C9.00111 10.0194 8.80004 9.99957 8.61732 9.92388C8.43459 9.84819 8.27841 9.72002 8.16853 9.55557C8.05865 9.39112 8 9.19778 8 9C8 8.73478 8.10536 8.48043 8.29289 8.29289C8.48043 8.10536 8.73478 8 9 8Z" fill="black"/>
<path d="M13.447 42.105L8.44701 39.605C8.29452 39.5288 8.12507 39.4928 7.95477 39.5005C7.78447 39.5082 7.61897 39.5594 7.47398 39.649C7.329 39.7387 7.20935 39.864 7.12639 40.0129C7.04344 40.1618 6.99994 40.3295 7.00001 40.5V45.5C6.99908 45.6709 7.04196 45.8392 7.12456 45.9888C7.20716 46.1384 7.32673 46.2643 7.47185 46.3546C7.61697 46.4449 7.7828 46.4964 7.95352 46.5044C8.12424 46.5123 8.29414 46.4764 8.44701 46.4L13.447 43.9C13.6134 43.817 13.7534 43.6894 13.8513 43.5313C13.9491 43.3732 14.0009 43.1909 14.0009 43.005C14.0009 42.8191 13.9491 42.6368 13.8513 42.4787C13.7534 42.3206 13.6134 42.1929 13.447 42.11V42.105ZM9.00002 43.882V42.118L10.764 43L9.00002 43.882Z" fill="black"/>
<path d="M17 40C16.7348 40 16.4804 40.1054 16.2929 40.2929C16.1054 40.4804 16 40.7348 16 41V45C16 45.2652 16.1054 45.5196 16.2929 45.7071C16.4804 45.8946 16.7348 46 17 46C17.2652 46 17.5196 45.8946 17.7071 45.7071C17.8946 45.5196 18 45.2652 18 45V41C18 40.7348 17.8946 40.4804 17.7071 40.2929C17.5196 40.1054 17.2652 40 17 40Z" fill="black"/>
<path d="M21 40C20.7348 40 20.4804 40.1054 20.2929 40.2929C20.1054 40.4804 20 40.7348 20 41V45C20 45.2652 20.1054 45.5196 20.2929 45.7071C20.4804 45.8946 20.7348 46 21 46C21.2652 46 21.5196 45.8946 21.7071 45.7071C21.8946 45.5196 22 45.2652 22 45V41C22 40.7348 21.8946 40.4804 21.7071 40.2929C21.5196 40.1054 21.2652 40 21 40Z" fill="black"/>
<path d="M27 16H24C23.7348 16 23.4804 16.1054 23.2929 16.2929C23.1054 16.4804 23 16.7348 23 17C23 17.2652 23.1054 17.5196 23.2929 17.7071C23.4804 17.8946 23.7348 18 24 18H27C27.2652 18 27.5196 17.8946 27.7071 17.7071C27.8946 17.5196 28 17.2652 28 17C28 16.7348 27.8946 16.4804 27.7071 16.2929C27.5196 16.1054 27.2652 16 27 16Z" fill="black"/>
<path d="M31 18C31.5523 18 32 17.5523 32 17C32 16.4477 31.5523 16 31 16C30.4477 16 30 16.4477 30 17C30 17.5523 30.4477 18 31 18Z" fill="black"/>
<path d="M31 12H26C25.7348 12 25.4804 12.1054 25.2929 12.2929C25.1054 12.4804 25 12.7348 25 13C25 13.2652 25.1054 13.5196 25.2929 13.7071C25.4804 13.8946 25.7348 14 26 14H31C31.2652 14 31.5196 13.8946 31.7071 13.7071C31.8946 13.5196 32 13.2652 32 13C32 12.7348 31.8946 12.4804 31.7071 12.2929C31.5196 12.1054 31.2652 12 31 12Z" fill="black"/>
</svg>
