<svg width="64" height="64" viewBox="0 0 64 64" fill="none" xmlns="http://www.w3.org/2000/svg">
<path d="M61 60H26C25.7348 60 25.4804 60.1054 25.2929 60.2929C25.1054 60.4804 25 60.7348 25 61C25 61.2652 25.1054 61.5196 25.2929 61.7071C25.4804 61.8946 25.7348 62 26 62H61C61.2652 62 61.5196 61.8946 61.7071 61.7071C61.8946 61.5196 62 61.2652 62 61C62 60.7348 61.8946 60.4804 61.7071 60.2929C61.5196 60.1054 61.2652 60 61 60Z" fill="black"/>
<path d="M22 60H3C2.73478 60 2.48043 60.1054 2.29289 60.2929C2.10536 60.4804 2 60.7348 2 61C2 61.2652 2.10536 61.5196 2.29289 61.7071C2.48043 61.8946 2.73478 62 3 62H22C22.2652 62 22.5196 61.8946 22.7071 61.7071C22.8946 61.5196 23 61.2652 23 61C23 60.7348 22.8946 60.4804 22.7071 60.2929C22.5196 60.1054 22.2652 60 22 60Z" fill="black"/>
<path d="M3 56C2.73478 56 2.48043 56.1054 2.29289 56.2929C2.10536 56.4804 2 56.7348 2 57C2 57.2652 2.10536 57.5196 2.29289 57.7071C2.48043 57.8946 2.73478 58 3 58H61C61.2652 58 61.5196 57.8946 61.7071 57.7071C61.8946 57.5196 62 57.2652 62 57C62 56.7348 61.8946 56.4804 61.7071 56.2929C61.5196 56.1054 61.2652 56 61 56V55C61 54.2044 60.6839 53.4413 60.1213 52.8787C59.5587 52.3161 58.7956 52 58 52V50C57.9999 49.7348 57.8946 49.4805 57.707 49.293L56.526 48.113C56.7926 47.555 56.8802 46.9283 56.7769 46.3186C56.6737 45.7089 56.3845 45.146 55.949 44.707L53.121 41.879C52.7344 41.4934 52.25 41.2205 51.7198 41.0899C51.1896 40.9593 50.6338 40.9759 50.1124 41.1378C49.5909 41.2998 49.1236 41.601 48.7607 42.0089C48.3977 42.4169 48.1531 42.9162 48.053 43.453C47.6846 43.2855 47.297 43.1639 46.899 43.091C47.607 42.2159 47.9953 41.1256 48 40V38.564C49.0524 38.1063 49.9148 37.2998 50.4418 36.2804C50.9689 35.261 51.1284 34.0911 50.8935 32.9678C50.6586 31.8445 50.0437 30.8365 49.1523 30.1138C48.2609 29.391 47.1476 28.9977 46 29H36C35.7348 29 35.4804 29.1054 35.2929 29.2929C35.1054 29.4804 35 29.7348 35 30V34H27V30H28C29.3256 29.9984 30.5964 29.4711 31.5338 28.5338C32.4711 27.5964 32.9984 26.3256 33 25V22C33 21.7348 32.8946 21.4804 32.7071 21.2929C32.5196 21.1054 32.2652 21 32 21C31.7348 21 31.4804 21.1054 31.2929 21.2929C31.1054 21.4804 31 21.7348 31 22V25C31 25.7956 30.6839 26.5587 30.1213 27.1213C29.5587 27.6839 28.7956 28 28 28H26C25.7348 28 25.4804 28.1054 25.2929 28.2929C25.1054 28.4804 25 28.7348 25 29V31.586L21.707 28.293C21.5195 28.1054 21.2652 28.0001 21 28H12C11.2044 28 10.4413 27.6839 9.87868 27.1213C9.31607 26.5587 9 25.7956 9 25V15C9 14.2044 9.31607 13.4413 9.87868 12.8787C10.4413 12.3161 11.2044 12 12 12H28C28.7956 12 29.5587 12.3161 30.1213 12.8787C30.6839 13.4413 31 14.2044 31 15V18C31 18.2652 31.1054 18.5196 31.2929 18.7071C31.4804 18.8946 31.7348 19 32 19C32.2652 19 32.5196 18.8946 32.7071 18.7071C32.8946 18.5196 33 18.2652 33 18V15C32.9984 13.6744 32.4711 12.4036 31.5338 11.4662C30.5964 10.5289 29.3256 10.0016 28 10H12C10.6744 10.0016 9.40356 10.5289 8.46622 11.4662C7.52888 12.4036 7.00159 13.6744 7 15V25C7.00159 26.3256 7.52888 27.5964 8.46622 28.5338C9.40356 29.4711 10.6744 29.9984 12 30H20.586L24.586 34H21C20.2044 34 19.4413 34.3161 18.8787 34.8787C18.3161 35.4413 18 36.2044 18 37V49C18 49.7956 18.3161 50.5587 18.8787 51.1213C19.4413 51.6839 20.2044 52 21 52H23C23.2652 52 23.5196 51.8946 23.7071 51.7071C23.8946 51.5196 24 51.2652 24 51C24 50.7348 23.8946 50.4804 23.7071 50.2929C23.5196 50.1054 23.2652 50 23 50H21C20.7348 50 20.4804 49.8946 20.2929 49.7071C20.1054 49.5196 20 49.2652 20 49V37C20 36.7348 20.1054 36.4804 20.2929 36.2929C20.4804 36.1054 20.7348 36 21 36H39C39.2652 36 39.5196 36.1054 39.7071 36.2929C39.8946 36.4804 40 36.7348 40 37V49C40 49.2652 39.8946 49.5196 39.7071 49.7071C39.5196 49.8946 39.2652 50 39 50H34V47.439C33.9989 46.5272 33.6363 45.6531 32.9916 45.0084C32.3469 44.3637 31.4728 44.0011 30.561 44H29.439C28.5272 44.0011 27.6531 44.3637 27.0084 45.0084C26.3637 45.6531 26.0011 46.5272 26 47.439V52C25.9993 52.3326 25.8837 52.6548 25.6729 52.912C25.4621 53.1693 25.169 53.3459 24.843 53.412L23.765 53.627C23.1574 53.7513 22.5947 54.0374 22.1364 54.4551C21.678 54.8728 21.341 55.4066 21.161 56H13.58L10.723 51H13C13.7956 51 14.5587 50.6839 15.1213 50.1213C15.6839 49.5587 16 48.7956 16 48V44C16 43.2044 15.6839 42.4413 15.1213 41.8787C14.5587 41.3161 13.7956 41 13 41H12.618L12.447 40.658C12.1994 40.1585 11.8168 39.7385 11.3425 39.4454C10.8683 39.1524 10.3215 38.9981 9.764 39H8.236C7.67854 38.9981 7.13168 39.1524 6.65746 39.4454C6.18323 39.7385 5.80061 40.1585 5.553 40.658L5.382 41H5C4.20435 41 3.44129 41.3161 2.87868 41.8787C2.31607 42.4413 2 43.2044 2 44V48C2 48.7956 2.31607 49.5587 2.87868 50.1213C3.44129 50.6839 4.20435 51 5 51H7.277L4.42 56H3ZM43 56C42.7348 56 42.4804 55.8946 42.2929 55.7071C42.1054 55.5196 42 55.2652 42 55C42 54.7348 42.1054 54.4804 42.2929 54.2929C42.4804 54.1054 42.7348 54 43 54H46C46.2652 54 46.5196 53.8946 46.7071 53.7071C46.8946 53.5196 47 53.2652 47 53V51H49V53C49 53.2652 49.1054 53.5196 49.2929 53.7071C49.4804 53.8946 49.7348 54 50 54C50.2652 54 50.5196 53.8946 50.7071 53.7071C50.8946 53.5196 51 53.2652 51 53V48.243L51.707 48.95C52.143 49.3908 52.7062 49.6836 53.3175 49.7873C53.9287 49.891 54.5571 49.8003 55.114 49.528L56 50.414V52C55.2044 52 54.4413 52.3161 53.8787 52.8787C53.3161 53.4413 53 54.2044 53 55V56H43ZM54.535 46.121C54.628 46.2139 54.7017 46.3242 54.7521 46.4456C54.8024 46.567 54.8283 46.6971 54.8283 46.8285C54.8283 46.9599 54.8024 47.09 54.7521 47.2114C54.7017 47.3328 54.628 47.4431 54.535 47.536C54.3447 47.7177 54.0917 47.8191 53.8285 47.8191C53.5653 47.8191 53.3123 47.7177 53.122 47.536L52.415 46.828L53.829 45.414L54.535 46.121ZM59 55V56H55V55C55 54.7348 55.1054 54.4804 55.2929 54.2929C55.4804 54.1054 55.7348 54 56 54H58C58.2652 54 58.5196 54.1054 58.7071 54.2929C58.8946 54.4804 59 54.7348 59 55ZM50.293 43.293C50.4805 43.1055 50.7348 43.0002 51 43.0002C51.2652 43.0002 51.5195 43.1055 51.707 43.293L52.414 44L51 45.414L50.293 44.707C50.1055 44.5195 50.0002 44.2652 50.0002 44C50.0002 43.7348 50.1055 43.4805 50.293 43.293ZM41.766 35.84C42.9866 36.5951 44.3928 36.9966 45.828 37H46V40C46 40.7956 45.6839 41.5587 45.1213 42.1213C44.5587 42.6839 43.7956 43 43 43C42.6569 42.9919 42.3181 42.9218 42 42.793V37C42.0001 36.6016 41.9205 36.2072 41.766 35.84ZM37 34V31H46C46.7956 31 47.5587 31.3161 48.1213 31.8787C48.6839 32.4413 49 33.2044 49 34C48.9992 34.4193 48.9097 34.8337 48.7374 35.216C48.565 35.5983 48.3137 35.9398 48 36.218V36C48 35.7348 47.8946 35.4804 47.7071 35.2929C47.5196 35.1054 47.2652 35 47 35H45.828C45.0623 35.0021 44.3039 34.8524 43.5965 34.5593C42.8891 34.2663 42.2469 33.8359 41.707 33.293C41.5195 33.1055 41.2652 33.0002 41 33.0002C40.7348 33.0002 40.4805 33.1055 40.293 33.293L39.532 34.054C39.3566 34.0202 39.1786 34.0022 39 34H37ZM42 44.885C42.3284 44.9579 42.6636 44.9964 43 45C43.3358 45.0003 43.6709 44.9668 44 44.9V45C44 45.2652 43.8946 45.5196 43.7071 45.7071C43.5196 45.8946 43.2652 46 43 46C42.7348 46 42.4804 45.8946 42.2929 45.7071C42.1054 45.5196 42 45.2652 42 45V44.885ZM42 49V47.816C42.3203 47.9344 42.6586 47.9967 43 48C43.7956 48 44.5587 47.6839 45.1213 47.1213C45.6839 46.5587 46 45.7956 46 45C46.7956 45 47.5587 45.3161 48.1213 45.8787C48.6839 46.4413 49 47.2044 49 48V49H46C45.7348 49 45.4804 49.1054 45.2929 49.2929C45.1054 49.4804 45 49.7348 45 50V52H43C42.2044 52 41.4413 52.3161 40.8787 52.8787C40.3161 53.4413 40 54.2044 40 55C40.0033 55.3414 40.0656 55.6797 40.184 56H38.839C38.6973 55.5391 38.4604 55.1132 38.1436 54.7497C37.8268 54.3862 37.4372 54.0933 37 53.89V52H39C39.7956 52 40.5587 51.6839 41.1213 51.1213C41.6839 50.5587 42 49.7956 42 49ZM35 52V53.35C34.7123 53.2591 34.4606 53.0797 34.281 52.8372C34.1014 52.5947 34.0031 52.3017 34 52H35ZM24.157 55.588L25.235 55.373C26.0138 55.2152 26.7143 54.7934 27.2181 54.1789C27.7219 53.5643 27.9981 52.7947 28 52V47.439C28.0005 47.0575 28.1523 46.6918 28.4221 46.4221C28.6918 46.1523 29.0575 46.0005 29.439 46H30.561C30.9425 46.0005 31.3082 46.1523 31.5779 46.4221C31.8477 46.6918 31.9995 47.0575 32 47.439V52C32.0019 52.7947 32.2781 53.5643 32.7819 54.1789C33.2857 54.7934 33.9862 55.2152 34.765 55.373L35.843 55.588C36.1218 55.6491 36.3759 55.7926 36.572 56H23.428C23.6241 55.7926 23.8782 55.6491 24.157 55.588ZM10 56V53.766L11.277 56H10ZM5 43H6C6.18583 43.0001 6.36801 42.9484 6.5261 42.8507C6.68419 42.753 6.81193 42.6132 6.895 42.447L7.342 41.553C7.42499 41.3869 7.55258 41.2472 7.71047 41.1496C7.86837 41.0519 8.05034 41.0001 8.236 41H9.764C9.94966 41.0001 10.1316 41.0519 10.2895 41.1496C10.4474 41.2472 10.575 41.3869 10.658 41.553L11.105 42.447C11.1881 42.6132 11.3158 42.753 11.4739 42.8507C11.632 42.9484 11.8142 43.0001 12 43H13C13.2652 43 13.5196 43.1054 13.7071 43.2929C13.8946 43.4804 14 43.7348 14 44V48C14 48.2652 13.8946 48.5196 13.7071 48.7071C13.5196 48.8946 13.2652 49 13 49H12V48C12 47.2044 11.6839 46.4413 11.1213 45.8787C10.5587 45.3161 9.79565 45 9 45H4V44C4 43.7348 4.10536 43.4804 4.29289 43.2929C4.48043 43.1054 4.73478 43 5 43ZM4 48V47H9C9.26522 47 9.51957 47.1054 9.70711 47.2929C9.89464 47.4804 10 47.7348 10 48V49H5C4.73478 49 4.48043 48.8946 4.29289 48.7071C4.10536 48.5196 4 48.2652 4 48ZM8 53.766V56H6.723L8 53.766Z" fill="black"/>
<path d="M33 42C33.2652 42 33.5196 41.8946 33.7071 41.7071C33.8946 41.5196 34 41.2652 34 41C34 40.7348 33.8946 40.4804 33.7071 40.2929C33.5196 40.1054 33.2652 40 33 40H27C26.7348 40 26.4804 40.1054 26.2929 40.2929C26.1054 40.4804 26 40.7348 26 41C26 41.2652 26.1054 41.5196 26.2929 41.7071C26.4804 41.8946 26.7348 42 27 42H33Z" fill="black"/>
<path d="M16.946 18.077L11.646 20.063C11.4558 20.135 11.2921 20.2632 11.1767 20.4306C11.0613 20.598 10.9996 20.7966 11 21V24C11 24.1519 11.0347 24.3018 11.1013 24.4383C11.1679 24.5748 11.2648 24.6943 11.3845 24.7878C11.5042 24.8813 11.6436 24.9463 11.7922 24.9779C11.9408 25.0094 12.0946 25.0067 12.242 24.97L20 23.031L27.758 24.97C27.9054 25.0067 28.0592 25.0094 28.2078 24.9779C28.3564 24.9463 28.4958 24.8813 28.6155 24.7878C28.7352 24.6943 28.8321 24.5748 28.8987 24.4383C28.9653 24.3018 29 24.1519 29 24V21C29.0002 20.7964 28.9383 20.5976 28.8225 20.4302C28.7067 20.2627 28.5425 20.1346 28.352 20.063L28 19.932V17C28 16.8043 27.9426 16.6129 27.8348 16.4496C27.7271 16.2862 27.5738 16.1581 27.394 16.081L24.575 14.873C23.801 14.5392 22.9411 14.4596 22.119 14.6456C21.2969 14.8316 20.555 15.2736 20 15.908C19.445 15.2736 18.7031 14.8316 17.881 14.6456C17.0589 14.4596 16.199 14.5392 15.425 14.873L12.606 16.081C12.366 16.1879 12.1778 16.3851 12.0819 16.6297C11.9861 16.8744 11.9905 17.1469 12.094 17.3884C12.1975 17.6299 12.392 17.8209 12.6352 17.9202C12.8785 18.0195 13.1511 18.0191 13.394 17.919L16.212 16.711C16.4771 16.5971 16.7637 16.542 17.0521 16.5493C17.3406 16.5567 17.624 16.6264 17.8829 16.7536C18.1419 16.8808 18.3703 17.0625 18.5524 17.2863C18.7345 17.5101 18.8661 17.7706 18.938 18.05C18.2906 17.8303 17.5873 17.8398 16.946 18.077ZM27 22.719L21 21.219V20.886C21.0001 20.7244 21.0393 20.5653 21.1142 20.4222C21.1892 20.2792 21.2977 20.1564 21.4305 20.0644C21.5633 19.9724 21.7164 19.9139 21.8767 19.894C22.037 19.8741 22.1997 19.8933 22.351 19.95L27 21.693V22.719ZM21.9 16.88C22.1751 16.6949 22.4925 16.5823 22.8228 16.5528C23.153 16.5232 23.4854 16.5777 23.789 16.711L26 17.659V19.182L23.053 18.082C22.4117 17.8453 21.7085 17.8358 21.061 18.055C21.1821 17.5713 21.4819 17.1515 21.9 16.88ZM18.57 20.064C18.7038 20.1551 18.8131 20.2777 18.8883 20.4211C18.9634 20.5645 19.0022 20.7241 19.001 20.886V21.219L13.001 22.719V21.693L17.649 19.95C17.7999 19.8919 17.9628 19.872 18.1233 19.8919C18.2837 19.9117 18.4378 19.9709 18.57 20.064Z" fill="black"/>
</svg>
