<svg width="64" height="64" viewBox="0 0 64 64" fill="none" xmlns="http://www.w3.org/2000/svg">
<path d="M13 8C13.5523 8 14 7.55228 14 7C14 6.44772 13.5523 6 13 6C12.4477 6 12 6.44772 12 7C12 7.55228 12.4477 8 13 8Z" fill="black"/>
<path d="M17 8C17.5523 8 18 7.55228 18 7C18 6.44772 17.5523 6 17 6C16.4477 6 16 6.44772 16 7C16 7.55228 16.4477 8 17 8Z" fill="black"/>
<path d="M50 35C50.2652 35 50.5196 34.8946 50.7071 34.7071C50.8946 34.5196 51 34.2652 51 34V14C51 13.7348 50.8946 13.4804 50.7071 13.2929C50.5196 13.1054 50.2652 13 50 13H48V7C47.9984 5.6744 47.4711 4.40356 46.5338 3.46622C45.5964 2.52888 44.3256 2.00159 43 2H13C11.6744 2.00159 10.4036 2.52888 9.46622 3.46622C8.52888 4.40356 8.00159 5.6744 8 7V28C8 28.2652 8.10536 28.5196 8.29289 28.7071C8.48043 28.8946 8.73478 29 9 29C9.26522 29 9.51957 28.8946 9.70711 28.7071C9.89464 28.5196 10 28.2652 10 28V7C10 6.20435 10.3161 5.44129 10.8787 4.87868C11.4413 4.31607 12.2044 4 13 4H43C43.7956 4 44.5587 4.31607 45.1213 4.87868C45.6839 5.44129 46 6.20435 46 7V13H44V9C44 8.20435 43.6839 7.44129 43.1213 6.87868C42.5587 6.31607 41.7956 6 41 6H23C22.2044 6 21.4413 6.31607 20.8787 6.87868C20.3161 7.44129 20 8.20435 20 9C20 9.26522 19.8946 9.51957 19.7071 9.70711C19.5196 9.89464 19.2652 10 19 10H15C14.2044 10 13.4413 10.3161 12.8787 10.8787C12.3161 11.4413 12 12.2044 12 13V55C12 55.7956 12.3161 56.5587 12.8787 57.1213C13.4413 57.6839 14.2044 58 15 58H41C41.2652 58 41.5196 57.8946 41.7071 57.7071C41.8946 57.5196 42 57.2652 42 57C42 56.7348 41.8946 56.4804 41.7071 56.2929C41.5196 56.1054 41.2652 56 41 56H15C14.7348 56 14.4804 55.8946 14.2929 55.7071C14.1054 55.5196 14 55.2652 14 55V13C14 12.7348 14.1054 12.4804 14.2929 12.2929C14.4804 12.1054 14.7348 12 15 12H19C19.7956 12 20.5587 11.6839 21.1213 11.1213C21.6839 10.5587 22 9.79565 22 9C22 8.73478 22.1054 8.48043 22.2929 8.29289C22.4804 8.10536 22.7348 8 23 8H41C41.2652 8 41.5196 8.10536 41.7071 8.29289C41.8946 8.48043 42 8.73478 42 9V13H30C29.7348 13 29.4804 13.1054 29.2929 13.2929C29.1054 13.4804 29 13.7348 29 14C29 14.2652 29.1054 14.5196 29.2929 14.7071C29.4804 14.8946 29.7348 15 30 15H49V19H23C22.4696 19 21.9609 18.7893 21.5858 18.4142C21.2107 18.0391 21 17.5304 21 17C21 16.4696 21.2107 15.9609 21.5858 15.5858C21.9609 15.2107 22.4696 15 23 15H26C26.2652 15 26.5196 14.8946 26.7071 14.7071C26.8946 14.5196 27 14.2652 27 14C27 13.7348 26.8946 13.4804 26.7071 13.2929C26.5196 13.1054 26.2652 13 26 13H23C21.9391 13 20.9217 13.4214 20.1716 14.1716C19.4214 14.9217 19 15.9391 19 17V51C19 51.7956 19.3161 52.5587 19.8787 53.1213C20.4413 53.6839 21.2044 54 22 54H46V57C46 57.7956 45.6839 58.5587 45.1213 59.1213C44.5587 59.6839 43.7956 60 43 60H13C12.2044 60 11.4413 59.6839 10.8787 59.1213C10.3161 58.5587 10 57.7956 10 57V32C10 31.7348 9.89464 31.4804 9.70711 31.2929C9.51957 31.1054 9.26522 31 9 31C8.73478 31 8.48043 31.1054 8.29289 31.2929C8.10536 31.4804 8 31.7348 8 32V57C8.00159 58.3256 8.52888 59.5964 9.46622 60.5338C10.4036 61.4711 11.6744 61.9984 13 62H43C44.3256 61.9984 45.5964 61.4711 46.5338 60.5338C47.4711 59.5964 47.9984 58.3256 48 57V54H50C50.2652 54 50.5196 53.8946 50.7071 53.7071C50.8946 53.5196 51 53.2652 51 53V38C51 37.7348 50.8946 37.4804 50.7071 37.2929C50.5196 37.1054 50.2652 37 50 37C49.7348 37 49.4804 37.1054 49.2929 37.2929C49.1054 37.4804 49 37.7348 49 38V52H22C21.7348 52 21.4804 51.8946 21.2929 51.7071C21.1054 51.5196 21 51.2652 21 51V20.444C21.6053 20.8039 22.2957 20.9959 23 21H49V34C49 34.2652 49.1054 34.5196 49.2929 34.7071C49.4804 34.8946 49.7348 35 50 35Z" fill="black"/>
<path d="M42 34C41.9979 32.1441 41.2597 30.3649 39.9474 29.0526C38.6351 27.7403 36.8558 27.0021 35 27C33.9543 26.9962 32.9218 27.2326 31.982 27.691C31.7433 27.807 31.5605 28.0131 31.4737 28.2639C31.387 28.5148 31.4034 28.7898 31.5195 29.0285C31.6355 29.2672 31.8416 29.45 32.0924 29.5367C32.3433 29.6235 32.6183 29.607 32.857 29.491C33.5245 29.1659 34.2575 28.998 35 29C36.0123 28.9981 37.0013 29.3041 37.8357 29.8774C38.6701 30.4507 39.3104 31.2642 39.6717 32.2099C40.0329 33.1556 40.0981 34.1888 39.8584 35.1724C39.6188 36.156 39.0857 37.0434 38.33 37.717C38.226 37.8108 38.1429 37.9254 38.0861 38.0534C38.0292 38.1814 37.9999 38.3199 38 38.46V39H36V36.414L37.707 34.707C37.8891 34.5184 37.9899 34.2658 37.9876 34.0036C37.9854 33.7414 37.8802 33.4906 37.6948 33.3052C37.5094 33.1198 37.2586 33.0146 36.9964 33.0123C36.7342 33.01 36.4816 33.1108 36.293 33.293L35 34.586L33.707 33.293C33.5184 33.1108 33.2658 33.01 33.0036 33.0123C32.7414 33.0146 32.4906 33.1198 32.3051 33.3052C32.1197 33.4906 32.0146 33.7414 32.0123 34.0036C32.01 34.2658 32.1108 34.5184 32.293 34.707L34 36.414V39H32V38.46C32.0001 38.3199 31.9707 38.1814 31.9139 38.0534C31.857 37.9254 31.7739 37.8108 31.67 37.717C31.1472 37.2486 30.7284 36.6758 30.4408 36.0356C30.1531 35.3953 30.0029 34.7019 30 34C29.9968 33.2576 30.1641 32.5245 30.489 31.857C30.605 31.6183 30.6215 31.3433 30.5347 31.0924C30.448 30.8416 30.2652 30.6355 30.0265 30.5195C29.7878 30.4035 29.5128 30.387 29.2619 30.4737C29.0111 30.5605 28.805 30.7433 28.689 30.982C28.2318 31.9221 27.9961 32.9546 28 34C28.0056 35.8265 28.7231 37.5789 30 38.885V39.185C29.4154 39.3886 28.9087 39.7691 28.5502 40.2737C28.1917 40.7783 27.999 41.382 27.999 42.001C27.999 42.62 28.1917 43.2237 28.5502 43.7282C28.9087 44.2328 29.4154 44.6133 30 44.817V45C30 46.3261 30.5268 47.5978 31.4644 48.5355C32.4021 49.4732 33.6739 50 35 50C36.3261 50 37.5978 49.4732 38.5355 48.5355C39.4732 47.5978 40 46.3261 40 45V44.816C40.5845 44.6123 41.0912 44.2318 41.4497 43.7272C41.8083 43.2227 42.0009 42.619 42.0009 42C42.0009 41.381 41.8083 40.7773 41.4497 40.2727C41.0912 39.7681 40.5845 39.3876 40 39.184V38.884C41.2766 37.5782 41.994 35.8262 42 34ZM35 48C34.2043 48 33.4413 47.6839 32.8787 47.1213C32.316 46.5587 32 45.7956 32 45H38C38 45.7956 37.6839 46.5587 37.1213 47.1213C36.5587 47.6839 35.7956 48 35 48ZM39 43H31C30.7348 43 30.4804 42.8946 30.2929 42.7071C30.1053 42.5196 30 42.2652 30 42C30 41.7348 30.1053 41.4804 30.2929 41.2929C30.4804 41.1053 30.7348 41 31 41H39C39.2652 41 39.5195 41.1053 39.7071 41.2929C39.8946 41.4804 40 41.7348 40 42C40 42.2652 39.8946 42.5196 39.7071 42.7071C39.5195 42.8946 39.2652 43 39 43Z" fill="black"/>
<path d="M45 35C45.5523 35 46 34.5523 46 34C46 33.4477 45.5523 33 45 33C44.4477 33 44 33.4477 44 34C44 34.5523 44.4477 35 45 35Z" fill="black"/>
<path d="M25 35C25.5523 35 26 34.5523 26 34C26 33.4477 25.5523 33 25 33C24.4477 33 24 33.4477 24 34C24 34.5523 24.4477 35 25 35Z" fill="black"/>
<path d="M35 25C35.5523 25 36 24.5523 36 24C36 23.4477 35.5523 23 35 23C34.4477 23 34 23.4477 34 24C34 24.5523 34.4477 25 35 25Z" fill="black"/>
<path d="M30.5 26.206C30.6713 26.1071 30.8094 25.9596 30.8969 25.7823C30.9843 25.6049 31.0173 25.4055 30.9914 25.2094C30.9656 25.0133 30.8822 24.8293 30.7518 24.6806C30.6214 24.5319 30.4499 24.4252 30.2588 24.374C30.0678 24.3228 29.8658 24.3295 29.6785 24.393C29.4913 24.4566 29.327 24.5743 29.2066 24.7312C29.0862 24.8881 29.0151 25.0772 29.0021 25.2746C28.9892 25.472 29.0351 25.6687 29.134 25.84C29.2666 26.0697 29.485 26.2373 29.7412 26.3059C29.9974 26.3745 30.2703 26.3386 30.5 26.206Z" fill="black"/>
<path d="M44.16 29.866C44.3313 29.7671 44.4694 29.6197 44.5569 29.4423C44.6444 29.2649 44.6773 29.0656 44.6515 28.8695C44.6257 28.6734 44.5423 28.4893 44.4119 28.3406C44.2815 28.1919 44.1099 28.0853 43.9188 28.0341C43.7278 27.9829 43.5259 27.9895 43.3386 28.0531C43.1513 28.1167 42.9871 28.2343 42.8667 28.3913C42.7463 28.5482 42.6751 28.7373 42.6622 28.9346C42.6492 29.132 42.6951 29.3287 42.794 29.5C42.9266 29.7297 43.1451 29.8973 43.4012 29.9659C43.6574 30.0346 43.9303 29.9986 44.16 29.866Z" fill="black"/>
<path d="M26.84 39.866C27.0112 39.7671 27.1494 39.6197 27.2368 39.4423C27.3243 39.2649 27.3572 39.0656 27.3314 38.8695C27.3056 38.6734 27.2222 38.4893 27.0918 38.3406C26.9614 38.1919 26.7898 38.0853 26.5988 38.0341C26.4077 37.9829 26.2058 37.9895 26.0185 38.0531C25.8312 38.1167 25.667 38.2343 25.5466 38.3913C25.4262 38.5482 25.355 38.7373 25.3421 38.9346C25.3292 39.132 25.3751 39.3287 25.474 39.5C25.6066 39.7297 25.825 39.8973 26.0812 39.9659C26.3373 40.0346 26.6103 39.9986 26.84 39.866Z" fill="black"/>
<path d="M26.84 28.134C26.6687 28.0351 26.472 27.9892 26.2746 28.0021C26.0772 28.0151 25.8881 28.0862 25.7312 28.2066C25.5743 28.327 25.4566 28.4913 25.393 28.6785C25.3295 28.8658 25.3228 29.0678 25.374 29.2588C25.4252 29.4499 25.5319 29.6214 25.6806 29.7518C25.8293 29.8822 26.0133 29.9656 26.2094 29.9914C26.4055 30.0173 26.6049 29.9843 26.7823 29.8969C26.9596 29.8094 27.1071 29.6713 27.206 29.5C27.3386 29.2703 27.3745 28.9974 27.3059 28.7412C27.2373 28.485 27.0697 28.2666 26.84 28.134Z" fill="black"/>
<path d="M43.16 39.866C43.3313 39.9649 43.5281 40.0108 43.7254 39.9979C43.9228 39.9849 44.1119 39.9138 44.2688 39.7934C44.4257 39.673 44.5434 39.5087 44.607 39.3215C44.6705 39.1342 44.6772 38.9322 44.626 38.7412C44.5748 38.5501 44.4681 38.3786 44.3194 38.2482C44.1707 38.1178 43.9867 38.0344 43.7906 38.0086C43.5945 37.9827 43.3951 38.0157 43.2177 38.1031C43.0404 38.1906 42.8929 38.3287 42.794 38.5C42.6614 38.7297 42.6255 39.0026 42.6941 39.2588C42.7627 39.515 42.9303 39.7334 43.16 39.866Z" fill="black"/>
<path d="M40.866 25.84C40.9649 25.6687 41.0108 25.472 40.9979 25.2746C40.9849 25.0772 40.9138 24.8881 40.7934 24.7312C40.673 24.5743 40.5087 24.4566 40.3215 24.393C40.1342 24.3295 39.9322 24.3228 39.7412 24.374C39.5501 24.4252 39.3786 24.5319 39.2482 24.6806C39.1178 24.8293 39.0344 25.0133 39.0086 25.2094C38.9827 25.4055 39.0157 25.6049 39.1031 25.7823C39.1906 25.9596 39.3287 26.1071 39.5 26.206C39.7297 26.3386 40.0026 26.3745 40.2588 26.3059C40.515 26.2373 40.7334 26.0697 40.866 25.84Z" fill="black"/>
</svg>
