<svg width="64" height="64" viewBox="0 0 64 64" fill="none" xmlns="http://www.w3.org/2000/svg">
<path d="M6 28C6.26522 28 6.51957 27.8946 6.70711 27.7071C6.89464 27.5196 7 27.2652 7 27V19C7 18.2044 7.31607 17.4413 7.87868 16.8787C8.44129 16.3161 9.20435 16 10 16H11V30.025C9.58128 31.9212 8.88232 34.2597 9.02779 36.6234C9.17326 38.9871 10.1537 41.2223 11.7942 42.9302C13.4347 44.6381 15.6286 45.7077 17.9846 45.9481C20.3405 46.1886 22.7053 45.5843 24.657 44.243C24.7744 44.1728 24.8762 44.0793 24.956 43.9682C25.0358 43.8571 25.092 43.7309 25.1211 43.5972C25.1502 43.4635 25.1515 43.3253 25.125 43.1911C25.0986 43.0569 25.0448 42.9296 24.9672 42.8169C24.8895 42.7043 24.7896 42.6089 24.6736 42.5364C24.5575 42.464 24.4279 42.4161 24.2926 42.3958C24.1573 42.3754 24.0193 42.3831 23.8871 42.4182C23.7549 42.4533 23.6313 42.5152 23.524 42.6C21.8967 43.7214 19.9133 44.2038 17.9528 43.9551C15.9923 43.7064 14.1922 42.744 12.8965 41.2519C11.6008 39.7597 10.9003 37.8424 10.929 35.8664C10.9576 33.8904 11.7134 31.9943 13.0519 30.5403C14.3903 29.0864 16.2176 28.1766 18.1845 27.9849C20.1514 27.7932 22.12 28.333 23.714 29.5011C25.3081 30.6692 26.4158 32.3837 26.8255 34.317C27.2352 36.2503 26.9182 38.2667 25.935 39.981C25.8024 40.2109 25.7666 40.4841 25.8354 40.7405C25.9042 40.9969 26.0721 41.2154 26.302 41.348C26.5319 41.4806 26.8051 41.5164 27.0615 41.4476C27.3179 41.3788 27.5364 41.2109 27.669 40.981C28.5408 39.4657 28.9998 37.7482 29 36C28.9965 35.5293 28.9594 35.0594 28.889 34.594C29.7919 34.892 30.6514 35.3083 31.445 35.832C31.6093 35.9416 31.8025 36.0001 32 36.0001C32.1975 36.0001 32.3907 35.9416 32.555 35.832C34.3442 34.6363 36.4481 33.9987 38.6 34H52C52.2652 34 52.5196 33.8946 52.7071 33.7071C52.8946 33.5196 53 33.2652 53 33V7C53 6.73478 52.8946 6.48043 52.7071 6.29289C52.5196 6.10536 52.2652 6 52 6H49V3C49 2.73478 48.8946 2.48043 48.7071 2.29289C48.5196 2.10536 48.2652 2 48 2H44C43.7348 2 43.4804 2.10536 43.2929 2.29289C43.1054 2.48043 43 2.73478 43 3C43 3.26522 43.1054 3.51957 43.2929 3.70711C43.4804 3.89464 43.7348 4 44 4H47V28H38.6C36.6608 27.9986 34.7463 28.4359 33 29.279V7C33 6.20435 33.3161 5.44129 33.8787 4.87868C34.4413 4.31607 35.2044 4 36 4H40C40.2652 4 40.5196 3.89464 40.7071 3.70711C40.8946 3.51957 41 3.26522 41 3C41 2.73478 40.8946 2.48043 40.7071 2.29289C40.5196 2.10536 40.2652 2 40 2H36C35.2209 2.00219 34.4532 2.18707 33.7585 2.5398C33.0638 2.89253 32.4615 3.40327 32 4.031C31.5385 3.40327 30.9362 2.89253 30.2415 2.5398C29.5468 2.18707 28.7791 2.00219 28 2H16C15.7348 2 15.4804 2.10536 15.2929 2.29289C15.1054 2.48043 15 2.73478 15 3V6H12C11.7348 6 11.4804 6.10536 11.2929 6.29289C11.1054 6.48043 11 6.73478 11 7V14H10C8.6744 14.0016 7.40356 14.5289 6.46622 15.4662C5.52888 16.4036 5.00159 17.6744 5 19V27C5 27.2652 5.10536 27.5196 5.29289 27.7071C5.48043 27.8946 5.73478 28 6 28ZM27.08 30.133C28.4666 30.3499 29.7978 30.8339 31 31.558V33.282C30.1373 32.8728 29.2317 32.5609 28.3 32.352C27.9893 31.5635 27.5793 30.8178 27.08 30.133ZM38.6 30H48C48.2652 30 48.5196 29.8946 48.7071 29.7071C48.8946 29.5196 49 29.2652 49 29V8H51V32H38.6C36.6603 32.0011 34.7459 32.4408 33 33.286V31.558C34.6905 30.5396 36.6265 30.001 38.6 30ZM28 4C28.7956 4 29.5587 4.31607 30.1213 4.87868C30.6839 5.44129 31 6.20435 31 7V29.279C29.2537 28.4359 27.3392 27.9986 25.4 28H24.98C23.8536 27.1512 22.5595 26.5517 21.1837 26.2413C19.8078 25.931 18.3817 25.9169 17 26.2V4H28ZM13 8H15V26.841C14.2896 27.1542 13.6184 27.5496 13 28.019V8Z" fill="black"/>
<path d="M56.5 14.673C56.2701 14.5404 55.9969 14.5045 55.7405 14.5734C55.4841 14.6422 55.2656 14.81 55.133 15.04C55.0004 15.2699 54.9646 15.5431 55.0334 15.7995C55.1022 16.0558 55.2701 16.2744 55.5 16.407C55.9553 16.6698 56.3335 17.0478 56.5968 17.5028C56.8601 17.9579 56.9991 18.4742 57 19V45C57 45.7956 56.6839 46.5587 56.1213 47.1213C55.5587 47.6839 54.7956 48 54 48H10C9.20435 48 8.44129 47.6839 7.87868 47.1213C7.31607 46.5587 7 45.7956 7 45V31C7 30.7348 6.89464 30.4804 6.70711 30.2929C6.51957 30.1053 6.26522 30 6 30C5.73478 30 5.48043 30.1053 5.29289 30.2929C5.10536 30.4804 5 30.7348 5 31V45C5.00159 46.3256 5.52888 47.5964 6.46622 48.5337C7.40356 49.4711 8.6744 49.9984 10 50H20.934C20.78 51.1716 20.3645 52.2936 19.7181 53.2829C19.0717 54.2722 18.2111 55.1034 17.2 55.715L16.723 56H14C12.6744 56.0016 11.4036 56.5289 10.4662 57.4662C9.52888 58.4035 9.00159 59.6744 9 61C9 61.2652 9.10536 61.5195 9.29289 61.7071C9.48043 61.8946 9.73478 62 10 62H34C34.2652 62 34.5196 61.8946 34.7071 61.7071C34.8946 61.5195 35 61.2652 35 61C35 60.7348 34.8946 60.4804 34.7071 60.2929C34.5196 60.1053 34.2652 60 34 60H11.171C11.3786 59.4155 11.7619 58.9095 12.2684 58.5514C12.7749 58.1933 13.3797 58.0007 14 58H50C50.6203 58.0007 51.2251 58.1933 51.7316 58.5514C52.2381 58.9095 52.6214 59.4155 52.829 60H38C37.7348 60 37.4804 60.1053 37.2929 60.2929C37.1054 60.4804 37 60.7348 37 61C37 61.2652 37.1054 61.5195 37.2929 61.7071C37.4804 61.8946 37.7348 62 38 62H54C54.2652 62 54.5196 61.8946 54.7071 61.7071C54.8946 61.5195 55 61.2652 55 61C54.9984 59.6744 54.4711 58.4035 53.5338 57.4662C52.5964 56.5289 51.3256 56.0016 50 56H47.277L46.802 55.715C45.7904 55.1037 44.9293 54.2726 44.2826 53.2833C43.6359 52.294 43.2201 51.1718 43.066 50H54C55.3256 49.9984 56.5964 49.4711 57.5338 48.5337C58.4711 47.5964 58.9984 46.3256 59 45V19C58.9995 18.1228 58.7682 17.2612 58.3293 16.5017C57.8905 15.7422 57.2596 15.1115 56.5 14.673ZM43.934 56H20.067C21.6904 54.392 22.7082 52.2723 22.948 50H41.048C41.2885 52.2732 42.3082 54.3931 43.934 56Z" fill="black"/>
<path d="M44 8H38C37.7348 8 37.4804 8.10536 37.2929 8.29289C37.1054 8.48043 37 8.73478 37 9C37 9.26522 37.1054 9.51957 37.2929 9.70711C37.4804 9.89464 37.7348 10 38 10H44C44.2652 10 44.5196 9.89464 44.7071 9.70711C44.8946 9.51957 45 9.26522 45 9C45 8.73478 44.8946 8.48043 44.7071 8.29289C44.5196 8.10536 44.2652 8 44 8Z" fill="black"/>
<path d="M44 12H36C35.7348 12 35.4804 12.1054 35.2929 12.2929C35.1054 12.4804 35 12.7348 35 13C35 13.2652 35.1054 13.5196 35.2929 13.7071C35.4804 13.8946 35.7348 14 36 14H44C44.2652 14 44.5196 13.8946 44.7071 13.7071C44.8946 13.5196 45 13.2652 45 13C45 12.7348 44.8946 12.4804 44.7071 12.2929C44.5196 12.1054 44.2652 12 44 12Z" fill="black"/>
<path d="M44 16H36C35.7348 16 35.4804 16.1054 35.2929 16.2929C35.1054 16.4804 35 16.7348 35 17C35 17.2652 35.1054 17.5196 35.2929 17.7071C35.4804 17.8946 35.7348 18 36 18H44C44.2652 18 44.5196 17.8946 44.7071 17.7071C44.8946 17.5196 45 17.2652 45 17C45 16.7348 44.8946 16.4804 44.7071 16.2929C44.5196 16.1054 44.2652 16 44 16Z" fill="black"/>
<path d="M45 21C45 20.7348 44.8946 20.4804 44.7071 20.2929C44.5196 20.1054 44.2652 20 44 20H36C35.7348 20 35.4804 20.1054 35.2929 20.2929C35.1054 20.4804 35 20.7348 35 21C35 21.2652 35.1054 21.5196 35.2929 21.7071C35.4804 21.8946 35.7348 22 36 22H44C44.2652 22 44.5196 21.8946 44.7071 21.7071C44.8946 21.5196 45 21.2652 45 21Z" fill="black"/>
<path d="M36 24C35.7348 24 35.4804 24.1054 35.2929 24.2929C35.1054 24.4804 35 24.7348 35 25C35 25.2652 35.1054 25.5196 35.2929 25.7071C35.4804 25.8946 35.7348 26 36 26H40C40.2652 26 40.5196 25.8946 40.7071 25.7071C40.8946 25.5196 41 25.2652 41 25C41 24.7348 40.8946 24.4804 40.7071 24.2929C40.5196 24.1054 40.2652 24 40 24H36Z" fill="black"/>
<path d="M22 10H28C28.2652 10 28.5196 9.89464 28.7071 9.70711C28.8946 9.51957 29 9.26522 29 9C29 8.73478 28.8946 8.48043 28.7071 8.29289C28.5196 8.10536 28.2652 8 28 8H22C21.7348 8 21.4804 8.10536 21.2929 8.29289C21.1054 8.48043 21 8.73478 21 9C21 9.26522 21.1054 9.51957 21.2929 9.70711C21.4804 9.89464 21.7348 10 22 10Z" fill="black"/>
<path d="M20 14H28C28.2652 14 28.5196 13.8946 28.7071 13.7071C28.8946 13.5196 29 13.2652 29 13C29 12.7348 28.8946 12.4804 28.7071 12.2929C28.5196 12.1054 28.2652 12 28 12H20C19.7348 12 19.4804 12.1054 19.2929 12.2929C19.1054 12.4804 19 12.7348 19 13C19 13.2652 19.1054 13.5196 19.2929 13.7071C19.4804 13.8946 19.7348 14 20 14Z" fill="black"/>
<path d="M20 18H28C28.2652 18 28.5196 17.8946 28.7071 17.7071C28.8946 17.5196 29 17.2652 29 17C29 16.7348 28.8946 16.4804 28.7071 16.2929C28.5196 16.1054 28.2652 16 28 16H20C19.7348 16 19.4804 16.1054 19.2929 16.2929C19.1054 16.4804 19 16.7348 19 17C19 17.2652 19.1054 17.5196 19.2929 17.7071C19.4804 17.8946 19.7348 18 20 18Z" fill="black"/>
<path d="M20 22H28C28.2652 22 28.5196 21.8946 28.7071 21.7071C28.8946 21.5196 29 21.2652 29 21C29 20.7348 28.8946 20.4804 28.7071 20.2929C28.5196 20.1054 28.2652 20 28 20H20C19.7348 20 19.4804 20.1054 19.2929 20.2929C19.1054 20.4804 19 20.7348 19 21C19 21.2652 19.1054 21.5196 19.2929 21.7071C19.4804 21.8946 19.7348 22 20 22Z" fill="black"/>
<path d="M28 24H25C24.7348 24 24.4804 24.1054 24.2929 24.2929C24.1054 24.4804 24 24.7348 24 25C24 25.2652 24.1054 25.5196 24.2929 25.7071C24.4804 25.8946 24.7348 26 25 26H28C28.2652 26 28.5196 25.8946 28.7071 25.7071C28.8946 25.5196 29 25.2652 29 25C29 24.7348 28.8946 24.4804 28.7071 24.2929C28.5196 24.1054 28.2652 24 28 24Z" fill="black"/>
<path d="M51 36H48C47.7348 36 47.4804 36.1054 47.2929 36.2929C47.1054 36.4804 47 36.7348 47 37C47 37.2652 47.1054 37.5196 47.2929 37.7071C47.4804 37.8946 47.7348 38 48 38H51C51.2652 38 51.5196 37.8946 51.7071 37.7071C51.8946 37.5196 52 37.2652 52 37C52 36.7348 51.8946 36.4804 51.7071 36.2929C51.5196 36.1054 51.2652 36 51 36Z" fill="black"/>
<path d="M51 40H46C45.7348 40 45.4804 40.1054 45.2929 40.2929C45.1054 40.4804 45 40.7348 45 41C45 41.2652 45.1054 41.5196 45.2929 41.7071C45.4804 41.8946 45.7348 42 46 42H51C51.2652 42 51.5196 41.8946 51.7071 41.7071C51.8946 41.5196 52 41.2652 52 41C52 40.7348 51.8946 40.4804 51.7071 40.2929C51.5196 40.1054 51.2652 40 51 40Z" fill="black"/>
<path d="M42 46H51C51.2652 46 51.5196 45.8946 51.7071 45.7071C51.8946 45.5196 52 45.2652 52 45C52 44.7348 51.8946 44.4804 51.7071 44.2929C51.5196 44.1054 51.2652 44 51 44H42C41.7348 44 41.4804 44.1054 41.2929 44.2929C41.1054 44.4804 41 44.7348 41 45C41 45.2652 41.1054 45.5196 41.2929 45.7071C41.4804 45.8946 41.7348 46 42 46Z" fill="black"/>
<path d="M43 41C43 40.7348 42.8946 40.4804 42.7071 40.2929C42.5196 40.1054 42.2652 40 42 40H35C34.7348 40 34.4804 40.1054 34.2929 40.2929C34.1054 40.4804 34 40.7348 34 41C34 41.2652 34.1054 41.5196 34.2929 41.7071C34.4804 41.8946 34.7348 42 35 42H42C42.2652 42 42.5196 41.8946 42.7071 41.7071C42.8946 41.5196 43 41.2652 43 41Z" fill="black"/>
<path d="M44 38C44.2652 38 44.5196 37.8946 44.7071 37.7071C44.8946 37.5196 45 37.2652 45 37C45 36.7348 44.8946 36.4804 44.7071 36.2929C44.5196 36.1054 44.2652 36 44 36H40C39.7348 36 39.4804 36.1054 39.2929 36.2929C39.1054 36.4804 39 36.7348 39 37C39 37.2652 39.1054 37.5196 39.2929 37.7071C39.4804 37.8946 39.7348 38 40 38H44Z" fill="black"/>
<path d="M35 44C34.7348 44 34.4804 44.1054 34.2929 44.2929C34.1054 44.4804 34 44.7348 34 45C34 45.2652 34.1054 45.5196 34.2929 45.7071C34.4804 45.8946 34.7348 46 35 46H38C38.2652 46 38.5196 45.8946 38.7071 45.7071C38.8946 45.5196 39 45.2652 39 45C39 44.7348 38.8946 44.4804 38.7071 44.2929C38.5196 44.1054 38.2652 44 38 44H35Z" fill="black"/>
<path d="M23.243 34.757C23.4407 34.757 23.634 34.6983 23.7985 34.5884C23.9629 34.4785 24.091 34.3224 24.1667 34.1397C24.2423 33.957 24.2621 33.7559 24.2236 33.562C24.185 33.368 24.0898 33.1899 23.95 33.05C22.6361 31.7393 20.8559 31.0032 19 31.0032C17.1441 31.0032 15.3639 31.7393 14.05 33.05C13.8678 33.2386 13.767 33.4912 13.7693 33.7534C13.7716 34.0156 13.8768 34.2664 14.0622 34.4518C14.2476 34.6372 14.4984 34.7424 14.7606 34.7447C15.0228 34.747 15.2754 34.6462 15.464 34.464C16.4028 33.528 17.6743 33.0024 19 33.0024C20.3257 33.0024 21.5972 33.528 22.536 34.464C22.6286 34.5572 22.7388 34.6311 22.8601 34.6814C22.9815 34.7317 23.1116 34.7574 23.243 34.757Z" fill="black"/>
<path d="M21.121 37.293C21.3085 37.1055 21.4138 36.8512 21.4138 36.586C21.4138 36.3208 21.3085 36.0665 21.121 35.879C20.5494 35.333 19.7894 35.0283 18.999 35.0283C18.2086 35.0283 17.4485 35.333 16.877 35.879C16.6895 36.0666 16.5842 36.3211 16.5843 36.5863C16.5844 36.8516 16.6899 37.106 16.8775 37.2935C17.0651 37.481 17.3196 37.5863 17.5848 37.5862C17.8501 37.5861 18.1045 37.4806 18.292 37.293C18.4824 37.111 18.7356 37.0094 18.999 37.0094C19.2624 37.0094 19.5156 37.111 19.706 37.293C19.8935 37.4805 20.1478 37.5858 20.413 37.5858C20.6782 37.5858 20.9335 37.4805 21.121 37.293Z" fill="black"/>
<path d="M19 41C19.5523 41 20 40.5523 20 40C20 39.4477 19.5523 39 19 39C18.4477 39 18 39.4477 18 40C18 40.5523 18.4477 41 19 41Z" fill="black"/>
</svg>
