<svg width="64" height="64" viewBox="0 0 64 64" fill="none" xmlns="http://www.w3.org/2000/svg">
<path d="M40.945 44.71C40.393 44.733 39.965 45.199 39.988 45.751C39.996 45.946 40 46.141 40 46.335V61C40 61.552 40.448 62 41 62C41.552 62 42 61.552 42 61V46.335C42 46.112 41.995 45.889 41.986 45.667C41.963 45.115 41.48 44.688 40.945 44.71Z" fill="black"/>
<path d="M30.707 17.707C31.098 17.316 31.098 16.684 30.707 16.293C29.215 14.8 26.785 14.8 25.293 16.293C24.902 16.684 24.902 17.316 25.293 17.707C25.684 18.098 26.316 18.098 26.707 17.707C27.42 16.994 28.58 16.994 29.293 17.707C29.488 17.902 29.744 18 30 18C30.256 18 30.512 17.902 30.707 17.707Z" fill="black"/>
<path d="M28 20C28.5523 20 29 19.5523 29 19C29 18.4477 28.5523 18 28 18C27.4477 18 27 18.4477 27 19C27 19.5523 27.4477 20 28 20Z" fill="black"/>
<path d="M21.293 17.707C21.488 17.902 21.744 18 22 18C22.256 18 22.512 17.902 22.707 17.707C23.098 17.316 23.098 16.684 22.707 16.293C21.215 14.8 18.785 14.8 17.293 16.293C16.902 16.684 16.902 17.316 17.293 17.707C17.684 18.098 18.316 18.098 18.707 17.707C19.42 16.994 20.58 16.994 21.293 17.707Z" fill="black"/>
<path d="M20 20C20.5523 20 21 19.5523 21 19C21 18.4477 20.5523 18 20 18C19.4477 18 19 18.4477 19 19C19 19.5523 19.4477 20 20 20Z" fill="black"/>
<path d="M26.445 25.168C24.96 26.158 23.04 26.158 21.554 25.168C21.094 24.86 20.472 24.986 20.167 25.445C19.861 25.904 19.985 26.526 20.444 26.832C21.524 27.552 22.761 27.912 23.999 27.912C25.237 27.912 26.474 27.552 27.554 26.832C28.013 26.526 28.137 25.905 27.831 25.445C27.525 24.985 26.904 24.86 26.445 25.168Z" fill="black"/>
<path d="M22.293 22.707L23.293 23.707C23.488 23.902 23.744 24 24 24C24.256 24 24.512 23.902 24.707 23.707C25.098 23.316 25.098 22.684 24.707 22.293L24.232 21.818L24.954 20.472C25.215 19.986 25.032 19.379 24.545 19.118C24.059 18.856 23.452 19.039 23.191 19.527L22.118 21.527C21.91 21.916 21.981 22.395 22.293 22.707Z" fill="black"/>
<path d="M53.757 23.293C53.366 22.902 52.734 22.902 52.343 23.293C51.952 23.684 51.952 24.316 52.343 24.707L52.697 25.061L51.283 26.476C50.892 26.085 50.26 26.085 49.869 26.476L42.091 34.254C41.7 34.645 41.7 35.277 42.091 35.668L40.676 37.082C40.488 37.27 40.383 37.524 40.383 37.789C40.383 38.054 40.488 38.309 40.676 38.496L41.383 39.203L40.544 40.042C40.499 39.954 40.459 39.863 40.411 39.777C40.09 39.193 39.706 38.633 39.289 38.093C39.729 37.056 39.526 35.817 38.701 34.992C38.03 34.321 37.072 34.034 36.142 34.223C35.805 34.292 35.501 34.437 35.219 34.614C34.103 34.003 32.928 33.552 31.708 33.294C30.958 33.135 30.394 32.494 30.305 31.699L30.105 29.902C32.469 28.071 34 25.214 34 22V20.899C36.279 20.434 38 18.415 38 16C38 15.097 37.591 14.296 36.957 13.745C36.571 7.141 31.156 2 24.51 2H23.49C21.452 2 19.519 2.473 17.745 3.405C17.256 3.662 17.068 4.266 17.325 4.755C17.581 5.244 18.187 5.434 18.675 5.175C20.16 4.396 21.78 4 23.49 4H24.51C29.803 4 34.172 7.88 34.887 13.011C34.126 13.04 33.438 13.348 32.924 13.843L32.48 13.621C32.053 13.408 31.735 13.041 31.584 12.588C31.067 11.041 29.624 10 27.992 10H20.009C18.377 10 16.933 11.041 16.417 12.589C16.266 13.041 15.948 13.408 15.521 13.621L15.077 13.843C14.565 13.35 13.88 13.043 13.123 13.012C13.421 10.925 14.336 8.965 15.767 7.406C16.141 6.999 16.113 6.366 15.706 5.993C15.298 5.618 14.666 5.647 14.293 6.054C12.358 8.163 11.216 10.885 11.043 13.745C10.41 14.295 10 15.097 10 16C10 18.414 11.721 20.434 14 20.899V22C14 25.214 15.53 28.071 17.894 29.902L17.694 31.699C17.605 32.494 17.042 33.135 16.291 33.294C12.594 34.076 9.422 36.44 7.588 39.778C6.549 41.668 6 43.936 6 46.335V61C6 61.552 6.448 62 7 62C7.552 62 8 61.552 8 61V50H13V61C13 61.552 13.448 62 14 62C14.552 62 15 61.552 15 61V45C15 44.448 14.552 44 14 44C13.448 44 13 44.448 13 45V48H8V46.335C8 44.272 8.464 42.337 9.341 40.74C10.894 37.913 13.578 35.911 16.705 35.25C18.301 34.912 19.497 33.574 19.681 31.919L19.777 31.052C21.063 31.654 22.49 32 24 32C25.51 32 26.937 31.654 28.222 31.052L28.318 31.919C28.451 33.114 29.116 34.138 30.075 34.745C28.425 36.185 26.283 37 24 37C22.492 37 21 36.639 19.686 35.957C19.194 35.703 18.592 35.894 18.337 36.384C18.083 36.874 18.274 37.478 18.764 37.733C20.361 38.562 22.172 39 24 39C27.155 39 30.094 37.716 32.184 35.48C32.803 35.668 33.407 35.914 33.993 36.215C33.341 37.932 33 39.731 33 41.571V61C33 61.552 33.448 62 34 62C34.552 62 35 61.552 35 61V46.192L35.67 44.519C36.323 42.886 37.15 41.33 38.125 39.871C38.318 40.155 38.497 40.445 38.659 40.74C38.801 41 38.91 41.282 39.03 41.557L37.848 42.739C37.457 43.13 37.457 43.762 37.848 44.153C38.043 44.348 38.299 44.446 38.555 44.446C38.811 44.446 39.067 44.348 39.262 44.153L42.797 40.618L43.504 41.325C43.692 41.513 43.946 41.618 44.211 41.618C44.476 41.618 44.731 41.513 44.918 41.325L46.332 39.91C46.527 40.105 46.783 40.203 47.039 40.203C47.295 40.203 47.551 40.105 47.746 39.91L55.524 32.132C55.915 31.741 55.915 31.109 55.524 30.718L56.939 29.304L57.293 29.658C57.488 29.853 57.744 29.951 58 29.951C58.256 29.951 58.512 29.853 58.707 29.658C59.098 29.267 59.098 28.635 58.707 28.244L53.757 23.293ZM35 15C35.551 15 36 15.449 36 16C36 17.304 35.164 18.416 34 18.829V16C34 15.449 34.449 15 35 15ZM12 16C12 15.449 12.449 15 13 15C13.551 15 14 15.449 14 16V18.829C12.836 18.416 12 17.304 12 16ZM16 22V15.618L16.415 15.41C17.32 14.957 17.994 14.18 18.313 13.221C18.557 12.491 19.238 12 20.008 12H27.991C28.761 12 29.442 12.491 29.686 13.221C30.005 14.18 30.68 14.958 31.584 15.41L32 15.618V22C32 26.411 28.411 30 24 30C19.589 30 16 26.411 16 22ZM35.005 41.193C35.049 39.641 35.365 38.125 35.945 36.679C36.094 36.309 36.412 36.208 36.542 36.181C36.582 36.173 36.64 36.164 36.71 36.164C36.87 36.164 37.09 36.208 37.286 36.404C37.574 36.692 37.606 37.154 37.361 37.479C36.478 38.653 35.689 39.896 35.005 41.193ZM44.211 39.203L43.505 38.497L43.504 38.496L43.503 38.495L42.797 37.789L43.505 37.082L44.919 38.496L44.211 39.203ZM47.04 37.789L44.211 34.96L44.918 34.253L46.332 35.667C46.527 35.862 46.783 35.96 47.039 35.96C47.295 35.96 47.551 35.862 47.746 35.667C48.137 35.276 48.137 34.643 47.746 34.253L46.332 32.839L47.039 32.132L48.453 33.546C48.648 33.741 48.904 33.839 49.16 33.839C49.416 33.839 49.672 33.741 49.867 33.546C50.258 33.156 50.258 32.523 49.867 32.132L48.453 30.718L50.574 28.597L53.403 31.426L47.04 37.789ZM54.111 29.303L52.697 27.889L54.111 26.474L55.526 27.889L54.111 29.303Z" fill="black"/>
<path d="M49 22C54.514 22 59 17.514 59 12C59 10.122 58.467 8.283 57.459 6.683C57.166 6.215 56.548 6.077 56.08 6.37C55.613 6.664 55.472 7.282 55.767 7.749C56.574 9.029 57 10.5 57 12C57 16.411 53.411 20 49 20C44.589 20 41 16.411 41 12C41 7.589 44.589 4 49 4C50.5 4 51.971 4.426 53.252 5.233C53.718 5.526 54.336 5.386 54.631 4.92C54.925 4.453 54.785 3.836 54.318 3.541C52.717 2.533 50.878 2 49 2C43.486 2 39 6.486 39 12C39 17.514 43.486 22 49 22Z" fill="black"/>
<path d="M47 18H51C51.552 18 52 17.552 52 17V15H54C54.552 15 55 14.552 55 14V10C55 9.448 54.552 9 54 9H52V7C52 6.448 51.552 6 51 6H47C46.448 6 46 6.448 46 7V9H44C43.448 9 43 9.448 43 10V14C43 14.552 43.448 15 44 15H46V17C46 17.552 46.448 18 47 18ZM45 13V11H47C47.552 11 48 10.552 48 10V8H50V10C50 10.552 50.448 11 51 11H53V13H51C50.448 13 50 13.448 50 14V16H48V14C48 13.448 47.552 13 47 13H45Z" fill="black"/>
</svg>
