<svg width="64" height="64" viewBox="0 0 64 64" fill="none" xmlns="http://www.w3.org/2000/svg">
<path d="M61 46C61.552 46 62 45.553 62 45V20C62 17.243 59.757 15 57 15H50V8C50 5.243 47.757 3 45 3H40.722C40.375 2.405 39.737 2 39 2H25C24.263 2 23.625 2.405 23.278 3H19C16.243 3 14 5.243 14 8V15H7C4.243 15 2 17.243 2 20V53C2 55.757 4.243 58 7 58H10V61C10 61.553 10.448 62 11 62H19C19.552 62 20 61.553 20 61V58H44V61C44 61.553 44.448 62 45 62H53C53.552 62 54 61.553 54 61V58H57C59.757 58 62 55.757 62 53V49C62 48.447 61.552 48 61 48C60.448 48 60 48.447 60 49V53C60 54.654 58.654 56 57 56H7C5.346 56 4 54.654 4 53V20C4 18.346 5.346 17 7 17H10V19C10 20.103 10.897 21 12 21H22C23.103 21 24 20.103 24 19V17H40V19C40 20.103 40.897 21 42 21H52C53.103 21 54 20.103 54 19V17H57C58.654 17 60 18.346 60 20V45C60 45.553 60.448 46 61 46ZM52 58V60H46V58H52ZM18 58V60H12V58H18ZM48 8V15H20V9H23.278C23.625 9.595 24.263 10 25 10H39C39.737 10 40.375 9.595 40.722 9H44V12C44 12.553 44.448 13 45 13C45.552 13 46 12.553 46 12V8C46 7.447 45.552 7 45 7H41V5H45C46.654 5 48 6.346 48 8ZM39 4V8H25V4H39ZM16 8C16 6.346 17.346 5 19 5H23V7H19C18.448 7 18 7.447 18 8V15H16V8ZM22.001 19H12V17H22L22.001 19ZM52.001 19H42V17H52L52.001 19Z" fill="black"/>
<path d="M8 27C7.448 27 7 27.447 7 28V52C7 52.553 7.448 53 8 53H56C56.552 53 57 52.553 57 52V24C57 23.447 56.552 23 56 23H8C7.448 23 7 23.447 7 24C7 24.553 7.448 25 8 25H55V51H9V28C9 27.447 8.552 27 8 27Z" fill="black"/>
<path d="M25 28H19C18.448 28 18 28.447 18 29V34H13C12.448 34 12 34.447 12 35V41C12 41.553 12.448 42 13 42H18V47C18 47.553 18.448 48 19 48H25C25.552 48 26 47.553 26 47V41C26 40.447 25.552 40 25 40C24.448 40 24 40.447 24 41V46H20V41C20 40.447 19.552 40 19 40H14V36H19C19.552 36 20 35.553 20 35V30H24V35C24 35.553 24.448 36 25 36H30V40H29C28.448 40 28 40.447 28 41C28 41.553 28.448 42 29 42H31C31.552 42 32 41.553 32 41V35C32 34.447 31.552 34 31 34H26V29C26 28.447 25.552 28 25 28Z" fill="black"/>
<path d="M51 30C51.552 30 52 29.553 52 29C52 28.447 51.552 28 51 28H37C36.448 28 36 28.447 36 29V33C36 33.553 36.448 34 37 34H51C51.552 34 52 33.553 52 33C52 32.447 51.552 32 51 32H38V30H51Z" fill="black"/>
<path d="M51 36H41C40.448 36 40 36.447 40 37C40 37.553 40.448 38 41 38H51C51.552 38 52 37.553 52 37C52 36.447 51.552 36 51 36Z" fill="black"/>
<path d="M37 42H51C51.552 42 52 41.553 52 41C52 40.447 51.552 40 51 40H37C36.448 40 36 40.447 36 41C36 41.553 36.448 42 37 42Z" fill="black"/>
<path d="M37 46H43C43.552 46 44 45.553 44 45C44 44.447 43.552 44 43 44H37C36.448 44 36 44.447 36 45C36 45.553 36.448 46 37 46Z" fill="black"/>
</svg>
