<svg width="64" height="64" viewBox="0 0 64 64" fill="none" xmlns="http://www.w3.org/2000/svg">
<path d="M61.084 38.604L58.598 38.395C58.484 37.866 58.343 37.341 58.178 36.825L60.226 35.401C60.653 35.105 60.781 34.53 60.521 34.08L58.122 29.923C57.861 29.473 57.303 29.296 56.83 29.518L54.585 30.574C54.218 30.171 53.832 29.784 53.429 29.418L54.485 27.173C54.706 26.703 54.53 26.142 54.08 25.881L49.924 23.481C49.474 23.223 48.9 23.35 48.603 23.776L47.179 25.824C46.661 25.659 46.137 25.518 45.608 25.404L45.399 22.918C45.375 22.627 45.22 22.383 45.003 22.217V15H55.003V17H48.003C47.45 17 47.003 17.448 47.003 18V22C47.003 22.552 47.45 23 48.003 23H55.003V26.762C55.003 27.314 55.45 27.762 56.003 27.762C56.556 27.762 57.003 27.314 57.003 26.762V14C57.003 13.448 56.556 13 56.003 13H45V3C45 2.448 44.553 2 44 2H34C33.642 2 33.31 2.192 33.132 2.504L31.706 5H21C20.621 5 20.275 5.214 20.105 5.553L18.382 9H14C13.447 9 13 9.448 13 10V50H3V44H10C10.553 44 11 43.552 11 43V35C11 34.448 10.553 34 10 34H3V32H10C10.553 32 11 31.552 11 31C11 30.448 10.553 30 10 30H2C1.447 30 1 30.448 1 31V51C1 51.552 1.447 52 2 52H21.055C21.608 52 22.055 51.552 22.055 51C22.055 50.448 21.608 50 21.055 50H15V35H23.456C23.528 35.154 23.626 35.296 23.774 35.399L25.822 36.823C25.657 37.34 25.516 37.864 25.402 38.393L22.916 38.602C22.398 38.647 22 39.081 22 39.6V44.4C22 44.92 22.398 45.353 22.916 45.397L25.402 45.606C25.517 46.135 25.657 46.66 25.822 47.176L23.774 48.6C23.347 48.896 23.219 49.471 23.479 49.921L25.878 54.078C26.138 54.527 26.696 54.704 27.17 54.483L29.415 53.427C29.782 53.83 30.168 54.217 30.571 54.583L29.515 56.828C29.294 57.298 29.47 57.859 29.92 58.12L34.076 60.52C34.553 60.794 35.165 60.632 35.442 60.154C35.718 59.676 35.554 59.064 35.076 58.788L31.716 56.848L32.702 54.75C32.895 54.337 32.786 53.846 32.434 53.555C31.712 52.957 31.042 52.286 30.442 51.562C30.152 51.211 29.66 51.101 29.247 51.295L27.149 52.281L25.669 49.717L27.584 48.385C27.958 48.125 28.109 47.643 27.95 47.216C27.624 46.34 27.38 45.427 27.225 44.507C27.149 44.056 26.778 43.715 26.323 43.676L24 43.48V40.52L26.325 40.324C26.78 40.285 27.151 39.944 27.227 39.493C27.381 38.573 27.625 37.661 27.952 36.783C28.111 36.355 27.96 35.874 27.586 35.614L25.671 34.282L27.151 31.718L29.249 32.704C29.662 32.899 30.154 32.788 30.444 32.437C31.045 31.713 31.715 31.042 32.436 30.444C32.788 30.153 32.897 29.661 32.704 29.249L31.718 27.151L34.282 25.671L35.613 27.585C35.874 27.96 36.353 28.109 36.783 27.952C37.66 27.626 38.572 27.382 39.493 27.227C39.943 27.151 40.285 26.78 40.323 26.325L40.52 24H43.481L43.677 26.325C43.715 26.78 44.057 27.151 44.507 27.227C45.426 27.381 46.338 27.625 47.218 27.952C47.644 28.112 48.126 27.96 48.387 27.585L49.718 25.671L52.282 27.151L51.296 29.249C51.103 29.662 51.212 30.153 51.564 30.444C52.286 31.042 52.956 31.713 53.556 32.437C53.847 32.788 54.339 32.898 54.751 32.704L56.849 31.718L58.329 34.282L56.414 35.614C56.04 35.874 55.889 36.355 56.048 36.783C56.374 37.661 56.618 38.573 56.773 39.493C56.849 39.944 57.22 40.285 57.675 40.324L60 40.52V43.481L57.675 43.677C57.22 43.716 56.849 44.057 56.773 44.508C56.619 45.429 56.375 46.341 56.048 47.217C55.889 47.645 56.04 48.126 56.414 48.386L58.329 49.718L56.849 52.282L54.751 51.296C54.339 51.101 53.847 51.212 53.556 51.563C52.955 52.287 52.285 52.958 51.564 53.556C51.212 53.847 51.103 54.339 51.296 54.751L52.282 56.849L49.718 58.329L48.387 56.415C48.126 56.04 47.647 55.891 47.217 56.048C46.34 56.374 45.428 56.618 44.507 56.773C44.057 56.849 43.715 57.22 43.677 57.675L43.48 60H40.52L40.324 57.675C40.286 57.22 39.944 56.849 39.494 56.773C38.575 56.619 37.663 56.375 36.783 56.048C36.266 55.857 35.69 56.12 35.498 56.638C35.306 57.156 35.57 57.731 36.088 57.923C36.84 58.202 37.613 58.428 38.396 58.598L38.605 61.084C38.646 61.602 39.08 62 39.6 62H44.4C44.92 62 45.353 61.602 45.396 61.084L45.605 58.598C46.135 58.483 46.66 58.343 47.176 58.178L48.6 60.226C48.897 60.653 49.471 60.781 49.921 60.521L54.077 58.121C54.527 57.861 54.703 57.3 54.482 56.829L53.426 54.584C53.829 54.218 54.215 53.831 54.582 53.428L56.827 54.484C57.3 54.705 57.858 54.528 58.119 54.079L60.518 49.922C60.778 49.472 60.65 48.898 60.223 48.601L58.175 47.177C58.34 46.661 58.48 46.136 58.595 45.607L61.081 45.398C61.602 45.353 62 44.919 62 44.4V39.6C62 39.081 61.602 38.647 61.084 38.604ZM49 21V19H55V21H49ZM9 42H3V40H9V42ZM9 36V38H3V36H9ZM34.58 4H43V9H31.724L34.58 4ZM21.618 7H30.562L29.42 9H20.618L21.618 7ZM29.416 30.572L27.171 29.516C26.697 29.294 26.139 29.471 25.879 29.921L24.102 33H15V29H30.377L30.573 29.416C30.169 29.782 29.783 30.169 29.416 30.572ZM39.6 22C39.08 22 38.647 22.398 38.604 22.916L38.395 25.402C37.865 25.517 37.34 25.657 36.824 25.822L35.4 23.774C35.104 23.348 34.53 23.221 34.079 23.479L29.923 25.879C29.526 26.109 29.36 26.571 29.474 27H15V23H36C36.553 23 37 22.552 37 22C37 21.448 36.553 21 36 21H15V11H43V15H18C17.447 15 17 15.448 17 16C17 16.552 17.447 17 18 17H43V22H39.6Z" fill="black"/>
<path d="M42 31.5C44.159 31.5 46.239 32.158 48.015 33.402C48.468 33.719 49.091 33.61 49.409 33.157C49.725 32.705 49.616 32.081 49.164 31.764C47.05 30.283 44.572 29.5 42 29.5C35.107 29.5 29.5 35.107 29.5 42C29.5 48.893 35.107 54.5 42 54.5C48.893 54.5 54.5 48.893 54.5 42C54.5 39.428 53.717 36.951 52.236 34.837C51.918 34.385 51.296 34.275 50.842 34.592C50.39 34.909 50.28 35.532 50.597 35.985C51.843 37.76 52.5 39.84 52.5 42C52.5 45.099 51.142 47.88 49 49.804V47.5C49 45.208 47.44 43.291 45.333 42.703C45.753 42.071 46 41.314 46 40.5V37.5C46 35.294 44.206 33.5 42 33.5C39.794 33.5 38 35.294 38 37.5V40.5C38 41.314 38.247 42.071 38.667 42.703C36.56 43.291 35 45.208 35 47.5V49.804C32.858 47.88 31.5 45.099 31.5 42C31.5 36.21 36.21 31.5 42 31.5ZM40 40.5V39.5H44V40.5C44 41.603 43.103 42.5 42 42.5C40.897 42.5 40 41.603 40 40.5ZM43 44.5C43 45.051 42.552 45.5 42 45.5C41.448 45.5 41 45.051 41 44.5H43ZM41.686 47.468C41.79 47.479 41.892 47.5 42 47.5C42.107 47.5 42.209 47.479 42.314 47.468L42.929 51.156L42 52.086L41.071 51.157L41.686 47.468ZM47 47.5V51.231C46.305 51.609 45.558 51.9 44.78 52.114C44.953 51.894 45.033 51.614 44.987 51.335L44.187 46.539C44.649 46.044 44.939 45.396 44.982 44.678C46.153 45.088 47 46.191 47 47.5ZM42 35.5C43.103 35.5 44 36.397 44 37.5H40C40 36.397 40.897 35.5 42 35.5ZM37 47.5C37 46.191 37.847 45.088 39.018 44.679C39.061 45.397 39.351 46.045 39.813 46.54L39.014 51.336C38.968 51.616 39.048 51.896 39.221 52.115C38.443 51.901 37.696 51.61 37.001 51.232L37 47.5Z" fill="black"/>
</svg>
