<svg width="64" height="64" viewBox="0 0 64 64" fill="none" xmlns="http://www.w3.org/2000/svg">
<path d="M61 54C61.553 54 62 53.552 62 53V25C62 24.893 61.982 24.786 61.948 24.684L59 15.839V12C59 11.448 58.553 11 58 11H42C41.447 11 41 11.448 41 12C41 12.552 41.447 13 42 13H57V15H35V13H38C38.553 13 39 12.552 39 12C39 11.448 38.553 11 38 11H34C33.447 11 33 11.448 33 12V15.839L30.051 24.684C30.017 24.786 30 24.893 30 25V28H24V24C24 22.911 23.409 21.906 22.457 21.377L13.457 16.377C13.226 16.248 12.953 16.217 12.696 16.29C12.441 16.363 12.225 16.534 12.097 16.766L10.155 20.263C9.886 20.745 10.061 21.354 10.544 21.622C11.028 21.89 11.636 21.716 11.903 21.233L13.36 18.61L21.485 23.124C21.803 23.302 22 23.637 22 24V28H20V25.177C20 24.814 19.803 24.479 19.486 24.303L14.559 21.566C14.076 21.297 13.467 21.472 13.199 21.954C12.93 22.437 13.105 23.046 13.587 23.314L18 25.765V28H14C13.448 28 13 28.448 13 29V40.021C10.863 40.015 8.862 41.161 7.801 43.005C5.687 43.109 4 44.861 4 47C4 47.341 4.06 47.674 4.146 48H3C2.448 48 2 48.448 2 49C2 51.757 4.243 54 7 54H8.101C8.253 54.743 8.583 55.416 9.025 56H3C2.448 56 2 56.448 2 57C2 57.552 2.448 58 3 58H61C61.553 58 62 57.552 62 57C62 56.448 61.553 56 61 56H56V26H60V53C60 53.552 60.447 54 61 54ZM56.613 17L54.28 24H32.387L34.72 17H56.613ZM25.5 40.201C24.017 38.795 22.047 38 20 38C18.174 38 16.412 38.636 15 39.77V36.514C17.77 35.684 20.711 35.509 23.56 36.027C25.079 36.303 26.624 36.394 28.17 36.317C27.57 37.443 27.179 38.696 27.049 40.025C26.536 40.02 26.018 40.062 25.5 40.201ZM30 30V33.871C29.901 33.968 29.81 34.071 29.715 34.171C27.801 34.437 25.88 34.404 24 34.071V30H30ZM22 30V33.816C21.334 33.76 20.667 33.727 20 33.737V30H22ZM18 30V33.871C16.989 33.984 15.985 34.166 15 34.429V30H18ZM6 47C6 45.897 6.897 45 8 45C8.066 45 8.13 45.012 8.265 45.031C8.712 45.093 9.143 44.847 9.32 44.432C10.134 42.523 12.312 41.464 14.425 42.276C14.812 42.424 15.252 42.319 15.529 42.009C16.671 40.732 18.3 40 20 40C21.7 40 23.329 40.732 24.47 42.009C24.747 42.319 25.188 42.425 25.574 42.276C27.753 41.44 30.015 42.62 30.747 44.652C30.844 44.92 31.049 45.133 31.312 45.24C31.576 45.347 31.872 45.336 32.127 45.211C32.99 44.788 33.948 45.034 34.526 45.73C34.77 46.023 35.162 46.151 35.53 46.063C35.712 46.021 35.861 46 36 46C37.103 46 38 46.897 38 48H6.284C6.129 47.743 6 47.415 6 47ZM13 56C11.698 56 10.598 55.161 10.184 54H16C16.552 54 17 53.552 17 53C17 52.448 16.552 52 16 52H7C5.696 52 4.584 51.164 4.171 50H39.829C39.416 51.164 38.304 52 37 52H20C19.448 52 19 52.448 19 53C19 53.552 19.448 54 20 54H33.816C33.402 55.161 32.302 56 31 56H13ZM54 56H49.21C51.108 54.237 52.787 51.525 54 48.752V56ZM50.412 34.336C52.658 35.81 54 38.301 54 41C54 45.958 49.05 56 45 56C44.003 56 43.035 55.632 42.122 54.907C41.759 54.617 41.241 54.617 40.878 54.907C39.965 55.632 38.997 56 38 56C37.258 56 36.451 55.634 35.602 54.952C35.731 54.649 35.831 54.33 35.899 54H37C39.757 54 42 51.757 42 49C42 48.448 41.553 48 41 48H40C40 45.678 38.022 43.772 35.647 44.018C34.722 43.191 33.441 42.826 32.22 43.08C31.515 41.818 30.363 40.878 29.03 40.387C29.346 36.262 32.796 33 37 33C38.005 33 39.003 33.2 39.941 33.573C39.912 34.224 39.968 34.884 40.121 35.538C39.949 35.448 39.782 35.345 39.625 35.22C39.193 34.875 38.565 34.946 38.219 35.376C37.874 35.807 37.945 36.437 38.375 36.781C39.295 37.517 40.397 37.885 41.5 37.885C42.603 37.885 43.705 37.517 44.625 36.781C45.056 36.436 45.126 35.807 44.781 35.376C44.435 34.945 43.807 34.874 43.375 35.22C43.048 35.482 42.681 35.656 42.299 35.763C42.092 35.217 41.959 34.659 41.937 34.103C41.957 34.093 41.979 34.089 41.999 34.078C43.223 33.373 44.606 33 46 33C46.343 33 46.698 33.023 47.085 33.072C47.65 33.144 48.134 32.752 48.202 32.204C48.271 31.656 47.883 31.156 47.335 31.087C46.864 31.029 46.428 31 46 31C44.791 31 43.591 31.23 42.459 31.66C42.946 30.631 43.75 29.743 44.851 29.193L45.448 28.895C45.942 28.648 46.142 28.047 45.895 27.553C45.647 27.059 45.047 26.859 44.553 27.106L43.956 27.404C42.166 28.299 40.907 29.824 40.315 31.577C39.25 31.201 38.128 31 37 31C35.178 31 33.473 31.498 32 32.353V26H54V35.017C53.319 34.11 52.487 33.306 51.508 32.664C51.047 32.362 50.427 32.49 50.124 32.952C49.821 33.414 49.95 34.034 50.412 34.336ZM58 19.162L59.613 24H56.388L58 19.162Z" fill="black"/>
<path d="M61 60H3C2.448 60 2 60.448 2 61C2 61.552 2.448 62 3 62H61C61.553 62 62 61.552 62 61C62 60.448 61.553 60 61 60Z" fill="black"/>
<path d="M20 44C20.5523 44 21 43.5523 21 43C21 42.4477 20.5523 42 20 42C19.4477 42 19 42.4477 19 43C19 43.5523 19.4477 44 20 44Z" fill="black"/>
<path d="M21 48C21.5523 48 22 47.5523 22 47C22 46.4477 21.5523 46 21 46C20.4477 46 20 46.4477 20 47C20 47.5523 20.4477 48 21 48Z" fill="black"/>
<path d="M24 46C24.5523 46 25 45.5523 25 45C25 44.4477 24.5523 44 24 44C23.4477 44 23 44.4477 23 45C23 45.5523 23.4477 46 24 46Z" fill="black"/>
<path d="M28 46C28.5523 46 29 45.5523 29 45C29 44.4477 28.5523 44 28 44C27.4477 44 27 44.4477 27 45C27 45.5523 27.4477 46 28 46Z" fill="black"/>
<path d="M32 48C32.5523 48 33 47.5523 33 47C33 46.4477 32.5523 46 32 46C31.4477 46 31 46.4477 31 47C31 47.5523 31.4477 48 32 48Z" fill="black"/>
<path d="M15 46C15.5523 46 16 45.5523 16 45C16 44.4477 15.5523 44 15 44C14.4477 44 14 44.4477 14 45C14 45.5523 14.4477 46 15 46Z" fill="black"/>
<path d="M11 48C11.5523 48 12 47.5523 12 47C12 46.4477 11.5523 46 11 46C10.4477 46 10 46.4477 10 47C10 47.5523 10.4477 48 11 48Z" fill="black"/>
</svg>
