<svg width="64" height="64" viewBox="0 0 64 64" fill="none" xmlns="http://www.w3.org/2000/svg">
<path d="M59 13H58C57.447 13 57 13.447 57 14C57 14.553 57.447 15 58 15H59C59.552 15 60 15.448 60 16V28C60 28.552 59.552 29 59 29H47C46.448 29 46 28.552 46 28V16C46 15.448 46.448 15 47 15H54C54.553 15 55 14.553 55 14C55 13.447 54.553 13 54 13H47C45.346 13 44 14.346 44 16V28C44 29.654 45.346 31 47 31H50V33H38C36.346 33 35 34.346 35 36V38C35 38.197 35.059 38.391 35.168 38.555C36.228 40.143 36.388 42.13 35.598 43.868L32.356 51H27.683C27.328 51 26.995 50.809 26.817 50.501L21.304 40.98C20.542 39.667 20.418 38.1 20.964 36.681L22.872 31.719C23.07 31.203 22.812 30.624 22.298 30.426C21.78 30.229 21.203 30.485 21.005 31L19.097 35.962C18.333 37.949 18.507 40.144 19.574 41.983L25.087 51.504C25.621 52.427 26.616 53 27.683 53H43.234L41.434 56H28.679C26.154 56 23.816 54.633 22.577 52.432L17.007 42.528C16.186 41.069 15.089 39.818 13.748 38.811C12.853 38.14 12.536 36.954 12.977 35.926C14.175 33.132 16.037 30.625 18.364 28.669L20.804 28.425C21.267 28.662 21.777 28.8 22.301 28.8C22.392 28.8 22.484 28.796 22.574 28.788L30.588 28.121H30.589C31.964 28.006 33 26.879 33 25.5C33 24.121 31.964 22.994 30.588 22.879L25.711 22.473C25.138 20.969 23.754 19.87 22.114 19.706L15 19H13C11.346 19 10 20.346 10 22V26C10 27.654 11.346 29 13 29L15.1 28.995L15.14 28.991C13.472 30.795 12.107 32.879 11.139 35.138C10.333 37.016 10.913 39.184 12.547 40.41C12.9 40.675 13.224 40.966 13.536 41.271C10.002 40.492 6.262 41.346 3.355 43.747C3.084 43.972 2.95 44.322 3.003 44.67C3.056 45.018 3.288 45.313 3.614 45.445L4.442 45.781C4.703 45.887 4.952 46.019 5.21 46.132C3.208 47.827 2 50.339 2 53C2 57.963 6.037 62 11 62C13.338 62 15.553 61.106 17.237 59.482C17.634 59.099 17.646 58.465 17.262 58.068C16.878 57.672 16.246 57.66 15.848 58.043C14.54 59.305 12.817 60 11 60C7.141 60 4 56.859 4 53C4 50.619 5.241 48.389 7.242 47.109C8.345 47.693 9.406 48.348 10.429 49.058C8.495 49.338 7 50.99 7 53C7 55.206 8.794 57 11 57C13.206 57 15 55.206 15 53C15 52.959 14.989 52.92 14.988 52.879C16.786 54.715 18.362 56.772 19.66 59.004C19.839 59.312 20.168 59.501 20.524 59.501H20.526C20.882 59.5 21.212 59.31 21.39 59.001C21.988 57.965 22.406 56.837 22.673 55.675C24.302 57.139 26.426 58 28.679 58H40.549C42.213 60.474 45.006 62 48 62C52.963 62 57 57.963 57 53H59C59.553 53 60 52.553 60 52C60 50.906 59.843 49.798 59.532 48.707C59.381 48.175 58.823 47.866 58.297 48.019C57.766 48.17 57.457 48.723 57.609 49.254C57.774 49.834 57.887 50.418 57.948 51H38.05C38.553 45.954 42.823 42 48 42C51.159 42 54.068 43.457 55.982 45.996C56.315 46.436 56.942 46.527 57.382 46.193C57.823 45.86 57.911 45.233 57.579 44.793C57.306 44.43 57.013 44.089 56.707 43.764L58.446 42.895C58.786 42.725 59 42.379 59 42V36C59 34.346 57.654 33 56 33V31H59C60.654 31 62 29.654 62 28V16C62 14.346 60.654 13 59 13ZM22.408 26.796C22.037 26.824 21.69 26.706 21.42 26.457C21.15 26.208 21 25.868 21 25.5C21 25.132 21.149 24.792 21.42 24.543C21.663 24.319 21.971 24.2 22.296 24.2C22.333 24.2 22.371 24.201 22.408 24.204L26 24.503V26.497L22.408 26.796ZM31 25.5C31 25.83 30.751 26.101 30.421 26.129L28 26.33V24.67L30.421 24.872C30.751 24.899 31 25.17 31 25.5ZM23.206 22.265L22.574 22.212C21.658 22.133 20.743 22.447 20.066 23.071C19.389 23.694 19 24.579 19 25.5C19 25.872 19.079 26.232 19.199 26.577L16 26.899V21.105L21.915 21.696C22.406 21.745 22.852 21.953 23.206 22.265ZM12 26V22C12 21.448 12.448 21 13 21L14 20.997V27H13C12.448 27 12 26.552 12 26ZM11 55C9.897 55 9 54.103 9 53C9 51.897 9.897 51 11 51C12.103 51 13 51.897 13 53C13 54.103 12.103 55 11 55ZM20.4 56.406C16.895 51.105 11.882 46.866 6.063 44.297C8.993 42.625 12.571 42.554 15.63 44.16L20.833 53.412C20.875 53.486 20.927 53.55 20.971 53.623C20.912 54.572 20.724 55.512 20.4 56.406ZM55 53C55 56.859 51.859 60 48 60C45.985 60 44.089 59.107 42.773 57.621C42.802 57.586 42.834 57.554 42.858 57.514L44.466 54.833C45.133 56.114 46.458 57 48 57C50.206 57 52 55.206 52 53H55ZM46 53H50C50 54.103 49.103 55 48 55C46.897 55 46 54.103 46 53ZM57 36V37H40C39.447 37 39 37.447 39 38C39 38.553 39.447 39 40 39H57V41.382L55.083 42.34C53.053 40.84 50.603 40 48 40C41.72 40 36.562 44.85 36.051 51H34.553L37.418 44.696C38.453 42.418 38.293 39.829 37 37.709V36C37 35.448 37.448 35 38 35H56C56.552 35 57 35.448 57 36ZM54 33H52V31H54V33Z" fill="black"/>
<path d="M51.5 17C50.947 17 50.5 17.447 50.5 18V19.5H49C48.447 19.5 48 19.947 48 20.5V23.5C48 24.053 48.447 24.5 49 24.5H50.5V26C50.5 26.553 50.947 27 51.5 27H54.5C55.053 27 55.5 26.553 55.5 26V24.5H57C57.553 24.5 58 24.053 58 23.5V20.5C58 19.947 57.553 19.5 57 19.5H55.5V18C55.5 17.447 55.053 17 54.5 17H51.5ZM56 21.5V22.5H54.5C53.947 22.5 53.5 22.947 53.5 23.5V25H52.5V23.5C52.5 22.947 52.053 22.5 51.5 22.5H50V21.5H51.5C52.053 21.5 52.5 21.053 52.5 20.5V19H53.5V20.5C53.5 21.053 53.947 21.5 54.5 21.5H56Z" fill="black"/>
</svg>
