<svg width="64" height="64" viewBox="0 0 64 64" fill="none" xmlns="http://www.w3.org/2000/svg">
<path d="M28 60H22C21.449 60 21 59.551 21 59V29C21 28.449 21.449 28 22 28H25C25.552 28 26 27.552 26 27C26 26.448 25.552 26 25 26H22C20.346 26 19 27.346 19 29V59C19 60.654 20.346 62 22 62H28C28.552 62 29 61.552 29 61C29 60.448 28.552 60 28 60Z" fill="black"/>
<path d="M42 26H35.952C35.798 24.241 35.249 22.515 34.381 21.369C35.933 20.52 37 18.891 37 17V16C37 15.448 36.552 15 36 15V3C36 2.448 35.552 2 35 2C34.448 2 34 2.448 34 3V6.882L30 4.882V3C30 2.448 29.552 2 29 2C28.448 2 28 2.448 28 3V15C27.448 15 27 15.448 27 16V17C27 18.891 28.067 20.52 29.619 21.369C28.587 22.733 28 24.916 28 27C28 28.115 28.501 29.55 29.365 30.597C29.14 31.017 29 31.49 29 32C29 33.654 30.346 35 32 35C33.654 35 35 33.654 35 32C35 30.346 33.654 29 32 29C31.588 29 31.195 29.084 30.837 29.235C30.563 28.881 30.329 28.448 30.18 28H42C42.551 28 43 28.449 43 29V59C43 59.551 42.551 60 42 60H32C31.448 60 31 60.448 31 61C31 61.552 31.448 62 32 62H42C43.654 62 45 60.654 45 59V29C45 27.346 43.654 26 42 26ZM34 9.118V11.882L30 9.882V7.118L34 9.118ZM30 12.118L34 14.118V15H30V12.118ZM35 17C35 18.302 34.161 19.402 33 19.816V19C33 18.448 32.552 18 32 18C31.448 18 31 18.448 31 19V19.816C29.839 19.402 29 18.302 29 17H35ZM33.947 26H30.053C30.294 23.719 31.308 22 32 22C32.692 22 33.706 23.719 33.947 26ZM32 33C31.449 33 31 32.551 31 32C31 31.938 31.024 31.885 31.035 31.826C31.34 31.935 31.661 32 32 32C32.366 32 32.672 31.794 32.846 31.5C32.935 31.65 33 31.814 33 32C33 32.551 32.551 33 32 33Z" fill="black"/>
<path d="M38 38C38.552 38 39 37.552 39 37C39 36.448 38.552 36 38 36H26C25.448 36 25 36.448 25 37V49C25 49.552 25.448 50 26 50H38C38.552 50 39 49.552 39 49V41C39 40.448 38.552 40 38 40C37.448 40 37 40.448 37 41V48H36V47C36 45.935 35.438 45.003 34.599 44.471C34.847 44.034 35 43.537 35 43V42C35 40.346 33.654 39 32 39C30.346 39 29 40.346 29 42V43C29 43.537 29.153 44.034 29.401 44.471C28.562 45.003 28 45.935 28 47V48H27V38H38ZM31 42C31 41.449 31.449 41 32 41C32.551 41 33 41.449 33 42V43C33 43.551 32.551 44 32 44C31.449 44 31 43.551 31 43V42ZM30 47C30 46.449 30.449 46 31 46H33C33.551 46 34 46.449 34 47V48H30V47Z" fill="black"/>
<path d="M35 54C35.552 54 36 53.552 36 53C36 52.448 35.552 52 35 52H29C28.448 52 28 52.448 28 53C28 53.552 28.448 54 29 54H35Z" fill="black"/>
<path d="M25 57C25 57.552 25.448 58 26 58H38C38.552 58 39 57.552 39 57C39 56.448 38.552 56 38 56H26C25.448 56 25 56.448 25 57Z" fill="black"/>
</svg>
