<svg width="64" height="64" viewBox="0 0 64 64" fill="none" xmlns="http://www.w3.org/2000/svg">
<path d="M61 36H54V34C54 32.256 52.872 30.786 51.312 30.239C51.746 29.6 52 28.829 52 28V25C52 22.794 50.206 21 48 21C45.794 21 44 22.794 44 25V28C44 28.829 44.254 29.6 44.687 30.239C43.128 30.786 42 32.256 42 34V36H37V34H41C41.553 34 42 33.552 42 33V23C42 22.448 41.553 22 41 22H27.305C29.618 20.374 31.276 17.884 31.809 15H54C55.654 15 57 16.346 57 18V33C57 33.552 57.447 34 58 34C58.553 34 59 33.552 59 33V18C59 15.243 56.757 13 54 13H32C32 6.935 27.065 2 21 2C18.837 2 16.74 2.631 14.937 3.826C14.476 4.131 14.35 4.752 14.655 5.212C14.959 5.671 15.58 5.797 16.041 5.494C17.516 4.517 19.23 4 21 4C25.963 4 30 8.038 30 13C30 17.962 25.963 22 21 22C16.037 22 12 17.962 12 13C12 11.231 12.517 9.516 13.494 8.041C13.799 7.581 13.673 6.96 13.212 6.655C12.751 6.348 12.13 6.475 11.826 6.936C10.632 8.74 10 10.837 10 13C7.243 13 5 15.243 5 18V36H3C2.447 36 2 36.448 2 37V41C2 41.552 2.447 42 3 42H5V61C5 61.552 5.447 62 6 62H58C58.553 62 59 61.552 59 61V42H61C61.553 42 62 41.552 62 41V37C62 36.448 61.553 36 61 36ZM46 27H50V28C50 29.103 49.103 30 48 30C46.897 30 46 29.103 46 28V27ZM47 31.858C47.322 31.942 47.653 32 48 32C48.347 32 48.678 31.942 49 31.858V32.382L48 32.882L47 32.382V31.858ZM48 23C49.103 23 50 23.897 50 25H46C46 23.897 46.897 23 48 23ZM44 34C44 33.263 44.405 32.625 45 32.278V33C45 33.379 45.214 33.725 45.553 33.895L47.553 34.895C47.693 34.965 47.847 35 48 35C48.153 35 48.307 34.965 48.447 34.895L50.447 33.895C50.786 33.725 51 33.379 51 33V32.278C51.595 32.625 52 33.263 52 34V36H44V34ZM33 29C33 28.449 33.448 28 34 28C34.552 28 35 28.449 35 29V36H33V29ZM28 24H40V32H37V29C37 27.346 35.654 26 34 26C32.346 26 31 27.346 31 29V32H28V24ZM7 18C7 16.346 8.346 15 10 15H10.191C11.135 20.112 15.618 24 21 24C22.82 24 24.534 23.548 26.048 22.763C26.028 22.841 26 22.916 26 23V33C26 33.552 26.447 34 27 34H31V36H24V32C24 28.691 21.309 26 18 26C14.691 26 12 28.691 12 32V36H7V18ZM22 36H14V32C14 29.794 15.794 28 18 28C20.206 28 22 29.794 22 32V36ZM60 40H15.585C15.032 40 14.585 40.448 14.585 41C14.585 41.552 15.032 42 15.585 42H57V60H7V42H12.073C12.626 42 13.073 41.552 13.073 41C13.073 40.448 12.626 40 12.073 40H4V38H60V40Z" fill="black"/>
<path d="M11 49V53C11 53.552 11.447 54 12 54H15V57C15 57.552 15.447 58 16 58H20C20.553 58 21 57.552 21 57V54H24C24.553 54 25 53.552 25 53V49C25 48.448 24.553 48 24 48H21V45C21 44.448 20.553 44 20 44H16C15.447 44 15 44.448 15 45V48H12C11.447 48 11 48.448 11 49ZM13 50H16C16.553 50 17 49.552 17 49V46H19V49C19 49.552 19.447 50 20 50H23V52H20C19.447 52 19 52.448 19 53V56H17V53C17 52.448 16.553 52 16 52H13V50Z" fill="black"/>
<path d="M29 50H52C52.553 50 53 49.552 53 49C53 48.448 52.553 48 52 48H30V46H52C52.553 46 53 45.552 53 45C53 44.448 52.553 44 52 44H29C28.447 44 28 44.448 28 45V49C28 49.552 28.447 50 29 50Z" fill="black"/>
<path d="M45 52H30C29.447 52 29 52.448 29 53C29 53.552 29.447 54 30 54H45C45.553 54 46 53.552 46 53C46 52.448 45.553 52 45 52Z" fill="black"/>
<path d="M45 56H30C29.447 56 29 56.448 29 57C29 57.552 29.447 58 30 58H45C45.553 58 46 57.552 46 57C46 56.448 45.553 56 45 56Z" fill="black"/>
<path d="M21 16C20.448 16 20 15.551 20 15C20 14.448 19.553 14 19 14C18.447 14 18 14.448 18 15C18 16.302 18.839 17.402 20 17.816V19C20 19.552 20.447 20 21 20C21.553 20 22 19.552 22 19V17.816C23.161 17.402 24 16.302 24 15C24 13.346 22.654 12 21 12C20.448 12 20 11.551 20 11C20 10.449 20.448 10 21 10C21.552 10 22 10.449 22 11C22 11.552 22.447 12 23 12C23.553 12 24 11.552 24 11C24 9.698 23.161 8.598 22 8.184V7C22 6.448 21.553 6 21 6C20.447 6 20 6.448 20 7V8.184C18.839 8.598 18 9.698 18 11C18 12.654 19.346 14 21 14C21.552 14 22 14.449 22 15C22 15.551 21.552 16 21 16Z" fill="black"/>
<path d="M25.446 17.147C25.617 17.26 25.808 17.314 25.999 17.314C26.323 17.314 26.641 17.157 26.833 16.867C27.597 15.718 28 14.381 28 13C28 11.619 27.597 10.282 26.833 9.13299C26.527 8.67199 25.907 8.54799 25.446 8.85299C24.986 9.15899 24.861 9.77899 25.167 10.239C25.712 11.06 26 12.014 26 13C26 13.986 25.712 14.94 25.167 15.761C24.861 16.221 24.986 16.841 25.446 17.147Z" fill="black"/>
<path d="M16.554 8.85299C16.092 8.54799 15.472 8.67199 15.167 9.13299C14.403 10.282 14 11.619 14 13C14 14.381 14.403 15.718 15.167 16.867C15.359 17.157 15.677 17.314 16.001 17.314C16.191 17.314 16.383 17.26 16.554 17.147C17.014 16.841 17.139 16.221 16.833 15.761C16.288 14.94 16 13.986 16 13C16 12.014 16.288 11.06 16.833 10.239C17.139 9.77899 17.014 9.15899 16.554 8.85299Z" fill="black"/>
</svg>
