<svg width="64" height="64" viewBox="0 0 64 64" fill="none" xmlns="http://www.w3.org/2000/svg">
<path d="M56.758 36.412C58.173 35.19 59 33.424 59 31.519C59 30.344 58.681 29.191 58.076 28.185L56.638 25.788C56.242 25.128 56.03 24.377 56.008 23.608C56.618 22.905 57 22 57 21V19C57 17.994 56.614 17.084 55.998 16.38C55.998 16.377 56 16.374 56 16.37C56 12.244 54.254 8.303 51.21 5.557C50.799 5.187 50.167 5.22 49.797 5.63C49.427 6.04 49.46 6.672 49.87 7.043C52.186 9.131 53.626 12.024 53.934 15.122C53.633 15.049 53.323 15 53 15H52V14C52 13.448 51.552 13 51 13H49.721L48.949 10.684C48.775 10.161 48.21 9.876 47.684 10.052C47.16 10.227 46.877 10.793 47.052 11.317L47.612 13H46.618L44.894 9.553C44.555 8.875 43.444 8.875 43.105 9.553L41.382 13H40.388L40.949 11.316C41.124 10.792 40.841 10.226 40.317 10.051C39.792 9.875 39.226 10.16 39.052 10.683L38.279 13H36.387L36.948 11.316C37.123 10.792 36.84 10.226 36.316 10.051C35.789 9.875 35.226 10.16 35.051 10.683L34.279 13H33C32.448 13 32 13.448 32 14V15H31C30.669 15 30.352 15.052 30.043 15.129C30.254 12.149 31.532 9.399 33.717 7.313C36.113 5.027 39.273 3.864 42.58 4.008C44.054 4.081 45.465 4.421 46.774 5.019C47.276 5.248 47.87 5.027 48.099 4.525C48.328 4.023 48.107 3.429 47.605 3.2C46.065 2.496 44.407 2.096 42.676 2.011C38.803 1.827 35.131 3.199 32.336 5.866C29.54 8.535 28 12.134 28 16V16.382C27.385 17.085 27 17.994 27 19V21C27 22 27.382 22.905 27.991 23.607C27.969 24.376 27.757 25.127 27.361 25.787L25.923 28.183C25.319 29.19 25 30.344 25 31.519C25 32.347 25.154 33.154 25.458 33.918C25.614 34.31 25.99 34.548 26.388 34.548C26.511 34.548 26.636 34.525 26.758 34.477C27.271 34.272 27.521 33.691 27.317 33.178C27.106 32.65 27 32.092 27 31.519C27 30.707 27.221 29.909 27.639 29.213L29.077 26.817C29.45 26.195 29.7 25.515 29.848 24.811C30.215 24.922 30.597 25 31 25H32.202C32.698 27.433 34.086 29.538 36 30.981V33C33.206 33 30.436 33.923 28.2 35.6C24.944 38.042 23 41.93 23 46V61C23 61.552 23.448 62 24 62C24.552 62 25 61.552 25 61V46C25 42.674 26.545 39.502 29.132 37.427L27.102 41.56C26.881 42.01 27.027 42.555 27.445 42.833L29.77 44.383L28.071 48.63C27.974 48.873 27.976 49.145 28.077 49.386L33.077 61.386C33.237 61.769 33.609 62 34 62C34.128 62 34.258 61.975 34.384 61.922C34.894 61.71 35.134 61.124 34.922 60.614L30.08 48.992L31.929 44.371C32.104 43.932 31.949 43.43 31.555 43.167L29.284 41.653L32.216 35.683C32.979 35.404 33.77 35.208 34.576 35.102L34.001 44.941C33.995 45.042 34.005 45.143 34.029 45.242L38.029 61.242C38.144 61.697 38.551 62 38.999 62C39.08 62 39.161 61.991 39.243 61.97C39.779 61.836 40.104 61.293 39.971 60.757L36.008 44.905L36.505 36.399C37.304 38.221 38.982 39.568 41.001 39.909V49C41.001 49.552 41.449 50 42.001 50C42.553 50 43.001 49.552 43.001 49V39.91C45.508 39.487 47.487 37.507 47.911 35H48C49.292 35 50.575 35.241 51.784 35.684L54.716 41.654L52.445 43.168C52.051 43.43 51.896 43.932 52.071 44.372L53.904 48.955L48.105 60.553C47.858 61.047 48.058 61.648 48.552 61.895C48.696 61.966 48.849 62 48.999 62C49.366 62 49.719 61.798 49.895 61.447L55.895 49.447C56.022 49.192 56.035 48.894 55.929 48.628L54.23 44.381L56.555 42.831C56.972 42.553 57.119 42.008 56.898 41.558L54.869 37.426C57.455 39.502 59 42.674 59 46V61C59 61.552 59.448 62 60 62C60.552 62 61 61.552 61 61V46C61 42.351 59.428 38.857 56.758 36.412ZM37 29.235V24.736C40.25 23.798 43.75 23.798 47 24.736V27H45C44.448 27 44 27.448 44 28C44 28.552 44.448 29 45 29H47V29.235C45.629 30.337 43.891 31 42 31C40.109 31 38.371 30.337 37 29.235ZM50 23C50 24.401 49.636 25.718 49 26.864V24.236L50 22.236V23ZM51.798 25H53C53 26.046 52.191 26.896 51.167 26.983C51.443 26.352 51.658 25.69 51.798 25ZM53 17C54.103 17 55 17.897 55 19V21C55 22.103 54.103 23 53 23H52V17H53ZM34 15H34.997H35H35.003H38.997H39H39.003H42C42.379 15 42.725 14.786 42.895 14.447L44 12.236L45.105 14.447C45.275 14.786 45.621 15 46 15H48.997H49H49.003H50V17.764L47.477 22.81C43.912 21.796 40.088 21.796 36.523 22.81L34 17.764V15ZM31 23C29.897 23 29 22.103 29 21V19C29 17.897 29.897 17 31 17H32V23H31ZM34 23V22.236L35 24.236V26.864C34.364 25.718 34 24.401 34 23ZM42 38C39.794 38 38 36.206 38 34V32.159C39.226 32.697 40.578 33 42 33C43.422 33 44.774 32.697 46 32.159V34C46 36.206 44.206 38 42 38ZM48 30.981C48.75 30.416 49.416 29.75 49.981 29H51C52.701 29 54.148 27.928 54.725 26.427C54.791 26.557 54.849 26.69 54.924 26.815L56.362 29.212C56.779 29.909 57 30.706 57 31.519C57 32.97 56.305 34.301 55.137 35.144C53.028 33.761 50.526 33 48 33V30.981Z" fill="black"/>
<path d="M54 56C53.448 56 53 56.448 53 57V61C53 61.552 53.448 62 54 62C54.552 62 55 61.552 55 61V57C55 56.448 54.552 56 54 56Z" fill="black"/>
<path d="M30 56C29.448 56 29 56.448 29 57V61C29 61.552 29.448 62 30 62C30.552 62 31 61.552 31 61V57C31 56.448 30.552 56 30 56Z" fill="black"/>
<path d="M45 43C45.5523 43 46 42.5523 46 42C46 41.4477 45.5523 41 45 41C44.4477 41 44 41.4477 44 42C44 42.5523 44.4477 43 45 43Z" fill="black"/>
<path d="M45 47C45.5523 47 46 46.5523 46 46C46 45.4477 45.5523 45 45 45C44.4477 45 44 45.4477 44 46C44 46.5523 44.4477 47 45 47Z" fill="black"/>
<path d="M44.707 18.707C45.42 17.994 46.58 17.994 47.293 18.707C47.488 18.902 47.744 19 48 19C48.256 19 48.512 18.902 48.707 18.707C49.098 18.316 49.098 17.684 48.707 17.293C47.215 15.8 44.785 15.8 43.293 17.293C42.902 17.684 42.902 18.316 43.293 18.707C43.684 19.098 44.316 19.098 44.707 18.707Z" fill="black"/>
<path d="M46 21C46.5523 21 47 20.5523 47 20C47 19.4477 46.5523 19 46 19C45.4477 19 45 19.4477 45 20C45 20.5523 45.4477 21 46 21Z" fill="black"/>
<path d="M36.707 18.707C37.42 17.994 38.58 17.994 39.293 18.707C39.488 18.902 39.744 19 40 19C40.256 19 40.512 18.902 40.707 18.707C41.098 18.316 41.098 17.684 40.707 17.293C39.215 15.8 36.785 15.8 35.293 17.293C34.902 17.684 34.902 18.316 35.293 18.707C35.684 19.098 36.316 19.098 36.707 18.707Z" fill="black"/>
<path d="M38 21C38.5523 21 39 20.5523 39 20C39 19.4477 38.5523 19 38 19C37.4477 19 37 19.4477 37 20C37 20.5523 37.4477 21 38 21Z" fill="black"/>
<path d="M49.999 44.942L49.648 38.942C49.616 38.391 49.141 37.975 48.591 38.002C48.039 38.034 47.619 38.507 47.651 39.059L47.993 44.907L44.03 60.757C43.896 61.293 44.222 61.836 44.758 61.97C44.839 61.991 44.92 62 45.001 62C45.449 62 45.856 61.697 45.97 61.243L49.97 45.243C49.995 45.144 50.004 45.043 49.999 44.942Z" fill="black"/>
<path d="M23.973 29.23C24.08 28.779 23.862 28.313 23.448 28.106L23.136 27.949C21.62 27.191 20.749 25.636 20.853 24H23C24.654 24 26 22.654 26 21V5C26 3.346 24.654 2 23 2H5C3.346 2 2 3.346 2 5V15C2 15.552 2.448 16 3 16C3.552 16 4 15.552 4 15V5C4 4.449 4.449 4 5 4H23C23.551 4 24 4.449 24 5V21C24 21.551 23.551 22 23 22H20C19.541 22 19.141 22.312 19.03 22.757C18.568 24.606 18.979 26.479 20.052 27.915C17.484 27.487 15.428 25.482 14.987 22.835C14.906 22.354 14.489 22 14 22H5C4.449 22 4 21.551 4 21V19C4 18.448 3.552 18 3 18C2.448 18 2 18.448 2 19V21C2 22.654 3.346 24 5 24H13.197C14.164 27.523 17.356 30 21.083 30H23C23.464 30 23.867 29.681 23.973 29.23Z" fill="black"/>
<path d="M16 6H12C11.448 6 11 6.448 11 7V10H8C7.448 10 7 10.448 7 11V15C7 15.552 7.448 16 8 16H11V19C11 19.552 11.448 20 12 20H16C16.552 20 17 19.552 17 19V16H20C20.552 16 21 15.552 21 15V11C21 10.448 20.552 10 20 10H17V7C17 6.448 16.552 6 16 6ZM19 12V14H16C15.448 14 15 14.448 15 15V18H13V15C13 14.448 12.552 14 12 14H9V12H12C12.552 12 13 11.552 13 11V8H15V11C15 11.552 15.448 12 16 12H19Z" fill="black"/>
</svg>
