<svg width="64" height="64" viewBox="0 0 64 64" fill="none" xmlns="http://www.w3.org/2000/svg">
<path d="M19.293 35.707C19.4329 35.8468 19.611 35.942 19.805 35.9806C19.9989 36.0192 20.2 35.9993 20.3827 35.9237C20.5654 35.848 20.7215 35.7199 20.8314 35.5555C20.9413 35.391 21 35.1978 21 35V29H25C26.3256 28.9984 27.5964 28.4711 28.5338 27.5338C29.4711 26.5964 29.9984 25.3256 30 24V12C29.9984 10.6744 29.4711 9.40356 28.5338 8.46622C27.5964 7.52888 26.3256 7.00159 25 7H16C15.7348 7 15.4804 7.10536 15.2929 7.29289C15.1054 7.48043 15 7.73478 15 8C15 8.26522 15.1054 8.51957 15.2929 8.70711C15.4804 8.89464 15.7348 9 16 9H25C25.7956 9 26.5587 9.31607 27.1213 9.87868C27.6839 10.4413 28 11.2044 28 12V24C28 24.7956 27.6839 25.5587 27.1213 26.1213C26.5587 26.6839 25.7956 27 25 27H20C19.7348 27 19.4804 27.1054 19.2929 27.2929C19.1054 27.4804 19 27.7348 19 28V32.586L13.707 27.293C13.5195 27.1054 13.2652 27.0001 13 27H7C6.20435 27 5.44129 26.6839 4.87868 26.1213C4.31607 25.5587 4 24.7956 4 24V12C4 11.2044 4.31607 10.4413 4.87868 9.87868C5.44129 9.31607 6.20435 9 7 9H12C12.2652 9 12.5196 8.89464 12.7071 8.70711C12.8946 8.51957 13 8.26522 13 8C13 7.73478 12.8946 7.48043 12.7071 7.29289C12.5196 7.10536 12.2652 7 12 7H7C5.6744 7.00159 4.40356 7.52888 3.46622 8.46622C2.52888 9.40356 2.00159 10.6744 2 12V24C2.00159 25.3256 2.52888 26.5964 3.46622 27.5338C4.40356 28.4711 5.6744 28.9984 7 29H12.586L19.293 35.707Z" fill="black"/>
<path d="M24 51C24 50.4067 23.8241 49.8266 23.4944 49.3333C23.1648 48.8399 22.6962 48.4554 22.1481 48.2284C21.5999 48.0013 20.9967 47.9419 20.4147 48.0576C19.8328 48.1734 19.2982 48.4591 18.8787 48.8787C18.4591 49.2982 18.1734 49.8328 18.0576 50.4147C17.9419 50.9967 18.0013 51.5999 18.2284 52.148C18.4554 52.6962 18.8399 53.1648 19.3333 53.4944C19.8266 53.8241 20.4067 54 21 54C21.7957 54 22.5587 53.6839 23.1213 53.1213C23.6839 52.5587 24 51.7957 24 51ZM20 51C20 50.8022 20.0586 50.6089 20.1685 50.4444C20.2784 50.28 20.4346 50.1518 20.6173 50.0761C20.8 50.0004 21.0011 49.9806 21.1951 50.0192C21.3891 50.0578 21.5673 50.153 21.7071 50.2929C21.847 50.4327 21.9422 50.6109 21.9808 50.8049C22.0194 50.9989 21.9996 51.2 21.9239 51.3827C21.8482 51.5654 21.72 51.7216 21.5556 51.8315C21.3911 51.9414 21.1978 52 21 52C20.7348 52 20.4804 51.8946 20.2929 51.7071C20.1054 51.5196 20 51.2652 20 51Z" fill="black"/>
<path d="M61 49C60.7348 49 60.4804 49.1054 60.2929 49.2929C60.1054 49.4804 60 49.7348 60 50V56C60 57.0609 59.5786 58.0783 58.8284 58.8284C58.0783 59.5786 57.0609 60 56 60H45V56.913L55.091 56C55.3401 55.9772 55.5717 55.8619 55.74 55.6768C55.9083 55.4917 56.001 55.2502 56 55V47C56 46.7348 55.8946 46.4804 55.7071 46.2929C55.5196 46.1054 55.2652 46 55 46C54.7348 46 54.4804 46.1054 54.2929 46.2929C54.1054 46.4804 54 46.7348 54 47V54.087L43.952 55H41.752C41.5701 54.1516 41.2821 53.3295 40.895 52.553C40.3067 51.3764 39.9986 50.0795 39.995 48.764V45C40.0023 43.9366 40.2912 42.8942 40.8322 41.9787C41.3732 41.0632 42.147 40.3073 43.075 39.788C43.258 40.6941 43.7489 41.509 44.4643 42.0945C45.1797 42.6799 46.0756 42.9998 47 43C48.2396 42.9986 49.4483 42.6133 50.46 41.897C51.4718 41.1807 52.2368 40.1687 52.65 39H53C54.8559 39.0021 56.6351 39.7403 57.9474 41.0526C59.2597 42.3649 59.9979 44.1441 60 46C60 46.2652 60.1054 46.5196 60.2929 46.7071C60.4804 46.8946 60.7348 47 61 47C61.2652 47 61.5196 46.8946 61.7071 46.7071C61.8946 46.5196 62 46.2652 62 46C61.9974 43.6139 61.0483 41.3262 59.361 39.639C57.6738 37.9517 55.3861 37.0026 53 37V35.288C53.8377 34.3372 54.436 33.1999 54.745 31.971C54.831 31.977 54.913 32 55 32C56.1253 31.9286 57.1769 31.4158 57.9259 30.5731C58.675 29.7303 59.0611 28.6259 59 27.5C59 27.421 58.983 27.347 58.979 27.269C59.6383 26.1147 59.9898 24.8103 60 23.481C60.004 21.9399 59.6138 20.4234 58.8664 19.0757C58.1191 17.7279 57.0394 16.5938 55.73 15.781L54.151 14.794C52.7646 13.8992 51.1561 13.4089 49.5063 13.3781C47.8565 13.3474 46.2308 13.7775 44.812 14.62C44.0041 15.044 43.3201 15.6706 42.8272 16.4384C42.3342 17.2062 42.0492 18.0889 42 19C42.0034 19.2857 42.037 19.5703 42.1 19.849C40.8431 21.1569 39.9272 22.7538 39.433 24.499C38.8877 23.9431 38.4798 23.2676 38.2417 22.5262C38.0037 21.7848 37.9421 20.998 38.0618 20.2286C38.1816 19.4592 38.4794 18.7284 38.9315 18.0944C39.3836 17.4605 39.9776 16.9408 40.666 16.577C40.8946 16.4499 41.0643 16.2384 41.1388 15.9877C41.2132 15.737 41.1865 15.4671 41.0643 15.2359C40.9422 15.0046 40.7343 14.8304 40.4852 14.7506C40.2362 14.6709 39.9658 14.6918 39.732 14.809C38.6667 15.3696 37.7643 16.1961 37.1126 17.2082C36.4608 18.2203 36.0817 19.3837 36.0121 20.5855C35.9424 21.7873 36.1846 22.9867 36.7152 24.0674C37.2457 25.148 38.0465 26.0731 39.04 26.753C39.023 27.005 39 27.253 39 27.509V30C39.0018 31.4026 39.3723 32.78 40.0743 33.9942C40.7764 35.2084 41.7853 36.2167 43 36.918V37.618C41.2351 38.3341 39.782 39.6539 38.9 41.342L33.19 47.051L32.936 44.5C32.8153 43.2652 32.2385 42.1198 31.3183 41.2876C30.3981 40.4555 29.2007 39.9964 27.96 40H14C13.3012 40 12.6102 40.1465 11.9715 40.4299C11.3328 40.7134 10.7606 41.1276 10.2919 41.6459C9.8231 42.1641 9.46817 42.7748 9.24997 43.4387C9.03176 44.1025 8.95512 44.8047 9.025 45.5L9.381 49.056C9.40752 49.3199 9.53779 49.5624 9.74314 49.7303C9.94849 49.8981 10.2121 49.9775 10.476 49.951C10.7399 49.9245 10.9824 49.7942 11.1503 49.5889C11.3181 49.3835 11.3975 49.1199 11.371 48.856L11.016 45.3C10.9741 44.8829 11.02 44.4617 11.1509 44.0634C11.2818 43.6652 11.4946 43.2988 11.7758 42.9879C12.0569 42.677 12.4001 42.4284 12.7832 42.2583C13.1663 42.0881 13.5808 42.0001 14 42H27.96C28.7044 41.9975 29.423 42.2729 29.9751 42.7723C30.5272 43.2716 30.873 43.9591 30.945 44.7L32.365 58.9C32.379 59.039 32.3637 59.1793 32.3201 59.312C32.2765 59.4447 32.2056 59.5668 32.112 59.6705C32.0183 59.7741 31.904 59.8569 31.7764 59.9137C31.6488 59.9705 31.5107 59.9999 31.371 60H15.2C14.4557 60.002 13.7374 59.7265 13.1854 59.2272C12.6334 58.7279 12.2874 58.0408 12.215 57.3L11.769 52.836C11.7425 52.5721 11.6122 52.3296 11.4069 52.1617C11.2015 51.9939 10.9379 51.9145 10.674 51.941C10.4101 51.9675 10.1676 52.0978 9.99972 52.3031C9.83188 52.5085 9.75248 52.7721 9.779 53.036L10.225 57.5C10.3457 58.7346 10.9224 59.8799 11.8423 60.712C12.7623 61.5442 13.9595 62.0034 15.2 62H56C57.5908 61.9984 59.116 61.3658 60.2409 60.2409C61.3658 59.116 61.9984 57.5908 62 56V50C62 49.7348 61.8946 49.4804 61.7071 49.2929C61.5196 49.1054 61.2652 49 61 49ZM47 41C46.4696 41 45.9609 40.7893 45.5858 40.4142C45.2107 40.0391 45 39.5304 45 39V37.737C46.0044 38.0028 47.0513 38.068 48.0809 37.9286C49.1105 37.7893 50.1024 37.4482 51 36.925V37C51 38.0609 50.5786 39.0783 49.8284 39.8284C49.0783 40.5786 48.0609 41 47 41ZM55 30C54.4072 29.9248 53.8669 29.6217 53.4936 29.1551C53.1203 28.6885 52.9433 28.0949 53 27.5C52.9433 26.9051 53.1203 26.3115 53.4936 25.8449C53.8669 25.3783 54.4072 25.0752 55 25C55.5928 25.0752 56.1331 25.3783 56.5064 25.8449C56.8797 26.3115 57.0567 26.9051 57 27.5C57.0567 28.0949 56.8797 28.6885 56.5064 29.1551C56.1331 29.6217 55.5928 29.9248 55 30ZM54.67 17.473C55.6917 18.107 56.5341 18.9919 57.117 20.0436C57.6999 21.0952 58.0039 22.2786 58 23.481C57.9967 23.7993 57.9662 24.1168 57.909 24.43C57.5599 23.9915 57.118 23.6358 56.615 23.3885C56.112 23.1412 55.5604 23.0086 55 23C54.975 23 54.952 23.008 54.927 23.008C54.7798 21.4756 54.2831 19.9975 53.4753 18.687C52.6675 17.3766 51.5699 16.2689 50.267 15.449C51.2699 15.5958 52.2314 15.9489 53.091 16.486L54.67 17.473ZM45.87 16.312C46.1088 16.1652 46.3578 16.0355 46.615 15.924L48.089 16.556C49.3465 17.0951 50.4466 17.9447 51.2861 19.0251C52.1257 20.1054 52.6772 21.3813 52.889 22.733C52.3496 22.4598 51.7516 22.3225 51.147 22.333C49.8252 22.3669 48.5117 22.116 47.2955 21.5971C46.0794 21.0782 44.9892 20.3037 44.099 19.326C44.074 19.3046 44.0476 19.2849 44.02 19.267C44.0071 19.1786 44.0004 19.0894 44 19C44.0578 18.4296 44.2601 17.8834 44.5879 17.4131C44.9156 16.9427 45.3579 16.5637 45.873 16.312H45.87ZM41 30V27.509C41.0009 25.2528 41.8427 23.0779 43.361 21.409C45.4994 23.3629 48.3124 24.4111 51.208 24.333C51.491 24.3302 51.7704 24.3954 52.023 24.523C51.3562 25.3716 50.9957 26.4207 51 27.5C50.9995 28.3343 51.213 29.1548 51.62 29.883L50.852 30.436C49.4399 31.4556 47.7417 32.0029 46 32C45.7348 32 45.4804 32.1054 45.2929 32.2929C45.1054 32.4804 45 32.7348 45 33C45 33.2652 45.1054 33.5196 45.2929 33.7071C45.4804 33.8946 45.7348 34 46 34C48.161 34.0038 50.2679 33.3248 52.02 32.06L52.789 31.506C52.4253 32.9192 51.5582 34.151 50.3505 34.97C49.1428 35.7891 47.6776 36.139 46.2301 35.9541C44.7826 35.7692 43.4524 35.0622 42.4894 33.9658C41.5264 32.8695 40.9967 31.4592 41 30ZM35.555 56L38.806 52.749C38.906 52.983 38.992 53.221 39.106 53.449C39.3797 54.0169 39.5881 54.6141 39.727 55.229C39.2325 55.3954 38.7755 55.6574 38.382 56H35.555ZM38 45.07V48.764C38.0062 49.3645 38.064 49.9634 38.173 50.554L33.962 54.765L33.448 49.622L38 45.07ZM34.285 58H37.142C37.0519 58.3259 37.0042 58.662 37 59V60H34.192C34.3417 59.584 34.3974 59.1401 34.355 58.7L34.285 58ZM39 59C39 58.4696 39.2107 57.9609 39.5858 57.5858C39.9609 57.2107 40.4696 57 41 57H43V60H39V59Z" fill="black"/>
<path d="M43 28C43.5523 28 44 27.5523 44 27C44 26.4477 43.5523 26 43 26C42.4477 26 42 26.4477 42 27C42 27.5523 42.4477 28 43 28Z" fill="black"/>
<path d="M48 28C48.5523 28 49 27.5523 49 27C49 26.4477 48.5523 26 48 26C47.4477 26 47 26.4477 47 27C47 27.5523 47.4477 28 48 28Z" fill="black"/>
<path d="M7 14C6.73478 14 6.48043 14.1054 6.29289 14.2929C6.10536 14.4804 6 14.7348 6 15V21C6 21.2652 6.10536 21.5196 6.29289 21.7071C6.48043 21.8946 6.73478 22 7 22H10.837L16.684 23.949C16.786 23.9827 16.8926 23.9999 17 24C17.2652 24 17.5196 23.8946 17.7071 23.7071C17.8946 23.5196 18 23.2652 18 23V13C18 12.8415 17.9624 12.6854 17.8903 12.5443C17.8181 12.4032 17.7134 12.2813 17.5849 12.1887C17.4564 12.096 17.3077 12.0352 17.151 12.0112C16.9944 11.9873 16.8343 12.0009 16.684 12.051L10.837 14H7ZM8 16H10V20H8V16ZM16 21.613L12 20.279V15.721L16 14.387V21.613Z" fill="black"/>
<path d="M22.536 22.95C22.7235 23.1375 22.9778 23.2428 23.243 23.2428C23.5082 23.2428 23.7625 23.1375 23.95 22.95C25.2607 21.6361 25.9968 19.8559 25.9968 18C25.9968 16.1441 25.2607 14.3639 23.95 13.05C23.7614 12.8678 23.5088 12.767 23.2466 12.7693C22.9844 12.7716 22.7336 12.8768 22.5482 13.0622C22.3628 13.2476 22.2576 13.4984 22.2553 13.7606C22.2531 14.0228 22.3539 14.2754 22.536 14.464C23.472 15.4028 23.9976 16.6743 23.9976 18C23.9976 19.3257 23.472 20.5972 22.536 21.536C22.3485 21.7235 22.2432 21.9778 22.2432 22.243C22.2432 22.5082 22.3485 22.7625 22.536 22.95Z" fill="black"/>
<path d="M19.707 20.121C19.8945 20.3085 20.1488 20.4138 20.414 20.4138C20.6792 20.4138 20.9335 20.3085 21.121 20.121C21.3998 19.8424 21.6209 19.5116 21.7718 19.1475C21.9227 18.7834 22.0004 18.3931 22.0004 17.999C22.0004 17.6049 21.9227 17.2146 21.7718 16.8505C21.6209 16.4864 21.3998 16.1556 21.121 15.877C20.9334 15.6895 20.6789 15.5842 20.4137 15.5843C20.1484 15.5844 19.894 15.6899 19.7065 15.8775C19.519 16.0651 19.4137 16.3196 19.4138 16.5848C19.4139 16.8501 19.5194 17.1045 19.707 17.292C19.8945 17.4795 19.9998 17.7338 19.9998 17.999C19.9998 18.2642 19.8945 18.5185 19.707 18.706C19.614 18.7989 19.5403 18.9092 19.49 19.0306C19.4396 19.1519 19.4137 19.2821 19.4137 19.4135C19.4137 19.5449 19.4396 19.675 19.49 19.7964C19.5403 19.9178 19.614 20.0281 19.707 20.121Z" fill="black"/>
</svg>
