<svg width="64" height="64" viewBox="0 0 64 64" fill="none" xmlns="http://www.w3.org/2000/svg">
<path d="M11 48C11.552 48 12 47.552 12 47C12 46.448 11.552 46 11 46H10C7.033 46 4.569 43.833 4.09 41H11C17.065 41 22 36.065 22 30V29C22 28.448 21.552 28 21 28C20.448 28 20 28.448 20 29V30C20 31.341 19.697 32.61 19.169 33.755L12.529 27.115C14.211 26.398 16.06 26 18 26H28C29.862 26 31.679 26.515 33.253 27.49C35.904 29.132 38.929 30 42 30H45.48C46.032 30 46.48 29.552 46.48 29C46.48 28.448 46.032 28 45.48 28H42C39.301 28 36.641 27.236 34.306 25.79C33.277 25.153 32.162 24.686 31 24.386V21C31 20.448 30.552 20 30 20H28V18C29.103 18 30 17.103 30 16H43C45.757 16 48 13.757 48 11C48 10.448 47.552 10 47 10H37C34.586 10 32.566 11.721 32.101 14H30C30 12.897 29.103 12 28 12H22C20.897 12 20 12.897 20 14H11C10.448 14 10 14.448 10 15C10 15.552 10.448 16 11 16H15.829C15.416 17.164 14.304 18 13 18H4.171C4.584 16.836 5.696 16 7 16C7.552 16 8 15.552 8 15C8 14.448 7.552 14 7 14C4.243 14 2 16.243 2 19C2 19.552 2.448 20 3 20H13C15.414 20 17.434 18.279 17.899 16H20C20 17.103 20.897 18 22 18V20H20C19.735 20 19.48 20.105 19.293 20.293L17.293 22.293C17.105 22.48 17 22.735 17 23V24.051C8.644 24.571 2 31.515 2 40C2 44.411 5.589 48 10 48H11ZM37 12H45.829C45.416 13.164 44.304 14 43 14H34.171C34.584 12.836 35.696 12 37 12ZM22 14H28L28.001 14.996C28.001 14.998 28 15 28 15C28 15 28.001 15.002 28.001 15.004V16H22V14ZM24 18H26V20H24V18ZM20.414 22H29V24.046C28.668 24.018 28.335 24 28 24H19V23.414L20.414 22ZM10.677 28.091L18.099 35.513C16.45 37.63 13.885 39 11 39H4.051C4.379 34.386 6.947 30.393 10.677 28.091Z" fill="black"/>
<path d="M60.45 26.617L61.984 18.179C62.037 17.887 61.958 17.587 61.768 17.36C61.578 17.131 61.296 17 61 17H57.288C56.114 17 55.042 17.69 54.557 18.758L51.824 24.769C49.558 25.93 48 28.284 48 31C48 31.032 48.004 31.063 48.005 31.094L38.901 32.004C38.352 32.059 37.951 32.549 38.005 33.099C38.057 33.615 38.491 33.999 38.999 33.999C39.032 33.999 39.066 33.998 39.1 33.994L48.314 33.073C48.471 33.577 48.688 34.054 48.949 34.502L41.303 35.142C39.559 35.276 38.125 36.516 37.735 38.228C36.698 42.805 32.695 46 28 46H15C14.448 46 14 46.448 14 47C14 47.552 14.448 48 15 48H16.612L14.279 55H13.605C11.683 55 9.89799 54.045 8.83199 52.445C8.52499 51.986 7.90399 51.861 7.44499 52.168C6.98599 52.474 6.86199 53.095 7.16799 53.555C8.60599 55.712 11.013 57 13.605 57H35C35.552 57 36 56.552 36 56C36 55.448 35.552 55 35 55H32.721L30.312 47.772C34.911 46.884 38.616 43.394 39.685 38.673C39.879 37.821 40.591 37.204 41.463 37.137L50.526 36.378C50.805 36.611 51.106 36.816 51.419 37.004L51.681 38.843C51.938 40.643 53.503 42 55.322 42C57.35 42 59 40.35 59 38.322V36.741C59.381 36.474 59.739 36.167 60.068 35.821C60.448 35.421 60.433 34.788 60.033 34.407C59.633 34.027 59 34.042 58.619 34.442C57.663 35.447 56.378 36 55 36C52.243 36 50 33.757 50 31C50 28.243 52.243 26 55 26C57.757 26 60 28.243 60 31C60 31.135 59.989 31.268 59.979 31.4C59.935 31.95 60.345 32.432 60.896 32.476C61.435 32.52 61.929 32.109 61.972 31.559C61.987 31.375 62 31.189 62 31C62 29.341 61.417 27.818 60.45 26.617ZM16.387 55L17.387 52H29.612L30.612 55H16.387ZM28.279 48L28.946 50H18.054L18.721 48H28.279ZM57 37.707V38.322C57 39.248 56.248 40 55.322 40C54.492 40 53.779 39.381 53.661 38.56L53.56 37.849C54.025 37.947 54.506 38 55 38C55.689 38 56.36 37.897 57 37.707ZM54.356 24.033L56.378 19.586C56.54 19.23 56.897 19 57.288 19H59.802L58.699 25.068C57.624 24.395 56.359 24 55 24C54.783 24 54.569 24.013 54.356 24.033Z" fill="black"/>
<path d="M52 31C52 32.654 53.346 34 55 34C56.654 34 58 32.654 58 31C58 29.346 56.654 28 55 28C53.346 28 52 29.346 52 31ZM56 31C56 31.551 55.551 32 55 32C54.449 32 54 31.551 54 31C54 30.449 54.449 30 55 30C55.551 30 56 30.449 56 31Z" fill="black"/>
<path d="M28 42H32C32.552 42 33 41.552 33 41V39H35C35.552 39 36 38.552 36 38V34C36 33.448 35.552 33 35 33H33V31C33 30.448 32.552 30 32 30H28C27.448 30 27 30.448 27 31V33H25C24.448 33 24 33.448 24 34V38C24 38.552 24.448 39 25 39H27V41C27 41.552 27.448 42 28 42ZM26 37V35H28C28.552 35 29 34.552 29 34V32H31V34C31 34.552 31.448 35 32 35H34V37H32C31.448 37 31 37.448 31 38V40H29V38C29 37.448 28.552 37 28 37H26Z" fill="black"/>
<path d="M15 42C14.448 42 14 42.448 14 43C14 43.552 14.448 44 15 44H25C25.552 44 26 43.552 26 43C26 42.448 25.552 42 25 42H15Z" fill="black"/>
</svg>
