<svg width="64" height="64" viewBox="0 0 64 64" fill="none" xmlns="http://www.w3.org/2000/svg">
<path d="M24.936 49.3C17.8646 49.7607 10.8538 50.8992 4 52.7V11.306C17.4528 14.8604 31.46 15.8164 45.271 14.123C45.5344 14.0909 45.7742 13.9555 45.9377 13.7466C46.1012 13.5377 46.1751 13.2724 46.143 13.009C46.1109 12.7456 45.9755 12.5058 45.7666 12.3423C45.5577 12.1788 45.2924 12.1049 45.029 12.137C31.0398 13.8533 16.8495 12.8 3.267 9.03701C3.11855 8.99588 2.9626 8.9896 2.81132 9.01866C2.66004 9.04773 2.51753 9.11135 2.39488 9.20456C2.27224 9.29778 2.1728 9.41807 2.1043 9.55605C2.0358 9.69402 2.00011 9.84596 2 10V54C2 54.154 2.03557 54.306 2.10394 54.444C2.17232 54.582 2.27165 54.7023 2.39418 54.7956C2.51672 54.8889 2.65916 54.9527 2.81038 54.9819C2.9616 55.0111 3.11753 55.005 3.266 54.964C10.389 53.0036 17.6935 51.7752 25.066 51.298C25.1973 51.2896 25.3257 51.2554 25.4438 51.1974C25.5619 51.1394 25.6674 51.0587 25.7544 50.9599C25.8413 50.8611 25.9079 50.7461 25.9504 50.6216C25.9929 50.497 26.0104 50.3653 26.002 50.234C25.9936 50.1027 25.9594 49.9743 25.9014 49.8562C25.8434 49.7381 25.7627 49.6326 25.6639 49.5456C25.5651 49.4587 25.4501 49.3921 25.3256 49.3496C25.201 49.3071 25.0693 49.2896 24.938 49.298L24.936 49.3Z" fill="black"/>
<path d="M61.606 9.205C61.4836 9.11171 61.3413 9.04793 61.1903 9.01861C61.0392 8.9893 60.8834 8.99525 60.735 9.036C56.8565 10.1008 52.923 10.9544 48.952 11.593C48.8196 11.6107 48.6921 11.6547 48.577 11.7224C48.4619 11.7902 48.3615 11.8803 48.2818 11.9874C48.2021 12.0946 48.1447 12.2167 48.1129 12.3464C48.0811 12.4761 48.0757 12.6109 48.0969 12.7428C48.118 12.8746 48.1654 13.0009 48.2362 13.1142C48.307 13.2275 48.3998 13.3254 48.509 13.4022C48.6183 13.4791 48.7418 13.5332 48.8723 13.5615C49.0029 13.5898 49.1377 13.5917 49.269 13.567C52.864 12.991 56.469 12.23 60 11.304V25.549C58.6889 23.2582 56.7965 21.3539 54.5139 20.0284C52.2314 18.703 49.6395 18.0033 47 18H27C26.7348 18 26.4804 18.1054 26.2929 18.2929C26.1054 18.4804 26 18.7348 26 19V30C26 30.2652 26.1054 30.5196 26.2929 30.7071C26.4804 30.8946 26.7348 31 27 31C27.2652 31 27.5196 30.8946 27.7071 30.7071C27.8946 30.5196 28 30.2652 28 30V20H47C50.3612 20.0056 53.5898 21.3122 56.0088 23.6459C58.4279 25.9796 59.8496 29.1591 59.976 32.518C59.0489 31.6907 57.887 31.173 56.652 31.037C56.244 29.8616 55.4811 28.8419 54.4686 28.1188C53.4562 27.3957 52.2442 27.0047 51 27H50.16C45.5392 27.0025 40.9537 26.1945 36.612 24.613L32.342 23.06C32.1909 23.005 32.0288 22.9873 31.8694 23.0083C31.71 23.0293 31.558 23.0884 31.4263 23.1806C31.2946 23.2729 31.1871 23.3955 31.1129 23.5382C31.0387 23.6808 31 23.8392 31 24V31.09C29.6035 31.3273 28.3357 32.0505 27.4208 33.132C26.5059 34.2134 26.0026 35.5834 26 37V45C26.0016 46.4457 26.5252 47.8421 27.4743 48.9325C28.4234 50.023 29.7344 50.7341 31.166 50.935C31.5841 53.7608 32.9232 56.3696 34.9755 58.3566C37.0278 60.3436 39.6785 61.5977 42.5164 61.9242C45.3543 62.2507 48.2206 61.6315 50.6705 60.1625C53.1204 58.6935 55.017 56.457 56.066 53.8C57.422 54.112 59.072 54.5 60.739 54.964C60.824 54.9875 60.9118 54.9996 61 55C61.2652 55 61.5196 54.8946 61.7071 54.7071C61.8946 54.5196 62 54.2652 62 54V10C61.9999 9.8461 61.9643 9.6943 61.896 9.55641C61.8277 9.41852 61.7284 9.29826 61.606 9.205ZM28 45V37C28 35.9391 28.4214 34.9217 29.1716 34.1716C29.9217 33.4214 30.9391 33 32 33H49C49.2652 33 49.5196 32.8946 49.7071 32.7071C49.8946 32.5196 50 32.2652 50 32C50 31.7348 49.8946 31.4804 49.7071 31.2929C49.5196 31.1054 49.2652 31 49 31H33V25.428L35.929 26.493C40.4897 28.1538 45.3063 29.0023 50.16 29H51C51.7006 29.0024 52.3883 29.1883 52.9946 29.5392C53.601 29.8902 54.1048 30.3938 54.456 31H53C52.7348 31 52.4804 31.1054 52.2929 31.2929C52.1054 31.4804 52 31.7348 52 32C52 32.2652 52.1054 32.5196 52.2929 32.7071C52.4804 32.8946 52.7348 33 53 33H56C57.0609 33 58.0783 33.4214 58.8284 34.1716C59.5786 34.9217 60 35.9391 60 37V45C60 46.0609 59.5786 47.0783 58.8284 47.8284C58.0783 48.5786 57.0609 49 56 49H50.414C50.0968 49.0006 49.7826 48.9384 49.4896 48.8169C49.1966 48.6954 48.9306 48.517 48.707 48.292C48.298 47.8811 47.8115 47.5553 47.2758 47.3336C46.7401 47.1118 46.1658 46.9984 45.586 47H42.414C41.8342 46.9984 41.2599 47.1118 40.7242 47.3336C40.1885 47.5553 39.702 47.8811 39.293 48.292C39.0694 48.517 38.8034 48.6954 38.5104 48.8169C38.2174 48.9384 37.9032 49.0006 37.586 49H32C30.9391 49 29.9217 48.5786 29.1716 47.8284C28.4214 47.0783 28 46.0609 28 45ZM44 60C41.4346 59.9858 38.9539 59.0802 36.9826 57.4384C35.0113 55.7966 33.672 53.5205 33.194 51H37.586C38.1658 51.0016 38.7401 50.8882 39.2758 50.6664C39.8115 50.4447 40.298 50.1189 40.707 49.708C40.9306 49.483 41.1966 49.3046 41.4896 49.1831C41.7826 49.0616 42.0968 48.9994 42.414 49H45.586C45.9032 48.9994 46.2174 49.0616 46.5104 49.1831C46.8034 49.3046 47.0694 49.483 47.293 49.708C47.702 50.1189 48.1885 50.4447 48.7242 50.6664C49.2599 50.8882 49.8342 51.0016 50.414 51H54.806C54.328 53.5205 52.9887 55.7966 51.0174 57.4384C49.0461 59.0802 46.5654 59.9858 44 60ZM56.652 51.883C56.724 51.571 56.786 51.256 56.834 50.935C58.0127 50.7698 59.1152 50.2562 60 49.46V52.7C58.8 52.387 57.652 52.114 56.652 51.883Z" fill="black"/>
<path d="M36 45C36.2652 45 36.5196 44.8946 36.7071 44.7071C36.8946 44.5196 37 44.2652 37 44C37 43.7348 36.8946 43.4804 36.7071 43.2929C36.5196 43.1054 36.2652 43 36 43H32V41H34C34.2652 41 34.5196 40.8946 34.7071 40.7071C34.8946 40.5196 35 40.2652 35 40C35 39.7348 34.8946 39.4804 34.7071 39.2929C34.5196 39.1054 34.2652 39 34 39H32V37H38.586L40.586 39H39C38.7348 39 38.4804 39.1054 38.2929 39.2929C38.1054 39.4804 38 39.7348 38 40C38 40.2652 38.1054 40.5196 38.2929 40.7071C38.4804 40.8946 38.7348 41 39 41H42.586L44.586 43H40C39.7348 43 39.4804 43.1054 39.2929 43.2929C39.1054 43.4804 39 43.7348 39 44C39 44.2652 39.1054 44.5196 39.2929 44.7071C39.4804 44.8946 39.7348 45 40 45H56C56.5304 45 57.0391 44.7893 57.4142 44.4142C57.7893 44.0391 58 43.5304 58 43V37C58 36.4696 57.7893 35.9609 57.4142 35.5858C57.0391 35.2107 56.5304 35 56 35H32C31.4696 35 30.9609 35.2107 30.5858 35.5858C30.2107 35.9609 30 36.4696 30 37V43C30 43.5304 30.2107 44.0391 30.5858 44.4142C30.9609 44.7893 31.4696 45 32 45H36ZM41.414 37H46.586L52.586 43H47.414L41.414 37ZM56 39H55C54.7348 39 54.4804 39.1054 54.2929 39.2929C54.1054 39.4804 54 39.7348 54 40C54 40.2652 54.1054 40.5196 54.2929 40.7071C54.4804 40.8946 54.7348 41 55 41H56V43H55.414L49.414 37H56V39Z" fill="black"/>
<path d="M46.445 53.168C45.7213 53.6517 44.8704 53.9099 44 53.9099C43.1296 53.9099 42.2787 53.6517 41.555 53.168C41.3343 53.0208 41.0643 52.9673 40.8041 53.0192C40.544 53.0712 40.3152 53.2243 40.168 53.445C40.0208 53.6657 39.9673 53.9358 40.0192 54.1959C40.0712 54.456 40.2243 54.6848 40.445 54.832C41.4969 55.5361 42.7342 55.912 44 55.912C45.2658 55.912 46.5031 55.5361 47.555 54.832C47.6643 54.7591 47.7581 54.6654 47.8312 54.5563C47.9042 54.4471 47.955 54.3247 47.9808 54.1959C48.0065 54.0671 48.0066 53.9345 47.9811 53.8056C47.9555 53.6768 47.9049 53.5543 47.832 53.445C47.7591 53.3357 47.6654 53.2419 47.5563 53.1689C47.4471 53.0958 47.3247 53.045 47.1959 53.0192C47.0671 52.9935 46.9345 52.9934 46.8056 53.019C46.6768 53.0445 46.5543 53.0951 46.445 53.168Z" fill="black"/>
<path d="M7 41.932L6.648 42.063C6.45745 42.1346 6.29332 42.2628 6.17752 42.4302C6.06173 42.5976 5.9998 42.7964 6 43V46C6.00004 46.1519 6.03469 46.3018 6.10131 46.4383C6.16792 46.5748 6.26477 46.6943 6.38448 46.7878C6.50419 46.8813 6.64363 46.9463 6.79222 46.9779C6.9408 47.0094 7.09462 47.0067 7.242 46.97L15 45.031L22.758 46.97C22.9054 47.0067 23.0592 47.0094 23.2078 46.9779C23.3564 46.9463 23.4958 46.8813 23.6155 46.7878C23.7352 46.6943 23.8321 46.5748 23.8987 46.4383C23.9653 46.3018 24 46.1519 24 46V43C24.0002 42.7964 23.9383 42.5976 23.8225 42.4302C23.7067 42.2628 23.5425 42.1346 23.352 42.063L23 41.932V39C23 38.8043 22.9426 38.6129 22.8348 38.4496C22.7271 38.2862 22.5738 38.1581 22.394 38.081L19.575 36.873C18.801 36.5392 17.9411 36.4596 17.119 36.6456C16.2969 36.8316 15.555 37.2736 15 37.908C14.445 37.2736 13.7031 36.8316 12.881 36.6456C12.0589 36.4596 11.199 36.5392 10.425 36.873L7.606 38.081C7.42616 38.1581 7.27288 38.2862 7.16517 38.4496C7.05745 38.6129 7.00002 38.8043 7 39V41.932ZM8 43.693L12.648 41.95C12.7993 41.8931 12.9622 41.8737 13.1226 41.8935C13.2831 41.9133 13.4363 41.9718 13.5692 42.0638C13.7021 42.1558 13.8108 42.2787 13.8858 42.4219C13.9608 42.5651 14 42.7243 14 42.886V43.219L8 44.719V43.693ZM22 44.719L16 43.219V42.886C16.0001 42.7244 16.0393 42.5653 16.1142 42.4222C16.1892 42.2792 16.2977 42.1564 16.4305 42.0644C16.5633 41.9724 16.7164 41.9139 16.8767 41.894C17.037 41.8741 17.1997 41.8933 17.351 41.95L22 43.693V44.719ZM16.9 38.88C17.1751 38.6949 17.4925 38.5823 17.8228 38.5528C18.153 38.5232 18.4854 38.5777 18.789 38.711L21 39.659V41.182L18.053 40.077C17.4117 39.8398 16.7085 39.8303 16.061 40.05C16.1832 39.5682 16.4829 39.1503 16.9 38.88ZM11.213 38.711C11.4781 38.5971 11.7647 38.542 12.0531 38.5493C12.3416 38.5567 12.625 38.6264 12.8839 38.7536C13.1429 38.8808 13.3713 39.0625 13.5534 39.2863C13.7355 39.5101 13.8671 39.7706 13.939 40.05C13.2915 39.8308 12.5883 39.8403 11.947 40.077L9 41.182V39.659L11.213 38.711Z" fill="black"/>
<path d="M15 35C16.5823 35 18.129 34.5308 19.4446 33.6518C20.7602 32.7727 21.7855 31.5233 22.391 30.0615C22.9965 28.5997 23.155 26.9911 22.8463 25.4393C22.5376 23.8874 21.7757 22.462 20.6569 21.3431C19.538 20.2243 18.1126 19.4624 16.5607 19.1537C15.0089 18.845 13.4003 19.0035 11.9385 19.609C10.4767 20.2145 9.22729 21.2399 8.34824 22.5554C7.46919 23.871 7 25.4178 7 27C7.00238 29.121 7.846 31.1545 9.34578 32.6542C10.8456 34.154 12.879 34.9976 15 35ZM15 21C16.1867 21 17.3467 21.3519 18.3334 22.0112C19.3201 22.6705 20.0892 23.6075 20.5433 24.7039C20.9974 25.8003 21.1162 27.0067 20.8847 28.1705C20.6532 29.3344 20.0818 30.4035 19.2426 31.2426C18.4035 32.0818 17.3344 32.6532 16.1705 32.8847C15.0067 33.1162 13.8003 32.9974 12.7039 32.5433C11.6075 32.0892 10.6705 31.3201 10.0112 30.3334C9.35189 29.3467 9 28.1867 9 27C9.00159 25.4092 9.63424 23.884 10.7591 22.7591C11.884 21.6342 13.4092 21.0016 15 21Z" fill="black"/>
<path d="M12.475 30.351C12.6199 30.4405 12.7852 30.4915 12.9553 30.4992C13.1254 30.5069 13.2946 30.471 13.447 30.395L18.447 27.895C18.6134 27.8121 18.7534 27.6844 18.8512 27.5263C18.9491 27.3682 19.0009 27.1859 19.0009 27C19.0009 26.8141 18.9491 26.6318 18.8512 26.4737C18.7534 26.3156 18.6134 26.1879 18.447 26.105L13.447 23.605C13.2945 23.5288 13.1251 23.4929 12.9548 23.5006C12.7845 23.5083 12.619 23.5594 12.474 23.6491C12.329 23.7388 12.2093 23.864 12.1264 24.0129C12.0434 24.1619 11.9999 24.3295 12 24.5V29.5C12 29.6706 12.0437 29.8383 12.1268 29.9873C12.21 30.1362 12.3298 30.2615 12.475 30.351ZM14 26.118L15.764 27L14 27.882V26.118Z" fill="black"/>
</svg>
