<svg width="64" height="64" viewBox="0 0 64 64" fill="none" xmlns="http://www.w3.org/2000/svg">
<path d="M61 11H58V9.05401L61.316 7.94901C61.5161 7.88325 61.6903 7.75601 61.8138 7.58542C61.9373 7.41483 62.0038 7.20961 62.0038 6.99901C62.0038 6.78841 61.9373 6.58319 61.8138 6.4126C61.6903 6.24202 61.5161 6.11477 61.316 6.04901L55.992 4.27601C55.8672 4.23445 55.7355 4.21787 55.6044 4.22721C55.4732 4.23655 55.3452 4.27164 55.2275 4.33046C54.99 4.44927 54.8094 4.65756 54.7255 4.90951C54.6416 5.16147 54.6611 5.43645 54.78 5.67397C54.8988 5.91148 55.107 6.09207 55.359 6.17601L57.838 7.00001L49 9.94601L40.162 7.00001L49 4.05401L51.562 4.90801C51.814 4.99182 52.0889 4.97211 52.3263 4.85321C52.5637 4.73431 52.7442 4.52597 52.828 4.27401C52.9118 4.02206 52.8921 3.74713 52.7732 3.50971C52.6543 3.27229 52.446 3.09182 52.194 3.00801L49.316 2.04901C49.1109 1.98069 48.8891 1.98069 48.684 2.04901L36.684 6.04901C36.4845 6.11547 36.311 6.24314 36.1882 6.41387C36.0654 6.58461 35.9995 6.78971 36 7.00001V15.184C35.6797 15.0656 35.3414 15.0033 35 15C34.4067 15 33.8266 15.176 33.3333 15.5056C32.8399 15.8352 32.4554 16.3038 32.2284 16.852C32.0013 17.4001 31.9419 18.0033 32.0576 18.5853C32.1734 19.1672 32.4591 19.7018 32.8787 20.1213C33.2982 20.5409 33.8328 20.8266 34.4147 20.9424C34.9967 21.0581 35.5999 20.9987 36.148 20.7717C36.6962 20.5446 37.1648 20.1601 37.4944 19.6667C37.8241 19.1734 38 18.5934 38 18V8.38801L40 9.05401V17C40 17.1696 40.0431 17.3364 40.1254 17.4848C40.2076 17.6331 40.3262 17.7581 40.47 17.848C43.0319 19.4358 45.986 20.277 49 20.277C52.014 20.277 54.9682 19.4358 57.53 17.848C57.6738 17.7581 57.7924 17.6331 57.8746 17.4848C57.9569 17.3364 58 17.1696 58 17V13H60V43H47.2C46.9348 43 46.6804 43.1054 46.4929 43.2929C46.3054 43.4804 46.2 43.7348 46.2 44C46.2 44.2652 46.3054 44.5196 46.4929 44.7071C46.6804 44.8947 46.9348 45 47.2 45H61C61.2652 45 61.5196 44.8947 61.7071 44.7071C61.8946 44.5196 62 44.2652 62 44V12C62 11.7348 61.8946 11.4804 61.7071 11.2929C61.5196 11.1054 61.2652 11 61 11ZM35 19C34.8022 19 34.6089 18.9414 34.4444 18.8315C34.28 18.7216 34.1518 18.5654 34.0761 18.3827C34.0004 18.2 33.9806 17.9989 34.0192 17.8049C34.0578 17.6109 34.153 17.4328 34.2929 17.2929C34.4327 17.1531 34.6109 17.0578 34.8049 17.0192C34.9989 16.9806 35.2 17.0004 35.3827 17.0761C35.5654 17.1518 35.7216 17.28 35.8315 17.4444C35.9414 17.6089 36 17.8022 36 18C36 18.2652 35.8946 18.5196 35.7071 18.7071C35.5196 18.8947 35.2652 19 35 19ZM56 16.433C53.8653 17.6425 51.4536 18.2783 49 18.2783C46.5464 18.2783 44.1347 17.6425 42 16.433V9.72101L48.684 11.949C48.8891 12.0173 49.1109 12.0173 49.316 11.949L56 9.72101V16.433Z" fill="black"/>
<path d="M28 34C28.5523 34 29 33.5523 29 33C29 32.4477 28.5523 32 28 32C27.4477 32 27 32.4477 27 33C27 33.5523 27.4477 34 28 34Z" fill="black"/>
<path d="M22 34C22.5523 34 23 33.5523 23 33C23 32.4477 22.5523 32 22 32C21.4477 32 21 32.4477 21 33C21 33.5523 21.4477 34 22 34Z" fill="black"/>
<path d="M22.293 36.293C22.1056 36.4805 22.0002 36.7348 22.0002 37C22.0002 37.2652 22.1056 37.5195 22.293 37.707C23.0113 38.4243 23.9849 38.8271 25 38.8271C26.0151 38.8271 26.9887 38.4243 27.707 37.707C27.8892 37.5184 27.99 37.2658 27.9877 37.0036C27.9854 36.7414 27.8803 36.4906 27.6948 36.3052C27.5094 36.1198 27.2586 36.0146 26.9964 36.0123C26.7342 36.01 26.4816 36.1108 26.293 36.293C25.9498 36.6353 25.4848 36.8276 25 36.8276C24.5153 36.8276 24.0503 36.6353 23.707 36.293C23.5195 36.1055 23.2652 36.0002 23 36.0002C22.7349 36.0002 22.4806 36.1055 22.293 36.293Z" fill="black"/>
<path d="M25 51C25.5523 51 26 50.5523 26 50C26 49.4477 25.5523 49 25 49C24.4477 49 24 49.4477 24 50C24 50.5523 24.4477 51 25 51Z" fill="black"/>
<path d="M25 55C25.5523 55 26 54.5523 26 54C26 53.4477 25.5523 53 25 53C24.4477 53 24 53.4477 24 54C24 54.5523 24.4477 55 25 55Z" fill="black"/>
<path d="M46 27V23C46 22.7348 45.8946 22.4804 45.7071 22.2929C45.5196 22.1054 45.2652 22 45 22C44.7348 22 44.4804 22.1054 44.2929 22.2929C44.1054 22.4804 44 22.7348 44 23V27C44 27.2652 44.1054 27.5196 44.2929 27.7071C44.4804 27.8946 44.7348 28 45 28C45.2652 28 45.5196 27.8946 45.7071 27.7071C45.8946 27.5196 46 27.2652 46 27Z" fill="black"/>
<path d="M50.5 22.5C50.2348 22.5 49.9804 22.6054 49.7929 22.7929C49.6054 22.9804 49.5 23.2348 49.5 23.5V24H49C48.7348 24 48.4804 24.1054 48.2929 24.2929C48.1054 24.4804 48 24.7348 48 25C48 25.2652 48.1054 25.5196 48.2929 25.7071C48.4804 25.8946 48.7348 26 49 26H49.5V26.5C49.5 26.7652 49.6054 27.0196 49.7929 27.2071C49.9804 27.3946 50.2348 27.5 50.5 27.5C50.7652 27.5 51.0196 27.3946 51.2071 27.2071C51.3946 27.0196 51.5 26.7652 51.5 26.5V26H52C52.2652 26 52.5196 25.8946 52.7071 25.7071C52.8946 25.5196 53 25.2652 53 25C53 24.7348 52.8946 24.4804 52.7071 24.2929C52.5196 24.1054 52.2652 24 52 24H51.5V23.5C51.5 23.2348 51.3946 22.9804 51.2071 22.7929C51.0196 22.6054 50.7652 22.5 50.5 22.5Z" fill="black"/>
<path d="M57 27V23C57 22.7348 56.8946 22.4804 56.7071 22.2929C56.5196 22.1054 56.2652 22 56 22C55.7348 22 55.4804 22.1054 55.2929 22.2929C55.1054 22.4804 55 22.7348 55 23V27C55 27.2652 55.1054 27.5196 55.2929 27.7071C55.4804 27.8946 55.7348 28 56 28C56.2652 28 56.5196 27.8946 56.7071 27.7071C56.8946 27.5196 57 27.2652 57 27Z" fill="black"/>
<path d="M61 60H26C25.7348 60 25.4804 60.1054 25.2929 60.2929C25.1054 60.4804 25 60.7348 25 61C25 61.2652 25.1054 61.5196 25.2929 61.7071C25.4804 61.8946 25.7348 62 26 62H61C61.2652 62 61.5196 61.8946 61.7071 61.7071C61.8946 61.5196 62 61.2652 62 61C62 60.7348 61.8946 60.4804 61.7071 60.2929C61.5196 60.1054 61.2652 60 61 60Z" fill="black"/>
<path d="M22 60H3C2.73478 60 2.48043 60.1054 2.29289 60.2929C2.10536 60.4804 2 60.7348 2 61C2 61.2652 2.10536 61.5196 2.29289 61.7071C2.48043 61.8946 2.73478 62 3 62H22C22.2652 62 22.5196 61.8946 22.7071 61.7071C22.8946 61.5196 23 61.2652 23 61C23 60.7348 22.8946 60.4804 22.7071 60.2929C22.5196 60.1054 22.2652 60 22 60Z" fill="black"/>
<path d="M61 56H46V54C45.9999 53.7348 45.8946 53.4805 45.707 53.293L44.526 52.113C44.7926 51.555 44.8802 50.9283 44.7769 50.3186C44.6737 49.7089 44.3845 49.146 43.949 48.707L42.24 47C42.9962 46.4598 43.5853 45.7179 43.94 44.859L46.157 39.3C46.4049 38.6657 46.449 37.97 46.283 37.3095C46.1171 36.649 45.7493 36.0567 45.231 35.615L46.931 31.372C47.0297 31.1256 47.0264 30.8501 46.9219 30.6061C46.8175 30.3622 46.6204 30.1697 46.374 30.071C46.1276 29.9723 45.8521 29.9756 45.6081 30.0801C45.3642 30.1845 45.1717 30.3816 45.073 30.628L43.385 34.849C42.7068 34.7922 42.0281 34.9509 41.4454 35.3024C40.8627 35.654 40.4059 36.1806 40.14 36.807L38.341 41H35.392C36.4439 39.1752 36.9984 37.1063 37 35V31C37.005 29.3937 36.6847 27.803 36.0584 26.3238C35.4321 24.8445 34.5129 23.5074 33.356 22.393C33.1642 22.217 32.9114 22.1226 32.6511 22.1301C32.3909 22.1376 32.1439 22.2462 31.9625 22.4329C31.7811 22.6196 31.6797 22.8697 31.6798 23.1301C31.6799 23.3904 31.7815 23.6404 31.963 23.827C32.9271 24.7558 33.6932 25.8701 34.2152 27.1029C34.7371 28.3356 35.0041 29.6613 35 31V35C34.9976 37.1644 34.2934 39.2697 32.993 41H30.274C31.1296 40.2519 31.8155 39.3295 32.2857 38.2947C32.7558 37.2599 32.9994 36.1366 33 35V29C33 28.7348 32.8946 28.4804 32.7071 28.2929C32.5196 28.1054 32.2652 28 32 28H28C27.2417 28.0005 26.495 27.8135 25.8265 27.4556C25.1579 27.0978 24.5882 26.5802 24.168 25.949L23.832 25.449C23.7353 25.3197 23.6097 25.2146 23.4653 25.1423C23.3208 25.07 23.1615 25.0323 23 25.0323C22.8385 25.0323 22.6792 25.07 22.5347 25.1423C22.3903 25.2146 22.2647 25.3197 22.168 25.449L21.832 25.949C21.4118 26.5802 20.8421 27.0978 20.1735 27.4556C19.505 27.8135 18.7583 28.0005 18 28C17.7348 28 17.4804 28.1054 17.2929 28.2929C17.1054 28.4804 17 28.7348 17 29V35C17.0002 36.1599 17.2533 37.3057 17.7415 38.3578C18.2297 39.4099 18.9414 40.343 19.827 41.092C18.3351 41.3106 16.9374 41.9531 15.8 42.943C15.5855 42.3733 15.2028 41.8823 14.7027 41.5353C14.2026 41.1882 13.6087 41.0015 13 41H12.618L12.447 40.658C12.2937 40.3575 12.0909 40.085 11.847 39.852C12.8182 39.2162 13.6152 38.3479 14.1658 37.326C14.7164 36.304 15.0032 35.1608 15 34V31.36C14.9652 28.6962 15.9703 26.1238 17.8019 24.1893C19.6336 22.2548 22.1473 21.1107 24.809 21C26.2261 20.9692 27.6332 21.2449 28.934 21.808C29.177 21.9107 29.4508 21.9131 29.6956 21.8149C29.9405 21.7166 30.1366 21.5256 30.2412 21.2833C30.3458 21.0411 30.3505 20.7674 30.2542 20.5218C30.1578 20.2762 29.9684 20.0785 29.727 19.972C28.1655 19.2922 26.4746 18.9605 24.772 19C21.587 19.1227 18.5754 20.4826 16.3772 22.7906C14.179 25.0986 12.9674 28.1728 13 31.36V34C13.002 34.9715 12.7188 35.9222 12.1855 36.7342C11.6523 37.5463 10.8923 38.1839 10 38.568V13H33C33.2652 13 33.5196 12.8946 33.7071 12.7071C33.8946 12.5196 34 12.2652 34 12C34 11.7348 33.8946 11.4804 33.7071 11.2929C33.5196 11.1054 33.2652 11 33 11H9C8.73478 11 8.48043 11.1054 8.29289 11.2929C8.10536 11.4804 8 11.7348 8 12V39.016C7.48476 39.054 6.98826 39.2254 6.55925 39.5132C6.13024 39.8011 5.78347 40.1956 5.553 40.658L5.382 41H5C4.20435 41 3.44129 41.3161 2.87868 41.8787C2.31607 42.4413 2 43.2044 2 44V48C2 48.7956 2.31607 49.5587 2.87868 50.1213C3.44129 50.6839 4.20435 51 5 51H7.277L4.42 56H3C2.73478 56 2.48043 56.1054 2.29289 56.2929C2.10536 56.4804 2 56.7348 2 57C2 57.2652 2.10536 57.5196 2.29289 57.7071C2.48043 57.8946 2.73478 58 3 58H61C61.2652 58 61.5196 57.8946 61.7071 57.7071C61.8946 57.5196 62 57.2652 62 57C62 56.7348 61.8946 56.4804 61.7071 56.2929C61.5196 56.1054 61.2652 56 61 56ZM38.293 48.707C38.1975 48.6148 38.1213 48.5044 38.0689 48.3824C38.0165 48.2604 37.9889 48.1292 37.9878 47.9964C37.9866 47.8636 38.0119 47.7319 38.0622 47.609C38.1125 47.4862 38.1867 47.3745 38.2806 47.2806C38.3745 47.1867 38.4862 47.1125 38.609 47.0622C38.7319 47.0119 38.8636 46.9866 38.9964 46.9878C39.1292 46.9889 39.2604 47.0165 39.3824 47.0689C39.5044 47.1213 39.6148 47.1975 39.707 47.293L40.414 48L39 49.414L38.293 48.707ZM41.828 49.414L42.535 50.121C42.628 50.2139 42.7017 50.3242 42.7521 50.4456C42.8024 50.567 42.8283 50.6971 42.8283 50.8285C42.8283 50.9599 42.8024 51.09 42.7521 51.2114C42.7017 51.3328 42.628 51.4431 42.535 51.536C42.3447 51.7177 42.0917 51.8191 41.8285 51.8191C41.5653 51.8191 41.3123 51.7177 41.122 51.536L40.415 50.828L41.828 49.414ZM42.7 36.909C42.8615 36.8488 43.0338 36.8227 43.2059 36.8324C43.378 36.842 43.5462 36.8872 43.7 36.965C43.981 37.1074 44.1987 37.3495 44.3108 37.6438C44.4229 37.9382 44.4211 38.2638 44.306 38.557L43.876 39.631L41.653 38.361L41.982 37.595C42.0483 37.4375 42.1462 37.2954 42.2697 37.1774C42.3932 37.0594 42.5397 36.968 42.7 36.909ZM23 42.737C24.3103 43.0877 25.6897 43.0877 27 42.737V43.465L25 44.8L23 43.467V42.737ZM19 35V29.924C20.5547 29.6879 21.9735 28.9033 23 27.712C23.6196 28.4308 24.3871 29.0073 25.25 29.4022C26.113 29.7971 27.051 30.001 28 30H31V35C31 36.5913 30.3679 38.1174 29.2426 39.2426C28.1174 40.3679 26.5913 41 25 41C23.4087 41 21.8826 40.3679 20.7574 39.2426C19.6321 38.1174 19 36.5913 19 35ZM21 43V44C21 44.1646 21.0406 44.3266 21.1182 44.4718C21.1958 44.6169 21.3081 44.7407 21.445 44.832L24.445 46.832C24.6093 46.9416 24.8025 47.0001 25 47.0001C25.1975 47.0001 25.3907 46.9416 25.555 46.832L28.555 44.832C28.6919 44.7407 28.8042 44.6169 28.8818 44.4718C28.9594 44.3266 29 44.1646 29 44V43H39C39.1957 43 39.387 42.9426 39.5504 42.8348C39.7137 42.7271 39.8419 42.5738 39.919 42.394L40.854 40.211L43.12 41.511L42.077 44.119C41.8226 44.7463 41.3614 45.2677 40.77 45.597C40.1939 45.1729 39.4851 44.9687 38.7717 45.0211C38.0582 45.0735 37.3869 45.3792 36.879 45.883C36.841 45.921 36.814 45.966 36.779 46.005H33C32.7348 46.005 32.4804 46.1104 32.2929 46.2979C32.1054 46.4854 32 46.7398 32 47.005V53.005C32 53.2702 32.1054 53.5246 32.2929 53.7121C32.4804 53.8996 32.7348 54.005 33 54.005C33.2652 54.005 33.5196 53.8996 33.7071 53.7121C33.8946 53.5246 34 53.2702 34 53.005V48H36C35.9989 48.3941 36.076 48.7845 36.2269 49.1486C36.3778 49.5127 36.5994 49.8432 36.879 50.121L38.292 51.535L39.705 52.949C40.141 53.3898 40.7043 53.6826 41.3155 53.7863C41.9267 53.89 42.5551 53.7993 43.112 53.527L43.998 54.413V56H20V51C20 50.7348 19.8946 50.4804 19.7071 50.2929C19.5196 50.1054 19.2652 50 19 50C18.7348 50 18.4804 50.1054 18.2929 50.2929C18.1054 50.4804 18 50.7348 18 51V56H15V50.22C15.3133 49.941 15.5643 49.5991 15.7366 49.2166C15.9089 48.8341 15.9987 48.4195 16 48V45.716C16.5398 44.8812 17.2803 44.1952 18.1538 43.7207C19.0273 43.2462 20.0059 42.9984 21 43ZM13 51V54.985L10.723 51H13ZM10 53.766L11.277 56H10V53.766ZM5 43H6C6.18583 43.0001 6.36801 42.9484 6.5261 42.8507C6.68419 42.753 6.81193 42.6132 6.895 42.447L7.342 41.553C7.42444 41.3865 7.5519 41.2464 7.70992 41.1487C7.86794 41.0509 8.05019 40.9994 8.236 41H9.764C9.94981 40.9994 10.1321 41.0509 10.2901 41.1487C10.4481 41.2464 10.5756 41.3865 10.658 41.553L11.105 42.447C11.1881 42.6132 11.3158 42.753 11.4739 42.8507C11.632 42.9484 11.8142 43.0001 12 43H13C13.2652 43 13.5196 43.1054 13.7071 43.2929C13.8946 43.4804 14 43.7348 14 44V48C14 48.2652 13.8946 48.5196 13.7071 48.7071C13.5196 48.8946 13.2652 49 13 49H12V48C12 47.2044 11.6839 46.4413 11.1213 45.8787C10.5587 45.3161 9.79565 45 9 45H4V44C4 43.7348 4.10536 43.4804 4.29289 43.2929C4.48043 43.1054 4.73478 43 5 43ZM4 48V47H9C9.26522 47 9.51957 47.1054 9.70711 47.2929C9.89464 47.4804 10 47.7348 10 48V49H5C4.73478 49 4.48043 48.8946 4.29289 48.7071C4.10536 48.5196 4 48.2652 4 48ZM8 53.766V56H6.723L8 53.766Z" fill="black"/>
<path d="M51 32C50.7348 32 50.4804 32.1054 50.2929 32.2929C50.1054 32.4804 50 32.7348 50 33C50 33.2652 50.1054 33.5196 50.2929 33.7071C50.4804 33.8946 50.7348 34 51 34H55C55.2652 34 55.5196 33.8946 55.7071 33.7071C55.8946 33.5196 56 33.2652 56 33C56 32.7348 55.8946 32.4804 55.7071 32.2929C55.5196 32.1054 55.2652 32 55 32H51Z" fill="black"/>
<path d="M55 36H51C50.7348 36 50.4804 36.1054 50.2929 36.2929C50.1054 36.4804 50 36.7348 50 37C50 37.2652 50.1054 37.5196 50.2929 37.7071C50.4804 37.8946 50.7348 38 51 38H55C55.2652 38 55.5196 37.8946 55.7071 37.7071C55.8946 37.5196 56 37.2652 56 37C56 36.7348 55.8946 36.4804 55.7071 36.2929C55.5196 36.1054 55.2652 36 55 36Z" fill="black"/>
</svg>
