<svg width="64" height="64" viewBox="0 0 64 64" fill="none" xmlns="http://www.w3.org/2000/svg">
<path d="M53 41V40.235C54.612 38.94 55.714 37.036 55.95 34.873C57.696 34.444 59 32.877 59 31C59 30.117 58.609 29.33 58 28.78V26C58 21.589 54.411 18 50 18C47.932 18 45.953 18.805 44.468 20.229C43.764 20.006 43.02 19.948 42.324 20.045C41.777 20.121 41.395 20.626 41.471 21.173C41.547 21.72 42.049 22.098 42.599 22.026C43.148 21.948 43.736 22.039 44.292 22.306C44.697 22.502 45.184 22.402 45.48 22.062C46.624 20.752 48.271 20 50 20C53.309 20 56 22.691 56 26V28C56 27.448 55.552 27 55 27C52.005 27 49.065 26.186 46.498 24.645L45.661 24.143C45.401 23.986 45.081 23.966 44.797 24.07C44.512 24.175 44.289 24.412 44.193 24.699C43.835 25.773 42.983 26.561 41.932 26.861C41.362 21.882 37.128 18 32 18C31.41 18 30.811 18.052 30.219 18.155C29.675 18.25 29.311 18.767 29.405 19.312C29.5 19.855 30.015 20.218 30.562 20.126C31.04 20.042 31.524 20 32 20C36.411 20 40 23.589 40 28H39.858C39.411 26.28 37.858 25 36 25H28C26.142 25 24.589 26.28 24.142 28H24C24 25.458 25.229 23.047 27.289 21.549C27.736 21.224 27.834 20.599 27.509 20.152C27.183 19.705 26.559 19.605 26.112 19.932C25.554 20.338 25.054 20.807 24.599 21.311C22.671 18.804 19.808 17.219 16.736 17.023C14.29 16.861 11.942 17.488 9.935 18.83C9.476 19.137 9.352 19.758 9.659 20.217C9.965 20.675 10.587 20.798 11.046 20.493C12.684 19.398 14.608 18.888 16.607 19.019C19.295 19.19 21.79 20.684 23.36 23.018C22.821 23.95 22.433 24.962 22.216 26.023C22.144 26.014 22.074 26 22 26C20.333 26 18.765 25.351 17.586 24.172L16.707 23.293C16.316 22.902 15.684 22.902 15.293 23.293L14.414 24.172C13.235 25.351 11.667 26 10 26C8.897 26 8 26.897 8 28C7.648 28 7.314 28.072 7 28.184V28C7 26.227 7.516 24.513 8.493 23.044C8.799 22.584 8.674 21.963 8.214 21.658C7.752 21.35 7.133 21.477 6.828 21.937C5.632 23.734 5 25.831 5 28V28.56C5 29.964 4.589 31.317 3.808 32.476C3.279 33.269 3 34.197 3 35.16C3 37.829 5.171 40 7.84 40H10.726C10.853 40.112 10.983 40.219 11.117 40.323L9.552 41.105C9.087 41.338 8.878 41.888 9.071 42.371L11.071 47.371C11.175 47.63 11.383 47.835 11.644 47.934C11.759 47.979 11.88 48 12 48C12.154 48 12.307 47.964 12.447 47.895L16 46.118L18.414 47.325C18.149 48.174 18 49.071 18 50V61C18 61.552 18.448 62 19 62C19.552 62 20 61.552 20 61V50C20 46.724 22.275 43.923 25.4 43.194L27.071 47.372C27.175 47.631 27.383 47.836 27.644 47.935C27.759 47.979 27.88 48 28 48C28.154 48 28.307 47.964 28.447 47.895L28.74 47.748C28.938 48.264 29.254 48.716 29.656 49.081L29.003 56.917C28.979 57.21 29.085 57.499 29.293 57.707L31.293 59.707C31.488 59.902 31.744 60 32 60C32.256 60 32.512 59.902 32.707 59.707L34.707 57.707C34.915 57.499 35.021 57.21 34.997 56.917L34.344 49.081C34.746 48.716 35.062 48.264 35.26 47.748L35.553 47.895C35.693 47.965 35.846 48 36 48C36.12 48 36.241 47.979 36.355 47.935C36.616 47.836 36.824 47.631 36.928 47.372L38.599 43.194C41.725 43.923 44 46.724 44 50V61C44 61.552 44.448 62 45 62C45.552 62 46 61.552 46 61V50C46 47.746 45.161 45.666 43.767 44.075L47.4 46.8C47.578 46.933 47.789 47 48 47C48.211 47 48.422 46.933 48.6 46.8L52.6 43.8C52.852 43.612 53 43.315 53 43C56.86 43 60 46.14 60 50V61C60 61.552 60.448 62 61 62C61.552 62 62 61.552 62 61V50C62 45.038 57.962 41 53 41ZM56 32.731V30C56.551 30 57 30.449 57 31C57 31.739 56.597 32.385 56 32.731ZM41 31C41 31.739 40.597 32.385 40 32.731V30C40.551 30 41 30.449 41 31ZM28 27H36C37.103 27 38 27.897 38 29V34C38 37.309 35.309 40 32 40C28.691 40 26 37.309 26 34V29C26 27.897 26.897 27 28 27ZM32 43.586L30.203 41.789C30.782 41.923 31.381 42 32 42C32.619 42 33.218 41.923 33.797 41.789L32 43.586ZM24 30V32.731C23.403 32.385 23 31.738 23 31C23 30.449 23.449 30 24 30ZM10 28C12.202 28 14.271 27.143 15.828 25.586L16 25.414L16.172 25.586C17.729 27.143 19.798 28 22 28V28.78C21.391 29.329 21 30.117 21 31C21 32.877 22.304 34.444 24.05 34.874C24.167 35.949 24.499 36.961 25.001 37.866C24.73 37.953 24.448 38 24.162 38H22.905C23.008 37.823 23.121 37.654 23.21 37.468C23.45 36.97 23.241 36.373 22.743 36.133C22.247 35.895 21.648 36.102 21.408 36.6C20.414 38.666 18.291 40 16 40C12.691 40 10 37.309 10 34V28ZM16 43.586L14.203 41.789C14.782 41.923 15.381 42 16 42C16.62 42 17.226 41.909 17.817 41.769L16 43.586ZM8 30V32.731C7.403 32.385 7 31.739 7 31C7 30.449 7.449 30 8 30ZM5 35.16C5 34.593 5.164 34.048 5.469 33.589C5.548 33.472 5.605 33.344 5.678 33.224C6.226 34.04 7.069 34.633 8.05 34.874C8.173 36.004 8.537 37.06 9.082 38H7.84C6.274 38 5 36.726 5 35.16ZM12.525 45.62L11.27 42.483L11.803 42.217L14.312 44.726L12.525 45.62ZM17.688 44.726L20.197 42.217L20.73 42.483L19.956 44.417C19.686 44.757 19.439 45.115 19.22 45.492L17.688 44.726ZM25.553 41.105C25.536 41.114 25.525 41.129 25.509 41.139C24.984 41.227 24.476 41.358 23.988 41.532C23.508 41.363 23.013 41.235 22.506 41.15C22.485 41.137 22.471 41.117 22.448 41.106L20.871 40.317C21.006 40.214 21.14 40.112 21.268 40H24.162C24.881 40 25.578 39.829 26.223 39.519C26.5 39.809 26.8 40.077 27.118 40.323L25.553 41.105ZM27.27 42.483L27.803 42.217L30.312 44.726L28.525 45.62L27.27 42.483ZM32.965 56.621L32 57.586L31.035 56.621L31.59 49.959C31.726 49.975 31.86 50 32 50C32.14 50 32.274 49.975 32.41 49.959L32.965 56.621ZM32 48C31.292 48 30.701 47.506 30.544 46.846L32 46.118L33.456 46.846C33.299 47.506 32.708 48 32 48ZM35.475 45.62L33.688 44.726L36.197 42.217L36.73 42.483L35.475 45.62ZM36.882 40.323C38.557 39.027 39.708 37.087 39.95 34.873C41.696 34.444 43 32.877 43 31C43 30.171 42.662 29.42 42.116 28.876C42.46 28.804 42.793 28.702 43.111 28.567C42.93 28.94 42.983 29.397 43.293 29.707C43.684 30.098 44.316 30.098 44.707 29.707C44.869 29.546 45.131 29.546 45.293 29.707C45.488 29.902 45.744 30 46 30C46.256 30 46.512 29.902 46.707 29.707C47.098 29.316 47.098 28.684 46.707 28.293C46.129 27.715 45.328 27.495 44.578 27.627C44.964 27.28 45.308 26.881 45.583 26.427C46.812 27.153 48.117 27.726 49.469 28.149C49.411 28.197 49.348 28.238 49.294 28.292C48.903 28.683 48.903 29.315 49.294 29.706C49.685 30.097 50.317 30.097 50.708 29.706C50.87 29.545 51.132 29.545 51.294 29.706C51.488 29.902 51.744 30 52 30C52.256 30 52.512 29.902 52.707 29.707C52.932 29.482 53.012 29.18 52.978 28.887C53.318 28.924 53.658 28.955 54 28.973V34C54 37.309 51.309 40 48 40C45.631 40 43.478 38.601 42.514 36.435C42.29 35.931 41.698 35.702 41.194 35.928C40.689 36.152 40.462 36.743 40.687 37.248C41.216 38.437 42.024 39.439 43 40.223V41C41.975 41 40.97 41.184 40.002 41.528C39.517 41.357 39.013 41.227 38.492 41.14C38.475 41.13 38.465 41.115 38.448 41.106L36.882 40.323ZM43 43C43 43.136 43.039 43.264 43.091 43.386C42.953 43.258 42.81 43.135 42.664 43.016C42.776 43.011 42.887 43 43 43ZM48 44.75L45 42.5V41.396C45.939 41.777 46.95 42 48 42C49.061 42 50.073 41.788 51 41.411V42.5L48 44.75Z" fill="black"/>
<path d="M45 33C45.5523 33 46 32.5523 46 32C46 31.4477 45.5523 31 45 31C44.4477 31 44 31.4477 44 32C44 32.5523 44.4477 33 45 33Z" fill="black"/>
<path d="M51 33C51.5523 33 52 32.5523 52 32C52 31.4477 51.5523 31 51 31C50.4477 31 50 31.4477 50 32C50 32.5523 50.4477 33 51 33Z" fill="black"/>
<path d="M45.293 36.293C44.902 36.684 44.902 37.316 45.293 37.707C46.039 38.454 47.02 38.827 48 38.827C48.98 38.827 49.961 38.454 50.707 37.707C51.098 37.316 51.098 36.684 50.707 36.293C50.316 35.902 49.684 35.902 49.293 36.293C48.58 37.006 47.42 37.006 46.707 36.293C46.316 35.902 45.684 35.902 45.293 36.293Z" fill="black"/>
<path d="M47.293 35.207C47.488 35.402 47.744 35.5 48 35.5C48.256 35.5 48.512 35.402 48.707 35.207C49.094 34.82 49.098 34.194 48.717 33.803L48.895 33.448C49.142 32.954 48.942 32.353 48.448 32.106C47.952 31.858 47.353 32.06 47.106 32.553L46.606 33.553C46.414 33.938 46.489 34.403 46.794 34.707L47.293 35.207Z" fill="black"/>
<path d="M56 51C55.448 51 55 51.448 55 52V61C55 61.552 55.448 62 56 62C56.552 62 57 61.552 57 61V52C57 51.448 56.552 51 56 51Z" fill="black"/>
<path d="M7.662 42.666C7.372 42.196 6.757 42.048 6.287 42.338C3.603 43.989 2 46.853 2 50V61C2 61.552 2.448 62 3 62C3.552 62 4 61.552 4 61V50C4 47.553 5.247 45.326 7.334 44.041C7.805 43.752 7.952 43.136 7.662 42.666Z" fill="black"/>
<path d="M16 51C16.5523 51 17 50.5523 17 50C17 49.4477 16.5523 49 16 49C15.4477 49 15 49.4477 15 50C15 50.5523 15.4477 51 16 51Z" fill="black"/>
<path d="M16 55C16.5523 55 17 54.5523 17 54C17 53.4477 16.5523 53 16 53C15.4477 53 15 53.4477 15 54C15 54.5523 15.4477 55 16 55Z" fill="black"/>
<path d="M16 59C16.5523 59 17 58.5523 17 58C17 57.4477 16.5523 57 16 57C15.4477 57 15 57.4477 15 58C15 58.5523 15.4477 59 16 59Z" fill="black"/>
<path d="M13 33C13.5523 33 14 32.5523 14 32C14 31.4477 13.5523 31 13 31C12.4477 31 12 31.4477 12 32C12 32.5523 12.4477 33 13 33Z" fill="black"/>
<path d="M19 33C19.5523 33 20 32.5523 20 32C20 31.4477 19.5523 31 19 31C18.4477 31 18 31.4477 18 32C18 32.5523 18.4477 33 19 33Z" fill="black"/>
<path d="M17.293 36.293C16.58 37.006 15.42 37.006 14.707 36.293C14.316 35.902 13.684 35.902 13.293 36.293C12.902 36.684 12.902 37.316 13.293 37.707C14.039 38.454 15.02 38.827 16 38.827C16.98 38.827 17.961 38.454 18.707 37.707C19.098 37.316 19.098 36.684 18.707 36.293C18.316 35.902 17.684 35.902 17.293 36.293Z" fill="black"/>
<path d="M18.707 29.707C18.869 29.546 19.131 29.546 19.293 29.707C19.488 29.902 19.744 30 20 30C20.256 30 20.512 29.902 20.707 29.707C21.098 29.316 21.098 28.684 20.707 28.293C19.766 27.352 18.234 27.352 17.293 28.293C16.902 28.684 16.902 29.316 17.293 29.707C17.684 30.098 18.316 30.098 18.707 29.707Z" fill="black"/>
<path d="M12.707 29.707C12.869 29.546 13.131 29.546 13.293 29.707C13.488 29.902 13.744 30 14 30C14.256 30 14.512 29.902 14.707 29.707C15.098 29.316 15.098 28.684 14.707 28.293C13.766 27.352 12.234 27.352 11.293 28.293C10.902 28.684 10.902 29.316 11.293 29.707C11.684 30.098 12.316 30.098 12.707 29.707Z" fill="black"/>
<path d="M14.793 34.707L15.293 35.207C15.488 35.402 15.744 35.5 16 35.5C16.256 35.5 16.512 35.402 16.707 35.207C17.094 34.82 17.098 34.194 16.717 33.803L16.895 33.448C17.142 32.954 16.942 32.353 16.448 32.106C15.953 31.858 15.353 32.06 15.106 32.553L14.606 33.553C14.413 33.938 14.489 34.403 14.793 34.707Z" fill="black"/>
<path d="M8 51C7.448 51 7 51.448 7 52V61C7 61.552 7.448 62 8 62C8.552 62 9 61.552 9 61V52C9 51.448 8.552 51 8 51Z" fill="black"/>
<path d="M13 51H11C10.448 51 10 51.448 10 52C10 52.552 10.448 53 11 53H13C13.552 53 14 52.552 14 52C14 51.448 13.552 51 13 51Z" fill="black"/>
<path d="M29 33C29.5523 33 30 32.5523 30 32C30 31.4477 29.5523 31 29 31C28.4477 31 28 31.4477 28 32C28 32.5523 28.4477 33 29 33Z" fill="black"/>
<path d="M35 33C35.5523 33 36 32.5523 36 32C36 31.4477 35.5523 31 35 31C34.4477 31 34 31.4477 34 32C34 32.5523 34.4477 33 35 33Z" fill="black"/>
<path d="M33.293 36.293C32.58 37.006 31.42 37.006 30.707 36.293C30.316 35.902 29.684 35.902 29.293 36.293C28.902 36.684 28.902 37.316 29.293 37.707C30.039 38.454 31.02 38.827 32 38.827C32.98 38.827 33.961 38.454 34.707 37.707C35.098 37.316 35.098 36.684 34.707 36.293C34.316 35.902 33.684 35.902 33.293 36.293Z" fill="black"/>
<path d="M34.707 29.707C34.869 29.546 35.131 29.546 35.293 29.707C35.488 29.902 35.744 30 36 30C36.256 30 36.512 29.902 36.707 29.707C37.098 29.316 37.098 28.684 36.707 28.293C35.766 27.352 34.234 27.352 33.293 28.293C32.902 28.684 32.902 29.316 33.293 29.707C33.684 30.098 34.316 30.098 34.707 29.707Z" fill="black"/>
<path d="M28.707 29.707C28.869 29.546 29.131 29.546 29.293 29.707C29.488 29.902 29.744 30 30 30C30.256 30 30.512 29.902 30.707 29.707C31.098 29.316 31.098 28.684 30.707 28.293C29.766 27.352 28.234 27.352 27.293 28.293C26.902 28.684 26.902 29.316 27.293 29.707C27.684 30.098 28.316 30.098 28.707 29.707Z" fill="black"/>
<path d="M30.793 34.707L31.293 35.207C31.488 35.402 31.744 35.5 32 35.5C32.256 35.5 32.512 35.402 32.707 35.207C33.094 34.82 33.098 34.194 32.717 33.803L32.895 33.448C33.142 32.954 32.942 32.353 32.448 32.106C31.953 31.858 31.353 32.06 31.106 32.553L30.606 33.553C30.413 33.938 30.489 34.403 30.793 34.707Z" fill="black"/>
<path d="M40 51C39.448 51 39 51.448 39 52V61C39 61.552 39.448 62 40 62C40.552 62 41 61.552 41 61V52C41 51.448 40.552 51 40 51Z" fill="black"/>
<path d="M24 51C23.448 51 23 51.448 23 52V61C23 61.552 23.448 62 24 62C24.552 62 25 61.552 25 61V52C25 51.448 24.552 51 24 51Z" fill="black"/>
</svg>
