<svg width="64" height="64" viewBox="0 0 64 64" fill="none" xmlns="http://www.w3.org/2000/svg">
<path d="M61 52.3811H58V25.0001C57.9984 23.6745 57.4711 22.4036 56.5338 21.4663C55.5964 20.5289 54.3256 20.0016 53 20.0001H44.949C44.975 19.6691 45 19.3381 45 19.0001C45.0025 16.3014 44.1594 13.6698 42.589 11.4751C42.5146 11.364 42.4186 11.2691 42.3069 11.1958C42.1951 11.1225 42.0698 11.0723 41.9383 11.0483C41.8068 11.0242 41.6719 11.0268 41.5414 11.0558C41.4109 11.0848 41.2876 11.1397 41.1787 11.2171C41.0698 11.2946 40.9775 11.3932 40.9073 11.5069C40.8372 11.6207 40.7905 11.7473 40.7701 11.8794C40.7497 12.0115 40.756 12.1463 40.7886 12.276C40.8213 12.4056 40.8795 12.5273 40.96 12.6341C42.5652 14.8883 43.2648 17.6634 42.9202 20.4092C42.5755 23.155 41.2118 25.671 39.0993 27.4587C36.9868 29.2463 34.2798 30.1749 31.5148 30.0605C28.7498 29.946 26.1287 28.7969 24.1712 26.8408C22.2136 24.8848 21.0625 22.2646 20.9459 19.4997C20.8293 16.7348 21.7559 14.0271 23.5418 11.9132C25.3278 9.7993 27.8429 8.43362 30.5884 8.08687C33.3339 7.74012 36.1095 8.4376 38.365 10.0411C38.4718 10.1194 38.5932 10.1757 38.722 10.2067C38.8508 10.2378 38.9845 10.2429 39.1153 10.2218C39.2461 10.2008 39.3714 10.1539 39.4839 10.084C39.5964 10.0141 39.694 9.92252 39.7708 9.8146C39.8476 9.70669 39.9023 9.58458 39.9315 9.45537C39.9608 9.32616 39.9641 9.19242 39.9412 9.06193C39.9183 8.93144 39.8698 8.80679 39.7983 8.69523C39.7269 8.58366 39.634 8.48741 39.525 8.41206C37.2558 6.79708 34.5279 5.95359 31.7432 6.00583C28.9585 6.05807 26.2642 7.00328 24.0572 8.70223C21.8502 10.4012 20.2471 12.764 19.4842 15.4427C18.7214 18.1214 18.8389 20.9743 19.8196 23.5811C20.8004 26.1879 22.5924 28.4109 24.9317 29.9224C27.2711 31.434 30.034 32.1543 32.8136 31.9772C35.5931 31.8002 38.2424 30.7351 40.371 28.9388C42.4996 27.1426 43.995 24.7103 44.637 22.0001H53C53.7956 22.0001 54.5587 22.3161 55.1213 22.8787C55.6839 23.4413 56 24.2044 56 25.0001V52.3811H39C38.7348 52.3811 38.4804 52.4864 38.2929 52.674C38.1054 52.8615 38 53.1158 38 53.3811V55.0001H26V53.3811C26 53.1158 25.8946 52.8615 25.7071 52.674C25.5196 52.4864 25.2652 52.3811 25 52.3811H8V25.0001C8 24.2044 8.31607 23.4413 8.87868 22.8787C9.44129 22.3161 10.2044 22.0001 11 22.0001H16.18C16.4452 22.0001 16.6996 21.8947 16.8871 21.7072C17.0746 21.5196 17.18 21.2653 17.18 21.0001C17.18 20.7348 17.0746 20.4805 16.8871 20.293C16.6996 20.1054 16.4452 20.0001 16.18 20.0001H11C9.6744 20.0016 8.40356 20.5289 7.46622 21.4663C6.52888 22.4036 6.00159 23.6745 6 25.0001V52.3811H3C2.73478 52.3811 2.48043 52.4864 2.29289 52.674C2.10536 52.8615 2 53.1158 2 53.3811V55.2861C2.04095 57.1036 2.80069 58.8309 4.11278 60.0894C5.42486 61.3478 7.18228 62.0349 9 62.0001H40C40.2652 62.0001 40.5196 61.8947 40.7071 61.7072C40.8946 61.5196 41 61.2653 41 61.0001C41 60.7348 40.8946 60.4805 40.7071 60.2929C40.5196 60.1054 40.2652 60.0001 40 60.0001H9C7.71257 60.0353 6.4636 59.5591 5.5265 58.6756C4.5894 57.7921 4.04052 56.5733 4 55.2861V54.3811H24V56.0001C24 56.2653 24.1054 56.5196 24.2929 56.7072C24.4804 56.8947 24.7348 57.0001 25 57.0001H39C39.2652 57.0001 39.5196 56.8947 39.7071 56.7072C39.8946 56.5196 40 56.2653 40 56.0001V54.3811H60V55.2861C59.9595 56.5733 59.4106 57.7921 58.4735 58.6756C57.5364 59.5591 56.2874 60.0353 55 60.0001H44C43.7348 60.0001 43.4804 60.1054 43.2929 60.2929C43.1054 60.4805 43 60.7348 43 61.0001C43 61.2653 43.1054 61.5196 43.2929 61.7072C43.4804 61.8947 43.7348 62.0001 44 62.0001H55C56.8177 62.0349 58.5751 61.3478 59.8872 60.0894C61.1993 58.8309 61.9591 57.1036 62 55.2861V53.3811C62 53.1158 61.8946 52.8615 61.7071 52.674C61.5196 52.4864 61.2652 52.3811 61 52.3811Z" fill="black"/>
<path d="M52 57.1899C52.0094 56.9904 51.9588 56.7927 51.8548 56.6222C51.7508 56.4516 51.5981 56.3162 51.4164 56.2332C51.2347 56.1503 51.0323 56.1237 50.8353 56.1568C50.6383 56.1899 50.4558 56.2812 50.3112 56.419C50.1666 56.5568 50.0666 56.7348 50.0241 56.9299C49.9815 57.1251 49.9984 57.3285 50.0725 57.514C50.1466 57.6995 50.2745 57.8585 50.4399 57.9706C50.6052 58.0827 50.8003 58.1427 51 58.1429C51.259 58.1491 51.5098 58.0522 51.6973 57.8735C51.8848 57.6948 51.9937 57.4489 52 57.1899Z" fill="black"/>
<path d="M56 57.1899C56.0094 56.9904 55.9588 56.7927 55.8548 56.6222C55.7508 56.4516 55.5981 56.3162 55.4164 56.2332C55.2347 56.1503 55.0323 56.1237 54.8353 56.1568C54.6383 56.1899 54.4558 56.2812 54.3112 56.419C54.1666 56.5568 54.0666 56.7348 54.0241 56.9299C53.9815 57.1251 53.9984 57.3285 54.0725 57.514C54.1466 57.6995 54.2745 57.8585 54.4399 57.9706C54.6052 58.0827 54.8003 58.1427 55 58.1429C55.259 58.1491 55.5098 58.0522 55.6973 57.8735C55.8848 57.6948 55.9937 57.4489 56 57.1899Z" fill="black"/>
<path d="M7.99999 57.19C7.9904 57.3896 8.0408 57.5874 8.14469 57.7581C8.24859 57.9287 8.4012 58.0643 8.58288 58.1474C8.76455 58.2305 8.96695 58.2573 9.16399 58.2243C9.36102 58.1913 9.54366 58.1001 9.68835 57.9623C9.83305 57.8246 9.93316 57.6466 9.9758 57.4515C10.0184 57.2563 10.0016 57.0528 9.92757 56.8673C9.8535 56.6817 9.72555 56.5226 9.56023 56.4105C9.3949 56.2983 9.19977 56.2383 8.99999 56.238C8.74127 56.2321 8.49075 56.329 8.30331 56.5075C8.11588 56.6859 8.00681 56.9313 7.99999 57.19Z" fill="black"/>
<path d="M12 57.19C11.9904 57.3896 12.0408 57.5874 12.1447 57.7581C12.2486 57.9287 12.4012 58.0643 12.5829 58.1474C12.7646 58.2305 12.967 58.2573 13.164 58.2243C13.361 58.1913 13.5437 58.1001 13.6884 57.9623C13.833 57.8246 13.9332 57.6466 13.9758 57.4515C14.0184 57.2563 14.0016 57.0528 13.9276 56.8673C13.8535 56.6817 13.7256 56.5226 13.5602 56.4105C13.3949 56.2983 13.1998 56.2383 13 56.238C12.7413 56.2321 12.4907 56.329 12.3033 56.5075C12.1159 56.6859 12.0068 56.9313 12 57.19Z" fill="black"/>
<path d="M33.369 34.8C32.8354 35.2052 32.3728 35.6962 32 36.253C31.6272 35.6962 31.1646 35.2052 30.631 34.8C29.8958 34.2382 29.0399 33.8554 28.1311 33.6818C27.2222 33.5083 26.2855 33.5487 25.395 33.8L13.732 37.04C13.5221 37.0984 13.3369 37.2238 13.2048 37.397C13.0727 37.5703 13.0007 37.782 13 38V40.719L11.758 41.03C11.5416 41.0839 11.3494 41.2087 11.212 41.3845C11.0747 41.5603 11.0001 41.7769 11 42V46C11 46.2652 11.1054 46.5195 11.2929 46.7071C11.4804 46.8946 11.7348 47 12 47C12.0495 47.0003 12.099 46.9966 12.148 46.989L28.682 44.509L29.02 46.2C29.0661 46.4258 29.1888 46.6288 29.3674 46.7746C29.546 46.9204 29.7695 47 30 47H34C34.2305 47 34.454 46.9204 34.6326 46.7746C34.8112 46.6288 34.9339 46.4258 34.98 46.2L35.318 44.513L38.998 45.065C39.2603 45.1047 39.5277 45.0387 39.7413 44.8814C39.9549 44.724 40.0972 44.4883 40.137 44.226C40.1768 43.9637 40.1107 43.6963 39.9534 43.4827C39.7961 43.2691 39.5603 43.1268 39.298 43.087L34.676 42.394C34.4216 42.3533 34.1614 42.4133 33.9506 42.5614C33.7398 42.7095 33.595 42.9339 33.547 43.187L33.181 45H30.819L30.456 43.183C30.4057 42.9311 30.2604 42.7082 30.0502 42.5606C29.84 42.4129 29.581 42.3519 29.327 42.39L13 44.839V42.781L28.515 38.9C28.81 38.8262 29.1179 38.8207 29.4154 38.8839C29.7128 38.947 29.9919 39.0772 30.2315 39.2644C30.4711 39.4516 30.6649 39.691 30.798 39.9644C30.9312 40.2378 31.0003 40.5379 31 40.842C31 41.1072 31.1054 41.3615 31.2929 41.5491C31.4804 41.7366 31.7348 41.842 32 41.842C32.2652 41.842 32.5196 41.7366 32.7071 41.5491C32.8946 41.3615 33 41.1072 33 40.842C33 40.5381 33.0693 40.2382 33.2026 39.9651C33.3359 39.6919 33.5297 39.4528 33.7693 39.2658C34.0088 39.0788 34.2878 38.9488 34.5851 38.8858C34.8824 38.8227 35.1902 38.8283 35.485 38.902L51 42.781V44.839L43.255 43.677C43.1251 43.6573 42.9926 43.6633 42.8651 43.6948C42.7376 43.7264 42.6175 43.7827 42.5117 43.8606C42.406 43.9385 42.3166 44.0365 42.2487 44.1489C42.1808 44.2614 42.1357 44.3861 42.116 44.516C42.0963 44.6458 42.1024 44.7783 42.1339 44.9059C42.1654 45.0334 42.2217 45.1535 42.2996 45.2592C42.3775 45.365 42.4755 45.4544 42.5879 45.5223C42.7004 45.5902 42.8251 45.6353 42.955 45.655L51.849 46.989C51.9911 47.0114 52.1365 47.0024 52.2747 46.9625C52.4129 46.9225 52.5407 46.8527 52.649 46.758C52.7587 46.6644 52.8469 46.5482 52.9074 46.4174C52.968 46.2865 52.9996 46.1441 53 46V42C52.9999 41.7769 52.9253 41.5603 52.7879 41.3845C52.6506 41.2087 52.4584 41.0839 52.242 41.03L51 40.719V38C50.9999 37.7815 50.9283 37.5691 50.7961 37.3952C50.6639 37.2213 50.4784 37.0955 50.268 37.037L38.6 33.8C37.7102 33.5496 36.7745 33.5096 35.8666 33.6832C34.9587 33.8567 34.1037 34.2391 33.369 34.8ZM28.03 36.96L15 40.219V38.76L25.93 35.724C26.6674 35.5167 27.449 35.5269 28.1808 35.7532C28.9126 35.9796 29.5634 36.4125 30.055 37C29.3948 36.8115 28.697 36.7971 28.03 36.96ZM49 40.219L35.97 36.961C35.3031 36.798 34.6052 36.8115 33.945 37C34.4364 36.4122 35.0871 35.9789 35.8189 35.7521C36.5507 35.5254 37.3324 35.5149 38.07 35.722L49 38.76V40.219Z" fill="black"/>
<path d="M39.071 16.9291C39.2687 16.929 39.462 16.8703 39.6265 16.7605C39.7909 16.6506 39.919 16.4944 39.9947 16.3117C40.0703 16.129 40.0901 15.928 40.0516 15.734C40.013 15.5401 39.9178 15.3619 39.778 15.2221C37.7136 13.1622 34.9163 12.0054 32 12.0054C29.0837 12.0054 26.2864 13.1622 24.222 15.2221C24.0398 15.4107 23.939 15.6633 23.9413 15.9255C23.9436 16.1877 24.0488 16.4385 24.2342 16.6239C24.4196 16.8093 24.6704 16.9145 24.9326 16.9167C25.1948 16.919 25.4474 16.8182 25.636 16.6361C27.3251 14.9507 29.6138 14.0041 32 14.0041C34.3862 14.0041 36.6749 14.9507 38.364 16.6361C38.5515 16.8236 38.8058 16.929 39.071 16.9291Z" fill="black"/>
<path d="M36.242 19.757C36.4398 19.757 36.6331 19.6983 36.7975 19.5884C36.9619 19.4785 37.09 19.3224 37.1657 19.1397C37.2414 18.957 37.2612 18.7559 37.2226 18.562C37.184 18.368 37.0888 18.1899 36.949 18.05C36.299 17.3999 35.5273 16.8843 34.678 16.5324C33.8286 16.1806 32.9183 15.9995 31.999 15.9995C31.0797 15.9995 30.1694 16.1806 29.3201 16.5324C28.4707 16.8843 27.699 17.3999 27.049 18.05C26.8669 18.2386 26.7661 18.4912 26.7683 18.7534C26.7706 19.0156 26.8758 19.2664 27.0612 19.4518C27.2466 19.6372 27.4974 19.7424 27.7596 19.7447C28.0218 19.747 28.2744 19.6462 28.463 19.464C29.4007 18.5267 30.6722 18.0001 31.998 18.0001C33.3238 18.0001 34.5954 18.5267 35.533 19.464C35.6259 19.5574 35.7364 19.6314 35.8581 19.6817C35.9798 19.7321 36.1103 19.7576 36.242 19.757Z" fill="black"/>
<path d="M34.121 22.293C34.3084 22.1054 34.4138 21.8511 34.4138 21.586C34.4138 21.3208 34.3084 21.0665 34.121 20.879C33.5584 20.3166 32.7955 20.0006 32 20.0006C31.2045 20.0006 30.4416 20.3166 29.879 20.879C29.6968 21.0676 29.596 21.3202 29.5983 21.5824C29.6006 21.8446 29.7058 22.0954 29.8912 22.2808C30.0766 22.4662 30.3274 22.5714 30.5896 22.5736C30.8518 22.5759 31.1044 22.4751 31.293 22.293C31.4805 22.1055 31.7348 22.0002 32 22.0002C32.2651 22.0002 32.5195 22.1055 32.707 22.293C32.8945 22.4804 33.1488 22.5858 33.414 22.5858C33.6791 22.5858 33.9334 22.4804 34.121 22.293Z" fill="black"/>
<path d="M32 26C32.5523 26 33 25.5523 33 25C33 24.4477 32.5523 24 32 24C31.4477 24 31 24.4477 31 25C31 25.5523 31.4477 26 32 26Z" fill="black"/>
<path d="M50 33V28C50 27.7348 49.8946 27.4804 49.7071 27.2929C49.5196 27.1054 49.2652 27 49 27C48.7348 27 48.4804 27.1054 48.2929 27.2929C48.1054 27.4804 48 27.7348 48 28V33C48 33.2652 48.1054 33.5196 48.2929 33.7071C48.4804 33.8946 48.7348 34 49 34C49.2652 34 49.5196 33.8946 49.7071 33.7071C49.8946 33.5196 50 33.2652 50 33Z" fill="black"/>
<path d="M45 32V30C45 29.7348 44.8946 29.4804 44.7071 29.2929C44.5196 29.1054 44.2652 29 44 29C43.7348 29 43.4804 29.1054 43.2929 29.2929C43.1054 29.4804 43 29.7348 43 30V32C43 32.2652 43.1054 32.5196 43.2929 32.7071C43.4804 32.8946 43.7348 33 44 33C44.2652 33 44.5196 32.8946 44.7071 32.7071C44.8946 32.5196 45 32.2652 45 32Z" fill="black"/>
<path d="M14 34C14.2652 34 14.5196 33.8946 14.7071 33.7071C14.8946 33.5196 15 33.2652 15 33V28C15 27.7348 14.8946 27.4804 14.7071 27.2929C14.5196 27.1054 14.2652 27 14 27C13.7348 27 13.4804 27.1054 13.2929 27.2929C13.1054 27.4804 13 27.7348 13 28V33C13 33.2652 13.1054 33.5196 13.2929 33.7071C13.4804 33.8946 13.7348 34 14 34Z" fill="black"/>
<path d="M19 33C19.2652 33 19.5196 32.8946 19.7071 32.7071C19.8946 32.5196 20 32.2652 20 32V29C20 28.7348 19.8946 28.4804 19.7071 28.2929C19.5196 28.1054 19.2652 28 19 28C18.7348 28 18.4804 28.1054 18.2929 28.2929C18.1054 28.4804 18 28.7348 18 29V32C18 32.2652 18.1054 32.5196 18.2929 32.7071C18.4804 32.8946 18.7348 33 19 33Z" fill="black"/>
</svg>
