<svg width="64" height="64" viewBox="0 0 64 64" fill="none" xmlns="http://www.w3.org/2000/svg">
<path d="M48 13.5V14C48 14.552 48.448 15 49 15C49.552 15 50 14.552 50 14V13.5H50.5C51.052 13.5 51.5 13.052 51.5 12.5C51.5 11.948 51.052 11.5 50.5 11.5H50V11C50 10.448 49.552 10 49 10C48.448 10 48 10.448 48 11V11.5H47.5C46.948 11.5 46.5 11.948 46.5 12.5C46.5 13.052 46.948 13.5 47.5 13.5H48Z" fill="black"/>
<path d="M38.375 9.219L37.909 9.592C37.752 9.245 37.406 9 37 9H31C30.448 9 30 9.448 30 10V16C30 16.552 30.448 17 31 17H37C37.552 17 38 16.552 38 16V12.08L39.625 10.78C40.057 10.435 40.126 9.806 39.781 9.375C39.436 8.944 38.806 8.875 38.375 9.219ZM36 11V11.12L34.074 12.661L32.707 11.294C32.512 11.098 32.256 11 32 11H36ZM36 15H32V13.414L33.293 14.707C33.487 14.901 33.743 15 34 15C34.22 15 34.441 14.928 34.624 14.781L36 13.68V15Z" fill="black"/>
<path d="M46 32C46.5523 32 47 31.5523 47 31C47 30.4477 46.5523 30 46 30C45.4477 30 45 30.4477 45 31C45 31.5523 45.4477 32 46 32Z" fill="black"/>
<path d="M50 32C50.5523 32 51 31.5523 51 31C51 30.4477 50.5523 30 50 30C49.4477 30 49 30.4477 49 31C49 31.5523 49.4477 32 50 32Z" fill="black"/>
<path d="M48 53C48.5523 53 49 52.5523 49 52C49 51.4477 48.5523 51 48 51C47.4477 51 47 51.4477 47 52C47 52.5523 47.4477 53 48 53Z" fill="black"/>
<path d="M48 49C48.5523 49 49 48.5523 49 48C49 47.4477 48.5523 47 48 47C47.4477 47 47 47.4477 47 48C47 48.5523 47.4477 49 48 49Z" fill="black"/>
<path d="M61 58C61.552 58 62 57.552 62 57C62 56.448 61.552 56 61 56H49C49 55.448 48.552 55 48 55C47.448 55 47 55.448 47 56H38V53.177C38.772 52.454 39.163 51.385 38.927 50.343C38.789 49.729 38.46 49.18 38 48.768V46C38 44.34 38.822 42.877 40.071 41.967C39.511 43.416 39.457 45.005 39.921 46.498C39.402 47 39.074 47.656 39.011 48.382C38.941 49.18 39.187 49.958 39.702 50.572L40.988 52.104C41.186 52.339 41.469 52.461 41.755 52.461C41.982 52.461 42.21 52.384 42.398 52.227L43.164 51.584C43.587 51.229 43.642 50.598 43.287 50.175C42.931 49.752 42.302 49.696 41.878 50.052L41.235 49.286C41.064 49.081 40.982 48.822 41.005 48.556C41.028 48.29 41.153 48.049 41.358 47.877L42.125 47.234C42.329 47.063 42.588 46.977 42.854 47.004C43.12 47.027 43.361 47.152 43.533 47.357L44.176 48.124C43.753 48.479 43.698 49.109 44.053 49.533C44.409 49.956 45.04 50.011 45.462 49.656L46.228 49.013C46.651 48.658 46.706 48.027 46.351 47.604L45.065 46.072C44.55 45.458 43.827 45.081 43.028 45.011C42.555 44.969 42.094 45.051 41.665 45.222C41.493 44.146 41.681 43.036 42.222 42.063L42.802 41.02C42.868 41.017 42.932 41 43 41H44V42C44 42.334 44.167 42.646 44.445 42.832L47.445 44.832C47.613 44.944 47.807 45 48 45C48.193 45 48.387 44.944 48.555 44.832L51.555 42.832C51.833 42.646 52 42.334 52 42V41H53C53.07 41 53.136 41.018 53.206 41.021L53.478 42.415C53.732 43.719 53.367 45.052 52.508 46.05C51.088 46.286 50 47.514 50 49C50 50.654 51.346 52 53 52C54.654 52 56 50.654 56 49C56 47.956 55.463 47.037 54.651 46.499C55.45 45.174 55.744 43.587 55.44 42.032L55.36 41.619C56.923 42.466 58 44.101 58 46V53C58 53.552 58.448 54 59 54C59.552 54 60 53.552 60 53V46C60 44.689 59.631 43.465 59.001 42.414C59.644 41.464 60 40.38 60 39.236C60 37.619 59.618 36 58.895 34.553C58.309 33.382 58 32.072 58 30.764V29C58 26.694 57.121 24.594 55.689 23H56C58.757 23 61 20.757 61 18V7C61 4.243 58.757 2 56 2H54C53.448 2 53 2.448 53 3C53 3.552 53.448 4 54 4H56C57.654 4 59 5.346 59 7V18C59 19.654 57.654 21 56 21H54V15.782C54.903 14.361 55.207 12.69 54.855 11.042C54.33 8.586 52.338 6.611 49.898 6.128C47.977 5.746 46.026 6.23 44.54 7.452C43.105 8.631 42.26 10.352 42.203 12.199L41.072 15.028C40.923 15.4 41.01 15.824 41.293 16.107L42.385 17.199C43.054 18.435 44.197 19.352 45.53 19.758L45.433 20.146C44.534 20.305 43.682 20.595 42.896 21H37C36.551 21 36.157 21.299 36.037 21.732C35.573 23.398 35.779 25.13 36.557 26.606C34.255 26.03 32.454 24.168 31.981 21.804C31.887 21.336 31.477 21 31 21H30C28.346 21 27 19.654 27 18V7C27 5.346 28.346 4 30 4H50C50.552 4 51 3.552 51 3C51 2.448 50.552 2 50 2H30C28.359 2 26.912 2.806 26 4.031C25.088 2.806 23.641 2 22 2H13C12.448 2 12 2.448 12 3C12 3.552 12.448 4 13 4H22C23.654 4 25 5.346 25 7V14C25 15.654 23.654 17 22 17H15C14.666 17 14.354 17.167 14.168 17.445C13.216 18.873 12.894 20.577 13.201 22.192C11.859 21.261 11 19.71 11 18C11 17.448 10.552 17 10 17H7C5.346 17 4 15.654 4 14V7C4 5.346 5.346 4 7 4H9C9.552 4 10 3.552 10 3C10 2.448 9.552 2 9 2H7C4.243 2 2 4.243 2 7V14C2 16.757 4.243 19 7 19H9.071C9.363 21.039 10.55 22.818 12.265 23.93C9.732 25.274 8 27.938 8 31C8 33.583 9.236 35.877 11.141 37.341C11.496 39.162 12.549 40.715 14 41.731V42H13C9.448 42 6.512 44.662 6.065 48.094C3.755 48.534 2 50.563 2 53V61C2 61.552 2.448 62 3 62C3.552 62 4 61.552 4 61V53C4 51.346 5.346 50 7 50H17C18.654 50 20 51.346 20 53V61C20 61.552 20.448 62 21 62C21.552 62 22 61.552 22 61V53C22 50.243 19.757 48 17 48H8.101C8.566 45.721 10.585 44 13 44H14.142C14.589 45.72 16.142 47 18 47C19.858 47 21.411 45.72 21.858 44H23.934C25.993 44 27.815 45.235 28.579 47.147L30.085 50.924C30.281 51.416 30.825 51.669 31.33 51.502L33.033 50.934L33.736 52.808L30.318 53.948C29.843 54.103 29.324 53.883 29.107 53.447L26.896 49.025C26.688 48.61 26.226 48.393 25.771 48.499C25.319 48.606 25 49.009 25 49.473V61C25 61.552 25.448 62 26 62C26.552 62 27 61.552 27 61V58H61ZM53 50C52.449 50 52 49.551 52 49C52 48.449 52.449 48 53 48C53.551 48 54 48.449 54 49C54 49.551 53.551 50 53 50ZM34.932 50.302L35.683 50.051C35.956 49.961 36.243 49.989 36.493 50.13C36.742 50.27 36.913 50.503 36.977 50.784C37.086 51.268 36.74 51.806 36.205 51.985L35.634 52.175L35.157 50.903L34.932 50.302ZM48 38C45.243 38 43 35.757 43 33V28.924C44.637 28.675 46.122 27.82 47.161 26.517C48.821 27.911 50.843 28.754 53 28.954V33C53 35.757 50.757 38 48 38ZM50 41.465L48 42.798L46 41.465V39.705C46.634 39.895 47.305 40 48 40C48.695 40 49.366 39.895 50 39.705V41.465ZM44.095 16.153C44.047 16.057 43.984 15.969 43.907 15.893L43.173 15.159L44.128 12.771C44.175 12.653 44.2 12.527 44.2 12.399C44.2 11.077 44.786 9.837 45.809 8.997C46.847 8.144 48.161 7.824 49.509 8.089C51.176 8.419 52.538 9.774 52.898 11.459C53.227 13 52.69 14.181 52.182 14.9C52.064 15.07 52 15.272 52 15.479V20.526C51.06 20.191 50.053 20 49 20H47.531L47.726 19.22C47.797 18.934 47.739 18.631 47.567 18.392C47.395 18.153 47.126 18.002 46.832 17.98C45.662 17.891 44.613 17.191 44.095 16.153ZM37.821 23H40.311C39.532 23.868 38.921 24.884 38.523 26.005C37.959 25.118 37.701 24.062 37.821 23ZM18 41C16.257 41 14.709 40.079 13.813 38.689C14.51 38.887 15.241 39 16 39H20C20.759 39 21.49 38.887 22.187 38.689C21.291 40.079 19.743 41 18 41ZM18 45C16.897 45 16 44.103 16 43V42.703C16.636 42.894 17.307 43 18 43C18.693 43 19.364 42.894 20 42.703V43C20 44.103 19.103 45 18 45ZM30.436 46.406C29.368 43.729 26.815 42 23.934 42H22V41.73C23.45 40.714 24.504 39.162 24.859 37.34C26.764 35.877 28 33.583 28 31C28 29.969 27.802 28.959 27.413 27.998C27.205 27.486 26.624 27.24 26.111 27.447C25.599 27.655 25.352 28.238 25.56 28.749C25.852 29.471 26 30.228 26 31C26 34.309 23.309 37 20 37H16C12.691 37 10 34.309 10 31C10 27.691 12.691 25 16 25H20C21.226 25 22.407 25.371 23.417 26.071C23.872 26.386 24.494 26.275 24.809 25.82C25.124 25.366 25.012 24.743 24.558 24.428C23.211 23.494 21.636 23 20 23H16C15.861 23 15.726 23.014 15.588 23.021C14.934 21.758 14.924 20.265 15.57 19H22C23.13 19 24.162 18.609 25 17.974V18C25 20.757 27.243 23 30 23H30.223C31.149 26.01 33.745 28.261 36.908 28.71L38.007 28.868C38.006 28.912 38 28.955 38 29V30.764C38 32.073 37.691 33.383 37.105 34.553C36.448 35.867 36.08 37.277 36.011 38.745C35.985 39.297 36.411 39.765 36.963 39.791C37.514 39.814 37.983 39.391 38.009 38.839C38.065 37.652 38.363 36.511 38.894 35.448C39.618 34 40 32.381 40 30.764V29C40 25.14 43.14 22 47 22H49C52.86 22 56 25.14 56 29V30.764C56 32.382 56.382 34.001 57.105 35.448C57.69 36.618 58 37.928 58 39.237C58 39.776 57.871 40.294 57.645 40.778C56.408 39.676 54.783 39 53 39H52V38.736C53.811 37.469 55 35.372 55 33V28C55 27.448 54.552 27 54 27C51.688 27 49.514 26.1 47.878 24.464L47.707 24.293C47.495 24.081 47.203 23.974 46.901 24.005C46.603 24.034 46.334 24.196 46.168 24.445L45.832 24.949C44.976 26.233 43.543 27 42 27C41.448 27 41 27.448 41 28V33C41 35.373 42.189 37.47 44 38.736V39H43C39.14 39 36 42.14 36 46V48.018C35.681 48.018 35.361 48.052 35.051 48.154L33.314 48.733L31.592 49.307L30.436 46.406ZM27.316 54.342C27.972 55.653 29.542 56.314 30.948 55.846L35.352 54.378L36 54.162V56H27V53.708L27.316 54.342Z" fill="black"/>
<path d="M61 60H30C29.448 60 29 60.448 29 61C29 61.552 29.448 62 30 62H61C61.552 62 62 61.552 62 61C62 60.448 61.552 60 61 60Z" fill="black"/>
<path d="M6.43201 8.456C5.52901 10.128 6.09301 12.375 7.66301 13.363C8.13001 13.656 8.74701 13.516 9.04201 13.049C9.33601 12.582 9.19501 11.965 8.72801 11.67C8.04101 11.238 7.78501 10.159 8.19201 9.406C8.57101 8.703 9.51101 8.281 10.344 8.399C10.251 8.515 10.162 8.635 10.079 8.76C9.41401 9.759 9.21701 10.889 9.53701 11.861C9.96601 13.166 11.368 13.962 12.597 13.598C13.295 13.392 13.782 12.904 14.073 12.302C14.112 12.379 14.154 12.453 14.199 12.525C14.824 13.518 16.075 13.988 17.111 13.619C17.568 13.455 17.924 13.169 18.187 12.813C18.574 13.409 19.18 13.826 19.866 13.919C19.963 13.932 20.06 13.939 20.158 13.939C20.952 13.939 21.737 13.513 22.216 12.8C22.622 12.196 22.798 11.432 22.723 10.593C22.65 9.772 22.332 8.997 21.847 8.346C22.155 8.164 22.481 8.017 22.818 7.913C23.345 7.749 23.64 7.188 23.476 6.661C23.312 6.133 22.75 5.84 22.224 6.003C21.52 6.222 20.859 6.559 20.267 6.99C19.766 6.724 19.215 6.552 18.641 6.5C17.774 6.422 16.905 6.621 16.146 7.026C15.757 6.835 15.341 6.697 14.911 6.627C13.989 6.475 13.042 6.613 12.194 6.989C11.837 6.771 11.449 6.605 11.041 6.501C9.25901 6.048 7.27901 6.888 6.43201 8.456ZM20.056 10.201C20.145 10.033 20.246 9.87 20.356 9.714C20.562 10.036 20.696 10.398 20.729 10.77C20.762 11.143 20.7 11.468 20.554 11.685C20.436 11.861 20.243 11.953 20.131 11.938C19.988 11.918 19.795 11.699 19.752 11.435C19.684 11.016 19.879 10.533 20.056 10.201ZM18.458 8.491C18.552 8.5 18.646 8.515 18.739 8.536C18.589 8.747 18.451 8.967 18.327 9.195C18.209 8.956 18.07 8.727 17.911 8.511C18.093 8.482 18.277 8.477 18.458 8.491ZM15.81 10.319C15.887 10.044 16.02 9.786 16.195 9.554C16.469 9.887 16.663 10.279 16.735 10.69C16.814 11.144 16.668 11.652 16.436 11.736C16.295 11.782 16.024 11.672 15.891 11.46C15.718 11.186 15.688 10.76 15.81 10.319ZM14.434 8.58C14.299 8.785 14.181 9 14.082 9.226C13.994 9.008 13.889 8.797 13.77 8.596C13.991 8.563 14.215 8.558 14.434 8.58ZM11.744 9.868C11.821 9.751 11.908 9.641 12.001 9.538C12.186 9.829 12.319 10.158 12.379 10.503C12.47 11.018 12.297 11.601 12.029 11.68C11.858 11.734 11.529 11.521 11.435 11.236C11.313 10.863 11.431 10.338 11.744 9.868Z" fill="black"/>
</svg>
