<svg width="64" height="64" viewBox="0 0 64 64" fill="none" xmlns="http://www.w3.org/2000/svg">
<path d="M51.266 53.337C50.308 53.836 49.158 53.844 48.192 53.361C47.696 53.116 47.097 53.314 46.85 53.808C46.603 54.302 46.804 54.903 47.297 55.15C48.053 55.528 48.879 55.716 49.705 55.716C50.309 55.716 50.912 55.61 51.489 55.408V61C51.489 61.553 51.937 62 52.489 62C53.041 62 53.489 61.553 53.489 61V54.457C56.667 52.832 58.983 49.973 59.889 46.52C60.293 44.982 59.596 43.386 58.232 42.726C57.413 42.33 56.502 42.291 55.663 42.616C54.837 42.936 54.175 43.591 53.847 44.413L53.131 46.204C52.965 46.618 52.658 46.961 52.255 47.186H51.318C50.85 47.186 50.389 47.233 49.938 47.313C49.97 47.214 50 47.111 50 47V35.142C50.198 35.024 50.427 34.974 50.664 35.015C51.126 35.09 51.489 35.57 51.489 36.108V42.806C51.489 43.359 51.937 43.806 52.489 43.806C53.041 43.806 53.489 43.359 53.489 42.806V36.108C53.489 34.592 52.413 33.273 50.985 33.041C50.651 32.987 50.323 33.009 50.001 33.064V18C50.001 17.447 49.553 17 49.001 17C48.449 17 48.001 17.447 48.001 18V46H15C14.448 46 14 46.447 14 47C14 47.111 14.03 47.214 14.063 47.313C13.611 47.233 13.151 47.186 12.683 47.186H12.512V36.107C12.512 35.569 12.874 35.089 13.336 35.014C13.572 34.973 13.801 35.023 14 35.141V43C14 43.553 14.448 44 15 44C15.552 44 16 43.553 16 43V4H37V9C37 9.369 37.203 9.708 37.528 9.882C37.852 10.056 38.247 10.036 38.554 9.832L41 8.202L43.445 9.832C43.613 9.943 43.806 10 44 10C44.162 10 44.324 9.961 44.472 9.882C44.797 9.708 45 9.369 45 9V4H48V14C48 14.553 48.448 15 49 15C49.552 15 50 14.553 50 14V3C50 2.447 49.552 2 49 2H15C14.448 2 14 2.447 14 3V33.063C13.677 33.008 13.348 32.986 13.015 33.04C11.588 33.272 10.512 34.592 10.512 36.107V45.307L10.155 44.412C9.82597 43.59 9.16397 42.935 8.33897 42.615C7.49997 42.291 6.58697 42.33 5.76997 42.727C4.40597 43.387 3.70797 44.983 4.11197 46.521C5.01797 49.973 7.33397 52.833 10.512 54.458V61C10.512 61.553 10.96 62 11.512 62C12.064 62 12.512 61.553 12.512 61V55.408C13.089 55.61 13.692 55.717 14.296 55.717C15.121 55.717 15.947 55.529 16.703 55.151C17.197 54.904 17.397 54.303 17.15 53.809C16.903 53.315 16.304 53.117 15.808 53.362C14.841 53.845 13.691 53.836 12.733 53.337L11.92 52.917C8.99397 51.604 6.85297 49.088 6.04497 46.014C5.88597 45.408 6.14097 44.77 6.63997 44.529C6.95297 44.377 7.29997 44.361 7.61397 44.482C7.92497 44.603 8.17297 44.848 8.29597 45.157L9.01297 46.95C9.39597 47.906 10.138 48.67 11.103 49.101C11.233 49.159 11.372 49.182 11.511 49.181L12.682 49.188C14.24 49.188 15.703 49.794 16.804 50.895C16.999 51.09 17.255 51.188 17.511 51.188C17.767 51.188 18.023 51.09 18.218 50.895C18.609 50.504 18.609 49.872 18.218 49.481C17.605 48.867 16.904 48.376 16.148 48.002H35.487V49.502C35.487 51.329 36.091 53.141 37.187 54.603C38.025 55.72 38.487 57.105 38.487 58.502V61C38.487 61.553 38.935 62 39.487 62C40.039 62 40.487 61.553 40.487 61V58.5C40.487 57.604 40.338 56.713 40.061 55.864C40.316 55.893 40.573 55.909 40.832 55.909C41.561 55.909 42.299 55.792 43.013 55.554L44.06 55.204C44.584 55.029 44.867 54.463 44.692 53.939C44.516 53.415 43.949 53.131 43.427 53.307L42.38 53.656C41.165 54.06 39.864 53.975 38.806 53.429C38.799 53.42 38.794 53.409 38.787 53.399C37.949 52.282 37.487 50.897 37.487 49.5V48H47.85C47.094 48.374 46.394 48.866 45.78 49.479C45.389 49.87 45.389 50.502 45.78 50.893C46.171 51.284 46.804 51.284 47.194 50.893C48.295 49.792 49.758 49.186 51.316 49.186H52.487C52.628 49.186 52.767 49.157 52.895 49.099C53.86 48.667 54.603 47.904 54.986 46.947L55.702 45.155C55.825 44.846 56.074 44.601 56.384 44.48C56.698 44.358 57.044 44.375 57.358 44.527C57.856 44.768 58.111 45.407 57.952 46.012C57.145 49.086 55.004 51.602 52.077 52.915L51.266 53.337ZM43 4V7.132L41.555 6.168C41.387 6.056 41.193 6 41 6C40.807 6 40.613 6.056 40.445 6.168L39 7.132V4H43Z" fill="black"/>
<path d="M27.578 49.533C27.031 49.45 26.526 49.841 26.451 50.387C26.301 51.478 25.872 52.52 25.212 53.4C25.205 53.409 25.2 53.42 25.193 53.43C24.136 53.977 22.836 54.062 21.619 53.658L20.572 53.308C20.05 53.134 19.483 53.416 19.307 53.94C19.132 54.463 19.415 55.03 19.939 55.205L20.987 55.556C21.701 55.793 22.438 55.91 23.167 55.91C23.426 55.91 23.683 55.895 23.938 55.865C23.661 56.714 23.512 57.605 23.512 58.501V61C23.512 61.553 23.96 62 24.512 62C25.064 62 25.512 61.553 25.512 61V58.5C25.512 57.103 25.973 55.718 26.812 54.6C27.676 53.449 28.236 52.086 28.433 50.661C28.507 50.112 28.125 49.608 27.578 49.533Z" fill="black"/>
<path d="M30 23C30 23.553 30.448 24 31 24H33C33.552 24 34 23.553 34 23C34 22.447 33.552 22 33 22H31C30.448 22 30 22.447 30 23Z" fill="black"/>
<path d="M45 22H37C36.448 22 36 22.447 36 23C36 23.553 36.448 24 37 24H45C45.552 24 46 23.553 46 23C46 22.447 45.552 22 45 22Z" fill="black"/>
<path d="M34 26H27C26.448 26 26 26.447 26 27C26 27.553 26.448 28 27 28H34C34.552 28 35 27.553 35 27C35 26.447 34.552 26 34 26Z" fill="black"/>
<path d="M38 28H42C42.552 28 43 27.553 43 27C43 26.447 42.552 26 42 26H38C37.448 26 37 26.447 37 27C37 27.553 37.448 28 38 28Z" fill="black"/>
<path d="M34 38H27C26.448 38 26 38.447 26 39C26 39.553 26.448 40 27 40H34C34.552 40 35 39.553 35 39C35 38.447 34.552 38 34 38Z" fill="black"/>
<path d="M32 13C32 9.141 28.86 6 25 6C23.956 6 22.942 6.231 21.987 6.688C21.488 6.926 21.278 7.523 21.516 8.022C21.754 8.519 22.349 8.73 22.849 8.493C23.533 8.166 24.256 8 25 8C27.757 8 30 10.243 30 13C30 14.31 29.482 15.495 28.654 16.388C28.373 15.755 27.929 15.215 27.381 14.805C27.764 14.301 28 13.68 28 13C28 11.346 26.654 10 25 10C23.346 10 22 11.346 22 13C22 13.68 22.236 14.301 22.619 14.805C22.07 15.215 21.626 15.755 21.346 16.388C20.518 15.495 20 14.31 20 13C20 12.257 20.166 11.533 20.492 10.849C20.73 10.351 20.519 9.754 20.021 9.516C19.523 9.278 18.925 9.489 18.688 9.988C18.231 10.942 18 11.956 18 13C18 16.859 21.14 20 25 20C28.86 20 32 16.859 32 13ZM23.041 17.598C23.227 16.688 24.035 16 25 16C25.965 16 26.773 16.688 26.959 17.598C26.357 17.856 25.695 18 25 18C24.305 18 23.643 17.856 23.041 17.598ZM24 13C24 12.448 24.449 12 25 12C25.551 12 26 12.448 26 13C26 13.552 25.551 14 25 14C24.449 14 24 13.552 24 13Z" fill="black"/>
<path d="M45 12H37C36.448 12 36 12.447 36 13C36 13.553 36.448 14 37 14H45C45.552 14 46 13.553 46 13C46 12.447 45.552 12 45 12Z" fill="black"/>
<path d="M45 16H37C36.448 16 36 16.447 36 17C36 17.553 36.448 18 37 18H45C45.552 18 46 17.553 46 17C46 16.447 45.552 16 45 16Z" fill="black"/>
<path d="M34 30H27C26.448 30 26 30.447 26 31C26 31.553 26.448 32 27 32H34C34.552 32 35 31.553 35 31C35 30.447 34.552 30 34 30Z" fill="black"/>
<path d="M45 30H38C37.448 30 37 30.447 37 31C37 31.553 37.448 32 38 32H45C45.552 32 46 31.553 46 31C46 30.447 45.552 30 45 30Z" fill="black"/>
<path d="M34 34H27C26.448 34 26 34.447 26 35C26 35.553 26.448 36 27 36H34C34.552 36 35 35.553 35 35C35 34.447 34.552 34 34 34Z" fill="black"/>
<path d="M38 36H41C41.552 36 42 35.553 42 35C42 34.447 41.552 34 41 34H38C37.448 34 37 34.447 37 35C37 35.553 37.448 36 38 36Z" fill="black"/>
<path d="M24 23C24 22.447 23.552 22 23 22H19C18.448 22 18 22.447 18 23V27C18 27.553 18.448 28 19 28H23C23.552 28 24 27.553 24 27V23ZM22 26H20V24H22V26Z" fill="black"/>
<path d="M24 31C24 30.447 23.552 30 23 30H19C18.448 30 18 30.447 18 31V35C18 35.553 18.448 36 19 36H23C23.552 36 24 35.553 24 35V31ZM22 34H20V32H22V34Z" fill="black"/>
<path d="M23 38H19C18.448 38 18 38.447 18 39V43C18 43.553 18.448 44 19 44H23C23.552 44 24 43.553 24 43V39C24 38.447 23.552 38 23 38ZM22 42H20V40H22V42Z" fill="black"/>
<path d="M46 39C46 38.447 45.552 38 45 38H38C37.448 38 37 38.447 37 39C37 39.553 37.448 40 38 40H45C45.552 40 46 39.553 46 39Z" fill="black"/>
<path d="M34 42H27C26.448 42 26 42.447 26 43C26 43.553 26.448 44 27 44H34C34.552 44 35 43.553 35 43C35 42.447 34.552 42 34 42Z" fill="black"/>
<path d="M38 42C37.448 42 37 42.447 37 43C37 43.553 37.448 44 38 44H42C42.552 44 43 43.553 43 43C43 42.447 42.552 42 42 42H38Z" fill="black"/>
</svg>
