<svg width="64" height="64" viewBox="0 0 64 64" fill="none" xmlns="http://www.w3.org/2000/svg">
<path d="M61.5 19.134L58.036 17.134C57.806 17.002 57.531 16.967 57.277 17.034C57.021 17.102 56.802 17.27 56.67 17.5L54.67 20.964C54.191 20.688 53.58 20.852 53.304 21.33L50 27.052V11C50 10.447 49.553 10 49 10H24.918C24.704 8.854 24.046 7.829 23.055 7.168C22.395 6.728 22 5.991 22 5.197V3C22 2.447 21.553 2 21 2C20.447 2 20 2.447 20 3V5.197C20 6.661 20.728 8.019 21.945 8.832C22.372 9.117 22.672 9.532 22.842 10H14.901C14.96 9.565 15 9.124 15 8.676V8C15 7.447 14.553 7 14 7C13.447 7 13 7.447 13 8V8.676C13 12.028 10.863 14.991 7.684 16.052C7.275 16.188 7 16.569 7 17V19C7 20.86 5.724 22.429 4 22.873V17.657C4 14.276 5.316 11.097 7.707 8.707C7.895 8.52 8 8.266 8 8V3C8 2.447 7.553 2 7 2C6.447 2 6 2.447 6 3V7.594C3.417 10.325 2 13.882 2 17.657V24C2 24.553 2.447 25 3 25C4.093 25 5.116 24.701 6 24.188V29C6 31.206 7.794 33 10 33V57C10 57.553 10.447 58 11 58C11.553 58 12 57.553 12 57V19.352C12 18.799 11.553 18.352 11 18.352C10.447 18.352 10 18.799 10 19.352V31C8.897 31 8 30.103 8 29V22.31C8.631 21.36 9 20.223 9 19V17.692C11.558 16.623 13.478 14.531 14.395 12H48V30.516L37.304 49.043C37.227 49.178 37.181 49.328 37.172 49.483L36.838 55.043C36.457 55.019 36.047 55.058 35.602 55.2L35.29 55.306C34.977 55.415 34.652 55.522 34.464 55.494C34.23 55.45 34.007 55.064 33.997 54.684C33.981 54.115 34.267 53.485 34.543 52.874C34.744 52.43 34.595 51.905 34.19 51.633C33.788 51.361 33.243 51.419 32.907 51.774C32.204 52.514 31.377 53.287 30.587 53.258C30.294 53.243 30.025 53.11 29.8 52.91C30.608 52.04 31.3 51.059 31.85 49.993C32.611 48.517 32.417 47.099 31.371 46.467C30.673 46.043 29.715 46.119 28.991 46.661C28.455 47.063 28.14 47.615 27.904 48.102C27.185 49.581 26.945 50.947 27.189 52.162C27.214 52.288 27.246 52.412 27.282 52.533C26.461 53.22 25.545 53.79 24.571 54.21C24.064 54.429 23.831 55.017 24.05 55.524C24.269 56.031 24.856 56.264 25.364 56.045C26.431 55.585 27.427 54.985 28.329 54.271C28.922 54.848 29.679 55.213 30.483 55.255C31.047 55.285 31.548 55.166 32.013 54.968C32.128 56.067 32.847 57.223 34.096 57.458C34.247 57.486 34.397 57.498 34.54 57.498C35.072 57.498 35.549 57.332 35.948 57.193L36.214 57.102C36.581 56.986 36.776 57.018 36.791 57.021C37.095 57.325 37.542 57.385 37.911 57.216C38.054 57.195 38.194 57.154 38.319 57.072L43.918 53.376C44.048 53.29 44.155 53.176 44.233 53.041L48 46.517V60H11C10.447 60 10 60.447 10 61C10 61.553 10.447 62 11 62H49C49.553 62 50 61.553 50 61V43.052L51.737 40.043C52.013 39.564 51.849 38.953 51.371 38.677C50.893 38.401 50.281 38.565 50.005 39.043L43 51.177L39.536 49.177L52.535 26.661L56 28.66L52.005 35.579C51.729 36.058 51.893 36.669 52.371 36.945C52.848 37.219 53.461 37.058 53.737 36.579L57.732 29.66C58.686 30.212 59.014 31.437 58.463 32.392L56.192 36.327C55.916 36.806 56.08 37.417 56.558 37.693C56.715 37.784 56.887 37.827 57.057 37.827C57.403 37.827 57.739 37.647 57.924 37.327L60.195 33.392C61.297 31.482 60.64 29.031 58.731 27.927L60.231 25.329C60.364 25.1 60.399 24.826 60.331 24.57C60.263 24.314 60.095 24.095 59.865 23.963L61.865 20.499C62.143 20.021 61.979 19.41 61.5 19.134ZM29.701 48.977C29.833 48.706 29.994 48.409 30.187 48.263C30.236 48.227 30.29 48.206 30.305 48.18C30.325 48.322 30.281 48.67 30.071 49.077C29.808 49.587 29.502 50.077 29.159 50.542C29.248 50.06 29.429 49.537 29.701 48.977ZM57.902 19.366L59.633 20.366L58.133 22.964L56.401 21.964L57.902 19.366ZM39.071 51.218L41.465 52.6L38.886 54.303L39.071 51.218ZM53.536 24.929L54.536 23.197L58 25.197L57 26.929L53.536 24.929Z" fill="black"/>
<path d="M20 31C20 31.553 20.447 32 21 32H25C25.553 32 26 31.553 26 31C26 30.447 25.553 30 25 30H21C20.447 30 20 30.447 20 31Z" fill="black"/>
<path d="M40 30H29C28.447 30 28 30.447 28 31C28 31.553 28.447 32 29 32H40C40.553 32 41 31.553 41 31C41 30.447 40.553 30 40 30Z" fill="black"/>
<path d="M16 35C16 35.553 16.447 36 17 36H26C26.553 36 27 35.553 27 35C27 34.447 26.553 34 26 34H17C16.447 34 16 34.447 16 35Z" fill="black"/>
<path d="M40 34H30C29.447 34 29 34.447 29 35C29 35.553 29.447 36 30 36H40C40.553 36 41 35.553 41 35C41 34.447 40.553 34 40 34Z" fill="black"/>
<path d="M17 40H26C26.553 40 27 39.553 27 39C27 38.447 26.553 38 26 38H17C16.447 38 16 38.447 16 39C16 39.553 16.447 40 17 40Z" fill="black"/>
<path d="M17 44H26C26.553 44 27 43.553 27 43C27 42.447 26.553 42 26 42H17C16.447 42 16 42.447 16 43C16 43.553 16.447 44 17 44Z" fill="black"/>
<path d="M41 39C41 38.447 40.553 38 40 38H30C29.447 38 29 38.447 29 39C29 39.553 29.447 40 30 40H40C40.553 40 41 39.553 41 39Z" fill="black"/>
<path d="M30 42C29.447 42 29 42.447 29 43C29 43.553 29.447 44 30 44H37C37.553 44 38 43.553 38 43C38 42.447 37.553 42 37 42H30Z" fill="black"/>
<path d="M30 14C26.141 14 23 17.141 23 21C23 24.859 26.141 28 30 28C33.859 28 37 24.859 37 21C37 17.141 33.859 14 30 14ZM29 21C29 20.448 29.448 20 30 20C30.552 20 31 20.448 31 21C31 21.552 30.552 22 30 22C29.448 22 29 21.552 29 21ZM28.041 25.598C28.227 24.688 29.035 24 30 24C30.965 24 31.773 24.688 31.959 25.598C31.357 25.856 30.695 26 30 26C29.305 26 28.643 25.856 28.041 25.598ZM33.654 24.388C33.373 23.755 32.929 23.215 32.381 22.805C32.764 22.301 33 21.68 33 21C33 19.346 31.654 18 30 18C28.346 18 27 19.346 27 21C27 21.68 27.236 22.301 27.619 22.805C27.07 23.215 26.626 23.755 26.346 24.388C25.518 23.495 25 22.31 25 21C25 18.243 27.243 16 30 16C32.757 16 35 18.243 35 21C35 22.31 34.482 23.495 33.654 24.388Z" fill="black"/>
</svg>
