<svg width="64" height="64" viewBox="0 0 64 64" fill="none" xmlns="http://www.w3.org/2000/svg">
<path d="M41 58H11V20C11 19.447 10.552 19 10 19C9.448 19 9 19.447 9 20V59C9 59.553 9.448 60 10 60H41C41.552 60 42 59.553 42 59C42 58.447 41.552 58 41 58Z" fill="black"/>
<path d="M10 17C10.552 17 11 16.553 11 16V4H53V41.707C53 42.26 53.448 42.707 54 42.707C54.552 42.707 55 42.26 55 41.707V3C55 2.447 54.552 2 54 2H10C9.448 2 9 2.447 9 3V16C9 16.553 9.448 17 10 17Z" fill="black"/>
<path d="M32 8C33.769 8 35.484 8.517 36.959 9.494C37.419 9.798 38.04 9.673 38.345 9.212C38.65 8.752 38.524 8.132 38.064 7.826C36.26 6.632 34.163 6 32 6C25.935 6 21 10.935 21 17C21 23.065 25.935 28 32 28C38.065 28 43 23.065 43 17C43 14.836 42.369 12.739 41.174 10.936C40.868 10.476 40.248 10.349 39.788 10.655C39.328 10.961 39.202 11.581 39.507 12.042C40.483 13.515 41 15.23 41 17C41 19.156 40.237 21.135 38.968 22.687C38.816 20.771 37.322 19.245 35.42 19.043C35.78 18.443 36 17.749 36 17V13C36 10.794 34.206 9 32 9C29.794 9 28 10.794 28 13V17C28 17.749 28.22 18.443 28.579 19.043C26.678 19.245 25.183 20.771 25.031 22.687C23.763 21.135 23 19.156 23 17C23 12.037 27.038 8 32 8ZM34 17C34 18.103 33.103 19 32 19C30.897 19 30 18.103 30 17V15H34V17ZM31 20.858C31.322 20.942 31.653 21 32 21C32.347 21 32.678 20.942 33 20.858V21.586L32 22.586L31 21.586V20.858ZM32 11C33.103 11 34 11.897 34 13H30C30 11.897 30.897 11 32 11ZM29 21V22C29 22.266 29.105 22.52 29.293 22.707L31.293 24.707C31.488 24.902 31.744 25 32 25C32.256 25 32.512 24.902 32.707 24.707L34.707 22.707C34.895 22.52 35 22.266 35 22V21C36.103 21 37 21.897 37 23V24.478C35.569 25.438 33.849 26 32 26C30.151 26 28.431 25.438 27 24.478V23C27 21.897 27.897 21 29 21Z" fill="black"/>
<path d="M48 32C48.552 32 49 31.553 49 31C49 30.447 48.552 30 48 30H16C15.448 30 15 30.447 15 31V35C15 35.553 15.448 36 16 36H48C48.552 36 49 35.553 49 35C49 34.447 48.552 34 48 34H17V32H48Z" fill="black"/>
<path d="M51 44C48.83 44 46.836 44.772 45.28 46.056C45.19 46.029 45.099 46 45 46H34C33.448 46 33 46.447 33 47C33 47.553 33.448 48 34 48H43.522C43.109 48.616 42.778 49.289 42.525 50H34C33.448 50 33 50.447 33 51C33 51.553 33.448 52 34 52H42.059C42.022 52.329 42 52.662 42 53C42 57.963 46.038 62 51 62C55.962 62 60 57.963 60 53C60 48.037 55.962 44 51 44ZM51 60C47.14 60 44 56.859 44 53C44 49.141 47.14 46 51 46C54.86 46 58 49.141 58 53C58 56.859 54.86 60 51 60Z" fill="black"/>
<path d="M53.219 50.375L49.792 54.659L47.555 53.168C47.096 52.862 46.474 52.985 46.168 53.445C45.862 53.905 45.986 54.525 46.445 54.832L49.445 56.832C49.615 56.945 49.808 57 50 57C50.294 57 50.585 56.87 50.781 56.625L54.781 51.625C55.126 51.193 55.056 50.564 54.625 50.219C54.195 49.874 53.564 49.945 53.219 50.375Z" fill="black"/>
<path d="M30 38H23C22.448 38 22 38.447 22 39C22 39.553 22.448 40 23 40H30C30.552 40 31 39.553 31 39C31 38.447 30.552 38 30 38Z" fill="black"/>
<path d="M48 38H34C33.448 38 33 38.447 33 39C33 39.553 33.448 40 34 40H48C48.552 40 49 39.553 49 39C49 38.447 48.552 38 48 38Z" fill="black"/>
<path d="M30 42H16C15.448 42 15 42.447 15 43C15 43.553 15.448 44 16 44H30C30.552 44 31 43.553 31 43C31 42.447 30.552 42 30 42Z" fill="black"/>
<path d="M48 42H34C33.448 42 33 42.447 33 43C33 43.553 33.448 44 34 44H48C48.552 44 49 43.553 49 43C49 42.447 48.552 42 48 42Z" fill="black"/>
<path d="M30 46H16C15.448 46 15 46.447 15 47C15 47.553 15.448 48 16 48H30C30.552 48 31 47.553 31 47C31 46.447 30.552 46 30 46Z" fill="black"/>
<path d="M30 50H16C15.448 50 15 50.447 15 51C15 51.553 15.448 52 16 52H30C30.552 52 31 51.553 31 51C31 50.447 30.552 50 30 50Z" fill="black"/>
</svg>
