<svg width="64" height="64" viewBox="0 0 64 64" fill="none" xmlns="http://www.w3.org/2000/svg">
<path d="M30 39C30 38.448 29.553 38 29 38H4V4H12C12.553 4 13 3.552 13 3C13 2.448 12.553 2 12 2H3C2.447 2 2 2.448 2 3V39C2 39.552 2.447 40 3 40H29C29.553 40 30 39.552 30 39Z" fill="black"/>
<path d="M7 36C7.55228 36 8 35.5523 8 35C8 34.4477 7.55228 34 7 34C6.44772 34 6 34.4477 6 35C6 35.5523 6.44772 36 7 36Z" fill="black"/>
<path d="M11 36C11.5523 36 12 35.5523 12 35C12 34.4477 11.5523 34 11 34C10.4477 34 10 34.4477 10 35C10 35.5523 10.4477 36 11 36Z" fill="black"/>
<path d="M15 36C15.5523 36 16 35.5523 16 35C16 34.4477 15.5523 34 15 34C14.4477 34 14 34.4477 14 35C14 35.5523 14.4477 36 15 36Z" fill="black"/>
<path d="M29 36C29.553 36 30 35.552 30 35C30 34.448 29.553 34 29 34H22C21.447 34 21 34.448 21 35C21 35.552 21.447 36 22 36H29Z" fill="black"/>
<path d="M26 24C28.206 24 30 22.43 30 20.5C30 19.708 29.698 18.958 29.128 18.328C28.782 17.947 28.207 17.891 27.795 18.194C27.483 18.423 26.849 18.667 26 18.667C25.151 18.667 24.517 18.423 24.205 18.194C23.793 17.892 23.218 17.948 22.872 18.328C22.302 18.958 22 19.708 22 20.5C22 22.43 23.794 24 26 24ZM24.015 20.328C25.204 20.766 26.796 20.766 27.986 20.328C27.995 20.383 28 20.441 28 20.5C28 21.313 27.084 22 26 22C24.916 22 24 21.313 24 20.5C24 20.441 24.005 20.383 24.015 20.328Z" fill="black"/>
<path d="M56.018 38.532L55.91 38.245C55.182 36.304 53.3 35 51.228 35H50.975C53.412 33.175 55 30.273 55 27V26.899C57.279 26.434 59 24.415 59 22C59 20.346 57.654 19 56 19V17C56 15.668 55.709 14.374 55.136 13.154C54.9 12.654 54.305 12.438 53.805 12.675C53.305 12.91 53.091 13.506 53.326 14.006C53.773 14.957 54 15.964 54 17V18H52.657C49.276 18 46.097 16.684 43.707 14.293C43.479 14.066 43.163 13.963 42.84 14.013C42.523 14.065 42.249 14.265 42.106 14.553C41.043 16.679 38.905 18 36.528 18H36V15.5C36 13.57 37.57 12 39.5 12C39.977 12 40.452 12.101 40.916 12.299C41.293 12.462 41.731 12.376 42.021 12.082C43.347 10.739 45.114 10 47 10C48.47 10 49.88 10.454 51.077 11.312C51.527 11.634 52.15 11.53 52.473 11.083C52.795 10.634 52.692 10.009 52.244 9.687C51.547 9.188 50.79 8.811 50 8.531V3C50 2.448 49.553 2 49 2H16C15.447 2 15 2.448 15 3C15 3.552 15.447 4 16 4H48V8.077C47.669 8.041 47.338 8 47 8C44.793 8 42.711 8.788 41.07 10.231C40.556 10.078 40.029 10 39.5 10C37.779 10 36.241 10.796 35.231 12.039C34.139 12.034 33.107 12.356 32.288 12.999C31.564 13.56 30.796 14.016 30 14.369V8H41C41.553 8 42 7.552 42 7C42 6.448 41.553 6 41 6H7C6.447 6 6 6.448 6 7V31C6 31.552 6.447 32 7 32H36.353C37.034 33.172 37.945 34.191 39.025 35H38.279C36.007 35 34.038 36.554 33.462 38.727C30.254 40.104 28 43.293 28 47V61C28 61.552 28.447 62 29 62C29.553 62 30 61.552 30 61V47C30 44.567 31.249 42.423 33.138 41.168C33.164 41.532 33.224 41.893 33.329 42.243L34.3 45.48C33.394 45.77 32.673 46.456 32.365 47.364L31.747 49.191C31.557 49.754 31.537 50.356 31.691 50.929L32.051 52.278C32.291 53.17 33.102 53.759 33.984 53.759C34.155 53.759 34.328 53.737 34.501 53.691L35.468 53.432C36.001 53.289 36.318 52.741 36.175 52.207C36.032 51.674 35.486 51.357 34.95 51.5L33.983 51.759L33.623 50.41C33.571 50.219 33.578 50.019 33.642 49.831L34.26 48.004C34.367 47.686 34.625 47.444 34.948 47.358L36.745 46.877C37.068 46.793 37.412 46.87 37.663 47.091L39.112 48.365C39.261 48.496 39.367 48.666 39.419 48.857L39.779 50.204L38.813 50.463C38.28 50.606 37.963 51.154 38.106 51.688C38.249 52.222 38.798 52.54 39.331 52.395L40.297 52.136C40.813 51.998 41.244 51.667 41.512 51.204C41.78 50.741 41.85 50.202 41.711 49.687L41.351 48.339C41.197 47.765 40.879 47.255 40.433 46.863L38.984 45.589C38.23 44.925 37.2 44.683 36.229 44.945L35.246 41.667C35.109 41.209 35.086 40.72 35.174 40.249C35.757 40.092 36.367 40 37 40H38C38.74 40 39.424 39.785 40.019 39.433L44.293 43.707C44.488 43.902 44.744 44 45 44C45.256 44 45.512 43.902 45.707 43.707L49.981 39.433C50.576 39.785 51.26 40 52 40H53C53.513 40 54.012 40.059 54.494 40.164L55.294 42.299C55.655 43.262 55.503 44.329 54.886 45.153L54.091 46.213C53.752 46.079 53.386 46 53 46C51.346 46 50 47.346 50 49C50 50.654 51.346 52 53 52C54.654 52 56 50.654 56 49C56 48.464 55.847 47.969 55.601 47.533L56.487 46.353C57.515 44.98 57.769 43.203 57.168 41.598L57.059 41.308C58.836 42.578 60 44.654 60 47V61C60 61.552 60.447 62 61 62C61.553 62 62 61.552 62 61V47C62 43.097 59.498 39.776 56.018 38.532ZM53 50C52.448 50 52 49.551 52 49C52 48.449 52.448 48 53 48C53.552 48 54 48.449 54 49C54 49.551 53.552 50 53 50ZM57 22C57 23.304 56.164 24.416 55 24.829V22C55 21.449 55.448 21 56 21C56.552 21 57 21.449 57 22ZM35 22V24.829C33.836 24.416 33 23.304 33 22C33 21.449 33.448 21 34 21C34.552 21 35 21.449 35 22ZM26 15.23C25.326 15.23 24.658 15.151 24 15.012V14.079C24.651 14.294 25.324 14.412 26 14.412C26.676 14.412 27.349 14.294 28 14.079V15.012C27.342 15.151 26.674 15.23 26 15.23ZM28 11.919C26.74 12.563 25.26 12.563 24 11.919V10.579C24.651 10.794 25.324 10.912 26 10.912C26.676 10.912 27.349 10.794 28 10.579V11.919ZM28 8.419C26.74 9.063 25.26 9.063 24 8.419V8H28V8.419ZM8 8H22V14.37C21.206 14.018 20.441 13.564 19.721 13.007C19.038 12.465 18.212 12.126 17.332 12.027C16.778 11.964 16.287 12.36 16.226 12.908C16.164 13.457 16.559 13.952 17.108 14.014C17.623 14.072 18.084 14.261 18.488 14.581C20.728 16.314 23.326 17.23 26.001 17.23C28.676 17.23 31.273 16.314 33.52 14.576C33.714 14.423 33.931 14.312 34.158 14.221C34.058 14.632 34 15.059 34 15.5V19C32.346 19 31 20.346 31 22V22.004C30.878 22.253 30.773 22.516 30.696 22.812L30.384 24.151C30.234 25.026 29.518 25.767 28.644 25.951C27.665 26.157 26.988 25.705 26.669 25.418C26.29 25.076 25.715 25.074 25.334 25.413C25.015 25.697 24.327 26.143 23.362 25.949C22.502 25.78 21.786 25.057 21.621 24.193C21.613 24.153 21.603 24.115 21.592 24.076L21.093 22.51C20.533 20.73 18.83 19.54 16.823 19.54C15.953 19.56 15.137 19.165 14.596 18.484C14.059 17.809 13.873 16.96 14.07 16.109C14.14 15.819 14.263 15.54 14.434 15.279C14.737 14.817 14.608 14.197 14.146 13.894C13.686 13.592 13.065 13.72 12.762 14.182C12.465 14.634 12.252 15.121 12.123 15.646C11.789 17.096 12.12 18.584 13.031 19.729C13.363 20.146 13.756 20.497 14.192 20.777C14.077 21.135 14.016 21.508 14.006 21.889L13.115 23.003C11.426 22.915 10 24.307 10 26C10 26.853 10.372 27.662 11 28.225V30H8V8ZM15 27V30H13V27.723C13 27.367 12.811 27.038 12.503 26.859C12.188 26.675 12 26.354 12 26C12 25.449 12.448 25 13 25C13.072 25 13.157 25.014 13.267 25.045C13.656 25.155 14.066 25.019 14.317 24.706L14.689 24.241C15.046 24.766 15.533 25.187 16.092 25.494L15.293 26.293C15.105 26.48 15 26.735 15 27ZM18 24C16.897 24 16 23.103 16 22C16 21.821 16.032 21.647 16.078 21.478C16.324 21.515 16.572 21.54 16.827 21.54H16.848C17.969 21.54 18.885 22.154 19.186 23.114L19.31 23.502C18.949 23.818 18.484 24 18 24ZM17 30V27.414L18.441 25.973C18.977 25.913 19.491 25.74 19.955 25.477C20.506 26.709 21.627 27.645 22.972 27.91C24.023 28.123 25.091 27.936 25.995 27.397C26.652 27.793 27.397 28.001 28.164 28.001C28.459 28.001 28.757 27.97 29.055 27.908C30.515 27.6 31.703 26.525 32.175 25.182C32.889 26.038 33.866 26.668 34.999 26.899V27C34.999 28.045 35.162 29.052 35.46 30H17ZM37 27V19.987C39.514 19.846 41.783 18.584 43.224 16.563C45.862 18.788 49.167 20 52.657 20H53V27C53 31.411 49.411 35 45 35C40.589 35 37 31.411 37 27ZM38 38H37C36.66 38 36.326 38.023 35.996 38.06C36.552 37.408 37.377 37 38.279 37H39.722C39.375 37.595 38.737 38 38 38ZM45 41.586L41.433 38.019C41.7 37.567 41.876 37.062 41.947 36.519C42.911 36.829 43.935 37 45 37C46.065 37 47.089 36.829 48.053 36.52C48.124 37.062 48.3 37.568 48.567 38.02L45 41.586ZM52 38C51.263 38 50.625 37.595 50.278 37H51.227C52.1 37 52.911 37.391 53.472 38.024C53.315 38.016 53.159 38 53 38H52Z" fill="black"/>
<path d="M45 49C45.5523 49 46 48.5523 46 48C46 47.4477 45.5523 47 45 47C44.4477 47 44 47.4477 44 48C44 48.5523 44.4477 49 45 49Z" fill="black"/>
<path d="M45 53C45.5523 53 46 52.5523 46 52C46 51.4477 45.5523 51 45 51C44.4477 51 44 51.4477 44 52C44 52.5523 44.4477 53 45 53Z" fill="black"/>
<path d="M45 57C45.5523 57 46 56.5523 46 56C46 55.4477 45.5523 55 45 55C44.4477 55 44 55.4477 44 56C44 56.5523 44.4477 57 45 57Z" fill="black"/>
<path d="M47.293 29.672C46.029 30.936 43.971 30.936 42.707 29.672C42.316 29.281 41.684 29.281 41.293 29.672C40.902 30.063 40.902 30.696 41.293 31.086C42.315 32.108 43.657 32.619 45 32.619C46.343 32.619 47.685 32.108 48.707 31.086C49.098 30.696 49.098 30.063 48.707 29.672C48.316 29.281 47.684 29.281 47.293 29.672Z" fill="black"/>
<path d="M47.707 22.707C48.42 21.994 49.58 21.994 50.293 22.707C50.488 22.902 50.744 23 51 23C51.256 23 51.512 22.902 51.707 22.707C52.098 22.316 52.098 21.684 51.707 21.293C50.215 19.8 47.785 19.8 46.293 21.293C45.902 21.684 45.902 22.316 46.293 22.707C46.684 23.098 47.316 23.098 47.707 22.707Z" fill="black"/>
<path d="M49 25C49.5523 25 50 24.5523 50 24C50 23.4477 49.5523 23 49 23C48.4477 23 48 23.4477 48 24C48 24.5523 48.4477 25 49 25Z" fill="black"/>
<path d="M42.293 22.707C42.488 22.902 42.744 23 43 23C43.256 23 43.512 22.902 43.707 22.707C44.098 22.316 44.098 21.684 43.707 21.293C42.215 19.8 39.785 19.8 38.293 21.293C37.902 21.684 37.902 22.316 38.293 22.707C38.684 23.098 39.316 23.098 39.707 22.707C40.42 21.994 41.58 21.994 42.293 22.707Z" fill="black"/>
<path d="M41 25C41.5523 25 42 24.5523 42 24C42 23.4477 41.5523 23 41 23C40.4477 23 40 23.4477 40 24C40 24.5523 40.4477 25 41 25Z" fill="black"/>
<path d="M43.293 27.707L44.293 28.707C44.488 28.902 44.744 29 45 29C45.256 29 45.512 28.902 45.707 28.707C46.098 28.316 46.098 27.684 45.707 27.293L45.232 26.818L45.954 25.472C46.216 24.986 46.033 24.379 45.546 24.118C45.059 23.858 44.452 24.04 44.192 24.527L43.119 26.527C42.91 26.916 42.981 27.395 43.293 27.707Z" fill="black"/>
<path d="M22 49H19V46C19 45.448 18.553 45 18 45H14C13.447 45 13 45.448 13 46V49H10C9.447 49 9 49.448 9 50V54C9 54.552 9.447 55 10 55H13V58C13 58.552 13.447 59 14 59H18C18.553 59 19 58.552 19 58V55H22C22.553 55 23 54.552 23 54V50C23 49.448 22.553 49 22 49ZM21 53H18C17.447 53 17 53.448 17 54V57H15V54C15 53.448 14.553 53 14 53H11V51H14C14.553 51 15 50.552 15 50V47H17V50C17 50.552 17.447 51 18 51H21V53Z" fill="black"/>
</svg>
