<svg width="64" height="64" viewBox="0 0 64 64" fill="none" xmlns="http://www.w3.org/2000/svg">
<path d="M28 7H24C23.448 7 23 7.447 23 8V10H21C20.448 10 20 10.447 20 11V15C20 15.553 20.448 16 21 16H23V18C23 18.553 23.448 19 24 19H28C28.552 19 29 18.553 29 18V16H31C31.552 16 32 15.553 32 15V11C32 10.447 31.552 10 31 10H29V8C29 7.447 28.552 7 28 7ZM30 12V14H28C27.448 14 27 14.447 27 15V17H25V15C25 14.447 24.552 14 24 14H22V12H24C24.552 12 25 11.553 25 11V9H27V11C27 11.553 27.448 12 28 12H30Z" fill="black"/>
<path d="M5.825 46L12.533 56.536C12.72 56.829 13.041 56.999 13.377 56.999C13.463 56.999 13.55 56.988 13.636 56.965L54.327 46.061C54.373 46.049 54.407 46.018 54.449 46H61C61.553 46 62 45.553 62 45C62 44.447 61.553 44 61 44H41.477C43.358 41.999 46 38.561 46 35C46 31.141 42.859 28 39 28C37.027 28 35.245 28.824 33.971 30.142C33.979 30.094 34 30.05 34 30V26C34 25.447 33.553 25 33 25H17C16.448 25 16 25.447 16 26V30C16 30.553 16.448 31 17 31H33C33.11 31 33.212 30.97 33.311 30.937C32.674 31.827 32.243 32.87 32.08 34H19C18.448 34 18 34.447 18 35V45C18 45.553 18.448 46 19 46H46.827L25.509 51.713L24.694 48.671C24.551 48.137 24.005 47.817 23.469 47.964L15.741 50.034C15.485 50.102 15.266 50.27 15.134 50.5C15.002 50.729 14.966 51.003 15.034 51.259L15.849 54.301L13.826 54.843L8.197 46H15C15.552 46 16 45.553 16 45C16 44.447 15.552 44 15 44H14V19H16.792C18.758 22.006 22.148 24 26 24C29.852 24 33.242 22.006 35.208 19H38V25C38 25.553 38.447 26 39 26C39.553 26 40 25.553 40 25V18C40 17.447 39.553 17 39 17H36.236C36.723 15.758 37 14.412 37 13C37 6.935 32.065 2 26 2C23.837 2 21.74 2.632 19.936 3.826C19.476 4.132 19.35 4.752 19.655 5.212C19.96 5.673 20.579 5.798 21.041 5.494C22.516 4.517 24.231 4 26 4C30.962 4 35 8.037 35 13C35 17.963 30.962 22 26 22C21.038 22 17 17.963 17 13C17 11.23 17.517 9.515 18.493 8.041C18.798 7.58 18.672 6.96 18.212 6.654C17.75 6.35 17.13 6.477 16.826 6.936C15.631 8.739 15 10.836 15 13C15 14.412 15.277 15.758 15.764 17H13C12.448 17 12 17.447 12 18V30H5C4.448 30 4 30.447 4 31V44H3C2.448 44 2 44.447 2 45C2 45.553 2.448 46 3 46H5.825ZM18 27H20V29H18V27ZM22 27H24V29H22V27ZM26 27H28V29H26V27ZM32 29H30V27H32V29ZM39 30C41.757 30 44 32.243 44 35C44 38.548 40.479 42.253 39 43.652C37.521 42.253 34 38.548 34 35C34 32.243 36.243 30 39 30ZM36.523 44H34V40.809C34.809 42.065 35.73 43.157 36.523 44ZM20 44V36H25V44H20ZM27 44V36H32V44H27ZM17.225 51.707L23.021 50.154L23.577 52.23L17.781 53.783L17.225 51.707ZM6 36H8V38H6V36ZM6 40H9C9.552 40 10 39.553 10 39V35C10 34.447 9.552 34 9 34H6V32H12V44H6V40Z" fill="black"/>
<path d="M48.364 49.97C48.112 49.719 47.747 49.62 47.401 49.714L29.661 54.464C29.128 54.607 28.811 55.155 28.954 55.689C29.097 56.221 29.642 56.542 30.179 56.396L35.244 55.04L36.07 58.123C36.189 58.57 36.593 58.864 37.035 58.864C37.121 58.864 37.208 58.853 37.295 58.83L45.023 56.76C45.556 56.617 45.873 56.069 45.73 55.535L44.905 52.454L47.366 51.795L57.038 61.381C57.233 61.574 57.487 61.671 57.742 61.671C58 61.671 58.257 61.572 58.452 61.375C58.841 60.982 58.839 60.35 58.446 59.961L48.364 49.97ZM43.538 55.086L37.742 56.639L37.175 54.522L42.971 52.97L43.538 55.086Z" fill="black"/>
<path d="M25.801 55.504L8.89101 60.034C8.35701 60.177 8.04101 60.725 8.18401 61.259C8.30401 61.706 8.70801 62 9.14901 62C9.23401 62 9.32101 61.989 9.40801 61.966L26.318 57.436C26.852 57.293 27.168 56.745 27.025 56.211C26.883 55.677 26.333 55.359 25.801 55.504Z" fill="black"/>
<path d="M10.258 57.447C10.373 57.15 10.341 56.816 10.17 56.548L4.12401 47.052C3.82701 46.586 3.20901 46.449 2.74301 46.745C2.27701 47.042 2.14001 47.66 2.43601 48.126L7.75001 56.472L3.18301 57.696C2.65001 57.839 2.33301 58.387 2.47601 58.921C2.59601 59.368 2.99901 59.662 3.44101 59.662C3.52601 59.662 3.61301 59.651 3.70001 59.628L9.58401 58.052C9.89301 57.969 10.143 57.744 10.258 57.447Z" fill="black"/>
<path d="M54.851 50.054L60.851 48.446C61.384 48.303 61.702 47.755 61.558 47.221C61.414 46.687 60.867 46.371 60.333 46.514L52.749 48.547C52.412 48.637 52.146 48.897 52.049 49.231C51.95 49.566 52.033 49.927 52.268 50.186L59.973 58.667C60.17 58.884 60.442 58.994 60.713 58.994C60.953 58.994 61.193 58.908 61.386 58.734C61.794 58.363 61.824 57.73 61.453 57.321L54.851 50.054Z" fill="black"/>
<path d="M42 35C42 33.346 40.654 32 39 32C37.346 32 36 33.346 36 35C36 36.654 37.346 38 39 38C40.654 38 42 36.654 42 35ZM38 35C38 34.448 38.448 34 39 34C39.552 34 40 34.448 40 35C40 35.552 39.552 36 39 36C38.448 36 38 35.552 38 35Z" fill="black"/>
</svg>
