<svg width="430" height="270" viewBox="0 0 430 270" fill="none" xmlns="http://www.w3.org/2000/svg">
<g opacity="0.25" clip-path="url(#clip0_626_23)">
<path d="M38.0361 168.01C38.0361 168.002 38.0351 167.993 38.0351 167.985C38.0351 142.766 52.6511 121.025 73.8266 110.628C78.8413 96.7582 90.08 85.8755 104.207 81.4707C104.033 79.4024 103.882 77.3272 103.882 75.2141C103.882 34.2249 137.049 0.997231 177.96 0.997231C218.872 0.997231 252.039 34.2249 252.039 75.2141C252.039 81.1336 251.273 86.8627 249.966 92.3824C264.98 94.6182 278.008 102.842 286.58 114.586C294.793 110.536 303.999 108.199 313.772 108.199C347.865 108.199 375.503 135.89 375.503 170.047C375.503 173.163 375.199 176.201 374.755 179.192C377.658 178.607 380.659 178.293 383.735 178.293C408.737 178.293 429.005 198.599 429.005 223.648C429.005 248.696 408.737 269.003 383.734 269.003C359.741 269.003 75.8452 269.003 52.4381 269.003C24.0262 269.003 0.994354 245.928 0.994354 217.463C0.995331 194.013 16.6416 174.256 38.0361 168.01Z" fill="url(#paint0_linear_626_23)"/>
</g>
<defs>
<linearGradient id="paint0_linear_626_23" x1="436.602" y1="269.003" x2="-150.962" y2="269.003" gradientUnits="userSpaceOnUse">
<stop stop-color="#BBDEFB"/>
<stop offset="1" stop-color="#E0F7FA"/>
</linearGradient>
<clipPath id="clip0_626_23">
<rect width="430" height="270" fill="white" transform="matrix(-1 0 0 1 430 0)"/>
</clipPath>
</defs>
</svg>
