<svg width="60" height="60" viewBox="0 0 60 60" fill="none" xmlns="http://www.w3.org/2000/svg">
<rect x="3" y="3" width="54" height="54" rx="27" fill="white"/>
<path d="M30 2.39746C14.7803 2.39746 2.39795 14.7812 2.39795 30C2.39795 45.2188 14.7803 57.6025 30 57.6025C45.2197 57.6025 57.6021 45.2188 57.6021 30C57.6021 14.7812 45.2197 2.39746 30 2.39746ZM29.2002 9.4707C34.2598 9.4707 38.376 13.5879 38.376 18.6465C38.376 23.707 34.2598 27.8232 29.2002 27.8232C24.1396 27.8232 20.0239 23.707 20.0239 18.6465C20.0239 13.5879 24.1396 9.4707 29.2002 9.4707ZM46.7549 44.9922C46.7549 50.2617 32.7979 50.5283 30 50.5283C27.2021 50.5283 13.2451 50.2617 13.2451 44.9922V41.0225C13.2451 34.5518 18.5107 29.2852 24.9824 29.2852H35.0176C41.4893 29.2852 46.7549 34.5518 46.7549 41.0225V44.9922Z" fill="#2196F3"/>
</svg>
