<svg width="56" height="56" viewBox="0 0 56 56" fill="none" xmlns="http://www.w3.org/2000/svg">
<rect x="1" y="1" width="54" height="54" rx="27" fill="#E0E0E0"/>
<path d="M28 0.397461C12.7803 0.397461 0.397949 12.7812 0.397949 28C0.397949 43.2188 12.7803 55.6025 28 55.6025C43.2197 55.6025 55.6021 43.2188 55.6021 28C55.6021 12.7812 43.2197 0.397461 28 0.397461ZM27.2002 7.4707C32.2598 7.4707 36.376 11.5879 36.376 16.6465C36.376 21.707 32.2598 25.8232 27.2002 25.8232C22.1396 25.8232 18.0239 21.707 18.0239 16.6465C18.0239 11.5879 22.1396 7.4707 27.2002 7.4707ZM44.7549 42.9922C44.7549 48.2617 30.7979 48.5283 28 48.5283C25.2021 48.5283 11.2451 48.2617 11.2451 42.9922V39.0225C11.2451 32.5518 16.5107 27.2852 22.9824 27.2852H33.0176C39.4893 27.2852 44.7549 32.5518 44.7549 39.0225V42.9922Z" fill="white"/>
</svg>
