<svg width="70" height="70" viewBox="0 0 70 70" fill="none" xmlns="http://www.w3.org/2000/svg">
<path d="M68.7929 40.8336C69.4588 40.8336 69.9998 40.3107 69.9998 39.6669V36.2836C69.9998 34.2899 68.3209 32.667 66.2583 32.667C64.3284 32.667 62.7281 34.067 62.5364 35.9232L61.7098 43.9092C61.664 44.3571 61.3499 44.7435 60.9097 44.894L57.9458 45.9055C58.2378 45.0295 58.1931 44.081 57.7707 43.2446C57.2901 42.2915 56.4032 41.5962 55.3385 41.3394C53.6451 40.9311 51.9097 41.6998 51.1279 43.2118L47.8488 49.5503C43.7011 51.7872 41.0341 56.0565 41.0341 60.7543V61.8335C40.3681 61.8335 39.8271 62.3564 39.8271 63.0001V68.8334C39.8271 69.4771 40.3681 70 41.0341 70C41.7 70 42.241 69.4771 42.241 68.8334V64.1668H55.517V68.8334C55.517 69.4771 56.058 70 56.7239 70C57.3899 70 57.9308 69.4771 57.9308 68.8334V63.0001C57.9308 62.3564 57.3899 61.8335 56.7239 61.8335V59.0053C56.7239 57.6366 57.5569 56.3851 58.8458 55.8194L63.6324 53.7173C67.5005 52.0157 70 48.2642 70 44.1575C70 43.5137 69.459 42.9908 68.7931 42.9908C68.1271 42.9908 67.5862 43.5137 67.5862 44.1575C67.5862 47.3517 65.6416 50.271 62.6341 51.5929L57.8474 53.6965C55.6981 54.6386 54.3101 56.7235 54.3101 59.0052V61.8333H43.4479V60.7542C43.4479 56.3105 46.3601 52.3308 50.6953 50.8526L61.7144 47.0939C63.0323 46.6449 63.9735 45.4851 64.1126 44.1423L64.9391 36.1564C65.007 35.497 65.5744 35.0001 66.2586 35.0001C66.9898 35.0001 67.5862 35.5751 67.5862 36.2835V39.6668C67.5862 40.3105 68.1272 40.8334 68.7931 40.8334L68.7929 40.8336ZM53.2864 44.2544C53.5591 43.7273 54.1636 43.4601 54.7531 43.6023C55.1297 43.6934 55.4304 43.9288 55.6001 44.2663C55.7703 44.6033 55.7763 44.9767 55.6195 45.32L54.8673 46.9554L51.2514 48.1887L53.2864 44.2544Z" fill="#2196F3"/>
<path d="M31.3786 61.8335V60.7543C31.3786 56.0565 28.7115 51.7872 24.5633 49.5497L21.2842 43.2112C20.5019 41.6993 18.7712 40.9279 17.0719 41.3378C16.0072 41.5956 15.1214 42.2899 14.6397 43.243C14.2173 44.0805 14.1726 45.029 14.4646 45.9039L11.5007 44.8924C11.0616 44.743 10.7464 44.356 10.7006 43.9076L9.87406 35.9216C9.6844 34.067 8.08411 32.667 6.15415 32.667C4.09164 32.667 2.41272 34.2899 2.41272 36.2836V44.1576C2.41272 48.2654 4.9122 52.0174 8.78026 53.7173L13.5658 55.8195C14.8557 56.3851 15.6888 57.6356 15.6888 59.0054C15.6888 59.6492 16.2297 60.1721 16.8957 60.1721C17.5616 60.1721 18.1026 59.6492 18.1026 59.0054C18.1026 56.7237 16.7147 54.6399 14.5653 53.6951L9.77972 51.593C6.77112 50.2695 4.82655 47.3518 4.82655 44.1576V36.2836C4.82655 35.5753 5.42138 35.0003 6.15415 35.0003C6.83842 35.0003 7.40686 35.4972 7.47475 36.1555L8.30127 44.1414C8.44028 45.4841 9.38156 46.6441 10.6995 47.093L21.7186 50.8518C26.0527 52.331 28.9649 56.3116 28.9649 60.7544V61.8335H15.6888C15.0229 61.8335 14.4819 62.3564 14.4819 63.0002V68.8335C14.4819 69.4772 15.0229 70.0001 15.6888 70.0001C16.3548 70.0001 16.8957 69.4772 16.8957 68.8335V64.1668H30.1718V68.8335C30.1718 69.4772 30.7127 70.0001 31.3787 70.0001C32.0446 70.0001 32.5856 69.4772 32.5856 68.8335V63.0002C32.5856 62.3564 32.0446 61.8335 31.3787 61.8335L31.3786 61.8335ZM16.7922 45.3189C16.6354 44.9773 16.6413 44.6028 16.8116 44.2653C16.9818 43.9283 17.2825 43.6924 17.6585 43.6012C18.2502 43.4591 18.8536 43.7273 19.1263 44.2544L21.1614 48.1882L17.5443 46.9538L16.7922 45.3189Z" fill="#2196F3"/>
<path d="M14.4818 30.334C13.8159 30.334 13.2749 30.8569 13.2749 31.5006V38.5006C13.2749 39.1443 13.8159 39.6672 14.4818 39.6672H19.3095C19.9754 39.6672 20.5164 39.1443 20.5164 38.5006V31.5006C20.5164 30.8569 19.9754 30.334 19.3095 30.334H14.4818ZM18.1026 37.3339H15.6887V32.6673H18.1026V37.3339Z" fill="#2196F3"/>
<path d="M28.9647 28.0003C29.6307 28.0003 30.1717 27.4774 30.1717 26.8336C30.1717 26.1899 29.6307 25.667 28.9647 25.667H24.1371C23.4711 25.667 22.9302 26.1899 22.9302 26.8336V38.5002C22.9302 39.144 23.4711 39.6669 24.1371 39.6669H28.9647C29.6307 39.6669 30.1717 39.144 30.1717 38.5002V31.5003C30.1717 30.8565 29.6307 30.3336 28.9647 30.3336C28.2988 30.3336 27.7578 30.8565 27.7578 31.5003V37.3336H25.344V28.0003H28.9647Z" fill="#2196F3"/>
<path d="M39.8269 18.6667C39.8269 18.0229 39.286 17.5 38.62 17.5H33.7924C33.1264 17.5 32.5854 18.0229 32.5854 18.6667V38.4998C32.5854 39.1436 33.1264 39.6665 33.7924 39.6665H38.62C39.286 39.6665 39.8269 39.1436 39.8269 38.4998V18.6667ZM37.4131 37.3332H34.9993V19.8333H37.4131V37.3332Z" fill="#2196F3"/>
<path d="M43.4478 21C42.7818 21 42.2408 21.5229 42.2408 22.1667V38.4998C42.2408 39.1436 42.7818 39.6665 43.4478 39.6665H48.2754C48.9414 39.6665 49.4823 39.1436 49.4823 38.4998V22.1667C49.4823 21.5229 48.9414 21 48.2754 21H43.4478ZM47.0685 37.3332H44.6547V23.3333H47.0685V37.3332Z" fill="#2196F3"/>
<path d="M57.9307 18.6673C58.5966 18.6673 59.1376 18.1444 59.1376 17.5006C59.1376 16.8569 58.5966 16.334 57.9307 16.334H53.103C52.4371 16.334 51.8961 16.8569 51.8961 17.5006V38.5005C51.8961 39.1442 52.4371 39.6671 53.103 39.6671H57.9307C58.5966 39.6671 59.1376 39.1442 59.1376 38.5005V22.1673C59.1376 21.5235 58.5966 21.0006 57.9307 21.0006C57.2647 21.0006 56.7238 21.5235 56.7238 22.1673V37.3338H54.3099V18.6673H57.9307Z" fill="#2196F3"/>
<path d="M5.272 24.719L12.6536 28.9996C12.8454 29.1116 13.0599 29.1663 13.2749 29.1663C13.4898 29.1663 13.7043 29.1116 13.8966 28.9996L21.2782 24.719C23.8914 23.2034 25.6884 20.6732 26.3026 17.8379L36.2634 10.7437L45.2237 16.1572C45.6677 16.4254 46.2425 16.3859 46.6429 16.0583L61.552 3.86143V6.99994C61.552 7.64368 62.093 8.16659 62.759 8.16659C63.4249 8.16659 63.9659 7.64368 63.9659 6.99994V1.16666C63.9659 0.522915 63.4249 0 62.759 0H56.7244C56.0584 0 55.5175 0.522915 55.5175 1.16666C55.5175 1.8104 56.0584 2.33331 56.7244 2.33331H59.6835L45.755 13.7259L36.847 8.34366C36.4284 8.09054 35.8901 8.11033 35.4914 8.39366L26.5521 14.7603V6.99994C26.5521 6.3562 26.0111 5.83328 25.3452 5.83328C21.1113 5.83328 17.1673 4.0005 14.5228 0.805193L14.219 0.437489C13.7615 -0.116666 12.7911 -0.116666 12.3337 0.437489L12.0293 0.805193C9.38482 4.0005 5.44076 5.83328 1.20691 5.83328C0.540959 5.83328 0 6.3562 0 6.99994C0 7.64368 0.540959 8.16659 1.20691 8.16659C5.84767 8.16659 10.1926 6.29061 13.276 2.98904C16.0907 6.00261 19.9561 7.8286 24.1383 8.12339V15.7151C24.1383 18.5666 22.5671 21.251 20.0359 22.7171L13.276 26.6395L6.51512 22.7182C3.98488 21.251 2.41383 18.5677 2.41383 15.7161V11.6667C2.41383 11.023 1.87287 10.5 1.20691 10.5C0.540959 10.5 0 11.023 0 11.6667V15.7161C0 19.3828 2.02044 22.8327 5.27318 24.7191L5.272 24.719Z" fill="#2196F3"/>
<path d="M12.068 18.6671C12.3417 18.6671 12.6159 18.5775 12.8406 18.3963L20.0821 12.563C20.5939 12.15 20.6624 11.4151 20.2367 10.9204C19.8095 10.4245 19.0492 10.3579 18.5374 10.7709L12.143 15.9219L9.30182 13.1755C8.82982 12.7193 8.06689 12.7193 7.59545 13.1755C7.12346 13.6318 7.12346 14.3693 7.59545 14.825L11.2162 18.325C11.449 18.5515 11.7576 18.6671 12.068 18.6671Z" fill="#2196F3"/>
</svg>
