<svg width="20" height="20" viewBox="0 0 20 20" fill="none" xmlns="http://www.w3.org/2000/svg">
<g clip-path="url(#clip0_1005_677)">
<path d="M9.72922 19.5965C4.05352 11.3684 3 10.5239 3 7.5C3 3.35785 6.35785 0 10.5 0C14.6421 0 18 3.35785 18 7.5C18 10.5239 16.9465 11.3684 11.2708 19.5965C10.8983 20.1345 10.1016 20.1345 9.72922 19.5965ZM10.5 10.625C12.2259 10.625 13.625 9.2259 13.625 7.5C13.625 5.7741 12.2259 4.375 10.5 4.375C8.7741 4.375 7.375 5.7741 7.375 7.5C7.375 9.2259 8.7741 10.625 10.5 10.625Z" fill="#FF2267"/>
</g>
<defs>
<clipPath id="clip0_1005_677">
<rect width="20" height="20" fill="white"/>
</clipPath>
</defs>
</svg>
