<svg width="11" height="15" viewBox="0 0 11 15" fill="none" xmlns="http://www.w3.org/2000/svg">
<path fill-rule="evenodd" clip-rule="evenodd" d="M8.71931e-06 2V13C8.71931e-06 14.104 0.89598 15 2.00001 15H10.5C10.776 15 11 14.776 11 14.5V3.5C11 3.38895 10.9635 3.28605 10.9025 3.203C10.377 2.379 10.374 1.57152 10.913 0.782031C11.0174 0.629017 11.0285 0.430574 10.942 0.266517C10.8555 0.102566 10.6855 0 10.5 0H2C0.895971 0 8.71931e-06 0.895974 8.71931e-06 2ZM1.00001 3.73203V13C1.00001 13.552 1.44801 14 2.00001 14H10V4.00203L8.00001 4.00159V6.50013C8.00001 6.67368 7.9105 6.83416 7.76295 6.92559C7.61541 7.01655 7.43147 7.02458 7.27647 6.94713L6.50001 6.55918L5.72355 6.94713C5.56853 7.02458 5.38461 7.01666 5.23707 6.92559C5.08952 6.83407 5.00001 6.67358 5.00001 6.50013V4.00059L2.00001 4.00014C1.63607 4.00014 1.29456 3.90259 1.00001 3.73217L1.00001 3.73203ZM7.00001 4.00201V5.69095L6.72356 5.55301C6.58304 5.48247 6.41707 5.48247 6.27656 5.55301L6.00011 5.69095V4.00201H7.00011H7.00001ZM9.53549 1.50001C9.56596 1.33304 9.61195 1.16598 9.67445 1.00001H1.99987C1.44787 1.00001 0.999874 1.44801 0.999874 2.00001C0.999874 2.55201 1.44787 3.00001 1.99987 3.00001C1.99987 3.00001 9.68387 3.00202 9.68387 3.00146C9.62093 2.83394 9.57338 2.6664 9.54135 2.5H4.49992C4.22392 2.5 3.99992 2.27601 3.99992 2C3.99992 1.724 4.22392 1.5 4.49992 1.5L9.53549 1.50001Z" fill="#999999"/>
</svg>
