<svg width="14" height="14" viewBox="0 0 14 14" fill="none" xmlns="http://www.w3.org/2000/svg">
<g clip-path="url(#clip0_33_553)">
<path d="M8.35 8.35C7.25 9.485 7.17 10.9 7.075 14C9.965 14 11.96 13.99 12.99 12.99C13.99 11.96 14 9.87 14 7.075C10.9 7.175 9.485 7.25 8.35 8.35ZM0 7.075C0 9.87 0.00999999 11.96 1.01 12.99C2.04 13.99 4.035 14 6.925 14C6.825 10.9 6.75 9.485 5.65 8.35C4.515 7.25 3.1 7.17 0 7.075ZM6.925 0C4.04 0 2.04 0.00999999 1.01 1.01C0.00999999 2.04 0 4.13 0 6.925C3.1 6.825 4.515 6.75 5.65 5.65C6.75 4.515 6.83 3.1 6.925 0ZM8.35 5.65C7.25 4.515 7.17 3.1 7.075 0C9.965 0 11.96 0.00999999 12.99 1.01C13.99 2.04 14 4.13 14 6.925C10.9 6.825 9.485 6.75 8.35 5.65Z" fill="white"/>
</g>
<defs>
<clipPath id="clip0_33_553">
<rect width="14" height="14" fill="white"/>
</clipPath>
</defs>
</svg>
